G04 #@! TF.GenerationSoftware,KiCad,Pcbnew,9.0.0*
G04 #@! TF.CreationDate,2025-07-26T10:23:47-04:00*
G04 #@! TF.ProjectId,POVideo V2,504f5669-6465-46f2-9056-322e6b696361,rev?*
G04 #@! TF.SameCoordinates,Original*
G04 #@! TF.FileFunction,Soldermask,Top*
G04 #@! TF.FilePolarity,Negative*
%FSLAX46Y46*%
G04 Gerber Fmt 4.6, Leading zero omitted, Abs format (unit mm)*
G04 Created by KiCad (PCBNEW 9.0.0) date 2025-07-26 10:23:47*
%MOMM*%
%LPD*%
G01*
G04 APERTURE LIST*
G04 Aperture macros list*
%AMRoundRect*
0 Rectangle with rounded corners*
0 $1 Rounding radius*
0 $2 $3 $4 $5 $6 $7 $8 $9 X,Y pos of 4 corners*
0 Add a 4 corners polygon primitive as box body*
4,1,4,$2,$3,$4,$5,$6,$7,$8,$9,$2,$3,0*
0 Add four circle primitives for the rounded corners*
1,1,$1+$1,$2,$3*
1,1,$1+$1,$4,$5*
1,1,$1+$1,$6,$7*
1,1,$1+$1,$8,$9*
0 Add four rect primitives between the rounded corners*
20,1,$1+$1,$2,$3,$4,$5,0*
20,1,$1+$1,$4,$5,$6,$7,0*
20,1,$1+$1,$6,$7,$8,$9,0*
20,1,$1+$1,$8,$9,$2,$3,0*%
G04 Aperture macros list end*
%ADD10RoundRect,0.250000X-0.550000X1.050000X-0.550000X-1.050000X0.550000X-1.050000X0.550000X1.050000X0*%
%ADD11O,1.600000X2.600000*%
%ADD12RoundRect,0.135000X-0.135000X-0.185000X0.135000X-0.185000X0.135000X0.185000X-0.135000X0.185000X0*%
%ADD13RoundRect,0.210000X0.490000X-0.840000X0.490000X0.840000X-0.490000X0.840000X-0.490000X-0.840000X0*%
%ADD14RoundRect,0.450000X1.050000X1.050000X-1.050000X1.050000X-1.050000X-1.050000X1.050000X-1.050000X0*%
%ADD15RoundRect,0.300000X0.700000X0.700000X-0.700000X0.700000X-0.700000X-0.700000X0.700000X-0.700000X0*%
%ADD16RoundRect,0.140000X-0.140000X-0.170000X0.140000X-0.170000X0.140000X0.170000X-0.140000X0.170000X0*%
%ADD17RoundRect,0.225000X-0.225000X-0.375000X0.225000X-0.375000X0.225000X0.375000X-0.225000X0.375000X0*%
%ADD18RoundRect,0.135000X0.135000X0.185000X-0.135000X0.185000X-0.135000X-0.185000X0.135000X-0.185000X0*%
%ADD19R,1.700000X1.700000*%
%ADD20O,1.700000X1.700000*%
%ADD21C,2.100000*%
G04 APERTURE END LIST*
D10*
X155400000Y-78300000D03*
D11*
X157940000Y-78300000D03*
X160480000Y-78300000D03*
X163020000Y-78300000D03*
X165560000Y-78300000D03*
X168100000Y-78300000D03*
X170640000Y-78300000D03*
X173180000Y-78300000D03*
X175720000Y-78300000D03*
X178260000Y-78300000D03*
X180800000Y-78300000D03*
X183340000Y-78300000D03*
X185880000Y-78300000D03*
X188420000Y-78300000D03*
X190960000Y-78300000D03*
X193500000Y-78300000D03*
X193500000Y-98020000D03*
X190960000Y-98020000D03*
X188420000Y-98020000D03*
X185880000Y-98020000D03*
X183340000Y-98020000D03*
X180800000Y-98020000D03*
X178260000Y-98020000D03*
X175720000Y-98020000D03*
X173180000Y-98020000D03*
X170640000Y-98020000D03*
X168100000Y-98020000D03*
X165560000Y-98020000D03*
D12*
X196020000Y-82250000D03*
X195000000Y-82250000D03*
D13*
X183750000Y-120250000D03*
X183750000Y-129350000D03*
X188250000Y-120250000D03*
X188250000Y-129350000D03*
D14*
X182000000Y-112300000D03*
X190000000Y-112300000D03*
D15*
X183500000Y-105800000D03*
X186000000Y-105800000D03*
X188500000Y-105800000D03*
D12*
X189480000Y-82250000D03*
X190500000Y-82250000D03*
D16*
X197500000Y-82250000D03*
X198460000Y-82250000D03*
X192250000Y-82250000D03*
X193210000Y-82250000D03*
D17*
X178450000Y-90500000D03*
X181750000Y-90500000D03*
X193450000Y-86500000D03*
X196750000Y-86500000D03*
D13*
X177250000Y-116850000D03*
X177250000Y-107750000D03*
X172750000Y-116850000D03*
X172750000Y-107750000D03*
D17*
X170950000Y-94500000D03*
X174250000Y-94500000D03*
X170950000Y-82500000D03*
X174250000Y-82500000D03*
D13*
X177250000Y-129350000D03*
X177250000Y-120250000D03*
X172750000Y-129350000D03*
X172750000Y-120250000D03*
D17*
X193450000Y-90500000D03*
X196750000Y-90500000D03*
D13*
X166250000Y-116850000D03*
X166250000Y-107750000D03*
X161750000Y-116850000D03*
X161750000Y-107750000D03*
X188250000Y-141850000D03*
X188250000Y-132750000D03*
X183750000Y-141850000D03*
X183750000Y-132750000D03*
X155250000Y-129350000D03*
X155250000Y-120250000D03*
X150750000Y-129350000D03*
X150750000Y-120250000D03*
X177250000Y-154350000D03*
X177250000Y-145250000D03*
X172750000Y-154350000D03*
X172750000Y-145250000D03*
D17*
X185950000Y-94500000D03*
X189250000Y-94500000D03*
X170950000Y-86500000D03*
X174250000Y-86500000D03*
D13*
X155250000Y-154350000D03*
X155250000Y-145250000D03*
X150750000Y-154350000D03*
X150750000Y-145250000D03*
D18*
X155270000Y-63000000D03*
X154250000Y-63000000D03*
D13*
X166250000Y-129350000D03*
X166250000Y-120250000D03*
X161750000Y-129350000D03*
X161750000Y-120250000D03*
X155250000Y-116850000D03*
X155250000Y-107750000D03*
X150750000Y-116850000D03*
X150750000Y-107750000D03*
X155250000Y-141850000D03*
X155250000Y-132750000D03*
X150750000Y-141850000D03*
X150750000Y-132750000D03*
D15*
X199500000Y-105800000D03*
X197000000Y-105800000D03*
X194500000Y-105800000D03*
D14*
X201000000Y-112300000D03*
X193000000Y-112300000D03*
D13*
X199250000Y-141850000D03*
X199250000Y-132750000D03*
X194750000Y-141850000D03*
X194750000Y-132750000D03*
D17*
X163450000Y-94500000D03*
X166750000Y-94500000D03*
D13*
X188250000Y-154350000D03*
X188250000Y-145250000D03*
X183750000Y-154350000D03*
X183750000Y-145250000D03*
D19*
X164850000Y-57500000D03*
D20*
X167390000Y-57500000D03*
X169930000Y-57500000D03*
X172470000Y-57500000D03*
X175000000Y-57500000D03*
X177550000Y-57500000D03*
X180090000Y-57500000D03*
X182630000Y-57500000D03*
X185170000Y-57500000D03*
D17*
X178450000Y-82500000D03*
X181750000Y-82500000D03*
X185950000Y-86500000D03*
X189250000Y-86500000D03*
D13*
X177250000Y-141850000D03*
X177250000Y-132750000D03*
X172750000Y-141850000D03*
X172750000Y-132750000D03*
D17*
X185950000Y-90500000D03*
X189250000Y-90500000D03*
X170950000Y-90500000D03*
X174250000Y-90500000D03*
X178450000Y-94500000D03*
X181750000Y-94500000D03*
X163450000Y-86500000D03*
X166750000Y-86500000D03*
D18*
X158020000Y-63000000D03*
X157000000Y-63000000D03*
D17*
X163450000Y-82500000D03*
X166750000Y-82500000D03*
X193450000Y-94500000D03*
X196750000Y-94500000D03*
D13*
X166250000Y-141850000D03*
X166250000Y-132750000D03*
X161750000Y-141850000D03*
X161750000Y-132750000D03*
X199250000Y-129350000D03*
X199250000Y-120250000D03*
X194750000Y-129350000D03*
X194750000Y-120250000D03*
D17*
X163450000Y-90500000D03*
X166750000Y-90500000D03*
D13*
X166250000Y-154350000D03*
X166250000Y-145250000D03*
X161750000Y-154350000D03*
X161750000Y-145250000D03*
D17*
X178450000Y-86500000D03*
X181750000Y-86500000D03*
D21*
X149550000Y-97750000D03*
X149550000Y-100250000D03*
X149550000Y-102750000D03*
X199250000Y-63000000D03*
X199250000Y-65500000D03*
X204250000Y-68000000D03*
X199250000Y-70500000D03*
X199250000Y-73000000D03*
X150750000Y-73000000D03*
X150750000Y-70500000D03*
X145750000Y-68000000D03*
X150750000Y-65500000D03*
X150750000Y-63000000D03*
D13*
X199250000Y-154350000D03*
X199250000Y-145250000D03*
X194750000Y-154350000D03*
X194750000Y-145250000D03*
M02*
