M48
; DRILL file {KiCad 9.0.0} date 2025-07-26T10:24:43-0400
; FORMAT={-:-/ absolute / metric / decimal}
; #@! TF.CreationDate,2025-07-26T10:24:43-04:00
; #@! TF.GenerationSoftware,Kicad,Pcbnew,9.0.0
; #@! TF.FileFunction,Plated,1,2,PTH
FMAT,2
METRIC
; #@! TA.AperFunction,Plated,PTH,ViaDrill
T1C0.300
; #@! TA.AperFunction,Plated,PTH,ComponentDrill
T2C1.000
; #@! TA.AperFunction,Plated,PTH,ComponentDrill
T3C1.050
; #@! TA.AperFunction,Plated,PTH,ComponentDrill
T4C2.100
; #@! TA.AperFunction,Plated,PTH,ViaDrill
T5C2.500
%
G90
G05
T1
X149.75Y-83.0
X150.75Y-106.0
X151.25Y-81.5
X152.0Y-85.5
X152.0Y-120.25
X152.75Y-89.5
X152.75Y-132.75
X153.5Y-94.0
X153.5Y-145.25
X155.0Y-102.5
X156.0Y-106.0
X156.035Y-80.9
X156.75Y-84.75
X157.5Y-83.0
X157.5Y-88.75
X158.0Y-75.75
X158.25Y-93.0
X159.0Y-84.0
X159.0Y-120.25
X159.75Y-88.25
X159.75Y-132.75
X160.5Y-92.4
X160.5Y-145.25
X162.25Y-82.5
X162.25Y-86.5
X162.25Y-90.5
X162.25Y-94.5
X163.0Y-75.75
X169.5Y-120.25
X169.75Y-82.5
X169.75Y-86.5
X169.75Y-90.5
X169.75Y-94.5
X170.25Y-132.75
X171.0Y-145.25
X172.75Y-106.0
X173.25Y-100.25
X173.25Y-104.25
X177.25Y-82.5
X177.25Y-86.5
X177.25Y-90.5
X177.25Y-94.5
X178.25Y-71.0
X178.25Y-72.25
X178.5Y-118.5
X179.25Y-131.0
X179.5Y-80.25
X180.0Y-143.5
X183.75Y-118.25
X184.75Y-86.5
X184.75Y-90.5
X184.75Y-94.5
X185.0Y-107.5
X185.0Y-132.75
X185.75Y-145.25
X186.75Y-102.25
X190.0Y-71.0
X190.5Y-86.5
X190.5Y-90.5
X191.1Y-94.5
X192.25Y-81.0
X192.25Y-86.5
X192.25Y-90.5
X192.25Y-94.5
X195.0Y-85.0
X195.25Y-74.5
X195.75Y-107.25
X196.0Y-145.25
X196.75Y-96.25
X196.75Y-132.75
X197.5Y-120.25
X198.0Y-90.5
X198.25Y-101.75
X198.75Y-86.5
X199.5Y-85.0
X201.0Y-101.75
T2
X155.4Y-78.0
X157.94Y-78.0
X160.48Y-78.0
X163.02Y-78.0
X164.85Y-57.5
X165.56Y-78.0
X165.56Y-98.32
X167.39Y-57.5
X168.1Y-78.0
X168.1Y-98.32
X169.93Y-57.5
X170.64Y-78.0
X170.64Y-98.32
X172.47Y-57.5
X173.18Y-78.0
X173.18Y-98.32
X175.0Y-57.5
X175.72Y-78.0
X175.72Y-98.32
X177.55Y-57.5
X178.26Y-78.0
X178.26Y-98.32
X180.09Y-57.5
X180.8Y-78.0
X180.8Y-98.32
X182.63Y-57.5
X183.34Y-78.0
X183.34Y-98.32
X183.5Y-105.8
X185.17Y-57.5
X185.88Y-78.0
X185.88Y-98.32
X186.0Y-105.8
X188.42Y-78.0
X188.42Y-98.32
X188.5Y-105.8
X190.96Y-78.0
X190.96Y-98.32
X193.5Y-78.0
X193.5Y-98.32
X194.5Y-105.8
X197.0Y-105.8
X199.5Y-105.8
T3
X145.75Y-68.0
X149.55Y-97.75
X149.55Y-100.25
X149.55Y-102.75
X150.75Y-63.0
X150.75Y-65.5
X150.75Y-70.5
X150.75Y-73.0
X199.25Y-63.0
X199.25Y-65.5
X199.25Y-70.5
X199.25Y-73.0
X204.25Y-68.0
T4
X182.0Y-112.3
X190.0Y-112.3
X193.0Y-112.3
X201.0Y-112.3
T5
X145.75Y-57.5
X145.75Y-108.5
X204.25Y-57.5
X204.25Y-108.5
M30
