G04 #@! TF.GenerationSoftware,KiCad,Pcbnew,9.0.0*
G04 #@! TF.CreationDate,2025-07-26T10:23:47-04:00*
G04 #@! TF.ProjectId,POVideo V2,504f5669-6465-46f2-9056-322e6b696361,rev?*
G04 #@! TF.SameCoordinates,Original*
G04 #@! TF.FileFunction,Soldermask,Bot*
G04 #@! TF.FilePolarity,Negative*
%FSLAX46Y46*%
G04 Gerber Fmt 4.6, Leading zero omitted, Abs format (unit mm)*
G04 Created by KiCad (PCBNEW 9.0.0) date 2025-07-26 10:23:47*
%MOMM*%
%LPD*%
G01*
G04 APERTURE LIST*
G04 Aperture macros list*
%AMRoundRect*
0 Rectangle with rounded corners*
0 $1 Rounding radius*
0 $2 $3 $4 $5 $6 $7 $8 $9 X,Y pos of 4 corners*
0 Add a 4 corners polygon primitive as box body*
4,1,4,$2,$3,$4,$5,$6,$7,$8,$9,$2,$3,0*
0 Add four circle primitives for the rounded corners*
1,1,$1+$1,$2,$3*
1,1,$1+$1,$4,$5*
1,1,$1+$1,$6,$7*
1,1,$1+$1,$8,$9*
0 Add four rect primitives between the rounded corners*
20,1,$1+$1,$2,$3,$4,$5,0*
20,1,$1+$1,$4,$5,$6,$7,0*
20,1,$1+$1,$6,$7,$8,$9,0*
20,1,$1+$1,$8,$9,$2,$3,0*%
G04 Aperture macros list end*
%ADD10RoundRect,0.250000X-0.550000X1.050000X-0.550000X-1.050000X0.550000X-1.050000X0.550000X1.050000X0*%
%ADD11O,1.600000X2.600000*%
%ADD12RoundRect,0.450000X1.050000X1.050000X-1.050000X1.050000X-1.050000X-1.050000X1.050000X-1.050000X0*%
%ADD13RoundRect,0.300000X0.700000X0.700000X-0.700000X0.700000X-0.700000X-0.700000X0.700000X-0.700000X0*%
%ADD14R,1.700000X1.700000*%
%ADD15O,1.700000X1.700000*%
%ADD16C,2.100000*%
G04 APERTURE END LIST*
D10*
X155400000Y-78300000D03*
D11*
X157940000Y-78300000D03*
X160480000Y-78300000D03*
X163020000Y-78300000D03*
X165560000Y-78300000D03*
X168100000Y-78300000D03*
X170640000Y-78300000D03*
X173180000Y-78300000D03*
X175720000Y-78300000D03*
X178260000Y-78300000D03*
X180800000Y-78300000D03*
X183340000Y-78300000D03*
X185880000Y-78300000D03*
X188420000Y-78300000D03*
X190960000Y-78300000D03*
X193500000Y-78300000D03*
X193500000Y-98020000D03*
X190960000Y-98020000D03*
X188420000Y-98020000D03*
X185880000Y-98020000D03*
X183340000Y-98020000D03*
X180800000Y-98020000D03*
X178260000Y-98020000D03*
X175720000Y-98020000D03*
X173180000Y-98020000D03*
X170640000Y-98020000D03*
X168100000Y-98020000D03*
X165560000Y-98020000D03*
D12*
X182000000Y-112300000D03*
X190000000Y-112300000D03*
D13*
X183500000Y-105800000D03*
X186000000Y-105800000D03*
X188500000Y-105800000D03*
X199500000Y-105800000D03*
X197000000Y-105800000D03*
X194500000Y-105800000D03*
D12*
X201000000Y-112300000D03*
X193000000Y-112300000D03*
D14*
X164850000Y-57500000D03*
D15*
X167390000Y-57500000D03*
X169930000Y-57500000D03*
X172470000Y-57500000D03*
X175000000Y-57500000D03*
X177550000Y-57500000D03*
X180090000Y-57500000D03*
X182630000Y-57500000D03*
X185170000Y-57500000D03*
D16*
X149550000Y-97750000D03*
X149550000Y-100250000D03*
X149550000Y-102750000D03*
X199250000Y-63000000D03*
X199250000Y-65500000D03*
X204250000Y-68000000D03*
X199250000Y-70500000D03*
X199250000Y-73000000D03*
X150750000Y-73000000D03*
X150750000Y-70500000D03*
X145750000Y-68000000D03*
X150750000Y-65500000D03*
X150750000Y-63000000D03*
M02*
