%TF.GenerationSoftware,KiCad,Pcbnew,9.0.0*%
%TF.CreationDate,2025-07-26T10:24:43-04:00*%
%TF.ProjectId,POVideo V2,504f5669-6465-46f2-9056-322e6b696361,rev?*%
%TF.SameCoordinates,Original*%
%TF.FileFunction,Drillmap*%
%TF.FilePolarity,Positive*%
%FSLAX45Y45*%
G04 Gerber Fmt 4.5, Leading zero omitted, Abs format (unit mm)*
G04 Created by KiCad (PCBNEW 9.0.0) date 2025-07-26 10:24:43*
%MOMM*%
%LPD*%
G01*
G04 APERTURE LIST*
%ADD10C,0.100000*%
%ADD11C,0.200000*%
%ADD12C,0.105000*%
%ADD13C,0.210000*%
%ADD14C,0.250000*%
G04 APERTURE END LIST*
D10*
X18850000Y-4150000D02*
G75*
G02*
X18850000Y-4750000I0J-300000D01*
G01*
X16150000Y-4750000D02*
G75*
G02*
X16150000Y-4150000I0J300000D01*
G01*
X20500000Y-15800000D02*
G75*
G02*
X20300000Y-16000000I-200000J0D01*
G01*
X14325000Y-5750000D02*
G75*
G02*
X14575000Y-5500000I250000J0D01*
G01*
X14700000Y-16000000D02*
G75*
G02*
X14500000Y-15800000I0J200000D01*
G01*
X16450000Y-5500000D02*
X14575000Y-5500000D01*
X18550000Y-5500000D02*
X20425000Y-5500000D01*
X16150000Y-5300000D02*
G75*
G02*
X16150000Y-3600000I0J850000D01*
G01*
X18250000Y-5500000D02*
X16750000Y-5500000D01*
X18850000Y-3600000D02*
X16150000Y-3600000D01*
X18250000Y-5300000D02*
G75*
G02*
X18250000Y-5500000I0J-100000D01*
G01*
X18850000Y-3600000D02*
G75*
G02*
X18850000Y-5300000I0J-850000D01*
G01*
X16450000Y-5300000D02*
G75*
G02*
X16450000Y-5500000I0J-100000D01*
G01*
X14700000Y-16000000D02*
X20300000Y-16000000D01*
X18250000Y-5300000D02*
X16750000Y-5300000D01*
X20500000Y-11100000D02*
X20502975Y-11087529D01*
X16450000Y-5300000D02*
X16150000Y-5300000D01*
X20675000Y-5750000D02*
X20675000Y-10850000D01*
X16150000Y-4750000D02*
X18850000Y-4750000D01*
X18550000Y-5300000D02*
X18850000Y-5300000D01*
X14500000Y-11100000D02*
X14495943Y-11087171D01*
X17200000Y-4150000D02*
X16150000Y-4150000D01*
X16750000Y-5500000D02*
G75*
G02*
X16750000Y-5300000I0J100000D01*
G01*
X14500000Y-11250000D02*
X14500000Y-11100000D01*
X14325000Y-5750000D02*
X14325000Y-10850000D01*
X20425000Y-5500000D02*
G75*
G02*
X20675000Y-5750000I0J-250000D01*
G01*
X14500000Y-15800000D02*
X14500000Y-11250000D01*
X18550000Y-5500000D02*
G75*
G02*
X18550000Y-5300000I0J100000D01*
G01*
X17800000Y-4150000D02*
X18850000Y-4150000D01*
X20500000Y-11250000D02*
X20500000Y-11100000D01*
X14495943Y-11087171D02*
G75*
G02*
X14325000Y-10850000I79057J237171D01*
G01*
X17200000Y-4150000D02*
G75*
G02*
X17800000Y-4150000I300000J0D01*
G01*
X20500000Y-15800000D02*
X20500000Y-11250000D01*
X20675000Y-10850000D02*
G75*
G02*
X20502975Y-11087529I-250000J0D01*
G01*
D11*
D10*
X14960000Y-8285000D02*
X14990000Y-8315000D01*
X14990000Y-8285000D02*
X14960000Y-8315000D01*
X15060000Y-10585000D02*
X15090000Y-10615000D01*
X15090000Y-10585000D02*
X15060000Y-10615000D01*
X15110000Y-8135000D02*
X15140000Y-8165000D01*
X15140000Y-8135000D02*
X15110000Y-8165000D01*
X15185000Y-8535000D02*
X15215000Y-8565000D01*
X15215000Y-8535000D02*
X15185000Y-8565000D01*
X15185000Y-12010000D02*
X15215000Y-12040000D01*
X15215000Y-12010000D02*
X15185000Y-12040000D01*
X15260000Y-8935000D02*
X15290000Y-8965000D01*
X15290000Y-8935000D02*
X15260000Y-8965000D01*
X15260000Y-13260000D02*
X15290000Y-13290000D01*
X15290000Y-13260000D02*
X15260000Y-13290000D01*
X15335000Y-9385000D02*
X15365000Y-9415000D01*
X15365000Y-9385000D02*
X15335000Y-9415000D01*
X15335000Y-14510000D02*
X15365000Y-14540000D01*
X15365000Y-14510000D02*
X15335000Y-14540000D01*
X15485000Y-10235000D02*
X15515000Y-10265000D01*
X15515000Y-10235000D02*
X15485000Y-10265000D01*
X15585000Y-10585000D02*
X15615000Y-10615000D01*
X15615000Y-10585000D02*
X15585000Y-10615000D01*
X15588469Y-8075000D02*
X15618469Y-8105000D01*
X15618469Y-8075000D02*
X15588469Y-8105000D01*
X15660000Y-8460000D02*
X15690000Y-8490000D01*
X15690000Y-8460000D02*
X15660000Y-8490000D01*
X15735000Y-8285000D02*
X15765000Y-8315000D01*
X15765000Y-8285000D02*
X15735000Y-8315000D01*
X15735000Y-8860000D02*
X15765000Y-8890000D01*
X15765000Y-8860000D02*
X15735000Y-8890000D01*
X15785000Y-7560000D02*
X15815000Y-7590000D01*
X15815000Y-7560000D02*
X15785000Y-7590000D01*
X15810000Y-9285000D02*
X15840000Y-9315000D01*
X15840000Y-9285000D02*
X15810000Y-9315000D01*
X15885000Y-8385000D02*
X15915000Y-8415000D01*
X15915000Y-8385000D02*
X15885000Y-8415000D01*
X15885000Y-12010000D02*
X15915000Y-12040000D01*
X15915000Y-12010000D02*
X15885000Y-12040000D01*
X15960000Y-8810000D02*
X15990000Y-8840000D01*
X15990000Y-8810000D02*
X15960000Y-8840000D01*
X15960000Y-13260000D02*
X15990000Y-13290000D01*
X15990000Y-13260000D02*
X15960000Y-13290000D01*
X16035000Y-9225000D02*
X16065000Y-9255000D01*
X16065000Y-9225000D02*
X16035000Y-9255000D01*
X16035000Y-14510000D02*
X16065000Y-14540000D01*
X16065000Y-14510000D02*
X16035000Y-14540000D01*
X16210000Y-8235000D02*
X16240000Y-8265000D01*
X16240000Y-8235000D02*
X16210000Y-8265000D01*
X16210000Y-8635000D02*
X16240000Y-8665000D01*
X16240000Y-8635000D02*
X16210000Y-8665000D01*
X16210000Y-9035000D02*
X16240000Y-9065000D01*
X16240000Y-9035000D02*
X16210000Y-9065000D01*
X16210000Y-9435000D02*
X16240000Y-9465000D01*
X16240000Y-9435000D02*
X16210000Y-9465000D01*
X16285000Y-7560000D02*
X16315000Y-7590000D01*
X16315000Y-7560000D02*
X16285000Y-7590000D01*
X16935000Y-12010000D02*
X16965000Y-12040000D01*
X16965000Y-12010000D02*
X16935000Y-12040000D01*
X16960000Y-8235000D02*
X16990000Y-8265000D01*
X16990000Y-8235000D02*
X16960000Y-8265000D01*
X16960000Y-8635000D02*
X16990000Y-8665000D01*
X16990000Y-8635000D02*
X16960000Y-8665000D01*
X16960000Y-9035000D02*
X16990000Y-9065000D01*
X16990000Y-9035000D02*
X16960000Y-9065000D01*
X16960000Y-9435000D02*
X16990000Y-9465000D01*
X16990000Y-9435000D02*
X16960000Y-9465000D01*
X17010000Y-13260000D02*
X17040000Y-13290000D01*
X17040000Y-13260000D02*
X17010000Y-13290000D01*
X17085000Y-14510000D02*
X17115000Y-14540000D01*
X17115000Y-14510000D02*
X17085000Y-14540000D01*
X17260000Y-10585000D02*
X17290000Y-10615000D01*
X17290000Y-10585000D02*
X17260000Y-10615000D01*
X17310000Y-10010000D02*
X17340000Y-10040000D01*
X17340000Y-10010000D02*
X17310000Y-10040000D01*
X17310000Y-10410000D02*
X17340000Y-10440000D01*
X17340000Y-10410000D02*
X17310000Y-10440000D01*
X17710000Y-8235000D02*
X17740000Y-8265000D01*
X17740000Y-8235000D02*
X17710000Y-8265000D01*
X17710000Y-8635000D02*
X17740000Y-8665000D01*
X17740000Y-8635000D02*
X17710000Y-8665000D01*
X17710000Y-9035000D02*
X17740000Y-9065000D01*
X17740000Y-9035000D02*
X17710000Y-9065000D01*
X17710000Y-9435000D02*
X17740000Y-9465000D01*
X17740000Y-9435000D02*
X17710000Y-9465000D01*
X17810000Y-7085000D02*
X17840000Y-7115000D01*
X17840000Y-7085000D02*
X17810000Y-7115000D01*
X17810000Y-7210000D02*
X17840000Y-7240000D01*
X17840000Y-7210000D02*
X17810000Y-7240000D01*
X17835000Y-11835000D02*
X17865000Y-11865000D01*
X17865000Y-11835000D02*
X17835000Y-11865000D01*
X17910000Y-13085000D02*
X17940000Y-13115000D01*
X17940000Y-13085000D02*
X17910000Y-13115000D01*
X17935000Y-8010000D02*
X17965000Y-8040000D01*
X17965000Y-8010000D02*
X17935000Y-8040000D01*
X17985000Y-14335000D02*
X18015000Y-14365000D01*
X18015000Y-14335000D02*
X17985000Y-14365000D01*
X18360000Y-11810000D02*
X18390000Y-11840000D01*
X18390000Y-11810000D02*
X18360000Y-11840000D01*
X18460000Y-8635000D02*
X18490000Y-8665000D01*
X18490000Y-8635000D02*
X18460000Y-8665000D01*
X18460000Y-9035000D02*
X18490000Y-9065000D01*
X18490000Y-9035000D02*
X18460000Y-9065000D01*
X18460000Y-9435000D02*
X18490000Y-9465000D01*
X18490000Y-9435000D02*
X18460000Y-9465000D01*
X18485000Y-10735000D02*
X18515000Y-10765000D01*
X18515000Y-10735000D02*
X18485000Y-10765000D01*
X18485000Y-13260000D02*
X18515000Y-13290000D01*
X18515000Y-13260000D02*
X18485000Y-13290000D01*
X18560000Y-14510000D02*
X18590000Y-14540000D01*
X18590000Y-14510000D02*
X18560000Y-14540000D01*
X18660000Y-10210000D02*
X18690000Y-10240000D01*
X18690000Y-10210000D02*
X18660000Y-10240000D01*
X18985000Y-7085000D02*
X19015000Y-7115000D01*
X19015000Y-7085000D02*
X18985000Y-7115000D01*
X19035000Y-8635000D02*
X19065000Y-8665000D01*
X19065000Y-8635000D02*
X19035000Y-8665000D01*
X19035000Y-9035000D02*
X19065000Y-9065000D01*
X19065000Y-9035000D02*
X19035000Y-9065000D01*
X19095000Y-9435000D02*
X19125000Y-9465000D01*
X19125000Y-9435000D02*
X19095000Y-9465000D01*
X19210000Y-8085000D02*
X19240000Y-8115000D01*
X19240000Y-8085000D02*
X19210000Y-8115000D01*
X19210000Y-8635000D02*
X19240000Y-8665000D01*
X19240000Y-8635000D02*
X19210000Y-8665000D01*
X19210000Y-9035000D02*
X19240000Y-9065000D01*
X19240000Y-9035000D02*
X19210000Y-9065000D01*
X19210000Y-9435000D02*
X19240000Y-9465000D01*
X19240000Y-9435000D02*
X19210000Y-9465000D01*
X19485000Y-8485000D02*
X19515000Y-8515000D01*
X19515000Y-8485000D02*
X19485000Y-8515000D01*
X19510000Y-7435000D02*
X19540000Y-7465000D01*
X19540000Y-7435000D02*
X19510000Y-7465000D01*
X19560000Y-10710000D02*
X19590000Y-10740000D01*
X19590000Y-10710000D02*
X19560000Y-10740000D01*
X19585000Y-14510000D02*
X19615000Y-14540000D01*
X19615000Y-14510000D02*
X19585000Y-14540000D01*
X19660000Y-9610000D02*
X19690000Y-9640000D01*
X19690000Y-9610000D02*
X19660000Y-9640000D01*
X19660000Y-13260000D02*
X19690000Y-13290000D01*
X19690000Y-13260000D02*
X19660000Y-13290000D01*
X19735000Y-12010000D02*
X19765000Y-12040000D01*
X19765000Y-12010000D02*
X19735000Y-12040000D01*
X19785000Y-9035000D02*
X19815000Y-9065000D01*
X19815000Y-9035000D02*
X19785000Y-9065000D01*
X19810000Y-10160000D02*
X19840000Y-10190000D01*
X19840000Y-10160000D02*
X19810000Y-10190000D01*
X19860000Y-8635000D02*
X19890000Y-8665000D01*
X19890000Y-8635000D02*
X19860000Y-8665000D01*
X19935000Y-8485000D02*
X19965000Y-8515000D01*
X19965000Y-8485000D02*
X19935000Y-8515000D01*
X20085000Y-10160000D02*
X20115000Y-10190000D01*
X20115000Y-10160000D02*
X20085000Y-10190000D01*
X15590000Y-7800000D02*
G75*
G02*
X15490000Y-7800000I-50000J0D01*
G01*
X15490000Y-7800000D02*
G75*
G02*
X15590000Y-7800000I50000J0D01*
G01*
X15844000Y-7800000D02*
G75*
G02*
X15744000Y-7800000I-50000J0D01*
G01*
X15744000Y-7800000D02*
G75*
G02*
X15844000Y-7800000I50000J0D01*
G01*
X16098000Y-7800000D02*
G75*
G02*
X15998000Y-7800000I-50000J0D01*
G01*
X15998000Y-7800000D02*
G75*
G02*
X16098000Y-7800000I50000J0D01*
G01*
X16352000Y-7800000D02*
G75*
G02*
X16252000Y-7800000I-50000J0D01*
G01*
X16252000Y-7800000D02*
G75*
G02*
X16352000Y-7800000I50000J0D01*
G01*
X16535000Y-5750000D02*
G75*
G02*
X16435000Y-5750000I-50000J0D01*
G01*
X16435000Y-5750000D02*
G75*
G02*
X16535000Y-5750000I50000J0D01*
G01*
X16606000Y-7800000D02*
G75*
G02*
X16506000Y-7800000I-50000J0D01*
G01*
X16506000Y-7800000D02*
G75*
G02*
X16606000Y-7800000I50000J0D01*
G01*
X16606000Y-9832000D02*
G75*
G02*
X16506000Y-9832000I-50000J0D01*
G01*
X16506000Y-9832000D02*
G75*
G02*
X16606000Y-9832000I50000J0D01*
G01*
X16789000Y-5750000D02*
G75*
G02*
X16689000Y-5750000I-50000J0D01*
G01*
X16689000Y-5750000D02*
G75*
G02*
X16789000Y-5750000I50000J0D01*
G01*
X16860000Y-7800000D02*
G75*
G02*
X16760000Y-7800000I-50000J0D01*
G01*
X16760000Y-7800000D02*
G75*
G02*
X16860000Y-7800000I50000J0D01*
G01*
X16860000Y-9832000D02*
G75*
G02*
X16760000Y-9832000I-50000J0D01*
G01*
X16760000Y-9832000D02*
G75*
G02*
X16860000Y-9832000I50000J0D01*
G01*
X17043000Y-5750000D02*
G75*
G02*
X16943000Y-5750000I-50000J0D01*
G01*
X16943000Y-5750000D02*
G75*
G02*
X17043000Y-5750000I50000J0D01*
G01*
X17114000Y-7800000D02*
G75*
G02*
X17014000Y-7800000I-50000J0D01*
G01*
X17014000Y-7800000D02*
G75*
G02*
X17114000Y-7800000I50000J0D01*
G01*
X17114000Y-9832000D02*
G75*
G02*
X17014000Y-9832000I-50000J0D01*
G01*
X17014000Y-9832000D02*
G75*
G02*
X17114000Y-9832000I50000J0D01*
G01*
X17297000Y-5750000D02*
G75*
G02*
X17197000Y-5750000I-50000J0D01*
G01*
X17197000Y-5750000D02*
G75*
G02*
X17297000Y-5750000I50000J0D01*
G01*
X17368000Y-7800000D02*
G75*
G02*
X17268000Y-7800000I-50000J0D01*
G01*
X17268000Y-7800000D02*
G75*
G02*
X17368000Y-7800000I50000J0D01*
G01*
X17368000Y-9832000D02*
G75*
G02*
X17268000Y-9832000I-50000J0D01*
G01*
X17268000Y-9832000D02*
G75*
G02*
X17368000Y-9832000I50000J0D01*
G01*
X17550000Y-5750000D02*
G75*
G02*
X17450000Y-5750000I-50000J0D01*
G01*
X17450000Y-5750000D02*
G75*
G02*
X17550000Y-5750000I50000J0D01*
G01*
X17622000Y-7800000D02*
G75*
G02*
X17522000Y-7800000I-50000J0D01*
G01*
X17522000Y-7800000D02*
G75*
G02*
X17622000Y-7800000I50000J0D01*
G01*
X17622000Y-9832000D02*
G75*
G02*
X17522000Y-9832000I-50000J0D01*
G01*
X17522000Y-9832000D02*
G75*
G02*
X17622000Y-9832000I50000J0D01*
G01*
X17805000Y-5750000D02*
G75*
G02*
X17705000Y-5750000I-50000J0D01*
G01*
X17705000Y-5750000D02*
G75*
G02*
X17805000Y-5750000I50000J0D01*
G01*
X17876000Y-7800000D02*
G75*
G02*
X17776000Y-7800000I-50000J0D01*
G01*
X17776000Y-7800000D02*
G75*
G02*
X17876000Y-7800000I50000J0D01*
G01*
X17876000Y-9832000D02*
G75*
G02*
X17776000Y-9832000I-50000J0D01*
G01*
X17776000Y-9832000D02*
G75*
G02*
X17876000Y-9832000I50000J0D01*
G01*
X18059000Y-5750000D02*
G75*
G02*
X17959000Y-5750000I-50000J0D01*
G01*
X17959000Y-5750000D02*
G75*
G02*
X18059000Y-5750000I50000J0D01*
G01*
X18130000Y-7800000D02*
G75*
G02*
X18030000Y-7800000I-50000J0D01*
G01*
X18030000Y-7800000D02*
G75*
G02*
X18130000Y-7800000I50000J0D01*
G01*
X18130000Y-9832000D02*
G75*
G02*
X18030000Y-9832000I-50000J0D01*
G01*
X18030000Y-9832000D02*
G75*
G02*
X18130000Y-9832000I50000J0D01*
G01*
X18313000Y-5750000D02*
G75*
G02*
X18213000Y-5750000I-50000J0D01*
G01*
X18213000Y-5750000D02*
G75*
G02*
X18313000Y-5750000I50000J0D01*
G01*
X18384000Y-7800000D02*
G75*
G02*
X18284000Y-7800000I-50000J0D01*
G01*
X18284000Y-7800000D02*
G75*
G02*
X18384000Y-7800000I50000J0D01*
G01*
X18384000Y-9832000D02*
G75*
G02*
X18284000Y-9832000I-50000J0D01*
G01*
X18284000Y-9832000D02*
G75*
G02*
X18384000Y-9832000I50000J0D01*
G01*
X18400000Y-10580000D02*
G75*
G02*
X18300000Y-10580000I-50000J0D01*
G01*
X18300000Y-10580000D02*
G75*
G02*
X18400000Y-10580000I50000J0D01*
G01*
X18567000Y-5750000D02*
G75*
G02*
X18467000Y-5750000I-50000J0D01*
G01*
X18467000Y-5750000D02*
G75*
G02*
X18567000Y-5750000I50000J0D01*
G01*
X18638000Y-7800000D02*
G75*
G02*
X18538000Y-7800000I-50000J0D01*
G01*
X18538000Y-7800000D02*
G75*
G02*
X18638000Y-7800000I50000J0D01*
G01*
X18638000Y-9832000D02*
G75*
G02*
X18538000Y-9832000I-50000J0D01*
G01*
X18538000Y-9832000D02*
G75*
G02*
X18638000Y-9832000I50000J0D01*
G01*
X18650000Y-10580000D02*
G75*
G02*
X18550000Y-10580000I-50000J0D01*
G01*
X18550000Y-10580000D02*
G75*
G02*
X18650000Y-10580000I50000J0D01*
G01*
X18892000Y-7800000D02*
G75*
G02*
X18792000Y-7800000I-50000J0D01*
G01*
X18792000Y-7800000D02*
G75*
G02*
X18892000Y-7800000I50000J0D01*
G01*
X18892000Y-9832000D02*
G75*
G02*
X18792000Y-9832000I-50000J0D01*
G01*
X18792000Y-9832000D02*
G75*
G02*
X18892000Y-9832000I50000J0D01*
G01*
X18900000Y-10580000D02*
G75*
G02*
X18800000Y-10580000I-50000J0D01*
G01*
X18800000Y-10580000D02*
G75*
G02*
X18900000Y-10580000I50000J0D01*
G01*
X19146000Y-7800000D02*
G75*
G02*
X19046000Y-7800000I-50000J0D01*
G01*
X19046000Y-7800000D02*
G75*
G02*
X19146000Y-7800000I50000J0D01*
G01*
X19146000Y-9832000D02*
G75*
G02*
X19046000Y-9832000I-50000J0D01*
G01*
X19046000Y-9832000D02*
G75*
G02*
X19146000Y-9832000I50000J0D01*
G01*
X19400000Y-7800000D02*
G75*
G02*
X19300000Y-7800000I-50000J0D01*
G01*
X19300000Y-7800000D02*
G75*
G02*
X19400000Y-7800000I50000J0D01*
G01*
X19400000Y-9832000D02*
G75*
G02*
X19300000Y-9832000I-50000J0D01*
G01*
X19300000Y-9832000D02*
G75*
G02*
X19400000Y-9832000I50000J0D01*
G01*
X19500000Y-10580000D02*
G75*
G02*
X19400000Y-10580000I-50000J0D01*
G01*
X19400000Y-10580000D02*
G75*
G02*
X19500000Y-10580000I50000J0D01*
G01*
X19750000Y-10580000D02*
G75*
G02*
X19650000Y-10580000I-50000J0D01*
G01*
X19650000Y-10580000D02*
G75*
G02*
X19750000Y-10580000I50000J0D01*
G01*
X20000000Y-10580000D02*
G75*
G02*
X19900000Y-10580000I-50000J0D01*
G01*
X19900000Y-10580000D02*
G75*
G02*
X20000000Y-10580000I50000J0D01*
G01*
D12*
X14575000Y-6747500D02*
X14575000Y-6852500D01*
X14522500Y-6800000D02*
X14627500Y-6800000D01*
X14955000Y-9722500D02*
X14955000Y-9827500D01*
X14902500Y-9775000D02*
X15007500Y-9775000D01*
X14955000Y-9972500D02*
X14955000Y-10077500D01*
X14902500Y-10025000D02*
X15007500Y-10025000D01*
X14955000Y-10222500D02*
X14955000Y-10327500D01*
X14902500Y-10275000D02*
X15007500Y-10275000D01*
X15075000Y-6247500D02*
X15075000Y-6352500D01*
X15022500Y-6300000D02*
X15127500Y-6300000D01*
X15075000Y-6497500D02*
X15075000Y-6602500D01*
X15022500Y-6550000D02*
X15127500Y-6550000D01*
X15075000Y-6997500D02*
X15075000Y-7102500D01*
X15022500Y-7050000D02*
X15127500Y-7050000D01*
X15075000Y-7247500D02*
X15075000Y-7352500D01*
X15022500Y-7300000D02*
X15127500Y-7300000D01*
X19925000Y-6247500D02*
X19925000Y-6352500D01*
X19872500Y-6300000D02*
X19977500Y-6300000D01*
X19925000Y-6497500D02*
X19925000Y-6602500D01*
X19872500Y-6550000D02*
X19977500Y-6550000D01*
X19925000Y-6997500D02*
X19925000Y-7102500D01*
X19872500Y-7050000D02*
X19977500Y-7050000D01*
X19925000Y-7247500D02*
X19925000Y-7352500D01*
X19872500Y-7300000D02*
X19977500Y-7300000D01*
X20425000Y-6747500D02*
X20425000Y-6852500D01*
X20372500Y-6800000D02*
X20477500Y-6800000D01*
D13*
X18274247Y-11304247D02*
X18274247Y-11155753D01*
X18125753Y-11155753D01*
X18125753Y-11304247D01*
X18274247Y-11304247D01*
X19074247Y-11304247D02*
X19074247Y-11155753D01*
X18925753Y-11155753D01*
X18925753Y-11304247D01*
X19074247Y-11304247D01*
X19374247Y-11304247D02*
X19374247Y-11155753D01*
X19225753Y-11155753D01*
X19225753Y-11304247D01*
X19374247Y-11304247D01*
X20174247Y-11304247D02*
X20174247Y-11155753D01*
X20025753Y-11155753D01*
X20025753Y-11304247D01*
X20174247Y-11304247D01*
D14*
X14575000Y-5875000D02*
X14700000Y-5750000D01*
X14575000Y-5625000D01*
X14450000Y-5750000D01*
X14575000Y-5875000D01*
X14575000Y-10975000D02*
X14700000Y-10850000D01*
X14575000Y-10725000D01*
X14450000Y-10850000D01*
X14575000Y-10975000D01*
X20425000Y-5875000D02*
X20550000Y-5750000D01*
X20425000Y-5625000D01*
X20300000Y-5750000D01*
X20425000Y-5875000D01*
X20425000Y-10975000D02*
X20550000Y-10850000D01*
X20425000Y-10725000D01*
X20300000Y-10850000D01*
X20425000Y-10975000D01*
D11*
X14580777Y-16316484D02*
X14580777Y-16116484D01*
X14580777Y-16116484D02*
X14628396Y-16116484D01*
X14628396Y-16116484D02*
X14656967Y-16126008D01*
X14656967Y-16126008D02*
X14676015Y-16145055D01*
X14676015Y-16145055D02*
X14685539Y-16164103D01*
X14685539Y-16164103D02*
X14695062Y-16202198D01*
X14695062Y-16202198D02*
X14695062Y-16230769D01*
X14695062Y-16230769D02*
X14685539Y-16268865D01*
X14685539Y-16268865D02*
X14676015Y-16287912D01*
X14676015Y-16287912D02*
X14656967Y-16306960D01*
X14656967Y-16306960D02*
X14628396Y-16316484D01*
X14628396Y-16316484D02*
X14580777Y-16316484D01*
X14780777Y-16316484D02*
X14780777Y-16183150D01*
X14780777Y-16221246D02*
X14790301Y-16202198D01*
X14790301Y-16202198D02*
X14799824Y-16192674D01*
X14799824Y-16192674D02*
X14818872Y-16183150D01*
X14818872Y-16183150D02*
X14837920Y-16183150D01*
X14904586Y-16316484D02*
X14904586Y-16183150D01*
X14904586Y-16116484D02*
X14895062Y-16126008D01*
X14895062Y-16126008D02*
X14904586Y-16135531D01*
X14904586Y-16135531D02*
X14914110Y-16126008D01*
X14914110Y-16126008D02*
X14904586Y-16116484D01*
X14904586Y-16116484D02*
X14904586Y-16135531D01*
X15028396Y-16316484D02*
X15009348Y-16306960D01*
X15009348Y-16306960D02*
X14999824Y-16287912D01*
X14999824Y-16287912D02*
X14999824Y-16116484D01*
X15133158Y-16316484D02*
X15114110Y-16306960D01*
X15114110Y-16306960D02*
X15104586Y-16287912D01*
X15104586Y-16287912D02*
X15104586Y-16116484D01*
X15361729Y-16316484D02*
X15361729Y-16116484D01*
X15361729Y-16116484D02*
X15428396Y-16259341D01*
X15428396Y-16259341D02*
X15495062Y-16116484D01*
X15495062Y-16116484D02*
X15495062Y-16316484D01*
X15676015Y-16316484D02*
X15676015Y-16211722D01*
X15676015Y-16211722D02*
X15666491Y-16192674D01*
X15666491Y-16192674D02*
X15647443Y-16183150D01*
X15647443Y-16183150D02*
X15609348Y-16183150D01*
X15609348Y-16183150D02*
X15590301Y-16192674D01*
X15676015Y-16306960D02*
X15656967Y-16316484D01*
X15656967Y-16316484D02*
X15609348Y-16316484D01*
X15609348Y-16316484D02*
X15590301Y-16306960D01*
X15590301Y-16306960D02*
X15580777Y-16287912D01*
X15580777Y-16287912D02*
X15580777Y-16268865D01*
X15580777Y-16268865D02*
X15590301Y-16249817D01*
X15590301Y-16249817D02*
X15609348Y-16240293D01*
X15609348Y-16240293D02*
X15656967Y-16240293D01*
X15656967Y-16240293D02*
X15676015Y-16230769D01*
X15771253Y-16183150D02*
X15771253Y-16383150D01*
X15771253Y-16192674D02*
X15790301Y-16183150D01*
X15790301Y-16183150D02*
X15828396Y-16183150D01*
X15828396Y-16183150D02*
X15847443Y-16192674D01*
X15847443Y-16192674D02*
X15856967Y-16202198D01*
X15856967Y-16202198D02*
X15866491Y-16221246D01*
X15866491Y-16221246D02*
X15866491Y-16278388D01*
X15866491Y-16278388D02*
X15856967Y-16297436D01*
X15856967Y-16297436D02*
X15847443Y-16306960D01*
X15847443Y-16306960D02*
X15828396Y-16316484D01*
X15828396Y-16316484D02*
X15790301Y-16316484D01*
X15790301Y-16316484D02*
X15771253Y-16306960D01*
X15952205Y-16297436D02*
X15961729Y-16306960D01*
X15961729Y-16306960D02*
X15952205Y-16316484D01*
X15952205Y-16316484D02*
X15942682Y-16306960D01*
X15942682Y-16306960D02*
X15952205Y-16297436D01*
X15952205Y-16297436D02*
X15952205Y-16316484D01*
X15952205Y-16192674D02*
X15961729Y-16202198D01*
X15961729Y-16202198D02*
X15952205Y-16211722D01*
X15952205Y-16211722D02*
X15942682Y-16202198D01*
X15942682Y-16202198D02*
X15952205Y-16192674D01*
X15952205Y-16192674D02*
X15952205Y-16211722D01*
D10*
X14290000Y-16630000D02*
X14320000Y-16660000D01*
X14320000Y-16630000D02*
X14290000Y-16660000D01*
D11*
X14618872Y-16536484D02*
X14637920Y-16536484D01*
X14637920Y-16536484D02*
X14656967Y-16546008D01*
X14656967Y-16546008D02*
X14666491Y-16555531D01*
X14666491Y-16555531D02*
X14676015Y-16574579D01*
X14676015Y-16574579D02*
X14685539Y-16612674D01*
X14685539Y-16612674D02*
X14685539Y-16660293D01*
X14685539Y-16660293D02*
X14676015Y-16698388D01*
X14676015Y-16698388D02*
X14666491Y-16717436D01*
X14666491Y-16717436D02*
X14656967Y-16726960D01*
X14656967Y-16726960D02*
X14637920Y-16736484D01*
X14637920Y-16736484D02*
X14618872Y-16736484D01*
X14618872Y-16736484D02*
X14599824Y-16726960D01*
X14599824Y-16726960D02*
X14590301Y-16717436D01*
X14590301Y-16717436D02*
X14580777Y-16698388D01*
X14580777Y-16698388D02*
X14571253Y-16660293D01*
X14571253Y-16660293D02*
X14571253Y-16612674D01*
X14571253Y-16612674D02*
X14580777Y-16574579D01*
X14580777Y-16574579D02*
X14590301Y-16555531D01*
X14590301Y-16555531D02*
X14599824Y-16546008D01*
X14599824Y-16546008D02*
X14618872Y-16536484D01*
X14771253Y-16717436D02*
X14780777Y-16726960D01*
X14780777Y-16726960D02*
X14771253Y-16736484D01*
X14771253Y-16736484D02*
X14761729Y-16726960D01*
X14761729Y-16726960D02*
X14771253Y-16717436D01*
X14771253Y-16717436D02*
X14771253Y-16736484D01*
X14847443Y-16536484D02*
X14971253Y-16536484D01*
X14971253Y-16536484D02*
X14904586Y-16612674D01*
X14904586Y-16612674D02*
X14933158Y-16612674D01*
X14933158Y-16612674D02*
X14952205Y-16622198D01*
X14952205Y-16622198D02*
X14961729Y-16631722D01*
X14961729Y-16631722D02*
X14971253Y-16650769D01*
X14971253Y-16650769D02*
X14971253Y-16698388D01*
X14971253Y-16698388D02*
X14961729Y-16717436D01*
X14961729Y-16717436D02*
X14952205Y-16726960D01*
X14952205Y-16726960D02*
X14933158Y-16736484D01*
X14933158Y-16736484D02*
X14876015Y-16736484D01*
X14876015Y-16736484D02*
X14856967Y-16726960D01*
X14856967Y-16726960D02*
X14847443Y-16717436D01*
X15095062Y-16536484D02*
X15114110Y-16536484D01*
X15114110Y-16536484D02*
X15133158Y-16546008D01*
X15133158Y-16546008D02*
X15142682Y-16555531D01*
X15142682Y-16555531D02*
X15152205Y-16574579D01*
X15152205Y-16574579D02*
X15161729Y-16612674D01*
X15161729Y-16612674D02*
X15161729Y-16660293D01*
X15161729Y-16660293D02*
X15152205Y-16698388D01*
X15152205Y-16698388D02*
X15142682Y-16717436D01*
X15142682Y-16717436D02*
X15133158Y-16726960D01*
X15133158Y-16726960D02*
X15114110Y-16736484D01*
X15114110Y-16736484D02*
X15095062Y-16736484D01*
X15095062Y-16736484D02*
X15076015Y-16726960D01*
X15076015Y-16726960D02*
X15066491Y-16717436D01*
X15066491Y-16717436D02*
X15056967Y-16698388D01*
X15056967Y-16698388D02*
X15047443Y-16660293D01*
X15047443Y-16660293D02*
X15047443Y-16612674D01*
X15047443Y-16612674D02*
X15056967Y-16574579D01*
X15056967Y-16574579D02*
X15066491Y-16555531D01*
X15066491Y-16555531D02*
X15076015Y-16546008D01*
X15076015Y-16546008D02*
X15095062Y-16536484D01*
X15285539Y-16536484D02*
X15304586Y-16536484D01*
X15304586Y-16536484D02*
X15323634Y-16546008D01*
X15323634Y-16546008D02*
X15333158Y-16555531D01*
X15333158Y-16555531D02*
X15342682Y-16574579D01*
X15342682Y-16574579D02*
X15352205Y-16612674D01*
X15352205Y-16612674D02*
X15352205Y-16660293D01*
X15352205Y-16660293D02*
X15342682Y-16698388D01*
X15342682Y-16698388D02*
X15333158Y-16717436D01*
X15333158Y-16717436D02*
X15323634Y-16726960D01*
X15323634Y-16726960D02*
X15304586Y-16736484D01*
X15304586Y-16736484D02*
X15285539Y-16736484D01*
X15285539Y-16736484D02*
X15266491Y-16726960D01*
X15266491Y-16726960D02*
X15256967Y-16717436D01*
X15256967Y-16717436D02*
X15247443Y-16698388D01*
X15247443Y-16698388D02*
X15237920Y-16660293D01*
X15237920Y-16660293D02*
X15237920Y-16612674D01*
X15237920Y-16612674D02*
X15247443Y-16574579D01*
X15247443Y-16574579D02*
X15256967Y-16555531D01*
X15256967Y-16555531D02*
X15266491Y-16546008D01*
X15266491Y-16546008D02*
X15285539Y-16536484D01*
X15437920Y-16736484D02*
X15437920Y-16603150D01*
X15437920Y-16622198D02*
X15447443Y-16612674D01*
X15447443Y-16612674D02*
X15466491Y-16603150D01*
X15466491Y-16603150D02*
X15495063Y-16603150D01*
X15495063Y-16603150D02*
X15514110Y-16612674D01*
X15514110Y-16612674D02*
X15523634Y-16631722D01*
X15523634Y-16631722D02*
X15523634Y-16736484D01*
X15523634Y-16631722D02*
X15533158Y-16612674D01*
X15533158Y-16612674D02*
X15552205Y-16603150D01*
X15552205Y-16603150D02*
X15580777Y-16603150D01*
X15580777Y-16603150D02*
X15599824Y-16612674D01*
X15599824Y-16612674D02*
X15609348Y-16631722D01*
X15609348Y-16631722D02*
X15609348Y-16736484D01*
X15704586Y-16736484D02*
X15704586Y-16603150D01*
X15704586Y-16622198D02*
X15714110Y-16612674D01*
X15714110Y-16612674D02*
X15733158Y-16603150D01*
X15733158Y-16603150D02*
X15761729Y-16603150D01*
X15761729Y-16603150D02*
X15780777Y-16612674D01*
X15780777Y-16612674D02*
X15790301Y-16631722D01*
X15790301Y-16631722D02*
X15790301Y-16736484D01*
X15790301Y-16631722D02*
X15799824Y-16612674D01*
X15799824Y-16612674D02*
X15818872Y-16603150D01*
X15818872Y-16603150D02*
X15847443Y-16603150D01*
X15847443Y-16603150D02*
X15866491Y-16612674D01*
X15866491Y-16612674D02*
X15876015Y-16631722D01*
X15876015Y-16631722D02*
X15876015Y-16736484D01*
X16266491Y-16526960D02*
X16095063Y-16784103D01*
X16523634Y-16536484D02*
X16542682Y-16536484D01*
X16542682Y-16536484D02*
X16561729Y-16546008D01*
X16561729Y-16546008D02*
X16571253Y-16555531D01*
X16571253Y-16555531D02*
X16580777Y-16574579D01*
X16580777Y-16574579D02*
X16590301Y-16612674D01*
X16590301Y-16612674D02*
X16590301Y-16660293D01*
X16590301Y-16660293D02*
X16580777Y-16698388D01*
X16580777Y-16698388D02*
X16571253Y-16717436D01*
X16571253Y-16717436D02*
X16561729Y-16726960D01*
X16561729Y-16726960D02*
X16542682Y-16736484D01*
X16542682Y-16736484D02*
X16523634Y-16736484D01*
X16523634Y-16736484D02*
X16504586Y-16726960D01*
X16504586Y-16726960D02*
X16495063Y-16717436D01*
X16495063Y-16717436D02*
X16485539Y-16698388D01*
X16485539Y-16698388D02*
X16476015Y-16660293D01*
X16476015Y-16660293D02*
X16476015Y-16612674D01*
X16476015Y-16612674D02*
X16485539Y-16574579D01*
X16485539Y-16574579D02*
X16495063Y-16555531D01*
X16495063Y-16555531D02*
X16504586Y-16546008D01*
X16504586Y-16546008D02*
X16523634Y-16536484D01*
X16676015Y-16717436D02*
X16685539Y-16726960D01*
X16685539Y-16726960D02*
X16676015Y-16736484D01*
X16676015Y-16736484D02*
X16666491Y-16726960D01*
X16666491Y-16726960D02*
X16676015Y-16717436D01*
X16676015Y-16717436D02*
X16676015Y-16736484D01*
X16809348Y-16536484D02*
X16828396Y-16536484D01*
X16828396Y-16536484D02*
X16847444Y-16546008D01*
X16847444Y-16546008D02*
X16856968Y-16555531D01*
X16856968Y-16555531D02*
X16866491Y-16574579D01*
X16866491Y-16574579D02*
X16876015Y-16612674D01*
X16876015Y-16612674D02*
X16876015Y-16660293D01*
X16876015Y-16660293D02*
X16866491Y-16698388D01*
X16866491Y-16698388D02*
X16856968Y-16717436D01*
X16856968Y-16717436D02*
X16847444Y-16726960D01*
X16847444Y-16726960D02*
X16828396Y-16736484D01*
X16828396Y-16736484D02*
X16809348Y-16736484D01*
X16809348Y-16736484D02*
X16790301Y-16726960D01*
X16790301Y-16726960D02*
X16780777Y-16717436D01*
X16780777Y-16717436D02*
X16771253Y-16698388D01*
X16771253Y-16698388D02*
X16761729Y-16660293D01*
X16761729Y-16660293D02*
X16761729Y-16612674D01*
X16761729Y-16612674D02*
X16771253Y-16574579D01*
X16771253Y-16574579D02*
X16780777Y-16555531D01*
X16780777Y-16555531D02*
X16790301Y-16546008D01*
X16790301Y-16546008D02*
X16809348Y-16536484D01*
X17066491Y-16736484D02*
X16952206Y-16736484D01*
X17009348Y-16736484D02*
X17009348Y-16536484D01*
X17009348Y-16536484D02*
X16990301Y-16565055D01*
X16990301Y-16565055D02*
X16971253Y-16584103D01*
X16971253Y-16584103D02*
X16952206Y-16593627D01*
X17256968Y-16736484D02*
X17142682Y-16736484D01*
X17199825Y-16736484D02*
X17199825Y-16536484D01*
X17199825Y-16536484D02*
X17180777Y-16565055D01*
X17180777Y-16565055D02*
X17161729Y-16584103D01*
X17161729Y-16584103D02*
X17142682Y-16593627D01*
X17371253Y-16622198D02*
X17352206Y-16612674D01*
X17352206Y-16612674D02*
X17342682Y-16603150D01*
X17342682Y-16603150D02*
X17333158Y-16584103D01*
X17333158Y-16584103D02*
X17333158Y-16574579D01*
X17333158Y-16574579D02*
X17342682Y-16555531D01*
X17342682Y-16555531D02*
X17352206Y-16546008D01*
X17352206Y-16546008D02*
X17371253Y-16536484D01*
X17371253Y-16536484D02*
X17409349Y-16536484D01*
X17409349Y-16536484D02*
X17428396Y-16546008D01*
X17428396Y-16546008D02*
X17437920Y-16555531D01*
X17437920Y-16555531D02*
X17447444Y-16574579D01*
X17447444Y-16574579D02*
X17447444Y-16584103D01*
X17447444Y-16584103D02*
X17437920Y-16603150D01*
X17437920Y-16603150D02*
X17428396Y-16612674D01*
X17428396Y-16612674D02*
X17409349Y-16622198D01*
X17409349Y-16622198D02*
X17371253Y-16622198D01*
X17371253Y-16622198D02*
X17352206Y-16631722D01*
X17352206Y-16631722D02*
X17342682Y-16641246D01*
X17342682Y-16641246D02*
X17333158Y-16660293D01*
X17333158Y-16660293D02*
X17333158Y-16698388D01*
X17333158Y-16698388D02*
X17342682Y-16717436D01*
X17342682Y-16717436D02*
X17352206Y-16726960D01*
X17352206Y-16726960D02*
X17371253Y-16736484D01*
X17371253Y-16736484D02*
X17409349Y-16736484D01*
X17409349Y-16736484D02*
X17428396Y-16726960D01*
X17428396Y-16726960D02*
X17437920Y-16717436D01*
X17437920Y-16717436D02*
X17447444Y-16698388D01*
X17447444Y-16698388D02*
X17447444Y-16660293D01*
X17447444Y-16660293D02*
X17437920Y-16641246D01*
X17437920Y-16641246D02*
X17428396Y-16631722D01*
X17428396Y-16631722D02*
X17409349Y-16622198D01*
X17523634Y-16536484D02*
X17523634Y-16574579D01*
X17599825Y-16536484D02*
X17599825Y-16574579D01*
X17895063Y-16812674D02*
X17885539Y-16803150D01*
X17885539Y-16803150D02*
X17866491Y-16774579D01*
X17866491Y-16774579D02*
X17856968Y-16755531D01*
X17856968Y-16755531D02*
X17847444Y-16726960D01*
X17847444Y-16726960D02*
X17837920Y-16679341D01*
X17837920Y-16679341D02*
X17837920Y-16641246D01*
X17837920Y-16641246D02*
X17847444Y-16593627D01*
X17847444Y-16593627D02*
X17856968Y-16565055D01*
X17856968Y-16565055D02*
X17866491Y-16546008D01*
X17866491Y-16546008D02*
X17885539Y-16517436D01*
X17885539Y-16517436D02*
X17895063Y-16507912D01*
X17952206Y-16536484D02*
X18085539Y-16536484D01*
X18085539Y-16536484D02*
X17999825Y-16736484D01*
X18247444Y-16536484D02*
X18209349Y-16536484D01*
X18209349Y-16536484D02*
X18190301Y-16546008D01*
X18190301Y-16546008D02*
X18180777Y-16555531D01*
X18180777Y-16555531D02*
X18161730Y-16584103D01*
X18161730Y-16584103D02*
X18152206Y-16622198D01*
X18152206Y-16622198D02*
X18152206Y-16698388D01*
X18152206Y-16698388D02*
X18161730Y-16717436D01*
X18161730Y-16717436D02*
X18171253Y-16726960D01*
X18171253Y-16726960D02*
X18190301Y-16736484D01*
X18190301Y-16736484D02*
X18228396Y-16736484D01*
X18228396Y-16736484D02*
X18247444Y-16726960D01*
X18247444Y-16726960D02*
X18256968Y-16717436D01*
X18256968Y-16717436D02*
X18266491Y-16698388D01*
X18266491Y-16698388D02*
X18266491Y-16650769D01*
X18266491Y-16650769D02*
X18256968Y-16631722D01*
X18256968Y-16631722D02*
X18247444Y-16622198D01*
X18247444Y-16622198D02*
X18228396Y-16612674D01*
X18228396Y-16612674D02*
X18190301Y-16612674D01*
X18190301Y-16612674D02*
X18171253Y-16622198D01*
X18171253Y-16622198D02*
X18161730Y-16631722D01*
X18161730Y-16631722D02*
X18152206Y-16650769D01*
X18504587Y-16736484D02*
X18504587Y-16536484D01*
X18590301Y-16736484D02*
X18590301Y-16631722D01*
X18590301Y-16631722D02*
X18580777Y-16612674D01*
X18580777Y-16612674D02*
X18561730Y-16603150D01*
X18561730Y-16603150D02*
X18533158Y-16603150D01*
X18533158Y-16603150D02*
X18514111Y-16612674D01*
X18514111Y-16612674D02*
X18504587Y-16622198D01*
X18714111Y-16736484D02*
X18695063Y-16726960D01*
X18695063Y-16726960D02*
X18685539Y-16717436D01*
X18685539Y-16717436D02*
X18676015Y-16698388D01*
X18676015Y-16698388D02*
X18676015Y-16641246D01*
X18676015Y-16641246D02*
X18685539Y-16622198D01*
X18685539Y-16622198D02*
X18695063Y-16612674D01*
X18695063Y-16612674D02*
X18714111Y-16603150D01*
X18714111Y-16603150D02*
X18742682Y-16603150D01*
X18742682Y-16603150D02*
X18761730Y-16612674D01*
X18761730Y-16612674D02*
X18771253Y-16622198D01*
X18771253Y-16622198D02*
X18780777Y-16641246D01*
X18780777Y-16641246D02*
X18780777Y-16698388D01*
X18780777Y-16698388D02*
X18771253Y-16717436D01*
X18771253Y-16717436D02*
X18761730Y-16726960D01*
X18761730Y-16726960D02*
X18742682Y-16736484D01*
X18742682Y-16736484D02*
X18714111Y-16736484D01*
X18895063Y-16736484D02*
X18876015Y-16726960D01*
X18876015Y-16726960D02*
X18866492Y-16707912D01*
X18866492Y-16707912D02*
X18866492Y-16536484D01*
X19047444Y-16726960D02*
X19028396Y-16736484D01*
X19028396Y-16736484D02*
X18990301Y-16736484D01*
X18990301Y-16736484D02*
X18971253Y-16726960D01*
X18971253Y-16726960D02*
X18961730Y-16707912D01*
X18961730Y-16707912D02*
X18961730Y-16631722D01*
X18961730Y-16631722D02*
X18971253Y-16612674D01*
X18971253Y-16612674D02*
X18990301Y-16603150D01*
X18990301Y-16603150D02*
X19028396Y-16603150D01*
X19028396Y-16603150D02*
X19047444Y-16612674D01*
X19047444Y-16612674D02*
X19056968Y-16631722D01*
X19056968Y-16631722D02*
X19056968Y-16650769D01*
X19056968Y-16650769D02*
X18961730Y-16669817D01*
X19133158Y-16726960D02*
X19152206Y-16736484D01*
X19152206Y-16736484D02*
X19190301Y-16736484D01*
X19190301Y-16736484D02*
X19209349Y-16726960D01*
X19209349Y-16726960D02*
X19218873Y-16707912D01*
X19218873Y-16707912D02*
X19218873Y-16698388D01*
X19218873Y-16698388D02*
X19209349Y-16679341D01*
X19209349Y-16679341D02*
X19190301Y-16669817D01*
X19190301Y-16669817D02*
X19161730Y-16669817D01*
X19161730Y-16669817D02*
X19142682Y-16660293D01*
X19142682Y-16660293D02*
X19133158Y-16641246D01*
X19133158Y-16641246D02*
X19133158Y-16631722D01*
X19133158Y-16631722D02*
X19142682Y-16612674D01*
X19142682Y-16612674D02*
X19161730Y-16603150D01*
X19161730Y-16603150D02*
X19190301Y-16603150D01*
X19190301Y-16603150D02*
X19209349Y-16612674D01*
X19285539Y-16812674D02*
X19295063Y-16803150D01*
X19295063Y-16803150D02*
X19314111Y-16774579D01*
X19314111Y-16774579D02*
X19323634Y-16755531D01*
X19323634Y-16755531D02*
X19333158Y-16726960D01*
X19333158Y-16726960D02*
X19342682Y-16679341D01*
X19342682Y-16679341D02*
X19342682Y-16641246D01*
X19342682Y-16641246D02*
X19333158Y-16593627D01*
X19333158Y-16593627D02*
X19323634Y-16565055D01*
X19323634Y-16565055D02*
X19314111Y-16546008D01*
X19314111Y-16546008D02*
X19295063Y-16517436D01*
X19295063Y-16517436D02*
X19285539Y-16507912D01*
D10*
X14320000Y-16909000D02*
G75*
G02*
X14220000Y-16909000I-50000J0D01*
G01*
X14220000Y-16909000D02*
G75*
G02*
X14320000Y-16909000I50000J0D01*
G01*
D11*
X14685539Y-17000484D02*
X14571253Y-17000484D01*
X14628396Y-17000484D02*
X14628396Y-16800484D01*
X14628396Y-16800484D02*
X14609348Y-16829055D01*
X14609348Y-16829055D02*
X14590301Y-16848103D01*
X14590301Y-16848103D02*
X14571253Y-16857627D01*
X14771253Y-16981436D02*
X14780777Y-16990960D01*
X14780777Y-16990960D02*
X14771253Y-17000484D01*
X14771253Y-17000484D02*
X14761729Y-16990960D01*
X14761729Y-16990960D02*
X14771253Y-16981436D01*
X14771253Y-16981436D02*
X14771253Y-17000484D01*
X14904586Y-16800484D02*
X14923634Y-16800484D01*
X14923634Y-16800484D02*
X14942682Y-16810008D01*
X14942682Y-16810008D02*
X14952205Y-16819531D01*
X14952205Y-16819531D02*
X14961729Y-16838579D01*
X14961729Y-16838579D02*
X14971253Y-16876674D01*
X14971253Y-16876674D02*
X14971253Y-16924293D01*
X14971253Y-16924293D02*
X14961729Y-16962389D01*
X14961729Y-16962389D02*
X14952205Y-16981436D01*
X14952205Y-16981436D02*
X14942682Y-16990960D01*
X14942682Y-16990960D02*
X14923634Y-17000484D01*
X14923634Y-17000484D02*
X14904586Y-17000484D01*
X14904586Y-17000484D02*
X14885539Y-16990960D01*
X14885539Y-16990960D02*
X14876015Y-16981436D01*
X14876015Y-16981436D02*
X14866491Y-16962389D01*
X14866491Y-16962389D02*
X14856967Y-16924293D01*
X14856967Y-16924293D02*
X14856967Y-16876674D01*
X14856967Y-16876674D02*
X14866491Y-16838579D01*
X14866491Y-16838579D02*
X14876015Y-16819531D01*
X14876015Y-16819531D02*
X14885539Y-16810008D01*
X14885539Y-16810008D02*
X14904586Y-16800484D01*
X15095062Y-16800484D02*
X15114110Y-16800484D01*
X15114110Y-16800484D02*
X15133158Y-16810008D01*
X15133158Y-16810008D02*
X15142682Y-16819531D01*
X15142682Y-16819531D02*
X15152205Y-16838579D01*
X15152205Y-16838579D02*
X15161729Y-16876674D01*
X15161729Y-16876674D02*
X15161729Y-16924293D01*
X15161729Y-16924293D02*
X15152205Y-16962389D01*
X15152205Y-16962389D02*
X15142682Y-16981436D01*
X15142682Y-16981436D02*
X15133158Y-16990960D01*
X15133158Y-16990960D02*
X15114110Y-17000484D01*
X15114110Y-17000484D02*
X15095062Y-17000484D01*
X15095062Y-17000484D02*
X15076015Y-16990960D01*
X15076015Y-16990960D02*
X15066491Y-16981436D01*
X15066491Y-16981436D02*
X15056967Y-16962389D01*
X15056967Y-16962389D02*
X15047443Y-16924293D01*
X15047443Y-16924293D02*
X15047443Y-16876674D01*
X15047443Y-16876674D02*
X15056967Y-16838579D01*
X15056967Y-16838579D02*
X15066491Y-16819531D01*
X15066491Y-16819531D02*
X15076015Y-16810008D01*
X15076015Y-16810008D02*
X15095062Y-16800484D01*
X15285539Y-16800484D02*
X15304586Y-16800484D01*
X15304586Y-16800484D02*
X15323634Y-16810008D01*
X15323634Y-16810008D02*
X15333158Y-16819531D01*
X15333158Y-16819531D02*
X15342682Y-16838579D01*
X15342682Y-16838579D02*
X15352205Y-16876674D01*
X15352205Y-16876674D02*
X15352205Y-16924293D01*
X15352205Y-16924293D02*
X15342682Y-16962389D01*
X15342682Y-16962389D02*
X15333158Y-16981436D01*
X15333158Y-16981436D02*
X15323634Y-16990960D01*
X15323634Y-16990960D02*
X15304586Y-17000484D01*
X15304586Y-17000484D02*
X15285539Y-17000484D01*
X15285539Y-17000484D02*
X15266491Y-16990960D01*
X15266491Y-16990960D02*
X15256967Y-16981436D01*
X15256967Y-16981436D02*
X15247443Y-16962389D01*
X15247443Y-16962389D02*
X15237920Y-16924293D01*
X15237920Y-16924293D02*
X15237920Y-16876674D01*
X15237920Y-16876674D02*
X15247443Y-16838579D01*
X15247443Y-16838579D02*
X15256967Y-16819531D01*
X15256967Y-16819531D02*
X15266491Y-16810008D01*
X15266491Y-16810008D02*
X15285539Y-16800484D01*
X15437920Y-17000484D02*
X15437920Y-16867150D01*
X15437920Y-16886198D02*
X15447443Y-16876674D01*
X15447443Y-16876674D02*
X15466491Y-16867150D01*
X15466491Y-16867150D02*
X15495063Y-16867150D01*
X15495063Y-16867150D02*
X15514110Y-16876674D01*
X15514110Y-16876674D02*
X15523634Y-16895722D01*
X15523634Y-16895722D02*
X15523634Y-17000484D01*
X15523634Y-16895722D02*
X15533158Y-16876674D01*
X15533158Y-16876674D02*
X15552205Y-16867150D01*
X15552205Y-16867150D02*
X15580777Y-16867150D01*
X15580777Y-16867150D02*
X15599824Y-16876674D01*
X15599824Y-16876674D02*
X15609348Y-16895722D01*
X15609348Y-16895722D02*
X15609348Y-17000484D01*
X15704586Y-17000484D02*
X15704586Y-16867150D01*
X15704586Y-16886198D02*
X15714110Y-16876674D01*
X15714110Y-16876674D02*
X15733158Y-16867150D01*
X15733158Y-16867150D02*
X15761729Y-16867150D01*
X15761729Y-16867150D02*
X15780777Y-16876674D01*
X15780777Y-16876674D02*
X15790301Y-16895722D01*
X15790301Y-16895722D02*
X15790301Y-17000484D01*
X15790301Y-16895722D02*
X15799824Y-16876674D01*
X15799824Y-16876674D02*
X15818872Y-16867150D01*
X15818872Y-16867150D02*
X15847443Y-16867150D01*
X15847443Y-16867150D02*
X15866491Y-16876674D01*
X15866491Y-16876674D02*
X15876015Y-16895722D01*
X15876015Y-16895722D02*
X15876015Y-17000484D01*
X16266491Y-16790960D02*
X16095063Y-17048103D01*
X16523634Y-16800484D02*
X16542682Y-16800484D01*
X16542682Y-16800484D02*
X16561729Y-16810008D01*
X16561729Y-16810008D02*
X16571253Y-16819531D01*
X16571253Y-16819531D02*
X16580777Y-16838579D01*
X16580777Y-16838579D02*
X16590301Y-16876674D01*
X16590301Y-16876674D02*
X16590301Y-16924293D01*
X16590301Y-16924293D02*
X16580777Y-16962389D01*
X16580777Y-16962389D02*
X16571253Y-16981436D01*
X16571253Y-16981436D02*
X16561729Y-16990960D01*
X16561729Y-16990960D02*
X16542682Y-17000484D01*
X16542682Y-17000484D02*
X16523634Y-17000484D01*
X16523634Y-17000484D02*
X16504586Y-16990960D01*
X16504586Y-16990960D02*
X16495063Y-16981436D01*
X16495063Y-16981436D02*
X16485539Y-16962389D01*
X16485539Y-16962389D02*
X16476015Y-16924293D01*
X16476015Y-16924293D02*
X16476015Y-16876674D01*
X16476015Y-16876674D02*
X16485539Y-16838579D01*
X16485539Y-16838579D02*
X16495063Y-16819531D01*
X16495063Y-16819531D02*
X16504586Y-16810008D01*
X16504586Y-16810008D02*
X16523634Y-16800484D01*
X16676015Y-16981436D02*
X16685539Y-16990960D01*
X16685539Y-16990960D02*
X16676015Y-17000484D01*
X16676015Y-17000484D02*
X16666491Y-16990960D01*
X16666491Y-16990960D02*
X16676015Y-16981436D01*
X16676015Y-16981436D02*
X16676015Y-17000484D01*
X16809348Y-16800484D02*
X16828396Y-16800484D01*
X16828396Y-16800484D02*
X16847444Y-16810008D01*
X16847444Y-16810008D02*
X16856968Y-16819531D01*
X16856968Y-16819531D02*
X16866491Y-16838579D01*
X16866491Y-16838579D02*
X16876015Y-16876674D01*
X16876015Y-16876674D02*
X16876015Y-16924293D01*
X16876015Y-16924293D02*
X16866491Y-16962389D01*
X16866491Y-16962389D02*
X16856968Y-16981436D01*
X16856968Y-16981436D02*
X16847444Y-16990960D01*
X16847444Y-16990960D02*
X16828396Y-17000484D01*
X16828396Y-17000484D02*
X16809348Y-17000484D01*
X16809348Y-17000484D02*
X16790301Y-16990960D01*
X16790301Y-16990960D02*
X16780777Y-16981436D01*
X16780777Y-16981436D02*
X16771253Y-16962389D01*
X16771253Y-16962389D02*
X16761729Y-16924293D01*
X16761729Y-16924293D02*
X16761729Y-16876674D01*
X16761729Y-16876674D02*
X16771253Y-16838579D01*
X16771253Y-16838579D02*
X16780777Y-16819531D01*
X16780777Y-16819531D02*
X16790301Y-16810008D01*
X16790301Y-16810008D02*
X16809348Y-16800484D01*
X16942682Y-16800484D02*
X17066491Y-16800484D01*
X17066491Y-16800484D02*
X16999825Y-16876674D01*
X16999825Y-16876674D02*
X17028396Y-16876674D01*
X17028396Y-16876674D02*
X17047444Y-16886198D01*
X17047444Y-16886198D02*
X17056968Y-16895722D01*
X17056968Y-16895722D02*
X17066491Y-16914770D01*
X17066491Y-16914770D02*
X17066491Y-16962389D01*
X17066491Y-16962389D02*
X17056968Y-16981436D01*
X17056968Y-16981436D02*
X17047444Y-16990960D01*
X17047444Y-16990960D02*
X17028396Y-17000484D01*
X17028396Y-17000484D02*
X16971253Y-17000484D01*
X16971253Y-17000484D02*
X16952206Y-16990960D01*
X16952206Y-16990960D02*
X16942682Y-16981436D01*
X17161729Y-17000484D02*
X17199825Y-17000484D01*
X17199825Y-17000484D02*
X17218872Y-16990960D01*
X17218872Y-16990960D02*
X17228396Y-16981436D01*
X17228396Y-16981436D02*
X17247444Y-16952865D01*
X17247444Y-16952865D02*
X17256968Y-16914770D01*
X17256968Y-16914770D02*
X17256968Y-16838579D01*
X17256968Y-16838579D02*
X17247444Y-16819531D01*
X17247444Y-16819531D02*
X17237920Y-16810008D01*
X17237920Y-16810008D02*
X17218872Y-16800484D01*
X17218872Y-16800484D02*
X17180777Y-16800484D01*
X17180777Y-16800484D02*
X17161729Y-16810008D01*
X17161729Y-16810008D02*
X17152206Y-16819531D01*
X17152206Y-16819531D02*
X17142682Y-16838579D01*
X17142682Y-16838579D02*
X17142682Y-16886198D01*
X17142682Y-16886198D02*
X17152206Y-16905246D01*
X17152206Y-16905246D02*
X17161729Y-16914770D01*
X17161729Y-16914770D02*
X17180777Y-16924293D01*
X17180777Y-16924293D02*
X17218872Y-16924293D01*
X17218872Y-16924293D02*
X17237920Y-16914770D01*
X17237920Y-16914770D02*
X17247444Y-16905246D01*
X17247444Y-16905246D02*
X17256968Y-16886198D01*
X17428396Y-16867150D02*
X17428396Y-17000484D01*
X17380777Y-16790960D02*
X17333158Y-16933817D01*
X17333158Y-16933817D02*
X17456968Y-16933817D01*
X17523634Y-16800484D02*
X17523634Y-16838579D01*
X17599825Y-16800484D02*
X17599825Y-16838579D01*
X17895063Y-17076674D02*
X17885539Y-17067150D01*
X17885539Y-17067150D02*
X17866491Y-17038579D01*
X17866491Y-17038579D02*
X17856968Y-17019531D01*
X17856968Y-17019531D02*
X17847444Y-16990960D01*
X17847444Y-16990960D02*
X17837920Y-16943341D01*
X17837920Y-16943341D02*
X17837920Y-16905246D01*
X17837920Y-16905246D02*
X17847444Y-16857627D01*
X17847444Y-16857627D02*
X17856968Y-16829055D01*
X17856968Y-16829055D02*
X17866491Y-16810008D01*
X17866491Y-16810008D02*
X17885539Y-16781436D01*
X17885539Y-16781436D02*
X17895063Y-16771912D01*
X18056968Y-16867150D02*
X18056968Y-17000484D01*
X18009349Y-16790960D02*
X17961730Y-16933817D01*
X17961730Y-16933817D02*
X18085539Y-16933817D01*
X18142682Y-16800484D02*
X18266491Y-16800484D01*
X18266491Y-16800484D02*
X18199825Y-16876674D01*
X18199825Y-16876674D02*
X18228396Y-16876674D01*
X18228396Y-16876674D02*
X18247444Y-16886198D01*
X18247444Y-16886198D02*
X18256968Y-16895722D01*
X18256968Y-16895722D02*
X18266491Y-16914770D01*
X18266491Y-16914770D02*
X18266491Y-16962389D01*
X18266491Y-16962389D02*
X18256968Y-16981436D01*
X18256968Y-16981436D02*
X18247444Y-16990960D01*
X18247444Y-16990960D02*
X18228396Y-17000484D01*
X18228396Y-17000484D02*
X18171253Y-17000484D01*
X18171253Y-17000484D02*
X18152206Y-16990960D01*
X18152206Y-16990960D02*
X18142682Y-16981436D01*
X18504587Y-17000484D02*
X18504587Y-16800484D01*
X18590301Y-17000484D02*
X18590301Y-16895722D01*
X18590301Y-16895722D02*
X18580777Y-16876674D01*
X18580777Y-16876674D02*
X18561730Y-16867150D01*
X18561730Y-16867150D02*
X18533158Y-16867150D01*
X18533158Y-16867150D02*
X18514111Y-16876674D01*
X18514111Y-16876674D02*
X18504587Y-16886198D01*
X18714111Y-17000484D02*
X18695063Y-16990960D01*
X18695063Y-16990960D02*
X18685539Y-16981436D01*
X18685539Y-16981436D02*
X18676015Y-16962389D01*
X18676015Y-16962389D02*
X18676015Y-16905246D01*
X18676015Y-16905246D02*
X18685539Y-16886198D01*
X18685539Y-16886198D02*
X18695063Y-16876674D01*
X18695063Y-16876674D02*
X18714111Y-16867150D01*
X18714111Y-16867150D02*
X18742682Y-16867150D01*
X18742682Y-16867150D02*
X18761730Y-16876674D01*
X18761730Y-16876674D02*
X18771253Y-16886198D01*
X18771253Y-16886198D02*
X18780777Y-16905246D01*
X18780777Y-16905246D02*
X18780777Y-16962389D01*
X18780777Y-16962389D02*
X18771253Y-16981436D01*
X18771253Y-16981436D02*
X18761730Y-16990960D01*
X18761730Y-16990960D02*
X18742682Y-17000484D01*
X18742682Y-17000484D02*
X18714111Y-17000484D01*
X18895063Y-17000484D02*
X18876015Y-16990960D01*
X18876015Y-16990960D02*
X18866492Y-16971912D01*
X18866492Y-16971912D02*
X18866492Y-16800484D01*
X19047444Y-16990960D02*
X19028396Y-17000484D01*
X19028396Y-17000484D02*
X18990301Y-17000484D01*
X18990301Y-17000484D02*
X18971253Y-16990960D01*
X18971253Y-16990960D02*
X18961730Y-16971912D01*
X18961730Y-16971912D02*
X18961730Y-16895722D01*
X18961730Y-16895722D02*
X18971253Y-16876674D01*
X18971253Y-16876674D02*
X18990301Y-16867150D01*
X18990301Y-16867150D02*
X19028396Y-16867150D01*
X19028396Y-16867150D02*
X19047444Y-16876674D01*
X19047444Y-16876674D02*
X19056968Y-16895722D01*
X19056968Y-16895722D02*
X19056968Y-16914770D01*
X19056968Y-16914770D02*
X18961730Y-16933817D01*
X19133158Y-16990960D02*
X19152206Y-17000484D01*
X19152206Y-17000484D02*
X19190301Y-17000484D01*
X19190301Y-17000484D02*
X19209349Y-16990960D01*
X19209349Y-16990960D02*
X19218873Y-16971912D01*
X19218873Y-16971912D02*
X19218873Y-16962389D01*
X19218873Y-16962389D02*
X19209349Y-16943341D01*
X19209349Y-16943341D02*
X19190301Y-16933817D01*
X19190301Y-16933817D02*
X19161730Y-16933817D01*
X19161730Y-16933817D02*
X19142682Y-16924293D01*
X19142682Y-16924293D02*
X19133158Y-16905246D01*
X19133158Y-16905246D02*
X19133158Y-16895722D01*
X19133158Y-16895722D02*
X19142682Y-16876674D01*
X19142682Y-16876674D02*
X19161730Y-16867150D01*
X19161730Y-16867150D02*
X19190301Y-16867150D01*
X19190301Y-16867150D02*
X19209349Y-16876674D01*
X19285539Y-17076674D02*
X19295063Y-17067150D01*
X19295063Y-17067150D02*
X19314111Y-17038579D01*
X19314111Y-17038579D02*
X19323634Y-17019531D01*
X19323634Y-17019531D02*
X19333158Y-16990960D01*
X19333158Y-16990960D02*
X19342682Y-16943341D01*
X19342682Y-16943341D02*
X19342682Y-16905246D01*
X19342682Y-16905246D02*
X19333158Y-16857627D01*
X19333158Y-16857627D02*
X19323634Y-16829055D01*
X19323634Y-16829055D02*
X19314111Y-16810008D01*
X19314111Y-16810008D02*
X19295063Y-16781436D01*
X19295063Y-16781436D02*
X19285539Y-16771912D01*
D12*
X14267500Y-17120500D02*
X14267500Y-17225500D01*
X14215000Y-17173000D02*
X14320000Y-17173000D01*
D11*
X14685539Y-17264484D02*
X14571253Y-17264484D01*
X14628396Y-17264484D02*
X14628396Y-17064484D01*
X14628396Y-17064484D02*
X14609348Y-17093055D01*
X14609348Y-17093055D02*
X14590301Y-17112103D01*
X14590301Y-17112103D02*
X14571253Y-17121627D01*
X14771253Y-17245436D02*
X14780777Y-17254960D01*
X14780777Y-17254960D02*
X14771253Y-17264484D01*
X14771253Y-17264484D02*
X14761729Y-17254960D01*
X14761729Y-17254960D02*
X14771253Y-17245436D01*
X14771253Y-17245436D02*
X14771253Y-17264484D01*
X14904586Y-17064484D02*
X14923634Y-17064484D01*
X14923634Y-17064484D02*
X14942682Y-17074008D01*
X14942682Y-17074008D02*
X14952205Y-17083531D01*
X14952205Y-17083531D02*
X14961729Y-17102579D01*
X14961729Y-17102579D02*
X14971253Y-17140674D01*
X14971253Y-17140674D02*
X14971253Y-17188293D01*
X14971253Y-17188293D02*
X14961729Y-17226389D01*
X14961729Y-17226389D02*
X14952205Y-17245436D01*
X14952205Y-17245436D02*
X14942682Y-17254960D01*
X14942682Y-17254960D02*
X14923634Y-17264484D01*
X14923634Y-17264484D02*
X14904586Y-17264484D01*
X14904586Y-17264484D02*
X14885539Y-17254960D01*
X14885539Y-17254960D02*
X14876015Y-17245436D01*
X14876015Y-17245436D02*
X14866491Y-17226389D01*
X14866491Y-17226389D02*
X14856967Y-17188293D01*
X14856967Y-17188293D02*
X14856967Y-17140674D01*
X14856967Y-17140674D02*
X14866491Y-17102579D01*
X14866491Y-17102579D02*
X14876015Y-17083531D01*
X14876015Y-17083531D02*
X14885539Y-17074008D01*
X14885539Y-17074008D02*
X14904586Y-17064484D01*
X15152205Y-17064484D02*
X15056967Y-17064484D01*
X15056967Y-17064484D02*
X15047443Y-17159722D01*
X15047443Y-17159722D02*
X15056967Y-17150198D01*
X15056967Y-17150198D02*
X15076015Y-17140674D01*
X15076015Y-17140674D02*
X15123634Y-17140674D01*
X15123634Y-17140674D02*
X15142682Y-17150198D01*
X15142682Y-17150198D02*
X15152205Y-17159722D01*
X15152205Y-17159722D02*
X15161729Y-17178770D01*
X15161729Y-17178770D02*
X15161729Y-17226389D01*
X15161729Y-17226389D02*
X15152205Y-17245436D01*
X15152205Y-17245436D02*
X15142682Y-17254960D01*
X15142682Y-17254960D02*
X15123634Y-17264484D01*
X15123634Y-17264484D02*
X15076015Y-17264484D01*
X15076015Y-17264484D02*
X15056967Y-17254960D01*
X15056967Y-17254960D02*
X15047443Y-17245436D01*
X15285539Y-17064484D02*
X15304586Y-17064484D01*
X15304586Y-17064484D02*
X15323634Y-17074008D01*
X15323634Y-17074008D02*
X15333158Y-17083531D01*
X15333158Y-17083531D02*
X15342682Y-17102579D01*
X15342682Y-17102579D02*
X15352205Y-17140674D01*
X15352205Y-17140674D02*
X15352205Y-17188293D01*
X15352205Y-17188293D02*
X15342682Y-17226389D01*
X15342682Y-17226389D02*
X15333158Y-17245436D01*
X15333158Y-17245436D02*
X15323634Y-17254960D01*
X15323634Y-17254960D02*
X15304586Y-17264484D01*
X15304586Y-17264484D02*
X15285539Y-17264484D01*
X15285539Y-17264484D02*
X15266491Y-17254960D01*
X15266491Y-17254960D02*
X15256967Y-17245436D01*
X15256967Y-17245436D02*
X15247443Y-17226389D01*
X15247443Y-17226389D02*
X15237920Y-17188293D01*
X15237920Y-17188293D02*
X15237920Y-17140674D01*
X15237920Y-17140674D02*
X15247443Y-17102579D01*
X15247443Y-17102579D02*
X15256967Y-17083531D01*
X15256967Y-17083531D02*
X15266491Y-17074008D01*
X15266491Y-17074008D02*
X15285539Y-17064484D01*
X15437920Y-17264484D02*
X15437920Y-17131150D01*
X15437920Y-17150198D02*
X15447443Y-17140674D01*
X15447443Y-17140674D02*
X15466491Y-17131150D01*
X15466491Y-17131150D02*
X15495063Y-17131150D01*
X15495063Y-17131150D02*
X15514110Y-17140674D01*
X15514110Y-17140674D02*
X15523634Y-17159722D01*
X15523634Y-17159722D02*
X15523634Y-17264484D01*
X15523634Y-17159722D02*
X15533158Y-17140674D01*
X15533158Y-17140674D02*
X15552205Y-17131150D01*
X15552205Y-17131150D02*
X15580777Y-17131150D01*
X15580777Y-17131150D02*
X15599824Y-17140674D01*
X15599824Y-17140674D02*
X15609348Y-17159722D01*
X15609348Y-17159722D02*
X15609348Y-17264484D01*
X15704586Y-17264484D02*
X15704586Y-17131150D01*
X15704586Y-17150198D02*
X15714110Y-17140674D01*
X15714110Y-17140674D02*
X15733158Y-17131150D01*
X15733158Y-17131150D02*
X15761729Y-17131150D01*
X15761729Y-17131150D02*
X15780777Y-17140674D01*
X15780777Y-17140674D02*
X15790301Y-17159722D01*
X15790301Y-17159722D02*
X15790301Y-17264484D01*
X15790301Y-17159722D02*
X15799824Y-17140674D01*
X15799824Y-17140674D02*
X15818872Y-17131150D01*
X15818872Y-17131150D02*
X15847443Y-17131150D01*
X15847443Y-17131150D02*
X15866491Y-17140674D01*
X15866491Y-17140674D02*
X15876015Y-17159722D01*
X15876015Y-17159722D02*
X15876015Y-17264484D01*
X16266491Y-17054960D02*
X16095063Y-17312103D01*
X16523634Y-17064484D02*
X16542682Y-17064484D01*
X16542682Y-17064484D02*
X16561729Y-17074008D01*
X16561729Y-17074008D02*
X16571253Y-17083531D01*
X16571253Y-17083531D02*
X16580777Y-17102579D01*
X16580777Y-17102579D02*
X16590301Y-17140674D01*
X16590301Y-17140674D02*
X16590301Y-17188293D01*
X16590301Y-17188293D02*
X16580777Y-17226389D01*
X16580777Y-17226389D02*
X16571253Y-17245436D01*
X16571253Y-17245436D02*
X16561729Y-17254960D01*
X16561729Y-17254960D02*
X16542682Y-17264484D01*
X16542682Y-17264484D02*
X16523634Y-17264484D01*
X16523634Y-17264484D02*
X16504586Y-17254960D01*
X16504586Y-17254960D02*
X16495063Y-17245436D01*
X16495063Y-17245436D02*
X16485539Y-17226389D01*
X16485539Y-17226389D02*
X16476015Y-17188293D01*
X16476015Y-17188293D02*
X16476015Y-17140674D01*
X16476015Y-17140674D02*
X16485539Y-17102579D01*
X16485539Y-17102579D02*
X16495063Y-17083531D01*
X16495063Y-17083531D02*
X16504586Y-17074008D01*
X16504586Y-17074008D02*
X16523634Y-17064484D01*
X16676015Y-17245436D02*
X16685539Y-17254960D01*
X16685539Y-17254960D02*
X16676015Y-17264484D01*
X16676015Y-17264484D02*
X16666491Y-17254960D01*
X16666491Y-17254960D02*
X16676015Y-17245436D01*
X16676015Y-17245436D02*
X16676015Y-17264484D01*
X16809348Y-17064484D02*
X16828396Y-17064484D01*
X16828396Y-17064484D02*
X16847444Y-17074008D01*
X16847444Y-17074008D02*
X16856968Y-17083531D01*
X16856968Y-17083531D02*
X16866491Y-17102579D01*
X16866491Y-17102579D02*
X16876015Y-17140674D01*
X16876015Y-17140674D02*
X16876015Y-17188293D01*
X16876015Y-17188293D02*
X16866491Y-17226389D01*
X16866491Y-17226389D02*
X16856968Y-17245436D01*
X16856968Y-17245436D02*
X16847444Y-17254960D01*
X16847444Y-17254960D02*
X16828396Y-17264484D01*
X16828396Y-17264484D02*
X16809348Y-17264484D01*
X16809348Y-17264484D02*
X16790301Y-17254960D01*
X16790301Y-17254960D02*
X16780777Y-17245436D01*
X16780777Y-17245436D02*
X16771253Y-17226389D01*
X16771253Y-17226389D02*
X16761729Y-17188293D01*
X16761729Y-17188293D02*
X16761729Y-17140674D01*
X16761729Y-17140674D02*
X16771253Y-17102579D01*
X16771253Y-17102579D02*
X16780777Y-17083531D01*
X16780777Y-17083531D02*
X16790301Y-17074008D01*
X16790301Y-17074008D02*
X16809348Y-17064484D01*
X17047444Y-17131150D02*
X17047444Y-17264484D01*
X16999825Y-17054960D02*
X16952206Y-17197817D01*
X16952206Y-17197817D02*
X17076015Y-17197817D01*
X17256968Y-17264484D02*
X17142682Y-17264484D01*
X17199825Y-17264484D02*
X17199825Y-17064484D01*
X17199825Y-17064484D02*
X17180777Y-17093055D01*
X17180777Y-17093055D02*
X17161729Y-17112103D01*
X17161729Y-17112103D02*
X17142682Y-17121627D01*
X17323634Y-17064484D02*
X17447444Y-17064484D01*
X17447444Y-17064484D02*
X17380777Y-17140674D01*
X17380777Y-17140674D02*
X17409349Y-17140674D01*
X17409349Y-17140674D02*
X17428396Y-17150198D01*
X17428396Y-17150198D02*
X17437920Y-17159722D01*
X17437920Y-17159722D02*
X17447444Y-17178770D01*
X17447444Y-17178770D02*
X17447444Y-17226389D01*
X17447444Y-17226389D02*
X17437920Y-17245436D01*
X17437920Y-17245436D02*
X17428396Y-17254960D01*
X17428396Y-17254960D02*
X17409349Y-17264484D01*
X17409349Y-17264484D02*
X17352206Y-17264484D01*
X17352206Y-17264484D02*
X17333158Y-17254960D01*
X17333158Y-17254960D02*
X17323634Y-17245436D01*
X17523634Y-17064484D02*
X17523634Y-17102579D01*
X17599825Y-17064484D02*
X17599825Y-17102579D01*
X17895063Y-17340674D02*
X17885539Y-17331150D01*
X17885539Y-17331150D02*
X17866491Y-17302579D01*
X17866491Y-17302579D02*
X17856968Y-17283531D01*
X17856968Y-17283531D02*
X17847444Y-17254960D01*
X17847444Y-17254960D02*
X17837920Y-17207341D01*
X17837920Y-17207341D02*
X17837920Y-17169246D01*
X17837920Y-17169246D02*
X17847444Y-17121627D01*
X17847444Y-17121627D02*
X17856968Y-17093055D01*
X17856968Y-17093055D02*
X17866491Y-17074008D01*
X17866491Y-17074008D02*
X17885539Y-17045436D01*
X17885539Y-17045436D02*
X17895063Y-17035912D01*
X18076015Y-17264484D02*
X17961730Y-17264484D01*
X18018872Y-17264484D02*
X18018872Y-17064484D01*
X18018872Y-17064484D02*
X17999825Y-17093055D01*
X17999825Y-17093055D02*
X17980777Y-17112103D01*
X17980777Y-17112103D02*
X17961730Y-17121627D01*
X18142682Y-17064484D02*
X18266491Y-17064484D01*
X18266491Y-17064484D02*
X18199825Y-17140674D01*
X18199825Y-17140674D02*
X18228396Y-17140674D01*
X18228396Y-17140674D02*
X18247444Y-17150198D01*
X18247444Y-17150198D02*
X18256968Y-17159722D01*
X18256968Y-17159722D02*
X18266491Y-17178770D01*
X18266491Y-17178770D02*
X18266491Y-17226389D01*
X18266491Y-17226389D02*
X18256968Y-17245436D01*
X18256968Y-17245436D02*
X18247444Y-17254960D01*
X18247444Y-17254960D02*
X18228396Y-17264484D01*
X18228396Y-17264484D02*
X18171253Y-17264484D01*
X18171253Y-17264484D02*
X18152206Y-17254960D01*
X18152206Y-17254960D02*
X18142682Y-17245436D01*
X18504587Y-17264484D02*
X18504587Y-17064484D01*
X18590301Y-17264484D02*
X18590301Y-17159722D01*
X18590301Y-17159722D02*
X18580777Y-17140674D01*
X18580777Y-17140674D02*
X18561730Y-17131150D01*
X18561730Y-17131150D02*
X18533158Y-17131150D01*
X18533158Y-17131150D02*
X18514111Y-17140674D01*
X18514111Y-17140674D02*
X18504587Y-17150198D01*
X18714111Y-17264484D02*
X18695063Y-17254960D01*
X18695063Y-17254960D02*
X18685539Y-17245436D01*
X18685539Y-17245436D02*
X18676015Y-17226389D01*
X18676015Y-17226389D02*
X18676015Y-17169246D01*
X18676015Y-17169246D02*
X18685539Y-17150198D01*
X18685539Y-17150198D02*
X18695063Y-17140674D01*
X18695063Y-17140674D02*
X18714111Y-17131150D01*
X18714111Y-17131150D02*
X18742682Y-17131150D01*
X18742682Y-17131150D02*
X18761730Y-17140674D01*
X18761730Y-17140674D02*
X18771253Y-17150198D01*
X18771253Y-17150198D02*
X18780777Y-17169246D01*
X18780777Y-17169246D02*
X18780777Y-17226389D01*
X18780777Y-17226389D02*
X18771253Y-17245436D01*
X18771253Y-17245436D02*
X18761730Y-17254960D01*
X18761730Y-17254960D02*
X18742682Y-17264484D01*
X18742682Y-17264484D02*
X18714111Y-17264484D01*
X18895063Y-17264484D02*
X18876015Y-17254960D01*
X18876015Y-17254960D02*
X18866492Y-17235912D01*
X18866492Y-17235912D02*
X18866492Y-17064484D01*
X19047444Y-17254960D02*
X19028396Y-17264484D01*
X19028396Y-17264484D02*
X18990301Y-17264484D01*
X18990301Y-17264484D02*
X18971253Y-17254960D01*
X18971253Y-17254960D02*
X18961730Y-17235912D01*
X18961730Y-17235912D02*
X18961730Y-17159722D01*
X18961730Y-17159722D02*
X18971253Y-17140674D01*
X18971253Y-17140674D02*
X18990301Y-17131150D01*
X18990301Y-17131150D02*
X19028396Y-17131150D01*
X19028396Y-17131150D02*
X19047444Y-17140674D01*
X19047444Y-17140674D02*
X19056968Y-17159722D01*
X19056968Y-17159722D02*
X19056968Y-17178770D01*
X19056968Y-17178770D02*
X18961730Y-17197817D01*
X19133158Y-17254960D02*
X19152206Y-17264484D01*
X19152206Y-17264484D02*
X19190301Y-17264484D01*
X19190301Y-17264484D02*
X19209349Y-17254960D01*
X19209349Y-17254960D02*
X19218873Y-17235912D01*
X19218873Y-17235912D02*
X19218873Y-17226389D01*
X19218873Y-17226389D02*
X19209349Y-17207341D01*
X19209349Y-17207341D02*
X19190301Y-17197817D01*
X19190301Y-17197817D02*
X19161730Y-17197817D01*
X19161730Y-17197817D02*
X19142682Y-17188293D01*
X19142682Y-17188293D02*
X19133158Y-17169246D01*
X19133158Y-17169246D02*
X19133158Y-17159722D01*
X19133158Y-17159722D02*
X19142682Y-17140674D01*
X19142682Y-17140674D02*
X19161730Y-17131150D01*
X19161730Y-17131150D02*
X19190301Y-17131150D01*
X19190301Y-17131150D02*
X19209349Y-17140674D01*
X19285539Y-17340674D02*
X19295063Y-17331150D01*
X19295063Y-17331150D02*
X19314111Y-17302579D01*
X19314111Y-17302579D02*
X19323634Y-17283531D01*
X19323634Y-17283531D02*
X19333158Y-17254960D01*
X19333158Y-17254960D02*
X19342682Y-17207341D01*
X19342682Y-17207341D02*
X19342682Y-17169246D01*
X19342682Y-17169246D02*
X19333158Y-17121627D01*
X19333158Y-17121627D02*
X19323634Y-17093055D01*
X19323634Y-17093055D02*
X19314111Y-17074008D01*
X19314111Y-17074008D02*
X19295063Y-17045436D01*
X19295063Y-17045436D02*
X19285539Y-17035912D01*
X14290711Y-17507711D02*
X14290711Y-17366289D01*
X14149289Y-17366289D01*
X14149289Y-17507711D01*
X14290711Y-17507711D01*
X14571253Y-17347531D02*
X14580777Y-17338008D01*
X14580777Y-17338008D02*
X14599824Y-17328484D01*
X14599824Y-17328484D02*
X14647443Y-17328484D01*
X14647443Y-17328484D02*
X14666491Y-17338008D01*
X14666491Y-17338008D02*
X14676015Y-17347531D01*
X14676015Y-17347531D02*
X14685539Y-17366579D01*
X14685539Y-17366579D02*
X14685539Y-17385627D01*
X14685539Y-17385627D02*
X14676015Y-17414198D01*
X14676015Y-17414198D02*
X14561729Y-17528484D01*
X14561729Y-17528484D02*
X14685539Y-17528484D01*
X14771253Y-17509436D02*
X14780777Y-17518960D01*
X14780777Y-17518960D02*
X14771253Y-17528484D01*
X14771253Y-17528484D02*
X14761729Y-17518960D01*
X14761729Y-17518960D02*
X14771253Y-17509436D01*
X14771253Y-17509436D02*
X14771253Y-17528484D01*
X14971253Y-17528484D02*
X14856967Y-17528484D01*
X14914110Y-17528484D02*
X14914110Y-17328484D01*
X14914110Y-17328484D02*
X14895062Y-17357055D01*
X14895062Y-17357055D02*
X14876015Y-17376103D01*
X14876015Y-17376103D02*
X14856967Y-17385627D01*
X15095062Y-17328484D02*
X15114110Y-17328484D01*
X15114110Y-17328484D02*
X15133158Y-17338008D01*
X15133158Y-17338008D02*
X15142682Y-17347531D01*
X15142682Y-17347531D02*
X15152205Y-17366579D01*
X15152205Y-17366579D02*
X15161729Y-17404674D01*
X15161729Y-17404674D02*
X15161729Y-17452293D01*
X15161729Y-17452293D02*
X15152205Y-17490389D01*
X15152205Y-17490389D02*
X15142682Y-17509436D01*
X15142682Y-17509436D02*
X15133158Y-17518960D01*
X15133158Y-17518960D02*
X15114110Y-17528484D01*
X15114110Y-17528484D02*
X15095062Y-17528484D01*
X15095062Y-17528484D02*
X15076015Y-17518960D01*
X15076015Y-17518960D02*
X15066491Y-17509436D01*
X15066491Y-17509436D02*
X15056967Y-17490389D01*
X15056967Y-17490389D02*
X15047443Y-17452293D01*
X15047443Y-17452293D02*
X15047443Y-17404674D01*
X15047443Y-17404674D02*
X15056967Y-17366579D01*
X15056967Y-17366579D02*
X15066491Y-17347531D01*
X15066491Y-17347531D02*
X15076015Y-17338008D01*
X15076015Y-17338008D02*
X15095062Y-17328484D01*
X15285539Y-17328484D02*
X15304586Y-17328484D01*
X15304586Y-17328484D02*
X15323634Y-17338008D01*
X15323634Y-17338008D02*
X15333158Y-17347531D01*
X15333158Y-17347531D02*
X15342682Y-17366579D01*
X15342682Y-17366579D02*
X15352205Y-17404674D01*
X15352205Y-17404674D02*
X15352205Y-17452293D01*
X15352205Y-17452293D02*
X15342682Y-17490389D01*
X15342682Y-17490389D02*
X15333158Y-17509436D01*
X15333158Y-17509436D02*
X15323634Y-17518960D01*
X15323634Y-17518960D02*
X15304586Y-17528484D01*
X15304586Y-17528484D02*
X15285539Y-17528484D01*
X15285539Y-17528484D02*
X15266491Y-17518960D01*
X15266491Y-17518960D02*
X15256967Y-17509436D01*
X15256967Y-17509436D02*
X15247443Y-17490389D01*
X15247443Y-17490389D02*
X15237920Y-17452293D01*
X15237920Y-17452293D02*
X15237920Y-17404674D01*
X15237920Y-17404674D02*
X15247443Y-17366579D01*
X15247443Y-17366579D02*
X15256967Y-17347531D01*
X15256967Y-17347531D02*
X15266491Y-17338008D01*
X15266491Y-17338008D02*
X15285539Y-17328484D01*
X15437920Y-17528484D02*
X15437920Y-17395150D01*
X15437920Y-17414198D02*
X15447443Y-17404674D01*
X15447443Y-17404674D02*
X15466491Y-17395150D01*
X15466491Y-17395150D02*
X15495063Y-17395150D01*
X15495063Y-17395150D02*
X15514110Y-17404674D01*
X15514110Y-17404674D02*
X15523634Y-17423722D01*
X15523634Y-17423722D02*
X15523634Y-17528484D01*
X15523634Y-17423722D02*
X15533158Y-17404674D01*
X15533158Y-17404674D02*
X15552205Y-17395150D01*
X15552205Y-17395150D02*
X15580777Y-17395150D01*
X15580777Y-17395150D02*
X15599824Y-17404674D01*
X15599824Y-17404674D02*
X15609348Y-17423722D01*
X15609348Y-17423722D02*
X15609348Y-17528484D01*
X15704586Y-17528484D02*
X15704586Y-17395150D01*
X15704586Y-17414198D02*
X15714110Y-17404674D01*
X15714110Y-17404674D02*
X15733158Y-17395150D01*
X15733158Y-17395150D02*
X15761729Y-17395150D01*
X15761729Y-17395150D02*
X15780777Y-17404674D01*
X15780777Y-17404674D02*
X15790301Y-17423722D01*
X15790301Y-17423722D02*
X15790301Y-17528484D01*
X15790301Y-17423722D02*
X15799824Y-17404674D01*
X15799824Y-17404674D02*
X15818872Y-17395150D01*
X15818872Y-17395150D02*
X15847443Y-17395150D01*
X15847443Y-17395150D02*
X15866491Y-17404674D01*
X15866491Y-17404674D02*
X15876015Y-17423722D01*
X15876015Y-17423722D02*
X15876015Y-17528484D01*
X16266491Y-17318960D02*
X16095063Y-17576103D01*
X16523634Y-17328484D02*
X16542682Y-17328484D01*
X16542682Y-17328484D02*
X16561729Y-17338008D01*
X16561729Y-17338008D02*
X16571253Y-17347531D01*
X16571253Y-17347531D02*
X16580777Y-17366579D01*
X16580777Y-17366579D02*
X16590301Y-17404674D01*
X16590301Y-17404674D02*
X16590301Y-17452293D01*
X16590301Y-17452293D02*
X16580777Y-17490389D01*
X16580777Y-17490389D02*
X16571253Y-17509436D01*
X16571253Y-17509436D02*
X16561729Y-17518960D01*
X16561729Y-17518960D02*
X16542682Y-17528484D01*
X16542682Y-17528484D02*
X16523634Y-17528484D01*
X16523634Y-17528484D02*
X16504586Y-17518960D01*
X16504586Y-17518960D02*
X16495063Y-17509436D01*
X16495063Y-17509436D02*
X16485539Y-17490389D01*
X16485539Y-17490389D02*
X16476015Y-17452293D01*
X16476015Y-17452293D02*
X16476015Y-17404674D01*
X16476015Y-17404674D02*
X16485539Y-17366579D01*
X16485539Y-17366579D02*
X16495063Y-17347531D01*
X16495063Y-17347531D02*
X16504586Y-17338008D01*
X16504586Y-17338008D02*
X16523634Y-17328484D01*
X16676015Y-17509436D02*
X16685539Y-17518960D01*
X16685539Y-17518960D02*
X16676015Y-17528484D01*
X16676015Y-17528484D02*
X16666491Y-17518960D01*
X16666491Y-17518960D02*
X16676015Y-17509436D01*
X16676015Y-17509436D02*
X16676015Y-17528484D01*
X16809348Y-17328484D02*
X16828396Y-17328484D01*
X16828396Y-17328484D02*
X16847444Y-17338008D01*
X16847444Y-17338008D02*
X16856968Y-17347531D01*
X16856968Y-17347531D02*
X16866491Y-17366579D01*
X16866491Y-17366579D02*
X16876015Y-17404674D01*
X16876015Y-17404674D02*
X16876015Y-17452293D01*
X16876015Y-17452293D02*
X16866491Y-17490389D01*
X16866491Y-17490389D02*
X16856968Y-17509436D01*
X16856968Y-17509436D02*
X16847444Y-17518960D01*
X16847444Y-17518960D02*
X16828396Y-17528484D01*
X16828396Y-17528484D02*
X16809348Y-17528484D01*
X16809348Y-17528484D02*
X16790301Y-17518960D01*
X16790301Y-17518960D02*
X16780777Y-17509436D01*
X16780777Y-17509436D02*
X16771253Y-17490389D01*
X16771253Y-17490389D02*
X16761729Y-17452293D01*
X16761729Y-17452293D02*
X16761729Y-17404674D01*
X16761729Y-17404674D02*
X16771253Y-17366579D01*
X16771253Y-17366579D02*
X16780777Y-17347531D01*
X16780777Y-17347531D02*
X16790301Y-17338008D01*
X16790301Y-17338008D02*
X16809348Y-17328484D01*
X16990301Y-17414198D02*
X16971253Y-17404674D01*
X16971253Y-17404674D02*
X16961729Y-17395150D01*
X16961729Y-17395150D02*
X16952206Y-17376103D01*
X16952206Y-17376103D02*
X16952206Y-17366579D01*
X16952206Y-17366579D02*
X16961729Y-17347531D01*
X16961729Y-17347531D02*
X16971253Y-17338008D01*
X16971253Y-17338008D02*
X16990301Y-17328484D01*
X16990301Y-17328484D02*
X17028396Y-17328484D01*
X17028396Y-17328484D02*
X17047444Y-17338008D01*
X17047444Y-17338008D02*
X17056968Y-17347531D01*
X17056968Y-17347531D02*
X17066491Y-17366579D01*
X17066491Y-17366579D02*
X17066491Y-17376103D01*
X17066491Y-17376103D02*
X17056968Y-17395150D01*
X17056968Y-17395150D02*
X17047444Y-17404674D01*
X17047444Y-17404674D02*
X17028396Y-17414198D01*
X17028396Y-17414198D02*
X16990301Y-17414198D01*
X16990301Y-17414198D02*
X16971253Y-17423722D01*
X16971253Y-17423722D02*
X16961729Y-17433246D01*
X16961729Y-17433246D02*
X16952206Y-17452293D01*
X16952206Y-17452293D02*
X16952206Y-17490389D01*
X16952206Y-17490389D02*
X16961729Y-17509436D01*
X16961729Y-17509436D02*
X16971253Y-17518960D01*
X16971253Y-17518960D02*
X16990301Y-17528484D01*
X16990301Y-17528484D02*
X17028396Y-17528484D01*
X17028396Y-17528484D02*
X17047444Y-17518960D01*
X17047444Y-17518960D02*
X17056968Y-17509436D01*
X17056968Y-17509436D02*
X17066491Y-17490389D01*
X17066491Y-17490389D02*
X17066491Y-17452293D01*
X17066491Y-17452293D02*
X17056968Y-17433246D01*
X17056968Y-17433246D02*
X17047444Y-17423722D01*
X17047444Y-17423722D02*
X17028396Y-17414198D01*
X17142682Y-17347531D02*
X17152206Y-17338008D01*
X17152206Y-17338008D02*
X17171253Y-17328484D01*
X17171253Y-17328484D02*
X17218872Y-17328484D01*
X17218872Y-17328484D02*
X17237920Y-17338008D01*
X17237920Y-17338008D02*
X17247444Y-17347531D01*
X17247444Y-17347531D02*
X17256968Y-17366579D01*
X17256968Y-17366579D02*
X17256968Y-17385627D01*
X17256968Y-17385627D02*
X17247444Y-17414198D01*
X17247444Y-17414198D02*
X17133158Y-17528484D01*
X17133158Y-17528484D02*
X17256968Y-17528484D01*
X17323634Y-17328484D02*
X17456968Y-17328484D01*
X17456968Y-17328484D02*
X17371253Y-17528484D01*
X17523634Y-17328484D02*
X17523634Y-17366579D01*
X17599825Y-17328484D02*
X17599825Y-17366579D01*
X17895063Y-17604674D02*
X17885539Y-17595150D01*
X17885539Y-17595150D02*
X17866491Y-17566579D01*
X17866491Y-17566579D02*
X17856968Y-17547531D01*
X17856968Y-17547531D02*
X17847444Y-17518960D01*
X17847444Y-17518960D02*
X17837920Y-17471341D01*
X17837920Y-17471341D02*
X17837920Y-17433246D01*
X17837920Y-17433246D02*
X17847444Y-17385627D01*
X17847444Y-17385627D02*
X17856968Y-17357055D01*
X17856968Y-17357055D02*
X17866491Y-17338008D01*
X17866491Y-17338008D02*
X17885539Y-17309436D01*
X17885539Y-17309436D02*
X17895063Y-17299912D01*
X18056968Y-17395150D02*
X18056968Y-17528484D01*
X18009349Y-17318960D02*
X17961730Y-17461817D01*
X17961730Y-17461817D02*
X18085539Y-17461817D01*
X18314111Y-17528484D02*
X18314111Y-17328484D01*
X18399825Y-17528484D02*
X18399825Y-17423722D01*
X18399825Y-17423722D02*
X18390301Y-17404674D01*
X18390301Y-17404674D02*
X18371253Y-17395150D01*
X18371253Y-17395150D02*
X18342682Y-17395150D01*
X18342682Y-17395150D02*
X18323634Y-17404674D01*
X18323634Y-17404674D02*
X18314111Y-17414198D01*
X18523634Y-17528484D02*
X18504587Y-17518960D01*
X18504587Y-17518960D02*
X18495063Y-17509436D01*
X18495063Y-17509436D02*
X18485539Y-17490389D01*
X18485539Y-17490389D02*
X18485539Y-17433246D01*
X18485539Y-17433246D02*
X18495063Y-17414198D01*
X18495063Y-17414198D02*
X18504587Y-17404674D01*
X18504587Y-17404674D02*
X18523634Y-17395150D01*
X18523634Y-17395150D02*
X18552206Y-17395150D01*
X18552206Y-17395150D02*
X18571253Y-17404674D01*
X18571253Y-17404674D02*
X18580777Y-17414198D01*
X18580777Y-17414198D02*
X18590301Y-17433246D01*
X18590301Y-17433246D02*
X18590301Y-17490389D01*
X18590301Y-17490389D02*
X18580777Y-17509436D01*
X18580777Y-17509436D02*
X18571253Y-17518960D01*
X18571253Y-17518960D02*
X18552206Y-17528484D01*
X18552206Y-17528484D02*
X18523634Y-17528484D01*
X18704587Y-17528484D02*
X18685539Y-17518960D01*
X18685539Y-17518960D02*
X18676015Y-17499912D01*
X18676015Y-17499912D02*
X18676015Y-17328484D01*
X18856968Y-17518960D02*
X18837920Y-17528484D01*
X18837920Y-17528484D02*
X18799825Y-17528484D01*
X18799825Y-17528484D02*
X18780777Y-17518960D01*
X18780777Y-17518960D02*
X18771253Y-17499912D01*
X18771253Y-17499912D02*
X18771253Y-17423722D01*
X18771253Y-17423722D02*
X18780777Y-17404674D01*
X18780777Y-17404674D02*
X18799825Y-17395150D01*
X18799825Y-17395150D02*
X18837920Y-17395150D01*
X18837920Y-17395150D02*
X18856968Y-17404674D01*
X18856968Y-17404674D02*
X18866492Y-17423722D01*
X18866492Y-17423722D02*
X18866492Y-17442770D01*
X18866492Y-17442770D02*
X18771253Y-17461817D01*
X18942682Y-17518960D02*
X18961730Y-17528484D01*
X18961730Y-17528484D02*
X18999825Y-17528484D01*
X18999825Y-17528484D02*
X19018873Y-17518960D01*
X19018873Y-17518960D02*
X19028396Y-17499912D01*
X19028396Y-17499912D02*
X19028396Y-17490389D01*
X19028396Y-17490389D02*
X19018873Y-17471341D01*
X19018873Y-17471341D02*
X18999825Y-17461817D01*
X18999825Y-17461817D02*
X18971253Y-17461817D01*
X18971253Y-17461817D02*
X18952206Y-17452293D01*
X18952206Y-17452293D02*
X18942682Y-17433246D01*
X18942682Y-17433246D02*
X18942682Y-17423722D01*
X18942682Y-17423722D02*
X18952206Y-17404674D01*
X18952206Y-17404674D02*
X18971253Y-17395150D01*
X18971253Y-17395150D02*
X18999825Y-17395150D01*
X18999825Y-17395150D02*
X19018873Y-17404674D01*
X19095063Y-17604674D02*
X19104587Y-17595150D01*
X19104587Y-17595150D02*
X19123634Y-17566579D01*
X19123634Y-17566579D02*
X19133158Y-17547531D01*
X19133158Y-17547531D02*
X19142682Y-17518960D01*
X19142682Y-17518960D02*
X19152206Y-17471341D01*
X19152206Y-17471341D02*
X19152206Y-17433246D01*
X19152206Y-17433246D02*
X19142682Y-17385627D01*
X19142682Y-17385627D02*
X19133158Y-17357055D01*
X19133158Y-17357055D02*
X19123634Y-17338008D01*
X19123634Y-17338008D02*
X19104587Y-17309436D01*
X19104587Y-17309436D02*
X19095063Y-17299912D01*
X14220000Y-17857000D02*
X14320000Y-17757000D01*
X14220000Y-17657000D01*
X14120000Y-17757000D01*
X14220000Y-17857000D01*
X14571253Y-17667531D02*
X14580777Y-17658008D01*
X14580777Y-17658008D02*
X14599824Y-17648484D01*
X14599824Y-17648484D02*
X14647443Y-17648484D01*
X14647443Y-17648484D02*
X14666491Y-17658008D01*
X14666491Y-17658008D02*
X14676015Y-17667531D01*
X14676015Y-17667531D02*
X14685539Y-17686579D01*
X14685539Y-17686579D02*
X14685539Y-17705627D01*
X14685539Y-17705627D02*
X14676015Y-17734198D01*
X14676015Y-17734198D02*
X14561729Y-17848484D01*
X14561729Y-17848484D02*
X14685539Y-17848484D01*
X14771253Y-17829436D02*
X14780777Y-17838960D01*
X14780777Y-17838960D02*
X14771253Y-17848484D01*
X14771253Y-17848484D02*
X14761729Y-17838960D01*
X14761729Y-17838960D02*
X14771253Y-17829436D01*
X14771253Y-17829436D02*
X14771253Y-17848484D01*
X14961729Y-17648484D02*
X14866491Y-17648484D01*
X14866491Y-17648484D02*
X14856967Y-17743722D01*
X14856967Y-17743722D02*
X14866491Y-17734198D01*
X14866491Y-17734198D02*
X14885539Y-17724674D01*
X14885539Y-17724674D02*
X14933158Y-17724674D01*
X14933158Y-17724674D02*
X14952205Y-17734198D01*
X14952205Y-17734198D02*
X14961729Y-17743722D01*
X14961729Y-17743722D02*
X14971253Y-17762770D01*
X14971253Y-17762770D02*
X14971253Y-17810389D01*
X14971253Y-17810389D02*
X14961729Y-17829436D01*
X14961729Y-17829436D02*
X14952205Y-17838960D01*
X14952205Y-17838960D02*
X14933158Y-17848484D01*
X14933158Y-17848484D02*
X14885539Y-17848484D01*
X14885539Y-17848484D02*
X14866491Y-17838960D01*
X14866491Y-17838960D02*
X14856967Y-17829436D01*
X15095062Y-17648484D02*
X15114110Y-17648484D01*
X15114110Y-17648484D02*
X15133158Y-17658008D01*
X15133158Y-17658008D02*
X15142682Y-17667531D01*
X15142682Y-17667531D02*
X15152205Y-17686579D01*
X15152205Y-17686579D02*
X15161729Y-17724674D01*
X15161729Y-17724674D02*
X15161729Y-17772293D01*
X15161729Y-17772293D02*
X15152205Y-17810389D01*
X15152205Y-17810389D02*
X15142682Y-17829436D01*
X15142682Y-17829436D02*
X15133158Y-17838960D01*
X15133158Y-17838960D02*
X15114110Y-17848484D01*
X15114110Y-17848484D02*
X15095062Y-17848484D01*
X15095062Y-17848484D02*
X15076015Y-17838960D01*
X15076015Y-17838960D02*
X15066491Y-17829436D01*
X15066491Y-17829436D02*
X15056967Y-17810389D01*
X15056967Y-17810389D02*
X15047443Y-17772293D01*
X15047443Y-17772293D02*
X15047443Y-17724674D01*
X15047443Y-17724674D02*
X15056967Y-17686579D01*
X15056967Y-17686579D02*
X15066491Y-17667531D01*
X15066491Y-17667531D02*
X15076015Y-17658008D01*
X15076015Y-17658008D02*
X15095062Y-17648484D01*
X15285539Y-17648484D02*
X15304586Y-17648484D01*
X15304586Y-17648484D02*
X15323634Y-17658008D01*
X15323634Y-17658008D02*
X15333158Y-17667531D01*
X15333158Y-17667531D02*
X15342682Y-17686579D01*
X15342682Y-17686579D02*
X15352205Y-17724674D01*
X15352205Y-17724674D02*
X15352205Y-17772293D01*
X15352205Y-17772293D02*
X15342682Y-17810389D01*
X15342682Y-17810389D02*
X15333158Y-17829436D01*
X15333158Y-17829436D02*
X15323634Y-17838960D01*
X15323634Y-17838960D02*
X15304586Y-17848484D01*
X15304586Y-17848484D02*
X15285539Y-17848484D01*
X15285539Y-17848484D02*
X15266491Y-17838960D01*
X15266491Y-17838960D02*
X15256967Y-17829436D01*
X15256967Y-17829436D02*
X15247443Y-17810389D01*
X15247443Y-17810389D02*
X15237920Y-17772293D01*
X15237920Y-17772293D02*
X15237920Y-17724674D01*
X15237920Y-17724674D02*
X15247443Y-17686579D01*
X15247443Y-17686579D02*
X15256967Y-17667531D01*
X15256967Y-17667531D02*
X15266491Y-17658008D01*
X15266491Y-17658008D02*
X15285539Y-17648484D01*
X15437920Y-17848484D02*
X15437920Y-17715150D01*
X15437920Y-17734198D02*
X15447443Y-17724674D01*
X15447443Y-17724674D02*
X15466491Y-17715150D01*
X15466491Y-17715150D02*
X15495063Y-17715150D01*
X15495063Y-17715150D02*
X15514110Y-17724674D01*
X15514110Y-17724674D02*
X15523634Y-17743722D01*
X15523634Y-17743722D02*
X15523634Y-17848484D01*
X15523634Y-17743722D02*
X15533158Y-17724674D01*
X15533158Y-17724674D02*
X15552205Y-17715150D01*
X15552205Y-17715150D02*
X15580777Y-17715150D01*
X15580777Y-17715150D02*
X15599824Y-17724674D01*
X15599824Y-17724674D02*
X15609348Y-17743722D01*
X15609348Y-17743722D02*
X15609348Y-17848484D01*
X15704586Y-17848484D02*
X15704586Y-17715150D01*
X15704586Y-17734198D02*
X15714110Y-17724674D01*
X15714110Y-17724674D02*
X15733158Y-17715150D01*
X15733158Y-17715150D02*
X15761729Y-17715150D01*
X15761729Y-17715150D02*
X15780777Y-17724674D01*
X15780777Y-17724674D02*
X15790301Y-17743722D01*
X15790301Y-17743722D02*
X15790301Y-17848484D01*
X15790301Y-17743722D02*
X15799824Y-17724674D01*
X15799824Y-17724674D02*
X15818872Y-17715150D01*
X15818872Y-17715150D02*
X15847443Y-17715150D01*
X15847443Y-17715150D02*
X15866491Y-17724674D01*
X15866491Y-17724674D02*
X15876015Y-17743722D01*
X15876015Y-17743722D02*
X15876015Y-17848484D01*
X16266491Y-17638960D02*
X16095063Y-17896103D01*
X16523634Y-17648484D02*
X16542682Y-17648484D01*
X16542682Y-17648484D02*
X16561729Y-17658008D01*
X16561729Y-17658008D02*
X16571253Y-17667531D01*
X16571253Y-17667531D02*
X16580777Y-17686579D01*
X16580777Y-17686579D02*
X16590301Y-17724674D01*
X16590301Y-17724674D02*
X16590301Y-17772293D01*
X16590301Y-17772293D02*
X16580777Y-17810389D01*
X16580777Y-17810389D02*
X16571253Y-17829436D01*
X16571253Y-17829436D02*
X16561729Y-17838960D01*
X16561729Y-17838960D02*
X16542682Y-17848484D01*
X16542682Y-17848484D02*
X16523634Y-17848484D01*
X16523634Y-17848484D02*
X16504586Y-17838960D01*
X16504586Y-17838960D02*
X16495063Y-17829436D01*
X16495063Y-17829436D02*
X16485539Y-17810389D01*
X16485539Y-17810389D02*
X16476015Y-17772293D01*
X16476015Y-17772293D02*
X16476015Y-17724674D01*
X16476015Y-17724674D02*
X16485539Y-17686579D01*
X16485539Y-17686579D02*
X16495063Y-17667531D01*
X16495063Y-17667531D02*
X16504586Y-17658008D01*
X16504586Y-17658008D02*
X16523634Y-17648484D01*
X16676015Y-17829436D02*
X16685539Y-17838960D01*
X16685539Y-17838960D02*
X16676015Y-17848484D01*
X16676015Y-17848484D02*
X16666491Y-17838960D01*
X16666491Y-17838960D02*
X16676015Y-17829436D01*
X16676015Y-17829436D02*
X16676015Y-17848484D01*
X16809348Y-17648484D02*
X16828396Y-17648484D01*
X16828396Y-17648484D02*
X16847444Y-17658008D01*
X16847444Y-17658008D02*
X16856968Y-17667531D01*
X16856968Y-17667531D02*
X16866491Y-17686579D01*
X16866491Y-17686579D02*
X16876015Y-17724674D01*
X16876015Y-17724674D02*
X16876015Y-17772293D01*
X16876015Y-17772293D02*
X16866491Y-17810389D01*
X16866491Y-17810389D02*
X16856968Y-17829436D01*
X16856968Y-17829436D02*
X16847444Y-17838960D01*
X16847444Y-17838960D02*
X16828396Y-17848484D01*
X16828396Y-17848484D02*
X16809348Y-17848484D01*
X16809348Y-17848484D02*
X16790301Y-17838960D01*
X16790301Y-17838960D02*
X16780777Y-17829436D01*
X16780777Y-17829436D02*
X16771253Y-17810389D01*
X16771253Y-17810389D02*
X16761729Y-17772293D01*
X16761729Y-17772293D02*
X16761729Y-17724674D01*
X16761729Y-17724674D02*
X16771253Y-17686579D01*
X16771253Y-17686579D02*
X16780777Y-17667531D01*
X16780777Y-17667531D02*
X16790301Y-17658008D01*
X16790301Y-17658008D02*
X16809348Y-17648484D01*
X16971253Y-17848484D02*
X17009348Y-17848484D01*
X17009348Y-17848484D02*
X17028396Y-17838960D01*
X17028396Y-17838960D02*
X17037920Y-17829436D01*
X17037920Y-17829436D02*
X17056968Y-17800865D01*
X17056968Y-17800865D02*
X17066491Y-17762770D01*
X17066491Y-17762770D02*
X17066491Y-17686579D01*
X17066491Y-17686579D02*
X17056968Y-17667531D01*
X17056968Y-17667531D02*
X17047444Y-17658008D01*
X17047444Y-17658008D02*
X17028396Y-17648484D01*
X17028396Y-17648484D02*
X16990301Y-17648484D01*
X16990301Y-17648484D02*
X16971253Y-17658008D01*
X16971253Y-17658008D02*
X16961729Y-17667531D01*
X16961729Y-17667531D02*
X16952206Y-17686579D01*
X16952206Y-17686579D02*
X16952206Y-17734198D01*
X16952206Y-17734198D02*
X16961729Y-17753246D01*
X16961729Y-17753246D02*
X16971253Y-17762770D01*
X16971253Y-17762770D02*
X16990301Y-17772293D01*
X16990301Y-17772293D02*
X17028396Y-17772293D01*
X17028396Y-17772293D02*
X17047444Y-17762770D01*
X17047444Y-17762770D02*
X17056968Y-17753246D01*
X17056968Y-17753246D02*
X17066491Y-17734198D01*
X17180777Y-17734198D02*
X17161729Y-17724674D01*
X17161729Y-17724674D02*
X17152206Y-17715150D01*
X17152206Y-17715150D02*
X17142682Y-17696103D01*
X17142682Y-17696103D02*
X17142682Y-17686579D01*
X17142682Y-17686579D02*
X17152206Y-17667531D01*
X17152206Y-17667531D02*
X17161729Y-17658008D01*
X17161729Y-17658008D02*
X17180777Y-17648484D01*
X17180777Y-17648484D02*
X17218872Y-17648484D01*
X17218872Y-17648484D02*
X17237920Y-17658008D01*
X17237920Y-17658008D02*
X17247444Y-17667531D01*
X17247444Y-17667531D02*
X17256968Y-17686579D01*
X17256968Y-17686579D02*
X17256968Y-17696103D01*
X17256968Y-17696103D02*
X17247444Y-17715150D01*
X17247444Y-17715150D02*
X17237920Y-17724674D01*
X17237920Y-17724674D02*
X17218872Y-17734198D01*
X17218872Y-17734198D02*
X17180777Y-17734198D01*
X17180777Y-17734198D02*
X17161729Y-17743722D01*
X17161729Y-17743722D02*
X17152206Y-17753246D01*
X17152206Y-17753246D02*
X17142682Y-17772293D01*
X17142682Y-17772293D02*
X17142682Y-17810389D01*
X17142682Y-17810389D02*
X17152206Y-17829436D01*
X17152206Y-17829436D02*
X17161729Y-17838960D01*
X17161729Y-17838960D02*
X17180777Y-17848484D01*
X17180777Y-17848484D02*
X17218872Y-17848484D01*
X17218872Y-17848484D02*
X17237920Y-17838960D01*
X17237920Y-17838960D02*
X17247444Y-17829436D01*
X17247444Y-17829436D02*
X17256968Y-17810389D01*
X17256968Y-17810389D02*
X17256968Y-17772293D01*
X17256968Y-17772293D02*
X17247444Y-17753246D01*
X17247444Y-17753246D02*
X17237920Y-17743722D01*
X17237920Y-17743722D02*
X17218872Y-17734198D01*
X17428396Y-17715150D02*
X17428396Y-17848484D01*
X17380777Y-17638960D02*
X17333158Y-17781817D01*
X17333158Y-17781817D02*
X17456968Y-17781817D01*
X17523634Y-17648484D02*
X17523634Y-17686579D01*
X17599825Y-17648484D02*
X17599825Y-17686579D01*
X17895063Y-17924674D02*
X17885539Y-17915150D01*
X17885539Y-17915150D02*
X17866491Y-17886579D01*
X17866491Y-17886579D02*
X17856968Y-17867531D01*
X17856968Y-17867531D02*
X17847444Y-17838960D01*
X17847444Y-17838960D02*
X17837920Y-17791341D01*
X17837920Y-17791341D02*
X17837920Y-17753246D01*
X17837920Y-17753246D02*
X17847444Y-17705627D01*
X17847444Y-17705627D02*
X17856968Y-17677055D01*
X17856968Y-17677055D02*
X17866491Y-17658008D01*
X17866491Y-17658008D02*
X17885539Y-17629436D01*
X17885539Y-17629436D02*
X17895063Y-17619912D01*
X18056968Y-17715150D02*
X18056968Y-17848484D01*
X18009349Y-17638960D02*
X17961730Y-17781817D01*
X17961730Y-17781817D02*
X18085539Y-17781817D01*
X18314111Y-17848484D02*
X18314111Y-17648484D01*
X18399825Y-17848484D02*
X18399825Y-17743722D01*
X18399825Y-17743722D02*
X18390301Y-17724674D01*
X18390301Y-17724674D02*
X18371253Y-17715150D01*
X18371253Y-17715150D02*
X18342682Y-17715150D01*
X18342682Y-17715150D02*
X18323634Y-17724674D01*
X18323634Y-17724674D02*
X18314111Y-17734198D01*
X18523634Y-17848484D02*
X18504587Y-17838960D01*
X18504587Y-17838960D02*
X18495063Y-17829436D01*
X18495063Y-17829436D02*
X18485539Y-17810389D01*
X18485539Y-17810389D02*
X18485539Y-17753246D01*
X18485539Y-17753246D02*
X18495063Y-17734198D01*
X18495063Y-17734198D02*
X18504587Y-17724674D01*
X18504587Y-17724674D02*
X18523634Y-17715150D01*
X18523634Y-17715150D02*
X18552206Y-17715150D01*
X18552206Y-17715150D02*
X18571253Y-17724674D01*
X18571253Y-17724674D02*
X18580777Y-17734198D01*
X18580777Y-17734198D02*
X18590301Y-17753246D01*
X18590301Y-17753246D02*
X18590301Y-17810389D01*
X18590301Y-17810389D02*
X18580777Y-17829436D01*
X18580777Y-17829436D02*
X18571253Y-17838960D01*
X18571253Y-17838960D02*
X18552206Y-17848484D01*
X18552206Y-17848484D02*
X18523634Y-17848484D01*
X18704587Y-17848484D02*
X18685539Y-17838960D01*
X18685539Y-17838960D02*
X18676015Y-17819912D01*
X18676015Y-17819912D02*
X18676015Y-17648484D01*
X18856968Y-17838960D02*
X18837920Y-17848484D01*
X18837920Y-17848484D02*
X18799825Y-17848484D01*
X18799825Y-17848484D02*
X18780777Y-17838960D01*
X18780777Y-17838960D02*
X18771253Y-17819912D01*
X18771253Y-17819912D02*
X18771253Y-17743722D01*
X18771253Y-17743722D02*
X18780777Y-17724674D01*
X18780777Y-17724674D02*
X18799825Y-17715150D01*
X18799825Y-17715150D02*
X18837920Y-17715150D01*
X18837920Y-17715150D02*
X18856968Y-17724674D01*
X18856968Y-17724674D02*
X18866492Y-17743722D01*
X18866492Y-17743722D02*
X18866492Y-17762770D01*
X18866492Y-17762770D02*
X18771253Y-17781817D01*
X18942682Y-17838960D02*
X18961730Y-17848484D01*
X18961730Y-17848484D02*
X18999825Y-17848484D01*
X18999825Y-17848484D02*
X19018873Y-17838960D01*
X19018873Y-17838960D02*
X19028396Y-17819912D01*
X19028396Y-17819912D02*
X19028396Y-17810389D01*
X19028396Y-17810389D02*
X19018873Y-17791341D01*
X19018873Y-17791341D02*
X18999825Y-17781817D01*
X18999825Y-17781817D02*
X18971253Y-17781817D01*
X18971253Y-17781817D02*
X18952206Y-17772293D01*
X18952206Y-17772293D02*
X18942682Y-17753246D01*
X18942682Y-17753246D02*
X18942682Y-17743722D01*
X18942682Y-17743722D02*
X18952206Y-17724674D01*
X18952206Y-17724674D02*
X18971253Y-17715150D01*
X18971253Y-17715150D02*
X18999825Y-17715150D01*
X18999825Y-17715150D02*
X19018873Y-17724674D01*
X19095063Y-17924674D02*
X19104587Y-17915150D01*
X19104587Y-17915150D02*
X19123634Y-17886579D01*
X19123634Y-17886579D02*
X19133158Y-17867531D01*
X19133158Y-17867531D02*
X19142682Y-17838960D01*
X19142682Y-17838960D02*
X19152206Y-17791341D01*
X19152206Y-17791341D02*
X19152206Y-17753246D01*
X19152206Y-17753246D02*
X19142682Y-17705627D01*
X19142682Y-17705627D02*
X19133158Y-17677055D01*
X19133158Y-17677055D02*
X19123634Y-17658008D01*
X19123634Y-17658008D02*
X19104587Y-17629436D01*
X19104587Y-17629436D02*
X19095063Y-17619912D01*
M02*
