G04 #@! TF.GenerationSoftware,KiCad,Pcbnew,9.0.0*
G04 #@! TF.CreationDate,2025-07-26T10:23:47-04:00*
G04 #@! TF.ProjectId,POVideo V2,504f5669-6465-46f2-9056-322e6b696361,rev?*
G04 #@! TF.SameCoordinates,Original*
G04 #@! TF.FileFunction,Copper,L2,Bot*
G04 #@! TF.FilePolarity,Positive*
%FSLAX46Y46*%
G04 Gerber Fmt 4.6, Leading zero omitted, Abs format (unit mm)*
G04 Created by KiCad (PCBNEW 9.0.0) date 2025-07-26 10:23:47*
%MOMM*%
%LPD*%
G01*
G04 APERTURE LIST*
G04 Aperture macros list*
%AMRoundRect*
0 Rectangle with rounded corners*
0 $1 Rounding radius*
0 $2 $3 $4 $5 $6 $7 $8 $9 X,Y pos of 4 corners*
0 Add a 4 corners polygon primitive as box body*
4,1,4,$2,$3,$4,$5,$6,$7,$8,$9,$2,$3,0*
0 Add four circle primitives for the rounded corners*
1,1,$1+$1,$2,$3*
1,1,$1+$1,$4,$5*
1,1,$1+$1,$6,$7*
1,1,$1+$1,$8,$9*
0 Add four rect primitives between the rounded corners*
20,1,$1+$1,$2,$3,$4,$5,0*
20,1,$1+$1,$4,$5,$6,$7,0*
20,1,$1+$1,$6,$7,$8,$9,0*
20,1,$1+$1,$8,$9,$2,$3,0*%
G04 Aperture macros list end*
G04 #@! TA.AperFunction,ComponentPad*
%ADD10RoundRect,0.250000X-0.550000X1.050000X-0.550000X-1.050000X0.550000X-1.050000X0.550000X1.050000X0*%
G04 #@! TD*
G04 #@! TA.AperFunction,ComponentPad*
%ADD11O,1.600000X2.600000*%
G04 #@! TD*
G04 #@! TA.AperFunction,ComponentPad*
%ADD12RoundRect,0.450000X1.050000X1.050000X-1.050000X1.050000X-1.050000X-1.050000X1.050000X-1.050000X0*%
G04 #@! TD*
G04 #@! TA.AperFunction,ComponentPad*
%ADD13RoundRect,0.300000X0.700000X0.700000X-0.700000X0.700000X-0.700000X-0.700000X0.700000X-0.700000X0*%
G04 #@! TD*
G04 #@! TA.AperFunction,ComponentPad*
%ADD14R,1.700000X1.700000*%
G04 #@! TD*
G04 #@! TA.AperFunction,ComponentPad*
%ADD15O,1.700000X1.700000*%
G04 #@! TD*
G04 #@! TA.AperFunction,ComponentPad*
%ADD16C,2.100000*%
G04 #@! TD*
G04 #@! TA.AperFunction,ViaPad*
%ADD17C,0.600000*%
G04 #@! TD*
G04 #@! TA.AperFunction,ViaPad*
%ADD18C,4.000000*%
G04 #@! TD*
G04 #@! TA.AperFunction,Conductor*
%ADD19C,0.200000*%
G04 #@! TD*
G04 APERTURE END LIST*
D10*
X155400000Y-78300000D03*
D11*
X157940000Y-78300000D03*
X160480000Y-78300000D03*
X163020000Y-78300000D03*
X165560000Y-78300000D03*
X168100000Y-78300000D03*
X170640000Y-78300000D03*
X173180000Y-78300000D03*
X175720000Y-78300000D03*
X178260000Y-78300000D03*
X180800000Y-78300000D03*
X183340000Y-78300000D03*
X185880000Y-78300000D03*
X188420000Y-78300000D03*
X190960000Y-78300000D03*
X193500000Y-78300000D03*
X193500000Y-98020000D03*
X190960000Y-98020000D03*
X188420000Y-98020000D03*
X185880000Y-98020000D03*
X183340000Y-98020000D03*
X180800000Y-98020000D03*
X178260000Y-98020000D03*
X175720000Y-98020000D03*
X173180000Y-98020000D03*
X170640000Y-98020000D03*
X168100000Y-98020000D03*
X165560000Y-98020000D03*
D12*
X182000000Y-112300000D03*
X190000000Y-112300000D03*
D13*
X183500000Y-105800000D03*
X186000000Y-105800000D03*
X188500000Y-105800000D03*
X199500000Y-105800000D03*
X197000000Y-105800000D03*
X194500000Y-105800000D03*
D12*
X201000000Y-112300000D03*
X193000000Y-112300000D03*
D14*
X164850000Y-57500000D03*
D15*
X167390000Y-57500000D03*
X169930000Y-57500000D03*
X172470000Y-57500000D03*
X175000000Y-57500000D03*
X177550000Y-57500000D03*
X180090000Y-57500000D03*
X182630000Y-57500000D03*
X185170000Y-57500000D03*
D16*
X149550000Y-97750000D03*
X149550000Y-100250000D03*
X149550000Y-102750000D03*
X199250000Y-63000000D03*
X199250000Y-65500000D03*
X204250000Y-68000000D03*
X199250000Y-70500000D03*
X199250000Y-73000000D03*
X150750000Y-73000000D03*
X150750000Y-70500000D03*
X145750000Y-68000000D03*
X150750000Y-65500000D03*
X150750000Y-63000000D03*
D17*
X185000000Y-107500000D03*
X178250000Y-71000000D03*
X190000000Y-71000000D03*
X158000000Y-75750000D03*
X163000000Y-75750000D03*
X186750000Y-102250000D03*
X201000000Y-101750000D03*
X198250000Y-101750000D03*
X178500000Y-118500000D03*
X179250000Y-131000000D03*
X195750000Y-107250000D03*
X149750000Y-83000000D03*
X157500000Y-83000000D03*
X179500000Y-80250000D03*
X192250000Y-81000000D03*
X195000000Y-85000000D03*
X199500000Y-85000000D03*
X155000000Y-102500000D03*
X173250000Y-104250000D03*
X173250000Y-100250000D03*
X196750000Y-96250000D03*
X198000000Y-90500000D03*
X198750000Y-86500000D03*
X197500000Y-120250000D03*
X196750000Y-132750000D03*
X196000000Y-145250000D03*
X185750000Y-145250000D03*
X185000000Y-132750000D03*
X183750000Y-118250000D03*
X172750000Y-106000000D03*
X180000000Y-143500000D03*
X153500000Y-94000000D03*
X153500000Y-145250000D03*
X152750000Y-132750000D03*
X152750000Y-89500000D03*
X152000000Y-85500000D03*
X152000000Y-120250000D03*
X151250000Y-81500000D03*
X150750000Y-106000000D03*
D18*
X145750000Y-108500000D03*
X204250000Y-108500000D03*
X145750000Y-57500000D03*
X204250000Y-57500000D03*
D17*
X162250000Y-94500000D03*
X162250000Y-86500000D03*
X162250000Y-82500000D03*
X162250000Y-90500000D03*
X169750000Y-94500000D03*
X169750000Y-90500000D03*
X169750000Y-82500000D03*
X169750000Y-86500000D03*
X156000000Y-106000000D03*
X156034687Y-80900000D03*
X177250000Y-90500000D03*
X177250000Y-86500000D03*
X177250000Y-94500000D03*
X177250000Y-82500000D03*
X159000000Y-120250000D03*
X156750000Y-84750000D03*
X169500000Y-120250000D03*
X159000000Y-84000000D03*
X184750000Y-94500000D03*
X184750000Y-86500000D03*
X184750000Y-90500000D03*
X190500000Y-86500000D03*
X192250000Y-94500000D03*
X192250000Y-90500000D03*
X192250000Y-86500000D03*
X159750000Y-132750000D03*
X157500000Y-88750000D03*
X159750000Y-88250000D03*
X170250000Y-132750000D03*
X190500000Y-90500000D03*
X158250000Y-93000000D03*
X160500000Y-145250000D03*
X160500000Y-92400000D03*
X171000000Y-145250000D03*
X191100000Y-94500000D03*
X178250000Y-72250000D03*
X195250000Y-74500000D03*
D19*
X183500000Y-106000000D02*
X185000000Y-107500000D01*
X183500000Y-105800000D02*
X183500000Y-106000000D01*
X186750000Y-102250000D02*
X183500000Y-105500000D01*
X183500000Y-105500000D02*
X183500000Y-105800000D01*
X198250000Y-101750000D02*
X194500000Y-105500000D01*
X194500000Y-105500000D02*
X194500000Y-105800000D01*
X175720000Y-98320000D02*
X178500000Y-101100000D01*
X178500000Y-101100000D02*
X178500000Y-118500000D01*
X179250000Y-99310000D02*
X179250000Y-131000000D01*
X194000000Y-103500000D02*
X198750000Y-98750000D01*
X198750000Y-98750000D02*
X198750000Y-86500000D01*
X192500000Y-103500000D02*
X194000000Y-103500000D01*
X191500000Y-107500000D02*
X191500000Y-104500000D01*
X195500000Y-109250000D02*
X193250000Y-109250000D01*
X197500000Y-111250000D02*
X195500000Y-109250000D01*
X193250000Y-109250000D02*
X191500000Y-107500000D01*
X191500000Y-104500000D02*
X192500000Y-103500000D01*
X196750000Y-111500000D02*
X195000000Y-109750000D01*
X193000000Y-109750000D02*
X191000000Y-107750000D01*
X196750000Y-132750000D02*
X196750000Y-111500000D01*
X195000000Y-109750000D02*
X193000000Y-109750000D01*
X191000000Y-107750000D02*
X191000000Y-104250000D01*
X198000000Y-98750000D02*
X198000000Y-90500000D01*
X191000000Y-104250000D02*
X192250000Y-103000000D01*
X192250000Y-103000000D02*
X193750000Y-103000000D01*
X193750000Y-103000000D02*
X198000000Y-98750000D01*
X192000000Y-102500000D02*
X190500000Y-104000000D01*
X196750000Y-99250000D02*
X193500000Y-102500000D01*
X190500000Y-108000000D02*
X192750000Y-110250000D01*
X193500000Y-102500000D02*
X192000000Y-102500000D01*
X190500000Y-104000000D02*
X190500000Y-108000000D01*
X192750000Y-110250000D02*
X194500000Y-110250000D01*
X194500000Y-110250000D02*
X196000000Y-111750000D01*
X164650000Y-80250000D02*
X179500000Y-80250000D01*
X164500000Y-80400000D02*
X164650000Y-80250000D01*
X192250000Y-81000000D02*
X194000000Y-81000000D01*
X194000000Y-81000000D02*
X195250000Y-79750000D01*
X195250000Y-79750000D02*
X195250000Y-74500000D01*
X195000000Y-100000000D02*
X195000000Y-85000000D01*
X199500000Y-103300000D02*
X199500000Y-85000000D01*
X197000000Y-105800000D02*
X199500000Y-103300000D01*
X155000000Y-80500000D02*
X155000000Y-102500000D01*
X155250000Y-80250000D02*
X155000000Y-80500000D01*
X156750000Y-80250000D02*
X155250000Y-80250000D01*
X157940000Y-78000000D02*
X157940000Y-79060000D01*
X157940000Y-79060000D02*
X156750000Y-80250000D01*
X173250000Y-100250000D02*
X173250000Y-104250000D01*
X196750000Y-99250000D02*
X196750000Y-96250000D01*
X196000000Y-145250000D02*
X196000000Y-111750000D01*
X197500000Y-111250000D02*
X197500000Y-120250000D01*
X193250000Y-101750000D02*
X195000000Y-100000000D01*
X188750000Y-101750000D02*
X193250000Y-101750000D01*
X187500000Y-103000000D02*
X188750000Y-101750000D01*
X186000000Y-104500000D02*
X187500000Y-103000000D01*
X186000000Y-105800000D02*
X186000000Y-104500000D01*
X180500000Y-107250000D02*
X184250000Y-111000000D01*
X180500000Y-101500000D02*
X180500000Y-107250000D01*
X184250000Y-111000000D02*
X184250000Y-117750000D01*
X184250000Y-117750000D02*
X183750000Y-118250000D01*
X181500000Y-106750000D02*
X185750000Y-111000000D01*
X182250000Y-101250000D02*
X181500000Y-102000000D01*
X185750000Y-111000000D02*
X185750000Y-145250000D01*
X191000000Y-101250000D02*
X190750000Y-101250000D01*
X190750000Y-101250000D02*
X182250000Y-101250000D01*
X192250000Y-100000000D02*
X191000000Y-101250000D01*
X181500000Y-102000000D02*
X181500000Y-106750000D01*
X190500000Y-86500000D02*
X190500000Y-89000000D01*
X190500000Y-89000000D02*
X187250000Y-92250000D01*
X187250000Y-92250000D02*
X187250000Y-99500000D01*
X187250000Y-99500000D02*
X186500000Y-100250000D01*
X186500000Y-100250000D02*
X181750000Y-100250000D01*
X181750000Y-100250000D02*
X180500000Y-101500000D01*
X190500000Y-90500000D02*
X190500000Y-95250000D01*
X190500000Y-95250000D02*
X189750000Y-96000000D01*
X189750000Y-96000000D02*
X189750000Y-100000000D01*
X189750000Y-100000000D02*
X189000000Y-100750000D01*
X189000000Y-100750000D02*
X182000000Y-100750000D01*
X181000000Y-107000000D02*
X185000000Y-111000000D01*
X182000000Y-100750000D02*
X181000000Y-101750000D01*
X185000000Y-111000000D02*
X185000000Y-132750000D01*
X181000000Y-101750000D02*
X181000000Y-107000000D01*
X192250000Y-95650000D02*
X192250000Y-100000000D01*
X191100000Y-94500000D02*
X192250000Y-95650000D01*
X180800000Y-98320000D02*
X180800000Y-99700000D01*
X180800000Y-99700000D02*
X180000000Y-100500000D01*
X180000000Y-100500000D02*
X180000000Y-143500000D01*
X172700735Y-105950735D02*
X172750000Y-106000000D01*
X162049265Y-105950735D02*
X172700735Y-105950735D01*
X153500000Y-94000000D02*
X153500000Y-145250000D01*
X152750000Y-89500000D02*
X152750000Y-132750000D01*
X152000000Y-120250000D02*
X152000000Y-85500000D01*
X150750000Y-106000000D02*
X151250000Y-105500000D01*
X151250000Y-105500000D02*
X151250000Y-81500000D01*
X164850000Y-57500000D02*
X164850000Y-71090000D01*
X157940000Y-78146160D02*
X157940000Y-78000000D01*
X164850000Y-71090000D02*
X157940000Y-78000000D01*
X162250000Y-82500000D02*
X162250000Y-86500000D01*
X162250000Y-90500000D02*
X162250000Y-94500000D01*
X162250000Y-86500000D02*
X162250000Y-90500000D01*
X169750000Y-86500000D02*
X169750000Y-90500000D01*
X169750000Y-82500000D02*
X169750000Y-86500000D01*
X169750000Y-90500000D02*
X169750000Y-94500000D01*
X156034687Y-80900000D02*
X156034687Y-105965313D01*
X156034687Y-105965313D02*
X156000000Y-106000000D01*
X161250000Y-105151470D02*
X162049265Y-105950735D01*
X163400000Y-81500000D02*
X162270000Y-81500000D01*
X161250000Y-82520000D02*
X161250000Y-105151470D01*
X162270000Y-81500000D02*
X161250000Y-82520000D01*
X164500000Y-80400000D02*
X163400000Y-81500000D01*
X177250000Y-82500000D02*
X177250000Y-86500000D01*
X177250000Y-86500000D02*
X177250000Y-90500000D01*
X177250000Y-90500000D02*
X177250000Y-94500000D01*
X156750000Y-107908550D02*
X159000000Y-110158550D01*
X156750000Y-84750000D02*
X156750000Y-107908550D01*
X159000000Y-110158550D02*
X159000000Y-120250000D01*
X169500000Y-117250000D02*
X169500000Y-120250000D01*
X159000000Y-84000000D02*
X159000000Y-106750000D01*
X159000000Y-106750000D02*
X169500000Y-117250000D01*
X184750000Y-86500000D02*
X184750000Y-90500000D01*
X184750000Y-90500000D02*
X184750000Y-94500000D01*
X192250000Y-86500000D02*
X192250000Y-90500000D01*
X192250000Y-90500000D02*
X192250000Y-94500000D01*
X159750000Y-109750000D02*
X157500000Y-107500000D01*
X159750000Y-132750000D02*
X159750000Y-109750000D01*
X157500000Y-96500000D02*
X157500000Y-91100000D01*
X157500000Y-88750000D02*
X157500000Y-91100000D01*
X157500000Y-107500000D02*
X157500000Y-96500000D01*
X170250000Y-116750000D02*
X159750000Y-106250000D01*
X159750000Y-88250000D02*
X159750000Y-91750000D01*
X159750000Y-106250000D02*
X159750000Y-98000000D01*
X170250000Y-132750000D02*
X170250000Y-116750000D01*
X159750000Y-91750000D02*
X159750000Y-98000000D01*
X160500000Y-109413763D02*
X160500000Y-145250000D01*
X158250000Y-107163763D02*
X160500000Y-109413763D01*
X158250000Y-93000000D02*
X158250000Y-107163763D01*
X171000000Y-116250000D02*
X171000000Y-145250000D01*
X160500000Y-92400000D02*
X160500000Y-105750000D01*
X160500000Y-105750000D02*
X171000000Y-116250000D01*
X191100000Y-94500000D02*
X191174618Y-94500000D01*
X183340000Y-65840000D02*
X183340000Y-78000000D01*
X175000000Y-57500000D02*
X183340000Y-65840000D01*
X177550000Y-57500000D02*
X188420000Y-68370000D01*
X188420000Y-68370000D02*
X188420000Y-78000000D01*
X180800000Y-65830000D02*
X180800000Y-78000000D01*
X172470000Y-57500000D02*
X180800000Y-65830000D01*
X178250000Y-72250000D02*
X178250000Y-77990000D01*
X178250000Y-77990000D02*
X178260000Y-78000000D01*
X179250000Y-99310000D02*
X178260000Y-98320000D01*
G04 #@! TA.AperFunction,Conductor*
G36*
X159418734Y-77473013D02*
G01*
X159474668Y-77514884D01*
X159499085Y-77580349D01*
X159497018Y-77613386D01*
X159479500Y-77701454D01*
X159479500Y-77701459D01*
X159479500Y-78898541D01*
X159479500Y-78898543D01*
X159479499Y-78898543D01*
X159517947Y-79091829D01*
X159517950Y-79091839D01*
X159593364Y-79273907D01*
X159593371Y-79273920D01*
X159702860Y-79437781D01*
X159702863Y-79437785D01*
X159842214Y-79577136D01*
X159842218Y-79577139D01*
X160006079Y-79686628D01*
X160006092Y-79686635D01*
X160173544Y-79755995D01*
X160188165Y-79762051D01*
X160188169Y-79762051D01*
X160188170Y-79762052D01*
X160381456Y-79800500D01*
X160381459Y-79800500D01*
X160578543Y-79800500D01*
X160734492Y-79769479D01*
X160771835Y-79762051D01*
X160953914Y-79686632D01*
X161117782Y-79577139D01*
X161257139Y-79437782D01*
X161366632Y-79273914D01*
X161442051Y-79091835D01*
X161478034Y-78910937D01*
X161510419Y-78849027D01*
X161571134Y-78814453D01*
X161640904Y-78818192D01*
X161697576Y-78859059D01*
X161722124Y-78915731D01*
X161752009Y-79104417D01*
X161815244Y-79299031D01*
X161908140Y-79481349D01*
X162028417Y-79646894D01*
X162028417Y-79646895D01*
X162173104Y-79791582D01*
X162338650Y-79911859D01*
X162520968Y-80004754D01*
X162715578Y-80067988D01*
X162770000Y-80076607D01*
X162770000Y-78433012D01*
X162827007Y-78465925D01*
X162954174Y-78500000D01*
X163085826Y-78500000D01*
X163212993Y-78465925D01*
X163270000Y-78433012D01*
X163270000Y-80076606D01*
X163324421Y-80067988D01*
X163519031Y-80004754D01*
X163701349Y-79911859D01*
X163866894Y-79791582D01*
X163866895Y-79791582D01*
X164011582Y-79646895D01*
X164011582Y-79646894D01*
X164131859Y-79481349D01*
X164224755Y-79299031D01*
X164287990Y-79104417D01*
X164317875Y-78915731D01*
X164347804Y-78852596D01*
X164407116Y-78815665D01*
X164476978Y-78816663D01*
X164535211Y-78855273D01*
X164561965Y-78910937D01*
X164597947Y-79091829D01*
X164597950Y-79091839D01*
X164673364Y-79273907D01*
X164673371Y-79273920D01*
X164782860Y-79437781D01*
X164782863Y-79437785D01*
X164782896Y-79437818D01*
X164782907Y-79437839D01*
X164786726Y-79442492D01*
X164785843Y-79443216D01*
X164816381Y-79499141D01*
X164811397Y-79568833D01*
X164769525Y-79624766D01*
X164704061Y-79649183D01*
X164695215Y-79649499D01*
X164570943Y-79649499D01*
X164486410Y-79672150D01*
X164418210Y-79690424D01*
X164418209Y-79690425D01*
X164368096Y-79719359D01*
X164368095Y-79719360D01*
X164341413Y-79734765D01*
X164281285Y-79769479D01*
X164281282Y-79769481D01*
X164221710Y-79829054D01*
X164169480Y-79881284D01*
X164169478Y-79881286D01*
X164131284Y-79919481D01*
X163187584Y-80863181D01*
X163126261Y-80896666D01*
X163099903Y-80899500D01*
X162356669Y-80899500D01*
X162356653Y-80899499D01*
X162349057Y-80899499D01*
X162190943Y-80899499D01*
X162083587Y-80928265D01*
X162038210Y-80940424D01*
X162038209Y-80940425D01*
X161988096Y-80969359D01*
X161988095Y-80969360D01*
X161971665Y-80978846D01*
X161901285Y-81019479D01*
X161901282Y-81019481D01*
X160769481Y-82151282D01*
X160769479Y-82151285D01*
X160719361Y-82238094D01*
X160719359Y-82238096D01*
X160690425Y-82288209D01*
X160690424Y-82288210D01*
X160690423Y-82288215D01*
X160649499Y-82440943D01*
X160649499Y-82440945D01*
X160649499Y-82609046D01*
X160649500Y-82609059D01*
X160649500Y-87746560D01*
X160629815Y-87813599D01*
X160577011Y-87859354D01*
X160507853Y-87869298D01*
X160444297Y-87840273D01*
X160422398Y-87815451D01*
X160371789Y-87739711D01*
X160371786Y-87739707D01*
X160260292Y-87628213D01*
X160260288Y-87628210D01*
X160129185Y-87540609D01*
X160129172Y-87540602D01*
X159983501Y-87480264D01*
X159983489Y-87480261D01*
X159828845Y-87449500D01*
X159828842Y-87449500D01*
X159724500Y-87449500D01*
X159657461Y-87429815D01*
X159611706Y-87377011D01*
X159600500Y-87325500D01*
X159600500Y-84579765D01*
X159620185Y-84512726D01*
X159621398Y-84510874D01*
X159709390Y-84379185D01*
X159709390Y-84379184D01*
X159709394Y-84379179D01*
X159712854Y-84370827D01*
X159723067Y-84346166D01*
X159769737Y-84233497D01*
X159800500Y-84078842D01*
X159800500Y-83921158D01*
X159800500Y-83921155D01*
X159800499Y-83921153D01*
X159769737Y-83766503D01*
X159769735Y-83766498D01*
X159709397Y-83620827D01*
X159709390Y-83620814D01*
X159621789Y-83489711D01*
X159621786Y-83489707D01*
X159510292Y-83378213D01*
X159510288Y-83378210D01*
X159379185Y-83290609D01*
X159379172Y-83290602D01*
X159233501Y-83230264D01*
X159233489Y-83230261D01*
X159078845Y-83199500D01*
X159078842Y-83199500D01*
X158921158Y-83199500D01*
X158921155Y-83199500D01*
X158766510Y-83230261D01*
X158766498Y-83230264D01*
X158620827Y-83290602D01*
X158620814Y-83290609D01*
X158489711Y-83378210D01*
X158489707Y-83378213D01*
X158378213Y-83489707D01*
X158378210Y-83489711D01*
X158290609Y-83620814D01*
X158290602Y-83620827D01*
X158230264Y-83766498D01*
X158230261Y-83766510D01*
X158199500Y-83921153D01*
X158199500Y-84078846D01*
X158230261Y-84233489D01*
X158230264Y-84233501D01*
X158290602Y-84379172D01*
X158290609Y-84379185D01*
X158378602Y-84510874D01*
X158399480Y-84577551D01*
X158399500Y-84579765D01*
X158399500Y-88246560D01*
X158379815Y-88313599D01*
X158327011Y-88359354D01*
X158257853Y-88369298D01*
X158194297Y-88340273D01*
X158172398Y-88315451D01*
X158121789Y-88239711D01*
X158121786Y-88239707D01*
X158010292Y-88128213D01*
X158010288Y-88128210D01*
X157879185Y-88040609D01*
X157879172Y-88040602D01*
X157733501Y-87980264D01*
X157733489Y-87980261D01*
X157578845Y-87949500D01*
X157578842Y-87949500D01*
X157474500Y-87949500D01*
X157407461Y-87929815D01*
X157361706Y-87877011D01*
X157350500Y-87825500D01*
X157350500Y-85329765D01*
X157370185Y-85262726D01*
X157371398Y-85260874D01*
X157459390Y-85129185D01*
X157459390Y-85129184D01*
X157459394Y-85129179D01*
X157462854Y-85120827D01*
X157517163Y-84989711D01*
X157519737Y-84983497D01*
X157550500Y-84828842D01*
X157550500Y-84671158D01*
X157550500Y-84671155D01*
X157550499Y-84671153D01*
X157519737Y-84516503D01*
X157517163Y-84510289D01*
X157459397Y-84370827D01*
X157459390Y-84370814D01*
X157371789Y-84239711D01*
X157371786Y-84239707D01*
X157260292Y-84128213D01*
X157260288Y-84128210D01*
X157129185Y-84040609D01*
X157129172Y-84040602D01*
X156983501Y-83980264D01*
X156983489Y-83980261D01*
X156828845Y-83949500D01*
X156828842Y-83949500D01*
X156759187Y-83949500D01*
X156692148Y-83929815D01*
X156646393Y-83877011D01*
X156635187Y-83825500D01*
X156635187Y-81479765D01*
X156654872Y-81412726D01*
X156656085Y-81410874D01*
X156744077Y-81279185D01*
X156744077Y-81279184D01*
X156744081Y-81279179D01*
X156804424Y-81133497D01*
X156835187Y-80978842D01*
X156835187Y-80944006D01*
X156854872Y-80876967D01*
X156907676Y-80831212D01*
X156909455Y-80830416D01*
X156918039Y-80826657D01*
X156981785Y-80809577D01*
X157053424Y-80768216D01*
X157118716Y-80730520D01*
X157230520Y-80618716D01*
X157230520Y-80618714D01*
X157240724Y-80608511D01*
X157240728Y-80608506D01*
X158024670Y-79824563D01*
X158085991Y-79791080D01*
X158087990Y-79790663D01*
X158231835Y-79762051D01*
X158413914Y-79686632D01*
X158577782Y-79577139D01*
X158717139Y-79437782D01*
X158826632Y-79273914D01*
X158902051Y-79091835D01*
X158938034Y-78910938D01*
X158940500Y-78898543D01*
X158940500Y-77900097D01*
X158960185Y-77833058D01*
X158976819Y-77812416D01*
X159104967Y-77684268D01*
X159287722Y-77501512D01*
X159349043Y-77468029D01*
X159418734Y-77473013D01*
G37*
G04 #@! TD.AperFunction*
G04 #@! TA.AperFunction,Conductor*
G36*
X170180000Y-58827230D02*
G01*
X170246126Y-58816757D01*
X170246129Y-58816757D01*
X170448217Y-58751095D01*
X170637557Y-58654620D01*
X170809459Y-58529727D01*
X170809464Y-58529723D01*
X170959723Y-58379464D01*
X170959727Y-58379459D01*
X171084620Y-58207558D01*
X171089232Y-58198507D01*
X171137205Y-58147709D01*
X171205025Y-58130912D01*
X171271161Y-58153447D01*
X171310204Y-58198504D01*
X171314949Y-58207817D01*
X171439890Y-58379786D01*
X171590213Y-58530109D01*
X171762179Y-58655048D01*
X171762181Y-58655049D01*
X171762184Y-58655051D01*
X171951588Y-58751557D01*
X172153757Y-58817246D01*
X172363713Y-58850500D01*
X172363714Y-58850500D01*
X172576286Y-58850500D01*
X172576287Y-58850500D01*
X172786243Y-58817246D01*
X172828523Y-58803507D01*
X172898362Y-58801511D01*
X172954522Y-58833757D01*
X180163181Y-66042416D01*
X180196666Y-66103739D01*
X180199500Y-66130097D01*
X180199500Y-76934216D01*
X180179815Y-77001255D01*
X180163181Y-77021897D01*
X180022863Y-77162214D01*
X180022860Y-77162218D01*
X179913371Y-77326079D01*
X179913364Y-77326092D01*
X179837950Y-77508160D01*
X179837947Y-77508170D01*
X179799500Y-77701456D01*
X179799500Y-77701459D01*
X179799500Y-78898541D01*
X179799500Y-78898543D01*
X179799499Y-78898543D01*
X179837947Y-79091829D01*
X179837950Y-79091839D01*
X179913364Y-79273907D01*
X179913374Y-79273925D01*
X179945739Y-79322363D01*
X179966617Y-79389040D01*
X179948132Y-79456420D01*
X179896153Y-79503110D01*
X179827183Y-79514286D01*
X179795185Y-79505815D01*
X179733497Y-79480263D01*
X179733492Y-79480262D01*
X179733489Y-79480261D01*
X179578845Y-79449500D01*
X179578842Y-79449500D01*
X179421158Y-79449500D01*
X179421153Y-79449500D01*
X179262856Y-79480987D01*
X179193264Y-79474760D01*
X179138087Y-79431896D01*
X179114843Y-79366007D01*
X179130911Y-79298010D01*
X179135566Y-79290475D01*
X179146628Y-79273920D01*
X179146628Y-79273919D01*
X179146632Y-79273914D01*
X179222051Y-79091835D01*
X179258034Y-78910938D01*
X179260500Y-78898543D01*
X179260500Y-77701456D01*
X179222052Y-77508170D01*
X179222051Y-77508169D01*
X179222051Y-77508165D01*
X179190100Y-77431028D01*
X179146635Y-77326092D01*
X179146628Y-77326079D01*
X179037139Y-77162218D01*
X179037136Y-77162214D01*
X178897782Y-77022860D01*
X178895830Y-77021258D01*
X178895082Y-77020160D01*
X178893475Y-77018553D01*
X178893779Y-77018248D01*
X178856499Y-76963511D01*
X178850500Y-76925409D01*
X178850500Y-72829765D01*
X178870185Y-72762726D01*
X178871398Y-72760874D01*
X178959390Y-72629185D01*
X178959390Y-72629184D01*
X178959394Y-72629179D01*
X179019737Y-72483497D01*
X179050500Y-72328842D01*
X179050500Y-72171158D01*
X179050500Y-72171155D01*
X179050499Y-72171153D01*
X179019738Y-72016510D01*
X179019737Y-72016503D01*
X179008725Y-71989917D01*
X178959397Y-71870827D01*
X178959390Y-71870814D01*
X178871789Y-71739711D01*
X178871786Y-71739707D01*
X178760292Y-71628213D01*
X178760288Y-71628210D01*
X178629185Y-71540609D01*
X178629172Y-71540602D01*
X178483501Y-71480264D01*
X178483489Y-71480261D01*
X178328845Y-71449500D01*
X178328842Y-71449500D01*
X178171158Y-71449500D01*
X178171155Y-71449500D01*
X178016510Y-71480261D01*
X178016498Y-71480264D01*
X177870827Y-71540602D01*
X177870814Y-71540609D01*
X177739711Y-71628210D01*
X177739707Y-71628213D01*
X177628213Y-71739707D01*
X177628210Y-71739711D01*
X177540609Y-71870814D01*
X177540602Y-71870827D01*
X177480264Y-72016498D01*
X177480261Y-72016510D01*
X177449500Y-72171153D01*
X177449500Y-72328846D01*
X177480261Y-72483489D01*
X177480264Y-72483501D01*
X177540602Y-72629172D01*
X177540609Y-72629185D01*
X177628602Y-72760874D01*
X177649480Y-72827551D01*
X177649500Y-72829765D01*
X177649500Y-76944216D01*
X177629815Y-77011255D01*
X177613181Y-77031897D01*
X177482863Y-77162214D01*
X177482860Y-77162218D01*
X177373371Y-77326079D01*
X177373364Y-77326092D01*
X177297950Y-77508160D01*
X177297947Y-77508170D01*
X177259500Y-77701456D01*
X177259500Y-77701459D01*
X177259500Y-78898541D01*
X177259500Y-78898543D01*
X177259499Y-78898543D01*
X177297947Y-79091829D01*
X177297950Y-79091839D01*
X177373364Y-79273907D01*
X177373371Y-79273920D01*
X177482860Y-79437781D01*
X177482863Y-79437785D01*
X177482897Y-79437819D01*
X177482908Y-79437840D01*
X177486726Y-79442492D01*
X177485843Y-79443215D01*
X177516382Y-79499142D01*
X177511398Y-79568834D01*
X177469526Y-79624767D01*
X177404062Y-79649184D01*
X177395216Y-79649500D01*
X176584784Y-79649500D01*
X176517745Y-79629815D01*
X176471990Y-79577011D01*
X176462046Y-79507853D01*
X176491071Y-79444297D01*
X176497103Y-79437819D01*
X176497136Y-79437785D01*
X176497139Y-79437782D01*
X176606632Y-79273914D01*
X176682051Y-79091835D01*
X176718034Y-78910938D01*
X176720500Y-78898543D01*
X176720500Y-77701456D01*
X176682052Y-77508170D01*
X176682051Y-77508169D01*
X176682051Y-77508165D01*
X176650100Y-77431028D01*
X176606635Y-77326092D01*
X176606628Y-77326079D01*
X176497139Y-77162218D01*
X176497136Y-77162214D01*
X176357785Y-77022863D01*
X176357781Y-77022860D01*
X176193920Y-76913371D01*
X176193907Y-76913364D01*
X176011839Y-76837950D01*
X176011829Y-76837947D01*
X175818543Y-76799500D01*
X175818541Y-76799500D01*
X175621459Y-76799500D01*
X175621457Y-76799500D01*
X175428170Y-76837947D01*
X175428160Y-76837950D01*
X175246092Y-76913364D01*
X175246079Y-76913371D01*
X175082218Y-77022860D01*
X175082214Y-77022863D01*
X174942863Y-77162214D01*
X174942860Y-77162218D01*
X174833371Y-77326079D01*
X174833364Y-77326092D01*
X174757950Y-77508160D01*
X174757947Y-77508170D01*
X174719500Y-77701456D01*
X174719500Y-77701459D01*
X174719500Y-78898541D01*
X174719500Y-78898543D01*
X174719499Y-78898543D01*
X174757947Y-79091829D01*
X174757950Y-79091839D01*
X174833364Y-79273907D01*
X174833371Y-79273920D01*
X174942860Y-79437781D01*
X174942863Y-79437785D01*
X174942897Y-79437819D01*
X174942908Y-79437840D01*
X174946726Y-79442492D01*
X174945843Y-79443215D01*
X174976382Y-79499142D01*
X174971398Y-79568834D01*
X174929526Y-79624767D01*
X174864062Y-79649184D01*
X174855216Y-79649500D01*
X174044784Y-79649500D01*
X173977745Y-79629815D01*
X173931990Y-79577011D01*
X173922046Y-79507853D01*
X173951071Y-79444297D01*
X173957103Y-79437819D01*
X173957136Y-79437785D01*
X173957139Y-79437782D01*
X174066632Y-79273914D01*
X174142051Y-79091835D01*
X174178034Y-78910938D01*
X174180500Y-78898543D01*
X174180500Y-77701456D01*
X174142052Y-77508170D01*
X174142051Y-77508169D01*
X174142051Y-77508165D01*
X174110100Y-77431028D01*
X174066635Y-77326092D01*
X174066628Y-77326079D01*
X173957139Y-77162218D01*
X173957136Y-77162214D01*
X173817785Y-77022863D01*
X173817781Y-77022860D01*
X173653920Y-76913371D01*
X173653907Y-76913364D01*
X173471839Y-76837950D01*
X173471829Y-76837947D01*
X173278543Y-76799500D01*
X173278541Y-76799500D01*
X173081459Y-76799500D01*
X173081457Y-76799500D01*
X172888170Y-76837947D01*
X172888160Y-76837950D01*
X172706092Y-76913364D01*
X172706079Y-76913371D01*
X172542218Y-77022860D01*
X172542214Y-77022863D01*
X172402863Y-77162214D01*
X172402860Y-77162218D01*
X172293371Y-77326079D01*
X172293364Y-77326092D01*
X172217950Y-77508160D01*
X172217947Y-77508170D01*
X172179500Y-77701456D01*
X172179500Y-77701459D01*
X172179500Y-78898541D01*
X172179500Y-78898543D01*
X172179499Y-78898543D01*
X172217947Y-79091829D01*
X172217950Y-79091839D01*
X172293364Y-79273907D01*
X172293371Y-79273920D01*
X172402860Y-79437781D01*
X172402863Y-79437785D01*
X172402897Y-79437819D01*
X172402908Y-79437840D01*
X172406726Y-79442492D01*
X172405843Y-79443215D01*
X172436382Y-79499142D01*
X172431398Y-79568834D01*
X172389526Y-79624767D01*
X172324062Y-79649184D01*
X172315216Y-79649500D01*
X171504784Y-79649500D01*
X171437745Y-79629815D01*
X171391990Y-79577011D01*
X171382046Y-79507853D01*
X171411071Y-79444297D01*
X171417103Y-79437819D01*
X171417136Y-79437785D01*
X171417139Y-79437782D01*
X171526632Y-79273914D01*
X171602051Y-79091835D01*
X171638034Y-78910938D01*
X171640500Y-78898543D01*
X171640500Y-77701456D01*
X171602052Y-77508170D01*
X171602051Y-77508169D01*
X171602051Y-77508165D01*
X171570100Y-77431028D01*
X171526635Y-77326092D01*
X171526628Y-77326079D01*
X171417139Y-77162218D01*
X171417136Y-77162214D01*
X171277785Y-77022863D01*
X171277781Y-77022860D01*
X171113920Y-76913371D01*
X171113907Y-76913364D01*
X170931839Y-76837950D01*
X170931829Y-76837947D01*
X170738543Y-76799500D01*
X170738541Y-76799500D01*
X170541459Y-76799500D01*
X170541457Y-76799500D01*
X170348170Y-76837947D01*
X170348160Y-76837950D01*
X170166092Y-76913364D01*
X170166079Y-76913371D01*
X170002218Y-77022860D01*
X170002214Y-77022863D01*
X169862863Y-77162214D01*
X169862860Y-77162218D01*
X169753371Y-77326079D01*
X169753364Y-77326092D01*
X169677950Y-77508160D01*
X169677947Y-77508170D01*
X169639500Y-77701456D01*
X169639500Y-77701459D01*
X169639500Y-78898541D01*
X169639500Y-78898543D01*
X169639499Y-78898543D01*
X169677947Y-79091829D01*
X169677950Y-79091839D01*
X169753364Y-79273907D01*
X169753371Y-79273920D01*
X169862860Y-79437781D01*
X169862863Y-79437785D01*
X169862897Y-79437819D01*
X169862908Y-79437840D01*
X169866726Y-79442492D01*
X169865843Y-79443215D01*
X169896382Y-79499142D01*
X169891398Y-79568834D01*
X169849526Y-79624767D01*
X169784062Y-79649184D01*
X169775216Y-79649500D01*
X168964784Y-79649500D01*
X168897745Y-79629815D01*
X168851990Y-79577011D01*
X168842046Y-79507853D01*
X168871071Y-79444297D01*
X168877103Y-79437819D01*
X168877136Y-79437785D01*
X168877139Y-79437782D01*
X168986632Y-79273914D01*
X169062051Y-79091835D01*
X169098034Y-78910938D01*
X169100500Y-78898543D01*
X169100500Y-77701456D01*
X169062052Y-77508170D01*
X169062051Y-77508169D01*
X169062051Y-77508165D01*
X169030100Y-77431028D01*
X168986635Y-77326092D01*
X168986628Y-77326079D01*
X168877139Y-77162218D01*
X168877136Y-77162214D01*
X168737785Y-77022863D01*
X168737781Y-77022860D01*
X168573920Y-76913371D01*
X168573907Y-76913364D01*
X168391839Y-76837950D01*
X168391829Y-76837947D01*
X168198543Y-76799500D01*
X168198541Y-76799500D01*
X168001459Y-76799500D01*
X168001457Y-76799500D01*
X167808170Y-76837947D01*
X167808160Y-76837950D01*
X167626092Y-76913364D01*
X167626079Y-76913371D01*
X167462218Y-77022860D01*
X167462214Y-77022863D01*
X167322863Y-77162214D01*
X167322860Y-77162218D01*
X167213371Y-77326079D01*
X167213364Y-77326092D01*
X167137950Y-77508160D01*
X167137947Y-77508170D01*
X167099500Y-77701456D01*
X167099500Y-77701459D01*
X167099500Y-78898541D01*
X167099500Y-78898543D01*
X167099499Y-78898543D01*
X167137947Y-79091829D01*
X167137950Y-79091839D01*
X167213364Y-79273907D01*
X167213371Y-79273920D01*
X167322860Y-79437781D01*
X167322863Y-79437785D01*
X167322897Y-79437819D01*
X167322908Y-79437840D01*
X167326726Y-79442492D01*
X167325843Y-79443215D01*
X167356382Y-79499142D01*
X167351398Y-79568834D01*
X167309526Y-79624767D01*
X167244062Y-79649184D01*
X167235216Y-79649500D01*
X166424784Y-79649500D01*
X166357745Y-79629815D01*
X166311990Y-79577011D01*
X166302046Y-79507853D01*
X166331071Y-79444297D01*
X166337103Y-79437819D01*
X166337136Y-79437785D01*
X166337139Y-79437782D01*
X166446632Y-79273914D01*
X166522051Y-79091835D01*
X166558034Y-78910938D01*
X166560500Y-78898543D01*
X166560500Y-77701456D01*
X166522052Y-77508170D01*
X166522051Y-77508169D01*
X166522051Y-77508165D01*
X166490100Y-77431028D01*
X166446635Y-77326092D01*
X166446628Y-77326079D01*
X166337139Y-77162218D01*
X166337136Y-77162214D01*
X166197785Y-77022863D01*
X166197781Y-77022860D01*
X166033920Y-76913371D01*
X166033907Y-76913364D01*
X165851839Y-76837950D01*
X165851829Y-76837947D01*
X165658543Y-76799500D01*
X165658541Y-76799500D01*
X165461459Y-76799500D01*
X165461457Y-76799500D01*
X165268170Y-76837947D01*
X165268160Y-76837950D01*
X165086092Y-76913364D01*
X165086079Y-76913371D01*
X164922218Y-77022860D01*
X164922214Y-77022863D01*
X164782863Y-77162214D01*
X164782860Y-77162218D01*
X164673371Y-77326079D01*
X164673364Y-77326092D01*
X164597950Y-77508160D01*
X164597947Y-77508170D01*
X164561965Y-77689062D01*
X164529580Y-77750973D01*
X164468864Y-77785547D01*
X164399094Y-77781806D01*
X164342423Y-77740940D01*
X164317875Y-77684268D01*
X164287990Y-77495582D01*
X164224755Y-77300968D01*
X164131859Y-77118650D01*
X164011582Y-76953105D01*
X164011582Y-76953104D01*
X163866895Y-76808417D01*
X163701349Y-76688140D01*
X163519029Y-76595244D01*
X163324413Y-76532009D01*
X163270000Y-76523390D01*
X163270000Y-77566988D01*
X163212993Y-77534075D01*
X163085826Y-77500000D01*
X162954174Y-77500000D01*
X162827007Y-77534075D01*
X162770000Y-77566988D01*
X162770000Y-76523390D01*
X162715586Y-76532009D01*
X162520970Y-76595244D01*
X162338650Y-76688140D01*
X162173105Y-76808417D01*
X162173104Y-76808417D01*
X162028417Y-76953104D01*
X162028417Y-76953105D01*
X161908140Y-77118650D01*
X161815244Y-77300968D01*
X161752010Y-77495581D01*
X161722124Y-77684269D01*
X161692194Y-77747403D01*
X161632883Y-77784334D01*
X161563020Y-77783336D01*
X161504788Y-77744726D01*
X161478034Y-77689061D01*
X161447205Y-77534075D01*
X161442051Y-77508165D01*
X161410100Y-77431028D01*
X161366635Y-77326092D01*
X161366628Y-77326079D01*
X161257139Y-77162218D01*
X161257136Y-77162214D01*
X161117785Y-77022863D01*
X161117781Y-77022860D01*
X160953920Y-76913371D01*
X160953907Y-76913364D01*
X160771839Y-76837950D01*
X160771829Y-76837947D01*
X160578543Y-76799500D01*
X160578541Y-76799500D01*
X160381459Y-76799500D01*
X160381454Y-76799500D01*
X160293386Y-76817018D01*
X160223794Y-76810791D01*
X160168617Y-76767928D01*
X160145373Y-76702038D01*
X160161441Y-76634041D01*
X160181510Y-76607725D01*
X165330520Y-71458716D01*
X165409577Y-71321784D01*
X165450501Y-71169057D01*
X165450501Y-71010942D01*
X165450501Y-71003347D01*
X165450500Y-71003329D01*
X165450500Y-58974499D01*
X165470185Y-58907460D01*
X165522989Y-58861705D01*
X165574500Y-58850499D01*
X165747871Y-58850499D01*
X165747872Y-58850499D01*
X165807483Y-58844091D01*
X165942331Y-58793796D01*
X166057546Y-58707546D01*
X166143796Y-58592331D01*
X166192810Y-58460916D01*
X166234681Y-58404984D01*
X166300145Y-58380566D01*
X166368418Y-58395417D01*
X166396673Y-58416569D01*
X166510213Y-58530109D01*
X166682179Y-58655048D01*
X166682181Y-58655049D01*
X166682184Y-58655051D01*
X166871588Y-58751557D01*
X167073757Y-58817246D01*
X167283713Y-58850500D01*
X167283714Y-58850500D01*
X167496286Y-58850500D01*
X167496287Y-58850500D01*
X167706243Y-58817246D01*
X167908412Y-58751557D01*
X168097816Y-58655051D01*
X168184138Y-58592335D01*
X168269786Y-58530109D01*
X168269788Y-58530106D01*
X168269792Y-58530104D01*
X168420104Y-58379792D01*
X168420106Y-58379788D01*
X168420109Y-58379786D01*
X168545048Y-58207820D01*
X168545051Y-58207816D01*
X168549793Y-58198508D01*
X168597763Y-58147711D01*
X168665583Y-58130911D01*
X168731719Y-58153445D01*
X168770763Y-58198500D01*
X168775377Y-58207555D01*
X168900272Y-58379459D01*
X168900276Y-58379464D01*
X169050535Y-58529723D01*
X169050540Y-58529727D01*
X169222442Y-58654620D01*
X169411782Y-58751095D01*
X169613871Y-58816757D01*
X169680000Y-58827231D01*
X169680000Y-57933012D01*
X169737007Y-57965925D01*
X169864174Y-58000000D01*
X169995826Y-58000000D01*
X170122993Y-57965925D01*
X170180000Y-57933012D01*
X170180000Y-58827230D01*
G37*
G04 #@! TD.AperFunction*
G04 #@! TA.AperFunction,Conductor*
G36*
X184463181Y-106409629D02*
G01*
X184496666Y-106470952D01*
X184499500Y-106497310D01*
X184499500Y-106544960D01*
X184514630Y-106679249D01*
X184514631Y-106679254D01*
X184574211Y-106849523D01*
X184628164Y-106935388D01*
X184647164Y-107002625D01*
X184626796Y-107069460D01*
X184573528Y-107114674D01*
X184504272Y-107123911D01*
X184441016Y-107094240D01*
X184435489Y-107089041D01*
X183629410Y-106282962D01*
X183692993Y-106265925D01*
X183807007Y-106200099D01*
X183900099Y-106107007D01*
X183965925Y-105992993D01*
X183982962Y-105929410D01*
X184463181Y-106409629D01*
G37*
G04 #@! TD.AperFunction*
G04 #@! TA.AperFunction,Conductor*
G36*
X195463181Y-106409629D02*
G01*
X195496666Y-106470952D01*
X195499500Y-106497310D01*
X195499500Y-106544960D01*
X195514630Y-106679249D01*
X195514631Y-106679254D01*
X195574211Y-106849523D01*
X195628164Y-106935388D01*
X195647164Y-107002625D01*
X195626796Y-107069460D01*
X195573528Y-107114674D01*
X195504272Y-107123911D01*
X195441016Y-107094240D01*
X195435489Y-107089041D01*
X194629410Y-106282962D01*
X194692993Y-106265925D01*
X194807007Y-106200099D01*
X194900099Y-106107007D01*
X194965925Y-105992993D01*
X194982962Y-105929410D01*
X195463181Y-106409629D01*
G37*
G04 #@! TD.AperFunction*
G04 #@! TA.AperFunction,Conductor*
G36*
X184552445Y-104481451D02*
G01*
X184566504Y-104482457D01*
X184583738Y-104495358D01*
X184603412Y-104504102D01*
X184611153Y-104515882D01*
X184622437Y-104524329D01*
X184629960Y-104544500D01*
X184641784Y-104562492D01*
X184641927Y-104576585D01*
X184646854Y-104589793D01*
X184642277Y-104610831D01*
X184642497Y-104632358D01*
X184632893Y-104653968D01*
X184632002Y-104658066D01*
X184628164Y-104664611D01*
X184574211Y-104750476D01*
X184514631Y-104920745D01*
X184514630Y-104920750D01*
X184499500Y-105055039D01*
X184499500Y-105102690D01*
X184479815Y-105169729D01*
X184463181Y-105190371D01*
X183982962Y-105670589D01*
X183965925Y-105607007D01*
X183900099Y-105492993D01*
X183807007Y-105399901D01*
X183692993Y-105334075D01*
X183629410Y-105317037D01*
X184435489Y-104510958D01*
X184454382Y-104500641D01*
X184470510Y-104486376D01*
X184484442Y-104484227D01*
X184496812Y-104477473D01*
X184518284Y-104479008D01*
X184539564Y-104475727D01*
X184552445Y-104481451D01*
G37*
G04 #@! TD.AperFunction*
G04 #@! TA.AperFunction,Conductor*
G36*
X195566503Y-104482457D02*
G01*
X195622437Y-104524328D01*
X195646854Y-104589793D01*
X195632002Y-104658066D01*
X195628164Y-104664611D01*
X195574211Y-104750476D01*
X195514631Y-104920745D01*
X195514630Y-104920750D01*
X195499500Y-105055039D01*
X195499500Y-105102690D01*
X195479815Y-105169729D01*
X195463181Y-105190371D01*
X194982962Y-105670589D01*
X194965925Y-105607007D01*
X194900099Y-105492993D01*
X194807007Y-105399901D01*
X194692993Y-105334075D01*
X194629410Y-105317037D01*
X195435489Y-104510958D01*
X195496812Y-104477473D01*
X195566503Y-104482457D01*
G37*
G04 #@! TD.AperFunction*
G04 #@! TA.AperFunction,Conductor*
G36*
X187567942Y-101870185D02*
G01*
X187613697Y-101922989D01*
X187623641Y-101992147D01*
X187594616Y-102055703D01*
X187588584Y-102062181D01*
X187131284Y-102519481D01*
X185631286Y-104019478D01*
X185519481Y-104131282D01*
X185519479Y-104131284D01*
X185516284Y-104136819D01*
X185496459Y-104171158D01*
X185468489Y-104219604D01*
X185458156Y-104237501D01*
X185407589Y-104285716D01*
X185350769Y-104299500D01*
X185255039Y-104299500D01*
X185120750Y-104314630D01*
X185120745Y-104314631D01*
X184950476Y-104374211D01*
X184797737Y-104470184D01*
X184777733Y-104490188D01*
X184716410Y-104523672D01*
X184646718Y-104518686D01*
X184590785Y-104476813D01*
X184566834Y-104416392D01*
X184563108Y-104383338D01*
X184549304Y-104374665D01*
X184379140Y-104315121D01*
X184244930Y-104300000D01*
X182755070Y-104300000D01*
X182620858Y-104315122D01*
X182450698Y-104374663D01*
X182292156Y-104474282D01*
X182290778Y-104472090D01*
X182237084Y-104493990D01*
X182168393Y-104481210D01*
X182117515Y-104433322D01*
X182100500Y-104370630D01*
X182100500Y-102300097D01*
X182120185Y-102233058D01*
X182136819Y-102212416D01*
X182462416Y-101886819D01*
X182523739Y-101853334D01*
X182550097Y-101850500D01*
X187500903Y-101850500D01*
X187567942Y-101870185D01*
G37*
G04 #@! TD.AperFunction*
G04 #@! TA.AperFunction,Conductor*
G36*
X198818834Y-99632914D02*
G01*
X198874767Y-99674786D01*
X198899184Y-99740250D01*
X198899500Y-99749096D01*
X198899500Y-102999903D01*
X198879815Y-103066942D01*
X198863181Y-103087584D01*
X197687584Y-104263181D01*
X197626261Y-104296666D01*
X197599903Y-104299500D01*
X196255039Y-104299500D01*
X196120750Y-104314630D01*
X196120745Y-104314631D01*
X195950476Y-104374211D01*
X195797737Y-104470184D01*
X195777733Y-104490188D01*
X195716410Y-104523672D01*
X195646718Y-104518686D01*
X195590785Y-104476813D01*
X195566834Y-104416392D01*
X195563108Y-104383338D01*
X195549304Y-104374665D01*
X195379140Y-104315121D01*
X195244930Y-104300000D01*
X194274743Y-104300000D01*
X194270501Y-104298754D01*
X194266185Y-104299704D01*
X194237276Y-104288998D01*
X194207704Y-104280315D01*
X194204810Y-104276975D01*
X194200664Y-104275440D01*
X194182127Y-104250798D01*
X194161949Y-104227511D01*
X194161320Y-104223137D01*
X194158662Y-104219604D01*
X194156391Y-104188859D01*
X194152005Y-104158353D01*
X194153841Y-104154331D01*
X194153516Y-104149924D01*
X194168223Y-104122839D01*
X194181030Y-104094797D01*
X194185342Y-104091313D01*
X194186858Y-104088523D01*
X194198214Y-104080916D01*
X194215063Y-104067306D01*
X194226617Y-104060961D01*
X194231785Y-104059577D01*
X194281904Y-104030639D01*
X194368716Y-103980520D01*
X194480520Y-103868716D01*
X194480520Y-103868714D01*
X194490728Y-103858507D01*
X194490729Y-103858504D01*
X198687821Y-99661413D01*
X198749142Y-99627930D01*
X198818834Y-99632914D01*
G37*
G04 #@! TD.AperFunction*
G04 #@! TA.AperFunction,Conductor*
G36*
X166393650Y-55019685D02*
G01*
X166414292Y-55036319D01*
X166522490Y-55144517D01*
X166713567Y-55283343D01*
X166812991Y-55334002D01*
X166924003Y-55390566D01*
X166924005Y-55390566D01*
X166924008Y-55390568D01*
X167044412Y-55429689D01*
X167148631Y-55463553D01*
X167381903Y-55500500D01*
X167381908Y-55500500D01*
X182618097Y-55500500D01*
X182851368Y-55463553D01*
X183075992Y-55390568D01*
X183286433Y-55283343D01*
X183477510Y-55144517D01*
X183585708Y-55036319D01*
X183647031Y-55002834D01*
X183673389Y-55000000D01*
X184326611Y-55000000D01*
X184393650Y-55019685D01*
X184414292Y-55036319D01*
X184522490Y-55144517D01*
X184713567Y-55283343D01*
X184812991Y-55334002D01*
X184924003Y-55390566D01*
X184924005Y-55390566D01*
X184924008Y-55390568D01*
X185044412Y-55429689D01*
X185148631Y-55463553D01*
X185381903Y-55500500D01*
X185381908Y-55500500D01*
X185434108Y-55500500D01*
X202413897Y-55500500D01*
X202480936Y-55520185D01*
X202526691Y-55572989D01*
X202536635Y-55642147D01*
X202507610Y-55705703D01*
X202501578Y-55712181D01*
X202382583Y-55831175D01*
X202207476Y-56050753D01*
X202058053Y-56288557D01*
X201936200Y-56541588D01*
X201843443Y-56806670D01*
X201843439Y-56806682D01*
X201780945Y-57080487D01*
X201780942Y-57080505D01*
X201749500Y-57359568D01*
X201749500Y-57640431D01*
X201780942Y-57919494D01*
X201780945Y-57919512D01*
X201843439Y-58193317D01*
X201843443Y-58193329D01*
X201936200Y-58458411D01*
X202058053Y-58711442D01*
X202058055Y-58711445D01*
X202207477Y-58949248D01*
X202382584Y-59168825D01*
X202581175Y-59367416D01*
X202800752Y-59542523D01*
X203038555Y-59691945D01*
X203291592Y-59813801D01*
X203490680Y-59883465D01*
X203556670Y-59906556D01*
X203556682Y-59906560D01*
X203830491Y-59969055D01*
X203830497Y-59969055D01*
X203830505Y-59969057D01*
X204016547Y-59990018D01*
X204109569Y-60000499D01*
X204109572Y-60000500D01*
X204109575Y-60000500D01*
X204390428Y-60000500D01*
X204390429Y-60000499D01*
X204533055Y-59984429D01*
X204669494Y-59969057D01*
X204669499Y-59969056D01*
X204669509Y-59969055D01*
X204943318Y-59906560D01*
X205208408Y-59813801D01*
X205461445Y-59691945D01*
X205699248Y-59542523D01*
X205918825Y-59367416D01*
X206037819Y-59248422D01*
X206099142Y-59214937D01*
X206168834Y-59219921D01*
X206224767Y-59261793D01*
X206249184Y-59327257D01*
X206249500Y-59336103D01*
X206249500Y-106663897D01*
X206229815Y-106730936D01*
X206177011Y-106776691D01*
X206107853Y-106786635D01*
X206044297Y-106757610D01*
X206037819Y-106751578D01*
X205918824Y-106632583D01*
X205817213Y-106551551D01*
X205699248Y-106457477D01*
X205461445Y-106308055D01*
X205461442Y-106308053D01*
X205208411Y-106186200D01*
X204943329Y-106093443D01*
X204943317Y-106093439D01*
X204669512Y-106030945D01*
X204669494Y-106030942D01*
X204390431Y-105999500D01*
X204390425Y-105999500D01*
X204109575Y-105999500D01*
X204109568Y-105999500D01*
X203830505Y-106030942D01*
X203830487Y-106030945D01*
X203556682Y-106093439D01*
X203556670Y-106093443D01*
X203291588Y-106186200D01*
X203038557Y-106308053D01*
X202800753Y-106457476D01*
X202581175Y-106632583D01*
X202382583Y-106831175D01*
X202207476Y-107050753D01*
X202058053Y-107288557D01*
X201936200Y-107541588D01*
X201843443Y-107806670D01*
X201843439Y-107806682D01*
X201780945Y-108080487D01*
X201780942Y-108080505D01*
X201749500Y-108359568D01*
X201749500Y-108640431D01*
X201780942Y-108919494D01*
X201780945Y-108919512D01*
X201843439Y-109193317D01*
X201843443Y-109193329D01*
X201936200Y-109458411D01*
X202058053Y-109711442D01*
X202058055Y-109711445D01*
X202207477Y-109949248D01*
X202335575Y-110109878D01*
X202361983Y-110174564D01*
X202349228Y-110243259D01*
X202301357Y-110294153D01*
X202233570Y-110311087D01*
X202224429Y-110310057D01*
X202224425Y-110310105D01*
X202172866Y-110305521D01*
X202105138Y-110299500D01*
X199894862Y-110299500D01*
X199882599Y-110300590D01*
X199781451Y-110309582D01*
X199595594Y-110362762D01*
X199424250Y-110452265D01*
X199274428Y-110574428D01*
X199152265Y-110724250D01*
X199062762Y-110895594D01*
X199009582Y-111081451D01*
X198999500Y-111194863D01*
X198999500Y-113405136D01*
X199009582Y-113518548D01*
X199062762Y-113704405D01*
X199062763Y-113704406D01*
X199152266Y-113875751D01*
X199199518Y-113933700D01*
X199274428Y-114025571D01*
X199349339Y-114086652D01*
X199424249Y-114147734D01*
X199595594Y-114237237D01*
X199781448Y-114290417D01*
X199894862Y-114300500D01*
X199894870Y-114300500D01*
X202105130Y-114300500D01*
X202105138Y-114300500D01*
X202218552Y-114290417D01*
X202404406Y-114237237D01*
X202575751Y-114147734D01*
X202725571Y-114025571D01*
X202847734Y-113875751D01*
X202937237Y-113704406D01*
X202990417Y-113518552D01*
X203000500Y-113405138D01*
X203000500Y-111194862D01*
X202990417Y-111081448D01*
X202937237Y-110895594D01*
X202934117Y-110889622D01*
X202920525Y-110821088D01*
X202946142Y-110756084D01*
X203002837Y-110715250D01*
X203072608Y-110711548D01*
X203097828Y-110720489D01*
X203291592Y-110813801D01*
X203484447Y-110881284D01*
X203556670Y-110906556D01*
X203556682Y-110906560D01*
X203830491Y-110969055D01*
X203830497Y-110969055D01*
X203830505Y-110969057D01*
X204000497Y-110988210D01*
X204109569Y-111000499D01*
X204109572Y-111000500D01*
X204375500Y-111000500D01*
X204442539Y-111020185D01*
X204488294Y-111072989D01*
X204499500Y-111124500D01*
X204499500Y-157995572D01*
X204499184Y-158004418D01*
X204499184Y-158004419D01*
X204484869Y-158204557D01*
X204482351Y-158222068D01*
X204440646Y-158413787D01*
X204435662Y-158430763D01*
X204367090Y-158614609D01*
X204359740Y-158630701D01*
X204265711Y-158802904D01*
X204256146Y-158817789D01*
X204138558Y-158974867D01*
X204126972Y-158988237D01*
X203988237Y-159126972D01*
X203974867Y-159138558D01*
X203817789Y-159256146D01*
X203802904Y-159265711D01*
X203630701Y-159359740D01*
X203614609Y-159367090D01*
X203430763Y-159435662D01*
X203413787Y-159440646D01*
X203222068Y-159482351D01*
X203204557Y-159484869D01*
X203023779Y-159497799D01*
X203004417Y-159499184D01*
X202995572Y-159499500D01*
X147004428Y-159499500D01*
X146995582Y-159499184D01*
X146973622Y-159497613D01*
X146795442Y-159484869D01*
X146777931Y-159482351D01*
X146586212Y-159440646D01*
X146569236Y-159435662D01*
X146385390Y-159367090D01*
X146369298Y-159359740D01*
X146197095Y-159265711D01*
X146182210Y-159256146D01*
X146025132Y-159138558D01*
X146011762Y-159126972D01*
X145873027Y-158988237D01*
X145861441Y-158974867D01*
X145743849Y-158817784D01*
X145734288Y-158802904D01*
X145640259Y-158630701D01*
X145632909Y-158614609D01*
X145572091Y-158451551D01*
X145564334Y-158430755D01*
X145559355Y-158413797D01*
X145517647Y-158222063D01*
X145515130Y-158204556D01*
X145500816Y-158004418D01*
X145500500Y-157995572D01*
X145500500Y-111124500D01*
X145520185Y-111057461D01*
X145572989Y-111011706D01*
X145624500Y-111000500D01*
X145890428Y-111000500D01*
X145890429Y-111000499D01*
X146033055Y-110984429D01*
X146169494Y-110969057D01*
X146169499Y-110969056D01*
X146169509Y-110969055D01*
X146443318Y-110906560D01*
X146708408Y-110813801D01*
X146961445Y-110691945D01*
X147199248Y-110542523D01*
X147418825Y-110367416D01*
X147617416Y-110168825D01*
X147792523Y-109949248D01*
X147941945Y-109711445D01*
X148063801Y-109458408D01*
X148156560Y-109193318D01*
X148219055Y-108919509D01*
X148250500Y-108640425D01*
X148250500Y-108359575D01*
X148236101Y-108231783D01*
X148219057Y-108080505D01*
X148219054Y-108080487D01*
X148156560Y-107806682D01*
X148156556Y-107806670D01*
X148133465Y-107740680D01*
X148063801Y-107541592D01*
X147941945Y-107288555D01*
X147792523Y-107050752D01*
X147617416Y-106831175D01*
X147418825Y-106632584D01*
X147199248Y-106457477D01*
X146961445Y-106308055D01*
X146961442Y-106308053D01*
X146708411Y-106186200D01*
X146443329Y-106093443D01*
X146443317Y-106093439D01*
X146169512Y-106030945D01*
X146169494Y-106030942D01*
X145890431Y-105999500D01*
X145890425Y-105999500D01*
X145609575Y-105999500D01*
X145609568Y-105999500D01*
X145330505Y-106030942D01*
X145330487Y-106030945D01*
X145056682Y-106093439D01*
X145056670Y-106093443D01*
X144791588Y-106186200D01*
X144538557Y-106308053D01*
X144300753Y-106457476D01*
X144081175Y-106632583D01*
X143962181Y-106751578D01*
X143900858Y-106785063D01*
X143831166Y-106780079D01*
X143775233Y-106738207D01*
X143750816Y-106672743D01*
X143750500Y-106663897D01*
X143750500Y-97627973D01*
X147999500Y-97627973D01*
X147999500Y-97872027D01*
X148037679Y-98113076D01*
X148113096Y-98345185D01*
X148195842Y-98507584D01*
X148223896Y-98562642D01*
X148367339Y-98760076D01*
X148367343Y-98760081D01*
X148519581Y-98912319D01*
X148553066Y-98973642D01*
X148548082Y-99043334D01*
X148519581Y-99087681D01*
X148367343Y-99239918D01*
X148367339Y-99239923D01*
X148223896Y-99437357D01*
X148113097Y-99654812D01*
X148037678Y-99886927D01*
X147999500Y-100127973D01*
X147999500Y-100372026D01*
X148037549Y-100612260D01*
X148037679Y-100613076D01*
X148113096Y-100845185D01*
X148195979Y-101007853D01*
X148223896Y-101062642D01*
X148367339Y-101260076D01*
X148367343Y-101260081D01*
X148367345Y-101260083D01*
X148539917Y-101432655D01*
X148701308Y-101549912D01*
X148716097Y-101562544D01*
X149400177Y-102246624D01*
X149347358Y-102260778D01*
X149227643Y-102329896D01*
X149129896Y-102427643D01*
X149060778Y-102547358D01*
X149046624Y-102600177D01*
X148291544Y-101845097D01*
X148224319Y-101937626D01*
X148113560Y-102155001D01*
X148038165Y-102387040D01*
X148000000Y-102628006D01*
X148000000Y-102871993D01*
X148038165Y-103112959D01*
X148113560Y-103344998D01*
X148224323Y-103562380D01*
X148291543Y-103654901D01*
X148291544Y-103654902D01*
X149046624Y-102899821D01*
X149060778Y-102952642D01*
X149129896Y-103072357D01*
X149227643Y-103170104D01*
X149347358Y-103239222D01*
X149400176Y-103253374D01*
X148645096Y-104008454D01*
X148645097Y-104008456D01*
X148737619Y-104075676D01*
X148955001Y-104186439D01*
X149187040Y-104261834D01*
X149428007Y-104300000D01*
X149671993Y-104300000D01*
X149912959Y-104261834D01*
X150144998Y-104186439D01*
X150362377Y-104075678D01*
X150452614Y-104010117D01*
X150518420Y-103986637D01*
X150586474Y-104002462D01*
X150635169Y-104052568D01*
X150649500Y-104110435D01*
X150649500Y-105102044D01*
X150629815Y-105169083D01*
X150577011Y-105214838D01*
X150549691Y-105223661D01*
X150516510Y-105230261D01*
X150516498Y-105230264D01*
X150370827Y-105290602D01*
X150370814Y-105290609D01*
X150239711Y-105378210D01*
X150239707Y-105378213D01*
X150128213Y-105489707D01*
X150128210Y-105489711D01*
X150040609Y-105620814D01*
X150040602Y-105620827D01*
X149980264Y-105766498D01*
X149980261Y-105766510D01*
X149949500Y-105921153D01*
X149949500Y-106078846D01*
X149980261Y-106233489D01*
X149980264Y-106233501D01*
X150040602Y-106379172D01*
X150040609Y-106379185D01*
X150128210Y-106510288D01*
X150128213Y-106510292D01*
X150239707Y-106621786D01*
X150239711Y-106621789D01*
X150370814Y-106709390D01*
X150370827Y-106709397D01*
X150516498Y-106769735D01*
X150516503Y-106769737D01*
X150671153Y-106800499D01*
X150671156Y-106800500D01*
X150671158Y-106800500D01*
X150828844Y-106800500D01*
X150828845Y-106800499D01*
X150983497Y-106769737D01*
X151129179Y-106709394D01*
X151206609Y-106657657D01*
X151273286Y-106636779D01*
X151340666Y-106655263D01*
X151387357Y-106707242D01*
X151399500Y-106760759D01*
X151399500Y-119670234D01*
X151379815Y-119737273D01*
X151378602Y-119739125D01*
X151290609Y-119870814D01*
X151290602Y-119870827D01*
X151230264Y-120016498D01*
X151230261Y-120016510D01*
X151199500Y-120171153D01*
X151199500Y-120328846D01*
X151230261Y-120483489D01*
X151230264Y-120483501D01*
X151290602Y-120629172D01*
X151290609Y-120629185D01*
X151378210Y-120760288D01*
X151378213Y-120760292D01*
X151489707Y-120871786D01*
X151489711Y-120871789D01*
X151620814Y-120959390D01*
X151620827Y-120959397D01*
X151766498Y-121019735D01*
X151766503Y-121019737D01*
X151921153Y-121050499D01*
X151921156Y-121050500D01*
X152025500Y-121050500D01*
X152092539Y-121070185D01*
X152138294Y-121122989D01*
X152149500Y-121174500D01*
X152149500Y-132170234D01*
X152129815Y-132237273D01*
X152128602Y-132239125D01*
X152040609Y-132370814D01*
X152040602Y-132370827D01*
X151980264Y-132516498D01*
X151980261Y-132516510D01*
X151949500Y-132671153D01*
X151949500Y-132828846D01*
X151980261Y-132983489D01*
X151980264Y-132983501D01*
X152040602Y-133129172D01*
X152040609Y-133129185D01*
X152128210Y-133260288D01*
X152128213Y-133260292D01*
X152239707Y-133371786D01*
X152239711Y-133371789D01*
X152370814Y-133459390D01*
X152370827Y-133459397D01*
X152516498Y-133519735D01*
X152516503Y-133519737D01*
X152671153Y-133550499D01*
X152671156Y-133550500D01*
X152775500Y-133550500D01*
X152842539Y-133570185D01*
X152888294Y-133622989D01*
X152899500Y-133674500D01*
X152899500Y-144670234D01*
X152879815Y-144737273D01*
X152878602Y-144739125D01*
X152790609Y-144870814D01*
X152790602Y-144870827D01*
X152730264Y-145016498D01*
X152730261Y-145016510D01*
X152699500Y-145171153D01*
X152699500Y-145328846D01*
X152730261Y-145483489D01*
X152730264Y-145483501D01*
X152790602Y-145629172D01*
X152790609Y-145629185D01*
X152878210Y-145760288D01*
X152878213Y-145760292D01*
X152989707Y-145871786D01*
X152989711Y-145871789D01*
X153120814Y-145959390D01*
X153120827Y-145959397D01*
X153266498Y-146019735D01*
X153266503Y-146019737D01*
X153421153Y-146050499D01*
X153421156Y-146050500D01*
X153421158Y-146050500D01*
X153578844Y-146050500D01*
X153578845Y-146050499D01*
X153733497Y-146019737D01*
X153879179Y-145959394D01*
X154010289Y-145871789D01*
X154121789Y-145760289D01*
X154209394Y-145629179D01*
X154269737Y-145483497D01*
X154300500Y-145328842D01*
X154300500Y-145171158D01*
X154300500Y-145171155D01*
X154300499Y-145171153D01*
X154269738Y-145016510D01*
X154269737Y-145016503D01*
X154269735Y-145016498D01*
X154209397Y-144870827D01*
X154209390Y-144870814D01*
X154121398Y-144739125D01*
X154100520Y-144672447D01*
X154100500Y-144670234D01*
X154100500Y-103003439D01*
X154120185Y-102936400D01*
X154172989Y-102890645D01*
X154242147Y-102880701D01*
X154305703Y-102909726D01*
X154327602Y-102934548D01*
X154378210Y-103010288D01*
X154378213Y-103010292D01*
X154489707Y-103121786D01*
X154489711Y-103121789D01*
X154620814Y-103209390D01*
X154620827Y-103209397D01*
X154719232Y-103250157D01*
X154766503Y-103269737D01*
X154921153Y-103300499D01*
X154921156Y-103300500D01*
X154921158Y-103300500D01*
X155078844Y-103300500D01*
X155078845Y-103300499D01*
X155233497Y-103269737D01*
X155262736Y-103257625D01*
X155332202Y-103250157D01*
X155394682Y-103281431D01*
X155430335Y-103341520D01*
X155434187Y-103372187D01*
X155434187Y-105382372D01*
X155414502Y-105449411D01*
X155397868Y-105470053D01*
X155378213Y-105489707D01*
X155378210Y-105489711D01*
X155290609Y-105620814D01*
X155290602Y-105620827D01*
X155230264Y-105766498D01*
X155230261Y-105766510D01*
X155199500Y-105921153D01*
X155199500Y-106078846D01*
X155230261Y-106233489D01*
X155230264Y-106233501D01*
X155290602Y-106379172D01*
X155290609Y-106379185D01*
X155378210Y-106510288D01*
X155378213Y-106510292D01*
X155489707Y-106621786D01*
X155489711Y-106621789D01*
X155620814Y-106709390D01*
X155620827Y-106709397D01*
X155766498Y-106769735D01*
X155766503Y-106769737D01*
X155921153Y-106800499D01*
X155921156Y-106800500D01*
X156025500Y-106800500D01*
X156092539Y-106820185D01*
X156138294Y-106872989D01*
X156149500Y-106924500D01*
X156149500Y-107821880D01*
X156149499Y-107821898D01*
X156149499Y-107987604D01*
X156149498Y-107987604D01*
X156190423Y-108140335D01*
X156200485Y-108157762D01*
X156200486Y-108157765D01*
X156269475Y-108277259D01*
X156269481Y-108277267D01*
X156388349Y-108396135D01*
X156388355Y-108396140D01*
X158363181Y-110370966D01*
X158396666Y-110432289D01*
X158399500Y-110458647D01*
X158399500Y-119670234D01*
X158379815Y-119737273D01*
X158378602Y-119739125D01*
X158290609Y-119870814D01*
X158290602Y-119870827D01*
X158230264Y-120016498D01*
X158230261Y-120016510D01*
X158199500Y-120171153D01*
X158199500Y-120328846D01*
X158230261Y-120483489D01*
X158230264Y-120483501D01*
X158290602Y-120629172D01*
X158290609Y-120629185D01*
X158378210Y-120760288D01*
X158378213Y-120760292D01*
X158489707Y-120871786D01*
X158489711Y-120871789D01*
X158620814Y-120959390D01*
X158620827Y-120959397D01*
X158766498Y-121019735D01*
X158766503Y-121019737D01*
X158921153Y-121050499D01*
X158921156Y-121050500D01*
X159025500Y-121050500D01*
X159092539Y-121070185D01*
X159138294Y-121122989D01*
X159149500Y-121174500D01*
X159149500Y-132170234D01*
X159129815Y-132237273D01*
X159128602Y-132239125D01*
X159040609Y-132370814D01*
X159040602Y-132370827D01*
X158980264Y-132516498D01*
X158980261Y-132516510D01*
X158949500Y-132671153D01*
X158949500Y-132828846D01*
X158980261Y-132983489D01*
X158980264Y-132983501D01*
X159040602Y-133129172D01*
X159040609Y-133129185D01*
X159128210Y-133260288D01*
X159128213Y-133260292D01*
X159239707Y-133371786D01*
X159239711Y-133371789D01*
X159370814Y-133459390D01*
X159370827Y-133459397D01*
X159516498Y-133519735D01*
X159516503Y-133519737D01*
X159671153Y-133550499D01*
X159671156Y-133550500D01*
X159775500Y-133550500D01*
X159842539Y-133570185D01*
X159888294Y-133622989D01*
X159899500Y-133674500D01*
X159899500Y-144670234D01*
X159879815Y-144737273D01*
X159878602Y-144739125D01*
X159790609Y-144870814D01*
X159790602Y-144870827D01*
X159730264Y-145016498D01*
X159730261Y-145016510D01*
X159699500Y-145171153D01*
X159699500Y-145328846D01*
X159730261Y-145483489D01*
X159730264Y-145483501D01*
X159790602Y-145629172D01*
X159790609Y-145629185D01*
X159878210Y-145760288D01*
X159878213Y-145760292D01*
X159989707Y-145871786D01*
X159989711Y-145871789D01*
X160120814Y-145959390D01*
X160120827Y-145959397D01*
X160266498Y-146019735D01*
X160266503Y-146019737D01*
X160421153Y-146050499D01*
X160421156Y-146050500D01*
X160421158Y-146050500D01*
X160578844Y-146050500D01*
X160578845Y-146050499D01*
X160733497Y-146019737D01*
X160879179Y-145959394D01*
X161010289Y-145871789D01*
X161121789Y-145760289D01*
X161209394Y-145629179D01*
X161269737Y-145483497D01*
X161300500Y-145328842D01*
X161300500Y-145171158D01*
X161300500Y-145171155D01*
X161300499Y-145171153D01*
X161269738Y-145016510D01*
X161269737Y-145016503D01*
X161269735Y-145016498D01*
X161209397Y-144870827D01*
X161209390Y-144870814D01*
X161121398Y-144739125D01*
X161100520Y-144672447D01*
X161100500Y-144670234D01*
X161100500Y-109999097D01*
X161120185Y-109932058D01*
X161172989Y-109886303D01*
X161242147Y-109876359D01*
X161305703Y-109905384D01*
X161312181Y-109911416D01*
X168863181Y-117462416D01*
X168896666Y-117523739D01*
X168899500Y-117550097D01*
X168899500Y-119670234D01*
X168879815Y-119737273D01*
X168878602Y-119739125D01*
X168790609Y-119870814D01*
X168790602Y-119870827D01*
X168730264Y-120016498D01*
X168730261Y-120016510D01*
X168699500Y-120171153D01*
X168699500Y-120328846D01*
X168730261Y-120483489D01*
X168730264Y-120483501D01*
X168790602Y-120629172D01*
X168790609Y-120629185D01*
X168878210Y-120760288D01*
X168878213Y-120760292D01*
X168989707Y-120871786D01*
X168989711Y-120871789D01*
X169120814Y-120959390D01*
X169120827Y-120959397D01*
X169266498Y-121019735D01*
X169266503Y-121019737D01*
X169421153Y-121050499D01*
X169421156Y-121050500D01*
X169525500Y-121050500D01*
X169592539Y-121070185D01*
X169638294Y-121122989D01*
X169649500Y-121174500D01*
X169649500Y-132170234D01*
X169629815Y-132237273D01*
X169628602Y-132239125D01*
X169540609Y-132370814D01*
X169540602Y-132370827D01*
X169480264Y-132516498D01*
X169480261Y-132516510D01*
X169449500Y-132671153D01*
X169449500Y-132828846D01*
X169480261Y-132983489D01*
X169480264Y-132983501D01*
X169540602Y-133129172D01*
X169540609Y-133129185D01*
X169628210Y-133260288D01*
X169628213Y-133260292D01*
X169739707Y-133371786D01*
X169739711Y-133371789D01*
X169870814Y-133459390D01*
X169870827Y-133459397D01*
X170016498Y-133519735D01*
X170016503Y-133519737D01*
X170171153Y-133550499D01*
X170171156Y-133550500D01*
X170275500Y-133550500D01*
X170342539Y-133570185D01*
X170388294Y-133622989D01*
X170399500Y-133674500D01*
X170399500Y-144670234D01*
X170379815Y-144737273D01*
X170378602Y-144739125D01*
X170290609Y-144870814D01*
X170290602Y-144870827D01*
X170230264Y-145016498D01*
X170230261Y-145016510D01*
X170199500Y-145171153D01*
X170199500Y-145328846D01*
X170230261Y-145483489D01*
X170230264Y-145483501D01*
X170290602Y-145629172D01*
X170290609Y-145629185D01*
X170378210Y-145760288D01*
X170378213Y-145760292D01*
X170489707Y-145871786D01*
X170489711Y-145871789D01*
X170620814Y-145959390D01*
X170620827Y-145959397D01*
X170766498Y-146019735D01*
X170766503Y-146019737D01*
X170921153Y-146050499D01*
X170921156Y-146050500D01*
X170921158Y-146050500D01*
X171078844Y-146050500D01*
X171078845Y-146050499D01*
X171233497Y-146019737D01*
X171379179Y-145959394D01*
X171510289Y-145871789D01*
X171621789Y-145760289D01*
X171709394Y-145629179D01*
X171769737Y-145483497D01*
X171800500Y-145328842D01*
X171800500Y-145171158D01*
X171800500Y-145171155D01*
X171800499Y-145171153D01*
X171769738Y-145016510D01*
X171769737Y-145016503D01*
X171769735Y-145016498D01*
X171709397Y-144870827D01*
X171709390Y-144870814D01*
X171621398Y-144739125D01*
X171600520Y-144672447D01*
X171600500Y-144670234D01*
X171600500Y-116170944D01*
X171600500Y-116170943D01*
X171594754Y-116149500D01*
X171589534Y-116130019D01*
X171559577Y-116018216D01*
X171559573Y-116018209D01*
X171480524Y-115881290D01*
X171480521Y-115881286D01*
X171480520Y-115881284D01*
X171368716Y-115769480D01*
X171368715Y-115769479D01*
X171364385Y-115765149D01*
X171364374Y-115765139D01*
X162362151Y-106762916D01*
X162328666Y-106701593D01*
X162333650Y-106631901D01*
X162375522Y-106575968D01*
X162440986Y-106551551D01*
X162449832Y-106551235D01*
X172117795Y-106551235D01*
X172184834Y-106570920D01*
X172205477Y-106587555D01*
X172239707Y-106621786D01*
X172239711Y-106621789D01*
X172370814Y-106709390D01*
X172370827Y-106709397D01*
X172516498Y-106769735D01*
X172516503Y-106769737D01*
X172671153Y-106800499D01*
X172671156Y-106800500D01*
X172671158Y-106800500D01*
X172828844Y-106800500D01*
X172828845Y-106800499D01*
X172983497Y-106769737D01*
X173129179Y-106709394D01*
X173260289Y-106621789D01*
X173371789Y-106510289D01*
X173459394Y-106379179D01*
X173519737Y-106233497D01*
X173550500Y-106078842D01*
X173550500Y-105921158D01*
X173550500Y-105921155D01*
X173550499Y-105921153D01*
X173519738Y-105766510D01*
X173519737Y-105766503D01*
X173496708Y-105710905D01*
X173459397Y-105620827D01*
X173459390Y-105620814D01*
X173371789Y-105489711D01*
X173371786Y-105489707D01*
X173260292Y-105378213D01*
X173260288Y-105378210D01*
X173129185Y-105290609D01*
X173129178Y-105290605D01*
X173125451Y-105289062D01*
X173071047Y-105245222D01*
X173048981Y-105178928D01*
X173066259Y-105111229D01*
X173117395Y-105063617D01*
X173172902Y-105050500D01*
X173328844Y-105050500D01*
X173328845Y-105050499D01*
X173483497Y-105019737D01*
X173596166Y-104973067D01*
X173629172Y-104959397D01*
X173629172Y-104959396D01*
X173629179Y-104959394D01*
X173760289Y-104871789D01*
X173871789Y-104760289D01*
X173959394Y-104629179D01*
X174019737Y-104483497D01*
X174050500Y-104328842D01*
X174050500Y-104171158D01*
X174050500Y-104171157D01*
X174050500Y-104171155D01*
X174050499Y-104171153D01*
X174046276Y-104149924D01*
X174019737Y-104016503D01*
X174007366Y-103986637D01*
X173959397Y-103870827D01*
X173959390Y-103870814D01*
X173871398Y-103739125D01*
X173850520Y-103672447D01*
X173850500Y-103670234D01*
X173850500Y-100829765D01*
X173870185Y-100762726D01*
X173871398Y-100760874D01*
X173959390Y-100629185D01*
X173959390Y-100629184D01*
X173959394Y-100629179D01*
X174019737Y-100483497D01*
X174050500Y-100328842D01*
X174050500Y-100171158D01*
X174050500Y-100171155D01*
X174050499Y-100171153D01*
X174041910Y-100127973D01*
X174019737Y-100016503D01*
X174004833Y-99980521D01*
X173959397Y-99870827D01*
X173959390Y-99870814D01*
X173871789Y-99739711D01*
X173871786Y-99739707D01*
X173760292Y-99628213D01*
X173760288Y-99628210D01*
X173695596Y-99584984D01*
X173650791Y-99531372D01*
X173642084Y-99462047D01*
X173672239Y-99399019D01*
X173695590Y-99378784D01*
X173817782Y-99297139D01*
X173957139Y-99157782D01*
X174066632Y-98993914D01*
X174142051Y-98811835D01*
X174162982Y-98706611D01*
X174180500Y-98618543D01*
X174719499Y-98618543D01*
X174757947Y-98811829D01*
X174757950Y-98811839D01*
X174833364Y-98993907D01*
X174833371Y-98993920D01*
X174942860Y-99157781D01*
X174942863Y-99157785D01*
X175082214Y-99297136D01*
X175082218Y-99297139D01*
X175246079Y-99406628D01*
X175246092Y-99406635D01*
X175396681Y-99469010D01*
X175428165Y-99482051D01*
X175428169Y-99482051D01*
X175428170Y-99482052D01*
X175621456Y-99520500D01*
X175621459Y-99520500D01*
X175818542Y-99520500D01*
X175846556Y-99514927D01*
X175964330Y-99491500D01*
X176033919Y-99497727D01*
X176076201Y-99525436D01*
X177863181Y-101312416D01*
X177896666Y-101373739D01*
X177899500Y-101400097D01*
X177899500Y-117920234D01*
X177879815Y-117987273D01*
X177878602Y-117989125D01*
X177790609Y-118120814D01*
X177790602Y-118120827D01*
X177730264Y-118266498D01*
X177730261Y-118266510D01*
X177699500Y-118421153D01*
X177699500Y-118578846D01*
X177730261Y-118733489D01*
X177730264Y-118733501D01*
X177790602Y-118879172D01*
X177790609Y-118879185D01*
X177878210Y-119010288D01*
X177878213Y-119010292D01*
X177989707Y-119121786D01*
X177989711Y-119121789D01*
X178120814Y-119209390D01*
X178120827Y-119209397D01*
X178266498Y-119269735D01*
X178266503Y-119269737D01*
X178421153Y-119300499D01*
X178421156Y-119300500D01*
X178525500Y-119300500D01*
X178592539Y-119320185D01*
X178638294Y-119372989D01*
X178649500Y-119424500D01*
X178649500Y-130420234D01*
X178629815Y-130487273D01*
X178628602Y-130489125D01*
X178540609Y-130620814D01*
X178540602Y-130620827D01*
X178480264Y-130766498D01*
X178480261Y-130766510D01*
X178449500Y-130921153D01*
X178449500Y-131078846D01*
X178480261Y-131233489D01*
X178480264Y-131233501D01*
X178540602Y-131379172D01*
X178540609Y-131379185D01*
X178628210Y-131510288D01*
X178628213Y-131510292D01*
X178739707Y-131621786D01*
X178739711Y-131621789D01*
X178870814Y-131709390D01*
X178870827Y-131709397D01*
X179016498Y-131769735D01*
X179016503Y-131769737D01*
X179171153Y-131800499D01*
X179171156Y-131800500D01*
X179275500Y-131800500D01*
X179342539Y-131820185D01*
X179388294Y-131872989D01*
X179399500Y-131924500D01*
X179399500Y-142920234D01*
X179379815Y-142987273D01*
X179378602Y-142989125D01*
X179290609Y-143120814D01*
X179290602Y-143120827D01*
X179230264Y-143266498D01*
X179230261Y-143266510D01*
X179199500Y-143421153D01*
X179199500Y-143578846D01*
X179230261Y-143733489D01*
X179230264Y-143733501D01*
X179290602Y-143879172D01*
X179290609Y-143879185D01*
X179378210Y-144010288D01*
X179378213Y-144010292D01*
X179489707Y-144121786D01*
X179489711Y-144121789D01*
X179620814Y-144209390D01*
X179620827Y-144209397D01*
X179766498Y-144269735D01*
X179766503Y-144269737D01*
X179921153Y-144300499D01*
X179921156Y-144300500D01*
X179921158Y-144300500D01*
X180078844Y-144300500D01*
X180078845Y-144300499D01*
X180233497Y-144269737D01*
X180379179Y-144209394D01*
X180510289Y-144121789D01*
X180621789Y-144010289D01*
X180709394Y-143879179D01*
X180769737Y-143733497D01*
X180800500Y-143578842D01*
X180800500Y-143421158D01*
X180800500Y-143421155D01*
X180800499Y-143421153D01*
X180769738Y-143266510D01*
X180769737Y-143266503D01*
X180769735Y-143266498D01*
X180709397Y-143120827D01*
X180709390Y-143120814D01*
X180621398Y-142989125D01*
X180600520Y-142922447D01*
X180600500Y-142920234D01*
X180600500Y-114403098D01*
X180620185Y-114336059D01*
X180672989Y-114290304D01*
X180742147Y-114280360D01*
X180758614Y-114283883D01*
X180781448Y-114290417D01*
X180894862Y-114300500D01*
X180894870Y-114300500D01*
X183105130Y-114300500D01*
X183105138Y-114300500D01*
X183218552Y-114290417D01*
X183404406Y-114237237D01*
X183468089Y-114203971D01*
X183536623Y-114190380D01*
X183601626Y-114215998D01*
X183642460Y-114272694D01*
X183649500Y-114313880D01*
X183649500Y-117352044D01*
X183629815Y-117419083D01*
X183577011Y-117464838D01*
X183549691Y-117473661D01*
X183516510Y-117480261D01*
X183516498Y-117480264D01*
X183370827Y-117540602D01*
X183370814Y-117540609D01*
X183239711Y-117628210D01*
X183239707Y-117628213D01*
X183128213Y-117739707D01*
X183128210Y-117739711D01*
X183040609Y-117870814D01*
X183040602Y-117870827D01*
X182980264Y-118016498D01*
X182980261Y-118016510D01*
X182949500Y-118171153D01*
X182949500Y-118328846D01*
X182980261Y-118483489D01*
X182980264Y-118483501D01*
X183040602Y-118629172D01*
X183040609Y-118629185D01*
X183128210Y-118760288D01*
X183128213Y-118760292D01*
X183239707Y-118871786D01*
X183239711Y-118871789D01*
X183370814Y-118959390D01*
X183370827Y-118959397D01*
X183494828Y-119010759D01*
X183516503Y-119019737D01*
X183671153Y-119050499D01*
X183671156Y-119050500D01*
X183671158Y-119050500D01*
X183828844Y-119050500D01*
X183828845Y-119050499D01*
X183983497Y-119019737D01*
X184129179Y-118959394D01*
X184206609Y-118907657D01*
X184273286Y-118886779D01*
X184340666Y-118905263D01*
X184387357Y-118957242D01*
X184399500Y-119010759D01*
X184399500Y-132170234D01*
X184379815Y-132237273D01*
X184378602Y-132239125D01*
X184290609Y-132370814D01*
X184290602Y-132370827D01*
X184230264Y-132516498D01*
X184230261Y-132516510D01*
X184199500Y-132671153D01*
X184199500Y-132828846D01*
X184230261Y-132983489D01*
X184230264Y-132983501D01*
X184290602Y-133129172D01*
X184290609Y-133129185D01*
X184378210Y-133260288D01*
X184378213Y-133260292D01*
X184489707Y-133371786D01*
X184489711Y-133371789D01*
X184620814Y-133459390D01*
X184620827Y-133459397D01*
X184766498Y-133519735D01*
X184766503Y-133519737D01*
X184921153Y-133550499D01*
X184921156Y-133550500D01*
X185025500Y-133550500D01*
X185092539Y-133570185D01*
X185138294Y-133622989D01*
X185149500Y-133674500D01*
X185149500Y-144670234D01*
X185129815Y-144737273D01*
X185128602Y-144739125D01*
X185040609Y-144870814D01*
X185040602Y-144870827D01*
X184980264Y-145016498D01*
X184980261Y-145016510D01*
X184949500Y-145171153D01*
X184949500Y-145328846D01*
X184980261Y-145483489D01*
X184980264Y-145483501D01*
X185040602Y-145629172D01*
X185040609Y-145629185D01*
X185128210Y-145760288D01*
X185128213Y-145760292D01*
X185239707Y-145871786D01*
X185239711Y-145871789D01*
X185370814Y-145959390D01*
X185370827Y-145959397D01*
X185516498Y-146019735D01*
X185516503Y-146019737D01*
X185671153Y-146050499D01*
X185671156Y-146050500D01*
X185671158Y-146050500D01*
X185828844Y-146050500D01*
X185828845Y-146050499D01*
X185983497Y-146019737D01*
X186129179Y-145959394D01*
X186260289Y-145871789D01*
X186371789Y-145760289D01*
X186459394Y-145629179D01*
X186519737Y-145483497D01*
X186550500Y-145328842D01*
X186550500Y-145171158D01*
X186550500Y-145171155D01*
X186550499Y-145171153D01*
X186519738Y-145016510D01*
X186519737Y-145016503D01*
X186519735Y-145016498D01*
X186459397Y-144870827D01*
X186459390Y-144870814D01*
X186371398Y-144739125D01*
X186350520Y-144672447D01*
X186350500Y-144670234D01*
X186350500Y-111089060D01*
X186350501Y-111089047D01*
X186350501Y-110920944D01*
X186346646Y-110906556D01*
X186309577Y-110768216D01*
X186302573Y-110756084D01*
X186230524Y-110631290D01*
X186230518Y-110631282D01*
X183110917Y-107511681D01*
X183077432Y-107450358D01*
X183082416Y-107380666D01*
X183124288Y-107324733D01*
X183189752Y-107300316D01*
X183198598Y-107300000D01*
X184244930Y-107300000D01*
X184244930Y-107299999D01*
X184379141Y-107284877D01*
X184549298Y-107225337D01*
X184549302Y-107225335D01*
X184563109Y-107216660D01*
X184566833Y-107183611D01*
X184593899Y-107119196D01*
X184651493Y-107079641D01*
X184721330Y-107077502D01*
X184777734Y-107109812D01*
X184797738Y-107129816D01*
X184883352Y-107183611D01*
X184949758Y-107225337D01*
X184950478Y-107225789D01*
X185119342Y-107284877D01*
X185120745Y-107285368D01*
X185120750Y-107285369D01*
X185211246Y-107295565D01*
X185255040Y-107300499D01*
X185255043Y-107300500D01*
X185255046Y-107300500D01*
X186744957Y-107300500D01*
X186744958Y-107300499D01*
X186812104Y-107292934D01*
X186879249Y-107285369D01*
X186879252Y-107285368D01*
X186879255Y-107285368D01*
X187049522Y-107225789D01*
X187050242Y-107225337D01*
X187090721Y-107199902D01*
X187184029Y-107141272D01*
X187251264Y-107122272D01*
X187315970Y-107141272D01*
X187380720Y-107181957D01*
X187450475Y-107225788D01*
X187620745Y-107285368D01*
X187620750Y-107285369D01*
X187711246Y-107295565D01*
X187755040Y-107300499D01*
X187755043Y-107300500D01*
X187755046Y-107300500D01*
X189244957Y-107300500D01*
X189244958Y-107300499D01*
X189312104Y-107292934D01*
X189379249Y-107285369D01*
X189379252Y-107285368D01*
X189379255Y-107285368D01*
X189549522Y-107225789D01*
X189702262Y-107129816D01*
X189702262Y-107129815D01*
X189708158Y-107126111D01*
X189709602Y-107128409D01*
X189762849Y-107106659D01*
X189831547Y-107119401D01*
X189882450Y-107167261D01*
X189899500Y-107230012D01*
X189899500Y-107913330D01*
X189899499Y-107913348D01*
X189899499Y-108079054D01*
X189899498Y-108079054D01*
X189915918Y-108140335D01*
X189940423Y-108231785D01*
X189966682Y-108277266D01*
X190014201Y-108359572D01*
X190019479Y-108368714D01*
X190019481Y-108368717D01*
X190138349Y-108487585D01*
X190138355Y-108487590D01*
X191771597Y-110120833D01*
X191772236Y-110122004D01*
X191773397Y-110122670D01*
X191788943Y-110152601D01*
X191805082Y-110182156D01*
X191804986Y-110183487D01*
X191805603Y-110184674D01*
X191802501Y-110218233D01*
X191800098Y-110251848D01*
X191799296Y-110252918D01*
X191799174Y-110254248D01*
X191778417Y-110280808D01*
X191758226Y-110307781D01*
X191756707Y-110308589D01*
X191756152Y-110309301D01*
X191747721Y-110313376D01*
X191724831Y-110325569D01*
X191721450Y-110326750D01*
X191595594Y-110362763D01*
X191549425Y-110386879D01*
X191540915Y-110389854D01*
X191514661Y-110391185D01*
X191488876Y-110396299D01*
X191477823Y-110393053D01*
X191471135Y-110393393D01*
X191462899Y-110388671D01*
X191442589Y-110382708D01*
X191404405Y-110362762D01*
X191249845Y-110318537D01*
X191218552Y-110309583D01*
X191218551Y-110309582D01*
X191218548Y-110309582D01*
X191129662Y-110301680D01*
X191105138Y-110299500D01*
X188894862Y-110299500D01*
X188882599Y-110300590D01*
X188781451Y-110309582D01*
X188595594Y-110362762D01*
X188424250Y-110452265D01*
X188274428Y-110574428D01*
X188152265Y-110724250D01*
X188062762Y-110895594D01*
X188009582Y-111081451D01*
X187999500Y-111194863D01*
X187999500Y-113405136D01*
X188009582Y-113518548D01*
X188062762Y-113704405D01*
X188062763Y-113704406D01*
X188152266Y-113875751D01*
X188199518Y-113933700D01*
X188274428Y-114025571D01*
X188349339Y-114086652D01*
X188424249Y-114147734D01*
X188595594Y-114237237D01*
X188781448Y-114290417D01*
X188894862Y-114300500D01*
X188894870Y-114300500D01*
X191105130Y-114300500D01*
X191105138Y-114300500D01*
X191218552Y-114290417D01*
X191404406Y-114237237D01*
X191442588Y-114217291D01*
X191511122Y-114203700D01*
X191557410Y-114217291D01*
X191595594Y-114237237D01*
X191781448Y-114290417D01*
X191894862Y-114300500D01*
X191894870Y-114300500D01*
X194105130Y-114300500D01*
X194105138Y-114300500D01*
X194218552Y-114290417D01*
X194404406Y-114237237D01*
X194575751Y-114147734D01*
X194725571Y-114025571D01*
X194847734Y-113875751D01*
X194937237Y-113704406D01*
X194990417Y-113518552D01*
X195000500Y-113405138D01*
X195000500Y-111899097D01*
X195006738Y-111877851D01*
X195008318Y-111855763D01*
X195016390Y-111844979D01*
X195020185Y-111832058D01*
X195036918Y-111817558D01*
X195050190Y-111799830D01*
X195062810Y-111795122D01*
X195072989Y-111786303D01*
X195094906Y-111783151D01*
X195115654Y-111775413D01*
X195128814Y-111778275D01*
X195142147Y-111776359D01*
X195162290Y-111785558D01*
X195183927Y-111790265D01*
X195201652Y-111803533D01*
X195205703Y-111805384D01*
X195212181Y-111811416D01*
X195363181Y-111962416D01*
X195396666Y-112023739D01*
X195399500Y-112050097D01*
X195399500Y-144670234D01*
X195379815Y-144737273D01*
X195378602Y-144739125D01*
X195290609Y-144870814D01*
X195290602Y-144870827D01*
X195230264Y-145016498D01*
X195230261Y-145016510D01*
X195199500Y-145171153D01*
X195199500Y-145328846D01*
X195230261Y-145483489D01*
X195230264Y-145483501D01*
X195290602Y-145629172D01*
X195290609Y-145629185D01*
X195378210Y-145760288D01*
X195378213Y-145760292D01*
X195489707Y-145871786D01*
X195489711Y-145871789D01*
X195620814Y-145959390D01*
X195620827Y-145959397D01*
X195766498Y-146019735D01*
X195766503Y-146019737D01*
X195921153Y-146050499D01*
X195921156Y-146050500D01*
X195921158Y-146050500D01*
X196078844Y-146050500D01*
X196078845Y-146050499D01*
X196233497Y-146019737D01*
X196379179Y-145959394D01*
X196510289Y-145871789D01*
X196621789Y-145760289D01*
X196709394Y-145629179D01*
X196769737Y-145483497D01*
X196800500Y-145328842D01*
X196800500Y-145171158D01*
X196800500Y-145171155D01*
X196800499Y-145171153D01*
X196769738Y-145016510D01*
X196769737Y-145016503D01*
X196769735Y-145016498D01*
X196709397Y-144870827D01*
X196709390Y-144870814D01*
X196621398Y-144739125D01*
X196600520Y-144672447D01*
X196600500Y-144670234D01*
X196600500Y-133674500D01*
X196620185Y-133607461D01*
X196672989Y-133561706D01*
X196724500Y-133550500D01*
X196828844Y-133550500D01*
X196828845Y-133550499D01*
X196983497Y-133519737D01*
X197129179Y-133459394D01*
X197260289Y-133371789D01*
X197371789Y-133260289D01*
X197459394Y-133129179D01*
X197519737Y-132983497D01*
X197550500Y-132828842D01*
X197550500Y-132671158D01*
X197550500Y-132671155D01*
X197550499Y-132671153D01*
X197519738Y-132516510D01*
X197519737Y-132516503D01*
X197519735Y-132516498D01*
X197459397Y-132370827D01*
X197459390Y-132370814D01*
X197371398Y-132239125D01*
X197350520Y-132172447D01*
X197350500Y-132170234D01*
X197350500Y-121174500D01*
X197370185Y-121107461D01*
X197422989Y-121061706D01*
X197474500Y-121050500D01*
X197578844Y-121050500D01*
X197578845Y-121050499D01*
X197733497Y-121019737D01*
X197879179Y-120959394D01*
X198010289Y-120871789D01*
X198121789Y-120760289D01*
X198209394Y-120629179D01*
X198269737Y-120483497D01*
X198300500Y-120328842D01*
X198300500Y-120171158D01*
X198300500Y-120171155D01*
X198300499Y-120171153D01*
X198269738Y-120016510D01*
X198269737Y-120016503D01*
X198269735Y-120016498D01*
X198209397Y-119870827D01*
X198209390Y-119870814D01*
X198121398Y-119739125D01*
X198100520Y-119672447D01*
X198100500Y-119670234D01*
X198100500Y-111170944D01*
X198100499Y-111170940D01*
X198091647Y-111137904D01*
X198091646Y-111137903D01*
X198089873Y-111131284D01*
X198059577Y-111018215D01*
X198019012Y-110947955D01*
X197988781Y-110895593D01*
X197980521Y-110881285D01*
X197864385Y-110765149D01*
X197864374Y-110765139D01*
X195987590Y-108888355D01*
X195987588Y-108888352D01*
X195868717Y-108769481D01*
X195868716Y-108769480D01*
X195781904Y-108719360D01*
X195781904Y-108719359D01*
X195781900Y-108719358D01*
X195731785Y-108690423D01*
X195579057Y-108649499D01*
X195420943Y-108649499D01*
X195413347Y-108649499D01*
X195413331Y-108649500D01*
X193550098Y-108649500D01*
X193483059Y-108629815D01*
X193462417Y-108613181D01*
X192136819Y-107287583D01*
X192103334Y-107226260D01*
X192100500Y-107199902D01*
X192100500Y-104800097D01*
X192120185Y-104733058D01*
X192136819Y-104712416D01*
X192712417Y-104136819D01*
X192773740Y-104103334D01*
X192800098Y-104100500D01*
X193504401Y-104100500D01*
X193571440Y-104120185D01*
X193617195Y-104172989D01*
X193627139Y-104242147D01*
X193598114Y-104305703D01*
X193545356Y-104341541D01*
X193450697Y-104374664D01*
X193450695Y-104374664D01*
X193436890Y-104383337D01*
X193436890Y-104383338D01*
X194370589Y-105317037D01*
X194307007Y-105334075D01*
X194192993Y-105399901D01*
X194099901Y-105492993D01*
X194034075Y-105607007D01*
X194017037Y-105670589D01*
X193083338Y-104736890D01*
X193083337Y-104736890D01*
X193074664Y-104750695D01*
X193074664Y-104750696D01*
X193015122Y-104920854D01*
X193015122Y-104920856D01*
X193000000Y-105055069D01*
X193000000Y-106544930D01*
X193015121Y-106679140D01*
X193074665Y-106849304D01*
X193083338Y-106863108D01*
X193083338Y-106863109D01*
X194017037Y-105929410D01*
X194034075Y-105992993D01*
X194099901Y-106107007D01*
X194192993Y-106200099D01*
X194307007Y-106265925D01*
X194370589Y-106282962D01*
X193436889Y-107216660D01*
X193450696Y-107225335D01*
X193620859Y-107284878D01*
X193755069Y-107299999D01*
X193755070Y-107300000D01*
X195244930Y-107300000D01*
X195244930Y-107299999D01*
X195379141Y-107284877D01*
X195549298Y-107225337D01*
X195549302Y-107225335D01*
X195563109Y-107216660D01*
X195566833Y-107183611D01*
X195593899Y-107119196D01*
X195651493Y-107079641D01*
X195721330Y-107077502D01*
X195777734Y-107109812D01*
X195797738Y-107129816D01*
X195883352Y-107183611D01*
X195949758Y-107225337D01*
X195950478Y-107225789D01*
X196119342Y-107284877D01*
X196120745Y-107285368D01*
X196120750Y-107285369D01*
X196211246Y-107295565D01*
X196255040Y-107300499D01*
X196255043Y-107300500D01*
X196255046Y-107300500D01*
X197744957Y-107300500D01*
X197744958Y-107300499D01*
X197812104Y-107292934D01*
X197879249Y-107285369D01*
X197879252Y-107285368D01*
X197879255Y-107285368D01*
X198049522Y-107225789D01*
X198050242Y-107225337D01*
X198090721Y-107199902D01*
X198184029Y-107141272D01*
X198251264Y-107122272D01*
X198315970Y-107141272D01*
X198380720Y-107181957D01*
X198450475Y-107225788D01*
X198620745Y-107285368D01*
X198620750Y-107285369D01*
X198711246Y-107295565D01*
X198755040Y-107300499D01*
X198755043Y-107300500D01*
X198755046Y-107300500D01*
X200244957Y-107300500D01*
X200244958Y-107300499D01*
X200312104Y-107292934D01*
X200379249Y-107285369D01*
X200379252Y-107285368D01*
X200379255Y-107285368D01*
X200549522Y-107225789D01*
X200702262Y-107129816D01*
X200829816Y-107002262D01*
X200925789Y-106849522D01*
X200985368Y-106679255D01*
X200987099Y-106663897D01*
X200995700Y-106587555D01*
X201000500Y-106544954D01*
X201000500Y-105055046D01*
X200985381Y-104920856D01*
X200985369Y-104920750D01*
X200985368Y-104920745D01*
X200970317Y-104877731D01*
X200925789Y-104750478D01*
X200829816Y-104597738D01*
X200702262Y-104470184D01*
X200684027Y-104458726D01*
X200549523Y-104374211D01*
X200379254Y-104314631D01*
X200379249Y-104314630D01*
X200244960Y-104299500D01*
X200244954Y-104299500D01*
X199649097Y-104299500D01*
X199582058Y-104279815D01*
X199536303Y-104227011D01*
X199526359Y-104157853D01*
X199555384Y-104094297D01*
X199561407Y-104087827D01*
X199858509Y-103790724D01*
X199858514Y-103790721D01*
X199868714Y-103780520D01*
X199868716Y-103780520D01*
X199980520Y-103668716D01*
X200054483Y-103540608D01*
X200054484Y-103540607D01*
X200056550Y-103537027D01*
X200059577Y-103531785D01*
X200100501Y-103379057D01*
X200100501Y-103220943D01*
X200100501Y-103213348D01*
X200100500Y-103213330D01*
X200100500Y-85579765D01*
X200120185Y-85512726D01*
X200121398Y-85510874D01*
X200181347Y-85421155D01*
X200209394Y-85379179D01*
X200269737Y-85233497D01*
X200300500Y-85078842D01*
X200300500Y-84921158D01*
X200300500Y-84921155D01*
X200300499Y-84921153D01*
X200274531Y-84790606D01*
X200269737Y-84766503D01*
X200269735Y-84766498D01*
X200209397Y-84620827D01*
X200209390Y-84620814D01*
X200121789Y-84489711D01*
X200121786Y-84489707D01*
X200010292Y-84378213D01*
X200010288Y-84378210D01*
X199879185Y-84290609D01*
X199879172Y-84290602D01*
X199733501Y-84230264D01*
X199733489Y-84230261D01*
X199578845Y-84199500D01*
X199578842Y-84199500D01*
X199421158Y-84199500D01*
X199421155Y-84199500D01*
X199266510Y-84230261D01*
X199266498Y-84230264D01*
X199120827Y-84290602D01*
X199120814Y-84290609D01*
X198989711Y-84378210D01*
X198989707Y-84378213D01*
X198878213Y-84489707D01*
X198878210Y-84489711D01*
X198790609Y-84620814D01*
X198790602Y-84620827D01*
X198730264Y-84766498D01*
X198730261Y-84766510D01*
X198699500Y-84921153D01*
X198699500Y-85078846D01*
X198730261Y-85233489D01*
X198730264Y-85233501D01*
X198790602Y-85379172D01*
X198790609Y-85379185D01*
X198875752Y-85506609D01*
X198896630Y-85573286D01*
X198878146Y-85640666D01*
X198826167Y-85687357D01*
X198772650Y-85699500D01*
X198671155Y-85699500D01*
X198516510Y-85730261D01*
X198516498Y-85730264D01*
X198370827Y-85790602D01*
X198370814Y-85790609D01*
X198239711Y-85878210D01*
X198239707Y-85878213D01*
X198128213Y-85989707D01*
X198128210Y-85989711D01*
X198040609Y-86120814D01*
X198040602Y-86120827D01*
X197980264Y-86266498D01*
X197980261Y-86266510D01*
X197949500Y-86421153D01*
X197949500Y-86578846D01*
X197980261Y-86733489D01*
X197980264Y-86733501D01*
X198040602Y-86879172D01*
X198040609Y-86879185D01*
X198128602Y-87010874D01*
X198149480Y-87077551D01*
X198149500Y-87079765D01*
X198149500Y-89575500D01*
X198129815Y-89642539D01*
X198077011Y-89688294D01*
X198025500Y-89699500D01*
X197921155Y-89699500D01*
X197766510Y-89730261D01*
X197766498Y-89730264D01*
X197620827Y-89790602D01*
X197620814Y-89790609D01*
X197489711Y-89878210D01*
X197489707Y-89878213D01*
X197378213Y-89989707D01*
X197378210Y-89989711D01*
X197290609Y-90120814D01*
X197290602Y-90120827D01*
X197230264Y-90266498D01*
X197230261Y-90266510D01*
X197199500Y-90421153D01*
X197199500Y-90578846D01*
X197230261Y-90733489D01*
X197230264Y-90733501D01*
X197290602Y-90879172D01*
X197290609Y-90879185D01*
X197378602Y-91010874D01*
X197399480Y-91077551D01*
X197399500Y-91079765D01*
X197399500Y-95489240D01*
X197379815Y-95556279D01*
X197327011Y-95602034D01*
X197257853Y-95611978D01*
X197206610Y-95592342D01*
X197129190Y-95540612D01*
X197129172Y-95540602D01*
X196983501Y-95480264D01*
X196983489Y-95480261D01*
X196828845Y-95449500D01*
X196828842Y-95449500D01*
X196671158Y-95449500D01*
X196671155Y-95449500D01*
X196516510Y-95480261D01*
X196516498Y-95480264D01*
X196370827Y-95540602D01*
X196370814Y-95540609D01*
X196239711Y-95628210D01*
X196239707Y-95628213D01*
X196128213Y-95739707D01*
X196128210Y-95739711D01*
X196040609Y-95870814D01*
X196040602Y-95870827D01*
X195980264Y-96016498D01*
X195980261Y-96016510D01*
X195949500Y-96171153D01*
X195949500Y-96328846D01*
X195980261Y-96483489D01*
X195980264Y-96483501D01*
X196040602Y-96629172D01*
X196040609Y-96629185D01*
X196128602Y-96760874D01*
X196149480Y-96827551D01*
X196149500Y-96829765D01*
X196149500Y-98949903D01*
X196129815Y-99016942D01*
X196113181Y-99037584D01*
X195812181Y-99338584D01*
X195750858Y-99372069D01*
X195681166Y-99367085D01*
X195625233Y-99325213D01*
X195600816Y-99259749D01*
X195600500Y-99250903D01*
X195600500Y-85579765D01*
X195620185Y-85512726D01*
X195621398Y-85510874D01*
X195681347Y-85421155D01*
X195709394Y-85379179D01*
X195769737Y-85233497D01*
X195800500Y-85078842D01*
X195800500Y-84921158D01*
X195800500Y-84921155D01*
X195800499Y-84921153D01*
X195774531Y-84790606D01*
X195769737Y-84766503D01*
X195769735Y-84766498D01*
X195709397Y-84620827D01*
X195709390Y-84620814D01*
X195621789Y-84489711D01*
X195621786Y-84489707D01*
X195510292Y-84378213D01*
X195510288Y-84378210D01*
X195379185Y-84290609D01*
X195379172Y-84290602D01*
X195233501Y-84230264D01*
X195233489Y-84230261D01*
X195078845Y-84199500D01*
X195078842Y-84199500D01*
X194921158Y-84199500D01*
X194921155Y-84199500D01*
X194766510Y-84230261D01*
X194766498Y-84230264D01*
X194620827Y-84290602D01*
X194620814Y-84290609D01*
X194489711Y-84378210D01*
X194489707Y-84378213D01*
X194378213Y-84489707D01*
X194378210Y-84489711D01*
X194290609Y-84620814D01*
X194290602Y-84620827D01*
X194230264Y-84766498D01*
X194230261Y-84766510D01*
X194199500Y-84921153D01*
X194199500Y-85078846D01*
X194230261Y-85233489D01*
X194230264Y-85233501D01*
X194290602Y-85379172D01*
X194290609Y-85379185D01*
X194378602Y-85510874D01*
X194399480Y-85577551D01*
X194399500Y-85579765D01*
X194399500Y-96705216D01*
X194379815Y-96772255D01*
X194327011Y-96818010D01*
X194257853Y-96827954D01*
X194194297Y-96798929D01*
X194187819Y-96792897D01*
X194137785Y-96742863D01*
X194137781Y-96742860D01*
X193973920Y-96633371D01*
X193973907Y-96633364D01*
X193791839Y-96557950D01*
X193791829Y-96557947D01*
X193598543Y-96519500D01*
X193598541Y-96519500D01*
X193401459Y-96519500D01*
X193401457Y-96519500D01*
X193208170Y-96557947D01*
X193208160Y-96557950D01*
X193021952Y-96635079D01*
X192952482Y-96642548D01*
X192890003Y-96611272D01*
X192854352Y-96551183D01*
X192850500Y-96520518D01*
X192850500Y-95739060D01*
X192850501Y-95739047D01*
X192850501Y-95570944D01*
X192850501Y-95570943D01*
X192809577Y-95418216D01*
X192730520Y-95281284D01*
X192730213Y-95280752D01*
X192713740Y-95212851D01*
X192736593Y-95146824D01*
X192758952Y-95122885D01*
X192760277Y-95121796D01*
X192760289Y-95121789D01*
X192871789Y-95010289D01*
X192959394Y-94879179D01*
X193019737Y-94733497D01*
X193050500Y-94578842D01*
X193050500Y-94421158D01*
X193050500Y-94421155D01*
X193050499Y-94421153D01*
X193019738Y-94266510D01*
X193019737Y-94266503D01*
X193006066Y-94233497D01*
X192959397Y-94120827D01*
X192959390Y-94120814D01*
X192871398Y-93989125D01*
X192850520Y-93922447D01*
X192850500Y-93920234D01*
X192850500Y-91079765D01*
X192870185Y-91012726D01*
X192871398Y-91010874D01*
X192959390Y-90879185D01*
X192959390Y-90879184D01*
X192959394Y-90879179D01*
X193019737Y-90733497D01*
X193050500Y-90578842D01*
X193050500Y-90421158D01*
X193050500Y-90421155D01*
X193050499Y-90421153D01*
X193019738Y-90266510D01*
X193019737Y-90266503D01*
X193013774Y-90252107D01*
X192959397Y-90120827D01*
X192959390Y-90120814D01*
X192871398Y-89989125D01*
X192850520Y-89922447D01*
X192850500Y-89920234D01*
X192850500Y-87079765D01*
X192870185Y-87012726D01*
X192871398Y-87010874D01*
X192959390Y-86879185D01*
X192959390Y-86879184D01*
X192959394Y-86879179D01*
X193019737Y-86733497D01*
X193050500Y-86578842D01*
X193050500Y-86421158D01*
X193050500Y-86421155D01*
X193050499Y-86421153D01*
X193019738Y-86266510D01*
X193019737Y-86266503D01*
X193013774Y-86252107D01*
X192959397Y-86120827D01*
X192959390Y-86120814D01*
X192871789Y-85989711D01*
X192871786Y-85989707D01*
X192760292Y-85878213D01*
X192760288Y-85878210D01*
X192629185Y-85790609D01*
X192629172Y-85790602D01*
X192483501Y-85730264D01*
X192483489Y-85730261D01*
X192328845Y-85699500D01*
X192328842Y-85699500D01*
X192171158Y-85699500D01*
X192171155Y-85699500D01*
X192016510Y-85730261D01*
X192016498Y-85730264D01*
X191870827Y-85790602D01*
X191870814Y-85790609D01*
X191739711Y-85878210D01*
X191739707Y-85878213D01*
X191628213Y-85989707D01*
X191628210Y-85989711D01*
X191540609Y-86120814D01*
X191540602Y-86120827D01*
X191489561Y-86244054D01*
X191445720Y-86298458D01*
X191379426Y-86320523D01*
X191311727Y-86303244D01*
X191264116Y-86252107D01*
X191260439Y-86244054D01*
X191209397Y-86120827D01*
X191209390Y-86120814D01*
X191121789Y-85989711D01*
X191121786Y-85989707D01*
X191010292Y-85878213D01*
X191010288Y-85878210D01*
X190879185Y-85790609D01*
X190879172Y-85790602D01*
X190733501Y-85730264D01*
X190733489Y-85730261D01*
X190578845Y-85699500D01*
X190578842Y-85699500D01*
X190421158Y-85699500D01*
X190421155Y-85699500D01*
X190266510Y-85730261D01*
X190266498Y-85730264D01*
X190120827Y-85790602D01*
X190120814Y-85790609D01*
X189989711Y-85878210D01*
X189989707Y-85878213D01*
X189878213Y-85989707D01*
X189878210Y-85989711D01*
X189790609Y-86120814D01*
X189790602Y-86120827D01*
X189730264Y-86266498D01*
X189730261Y-86266510D01*
X189699500Y-86421153D01*
X189699500Y-86578846D01*
X189730261Y-86733489D01*
X189730264Y-86733501D01*
X189790602Y-86879172D01*
X189790609Y-86879185D01*
X189878602Y-87010874D01*
X189899480Y-87077551D01*
X189899500Y-87079765D01*
X189899500Y-88699902D01*
X189879815Y-88766941D01*
X189863181Y-88787583D01*
X186769481Y-91881282D01*
X186769477Y-91881287D01*
X186747429Y-91919478D01*
X186747428Y-91919480D01*
X186690423Y-92018215D01*
X186649499Y-92170943D01*
X186649499Y-92170945D01*
X186649499Y-92339046D01*
X186649500Y-92339059D01*
X186649500Y-96598884D01*
X186629815Y-96665923D01*
X186577011Y-96711678D01*
X186507853Y-96721622D01*
X186456609Y-96701986D01*
X186353920Y-96633371D01*
X186353907Y-96633364D01*
X186171839Y-96557950D01*
X186171829Y-96557947D01*
X185978543Y-96519500D01*
X185978541Y-96519500D01*
X185781459Y-96519500D01*
X185781457Y-96519500D01*
X185588170Y-96557947D01*
X185588160Y-96557950D01*
X185406092Y-96633364D01*
X185406079Y-96633371D01*
X185242218Y-96742860D01*
X185242214Y-96742863D01*
X185102863Y-96882214D01*
X185102860Y-96882218D01*
X184993371Y-97046079D01*
X184993364Y-97046092D01*
X184917950Y-97228160D01*
X184917947Y-97228170D01*
X184879500Y-97421456D01*
X184879500Y-97421459D01*
X184879500Y-98618541D01*
X184879500Y-98618543D01*
X184879499Y-98618543D01*
X184917947Y-98811829D01*
X184917950Y-98811839D01*
X184993364Y-98993907D01*
X184993371Y-98993920D01*
X185102860Y-99157781D01*
X185102863Y-99157785D01*
X185242214Y-99297136D01*
X185242218Y-99297139D01*
X185406079Y-99406628D01*
X185406083Y-99406630D01*
X185406086Y-99406632D01*
X185416484Y-99410939D01*
X185470886Y-99454779D01*
X185492952Y-99521073D01*
X185475673Y-99588772D01*
X185424537Y-99636383D01*
X185369031Y-99649500D01*
X183850969Y-99649500D01*
X183783930Y-99629815D01*
X183738175Y-99577011D01*
X183728231Y-99507853D01*
X183757256Y-99444297D01*
X183803515Y-99410939D01*
X183813914Y-99406632D01*
X183977782Y-99297139D01*
X184117139Y-99157782D01*
X184226632Y-98993914D01*
X184302051Y-98811835D01*
X184322982Y-98706611D01*
X184340500Y-98618543D01*
X184340500Y-97421456D01*
X184302052Y-97228170D01*
X184302051Y-97228169D01*
X184302051Y-97228165D01*
X184271669Y-97154815D01*
X184226635Y-97046092D01*
X184226628Y-97046079D01*
X184117139Y-96882218D01*
X184117136Y-96882214D01*
X183977785Y-96742863D01*
X183977781Y-96742860D01*
X183813920Y-96633371D01*
X183813907Y-96633364D01*
X183631839Y-96557950D01*
X183631829Y-96557947D01*
X183438543Y-96519500D01*
X183438541Y-96519500D01*
X183241459Y-96519500D01*
X183241457Y-96519500D01*
X183048170Y-96557947D01*
X183048160Y-96557950D01*
X182866092Y-96633364D01*
X182866079Y-96633371D01*
X182702218Y-96742860D01*
X182702214Y-96742863D01*
X182562863Y-96882214D01*
X182562860Y-96882218D01*
X182453371Y-97046079D01*
X182453364Y-97046092D01*
X182377950Y-97228160D01*
X182377947Y-97228170D01*
X182339500Y-97421456D01*
X182339500Y-97421459D01*
X182339500Y-98618541D01*
X182339500Y-98618543D01*
X182339499Y-98618543D01*
X182377947Y-98811829D01*
X182377950Y-98811839D01*
X182453364Y-98993907D01*
X182453371Y-98993920D01*
X182562860Y-99157781D01*
X182562863Y-99157785D01*
X182702214Y-99297136D01*
X182702218Y-99297139D01*
X182866079Y-99406628D01*
X182866083Y-99406630D01*
X182866086Y-99406632D01*
X182876484Y-99410939D01*
X182930886Y-99454779D01*
X182952952Y-99521073D01*
X182935673Y-99588772D01*
X182884537Y-99636383D01*
X182829031Y-99649500D01*
X181836669Y-99649500D01*
X181836653Y-99649499D01*
X181829057Y-99649499D01*
X181670943Y-99649499D01*
X181556593Y-99680139D01*
X181531598Y-99679543D01*
X181506853Y-99683102D01*
X181497272Y-99678726D01*
X181486743Y-99678476D01*
X181466039Y-99664463D01*
X181443297Y-99654077D01*
X181437602Y-99645215D01*
X181428881Y-99639313D01*
X181419039Y-99616332D01*
X181405523Y-99595299D01*
X181403243Y-99579443D01*
X181401377Y-99575085D01*
X181400500Y-99560364D01*
X181400500Y-99385784D01*
X181420185Y-99318745D01*
X181436819Y-99298103D01*
X181577136Y-99157785D01*
X181577139Y-99157782D01*
X181686632Y-98993914D01*
X181762051Y-98811835D01*
X181782982Y-98706611D01*
X181800500Y-98618543D01*
X181800500Y-97421456D01*
X181762052Y-97228170D01*
X181762051Y-97228169D01*
X181762051Y-97228165D01*
X181731669Y-97154815D01*
X181686635Y-97046092D01*
X181686628Y-97046079D01*
X181577139Y-96882218D01*
X181577136Y-96882214D01*
X181437785Y-96742863D01*
X181437781Y-96742860D01*
X181273920Y-96633371D01*
X181273907Y-96633364D01*
X181091839Y-96557950D01*
X181091829Y-96557947D01*
X180898543Y-96519500D01*
X180898541Y-96519500D01*
X180701459Y-96519500D01*
X180701457Y-96519500D01*
X180508170Y-96557947D01*
X180508160Y-96557950D01*
X180326092Y-96633364D01*
X180326079Y-96633371D01*
X180162218Y-96742860D01*
X180162214Y-96742863D01*
X180022863Y-96882214D01*
X180022860Y-96882218D01*
X179913371Y-97046079D01*
X179913364Y-97046092D01*
X179837950Y-97228160D01*
X179837947Y-97228170D01*
X179799500Y-97421456D01*
X179799500Y-98618545D01*
X179817018Y-98706613D01*
X179810791Y-98776204D01*
X179767928Y-98831382D01*
X179702038Y-98854626D01*
X179634041Y-98838558D01*
X179607720Y-98818485D01*
X179296819Y-98507584D01*
X179263334Y-98446261D01*
X179260500Y-98419903D01*
X179260500Y-97421456D01*
X179222052Y-97228170D01*
X179222051Y-97228169D01*
X179222051Y-97228165D01*
X179191669Y-97154815D01*
X179146635Y-97046092D01*
X179146628Y-97046079D01*
X179037139Y-96882218D01*
X179037136Y-96882214D01*
X178897785Y-96742863D01*
X178897781Y-96742860D01*
X178733920Y-96633371D01*
X178733907Y-96633364D01*
X178551839Y-96557950D01*
X178551829Y-96557947D01*
X178358543Y-96519500D01*
X178358541Y-96519500D01*
X178161459Y-96519500D01*
X178161457Y-96519500D01*
X177968170Y-96557947D01*
X177968160Y-96557950D01*
X177786092Y-96633364D01*
X177786079Y-96633371D01*
X177622218Y-96742860D01*
X177622214Y-96742863D01*
X177482863Y-96882214D01*
X177482860Y-96882218D01*
X177373371Y-97046079D01*
X177373364Y-97046092D01*
X177297950Y-97228160D01*
X177297947Y-97228170D01*
X177259500Y-97421456D01*
X177259500Y-97421459D01*
X177259500Y-98618541D01*
X177259500Y-98618543D01*
X177259499Y-98618543D01*
X177277018Y-98706611D01*
X177270791Y-98776203D01*
X177227928Y-98831380D01*
X177162038Y-98854625D01*
X177094041Y-98838557D01*
X177067720Y-98818484D01*
X176756819Y-98507583D01*
X176723334Y-98446260D01*
X176720500Y-98419902D01*
X176720500Y-97421456D01*
X176682052Y-97228170D01*
X176682051Y-97228169D01*
X176682051Y-97228165D01*
X176651669Y-97154815D01*
X176606635Y-97046092D01*
X176606628Y-97046079D01*
X176497139Y-96882218D01*
X176497136Y-96882214D01*
X176357785Y-96742863D01*
X176357781Y-96742860D01*
X176193920Y-96633371D01*
X176193907Y-96633364D01*
X176011839Y-96557950D01*
X176011829Y-96557947D01*
X175818543Y-96519500D01*
X175818541Y-96519500D01*
X175621459Y-96519500D01*
X175621457Y-96519500D01*
X175428170Y-96557947D01*
X175428160Y-96557950D01*
X175246092Y-96633364D01*
X175246079Y-96633371D01*
X175082218Y-96742860D01*
X175082214Y-96742863D01*
X174942863Y-96882214D01*
X174942860Y-96882218D01*
X174833371Y-97046079D01*
X174833364Y-97046092D01*
X174757950Y-97228160D01*
X174757947Y-97228170D01*
X174719500Y-97421456D01*
X174719500Y-97421459D01*
X174719500Y-98618541D01*
X174719500Y-98618543D01*
X174719499Y-98618543D01*
X174180500Y-98618543D01*
X174180500Y-97421456D01*
X174142052Y-97228170D01*
X174142051Y-97228169D01*
X174142051Y-97228165D01*
X174111669Y-97154815D01*
X174066635Y-97046092D01*
X174066628Y-97046079D01*
X173957139Y-96882218D01*
X173957136Y-96882214D01*
X173817785Y-96742863D01*
X173817781Y-96742860D01*
X173653920Y-96633371D01*
X173653907Y-96633364D01*
X173471839Y-96557950D01*
X173471829Y-96557947D01*
X173278543Y-96519500D01*
X173278541Y-96519500D01*
X173081459Y-96519500D01*
X173081457Y-96519500D01*
X172888170Y-96557947D01*
X172888160Y-96557950D01*
X172706092Y-96633364D01*
X172706079Y-96633371D01*
X172542218Y-96742860D01*
X172542214Y-96742863D01*
X172402863Y-96882214D01*
X172402860Y-96882218D01*
X172293371Y-97046079D01*
X172293364Y-97046092D01*
X172217950Y-97228160D01*
X172217947Y-97228170D01*
X172179500Y-97421456D01*
X172179500Y-97421459D01*
X172179500Y-98618541D01*
X172179500Y-98618543D01*
X172179499Y-98618543D01*
X172217947Y-98811829D01*
X172217950Y-98811839D01*
X172293364Y-98993907D01*
X172293371Y-98993920D01*
X172402860Y-99157781D01*
X172402863Y-99157785D01*
X172542214Y-99297136D01*
X172542218Y-99297139D01*
X172706079Y-99406628D01*
X172706083Y-99406630D01*
X172706086Y-99406632D01*
X172706219Y-99406687D01*
X172717223Y-99411245D01*
X172771627Y-99455084D01*
X172793694Y-99521378D01*
X172776416Y-99589078D01*
X172743758Y-99623541D01*
X172744419Y-99624347D01*
X172739707Y-99628213D01*
X172628213Y-99739707D01*
X172628210Y-99739711D01*
X172540609Y-99870814D01*
X172540602Y-99870827D01*
X172480264Y-100016498D01*
X172480261Y-100016510D01*
X172449500Y-100171153D01*
X172449500Y-100328846D01*
X172480261Y-100483489D01*
X172480264Y-100483501D01*
X172540602Y-100629172D01*
X172540609Y-100629185D01*
X172628602Y-100760874D01*
X172649480Y-100827551D01*
X172649500Y-100829765D01*
X172649500Y-103670234D01*
X172629815Y-103737273D01*
X172628602Y-103739125D01*
X172540609Y-103870814D01*
X172540602Y-103870827D01*
X172480264Y-104016498D01*
X172480261Y-104016510D01*
X172449500Y-104171153D01*
X172449500Y-104328846D01*
X172480261Y-104483489D01*
X172480264Y-104483501D01*
X172540602Y-104629172D01*
X172540609Y-104629185D01*
X172628210Y-104760288D01*
X172628213Y-104760292D01*
X172739707Y-104871786D01*
X172739711Y-104871789D01*
X172870814Y-104959390D01*
X172870821Y-104959394D01*
X172874549Y-104960938D01*
X172928953Y-105004778D01*
X172951019Y-105071072D01*
X172933741Y-105138771D01*
X172882605Y-105186383D01*
X172827098Y-105199500D01*
X172671155Y-105199500D01*
X172516510Y-105230261D01*
X172516498Y-105230264D01*
X172370827Y-105290602D01*
X172370820Y-105290606D01*
X172341390Y-105310270D01*
X172312855Y-105329337D01*
X172246179Y-105350215D01*
X172243965Y-105350235D01*
X162349362Y-105350235D01*
X162282323Y-105330550D01*
X162261681Y-105313916D01*
X161886819Y-104939054D01*
X161853334Y-104877731D01*
X161850500Y-104851373D01*
X161850500Y-98618543D01*
X164559499Y-98618543D01*
X164597947Y-98811829D01*
X164597950Y-98811839D01*
X164673364Y-98993907D01*
X164673371Y-98993920D01*
X164782860Y-99157781D01*
X164782863Y-99157785D01*
X164922214Y-99297136D01*
X164922218Y-99297139D01*
X165086079Y-99406628D01*
X165086092Y-99406635D01*
X165236681Y-99469010D01*
X165268165Y-99482051D01*
X165268169Y-99482051D01*
X165268170Y-99482052D01*
X165461456Y-99520500D01*
X165461459Y-99520500D01*
X165658543Y-99520500D01*
X165804332Y-99491500D01*
X165851835Y-99482051D01*
X166033914Y-99406632D01*
X166197782Y-99297139D01*
X166337139Y-99157782D01*
X166446632Y-98993914D01*
X166522051Y-98811835D01*
X166542982Y-98706611D01*
X166560500Y-98618543D01*
X167099499Y-98618543D01*
X167137947Y-98811829D01*
X167137950Y-98811839D01*
X167213364Y-98993907D01*
X167213371Y-98993920D01*
X167322860Y-99157781D01*
X167322863Y-99157785D01*
X167462214Y-99297136D01*
X167462218Y-99297139D01*
X167626079Y-99406628D01*
X167626092Y-99406635D01*
X167776681Y-99469010D01*
X167808165Y-99482051D01*
X167808169Y-99482051D01*
X167808170Y-99482052D01*
X168001456Y-99520500D01*
X168001459Y-99520500D01*
X168198543Y-99520500D01*
X168344332Y-99491500D01*
X168391835Y-99482051D01*
X168573914Y-99406632D01*
X168737782Y-99297139D01*
X168877139Y-99157782D01*
X168986632Y-98993914D01*
X169062051Y-98811835D01*
X169082982Y-98706611D01*
X169100500Y-98618543D01*
X169639499Y-98618543D01*
X169677947Y-98811829D01*
X169677950Y-98811839D01*
X169753364Y-98993907D01*
X169753371Y-98993920D01*
X169862860Y-99157781D01*
X169862863Y-99157785D01*
X170002214Y-99297136D01*
X170002218Y-99297139D01*
X170166079Y-99406628D01*
X170166092Y-99406635D01*
X170316681Y-99469010D01*
X170348165Y-99482051D01*
X170348169Y-99482051D01*
X170348170Y-99482052D01*
X170541456Y-99520500D01*
X170541459Y-99520500D01*
X170738543Y-99520500D01*
X170884332Y-99491500D01*
X170931835Y-99482051D01*
X171113914Y-99406632D01*
X171277782Y-99297139D01*
X171417139Y-99157782D01*
X171526632Y-98993914D01*
X171602051Y-98811835D01*
X171622982Y-98706611D01*
X171640500Y-98618543D01*
X171640500Y-97421456D01*
X171602052Y-97228170D01*
X171602051Y-97228169D01*
X171602051Y-97228165D01*
X171571669Y-97154815D01*
X171526635Y-97046092D01*
X171526628Y-97046079D01*
X171417139Y-96882218D01*
X171417136Y-96882214D01*
X171277785Y-96742863D01*
X171277781Y-96742860D01*
X171113920Y-96633371D01*
X171113907Y-96633364D01*
X170931839Y-96557950D01*
X170931829Y-96557947D01*
X170738543Y-96519500D01*
X170738541Y-96519500D01*
X170541459Y-96519500D01*
X170541457Y-96519500D01*
X170348170Y-96557947D01*
X170348160Y-96557950D01*
X170166092Y-96633364D01*
X170166079Y-96633371D01*
X170002218Y-96742860D01*
X170002214Y-96742863D01*
X169862863Y-96882214D01*
X169862860Y-96882218D01*
X169753371Y-97046079D01*
X169753364Y-97046092D01*
X169677950Y-97228160D01*
X169677947Y-97228170D01*
X169639500Y-97421456D01*
X169639500Y-97421459D01*
X169639500Y-98618541D01*
X169639500Y-98618543D01*
X169639499Y-98618543D01*
X169100500Y-98618543D01*
X169100500Y-97421456D01*
X169062052Y-97228170D01*
X169062051Y-97228169D01*
X169062051Y-97228165D01*
X169031669Y-97154815D01*
X168986635Y-97046092D01*
X168986628Y-97046079D01*
X168877139Y-96882218D01*
X168877136Y-96882214D01*
X168737785Y-96742863D01*
X168737781Y-96742860D01*
X168573920Y-96633371D01*
X168573907Y-96633364D01*
X168391839Y-96557950D01*
X168391829Y-96557947D01*
X168198543Y-96519500D01*
X168198541Y-96519500D01*
X168001459Y-96519500D01*
X168001457Y-96519500D01*
X167808170Y-96557947D01*
X167808160Y-96557950D01*
X167626092Y-96633364D01*
X167626079Y-96633371D01*
X167462218Y-96742860D01*
X167462214Y-96742863D01*
X167322863Y-96882214D01*
X167322860Y-96882218D01*
X167213371Y-97046079D01*
X167213364Y-97046092D01*
X167137950Y-97228160D01*
X167137947Y-97228170D01*
X167099500Y-97421456D01*
X167099500Y-97421459D01*
X167099500Y-98618541D01*
X167099500Y-98618543D01*
X167099499Y-98618543D01*
X166560500Y-98618543D01*
X166560500Y-97421456D01*
X166522052Y-97228170D01*
X166522051Y-97228169D01*
X166522051Y-97228165D01*
X166491669Y-97154815D01*
X166446635Y-97046092D01*
X166446628Y-97046079D01*
X166337139Y-96882218D01*
X166337136Y-96882214D01*
X166197785Y-96742863D01*
X166197781Y-96742860D01*
X166033920Y-96633371D01*
X166033907Y-96633364D01*
X165851839Y-96557950D01*
X165851829Y-96557947D01*
X165658543Y-96519500D01*
X165658541Y-96519500D01*
X165461459Y-96519500D01*
X165461457Y-96519500D01*
X165268170Y-96557947D01*
X165268160Y-96557950D01*
X165086092Y-96633364D01*
X165086079Y-96633371D01*
X164922218Y-96742860D01*
X164922214Y-96742863D01*
X164782863Y-96882214D01*
X164782860Y-96882218D01*
X164673371Y-97046079D01*
X164673364Y-97046092D01*
X164597950Y-97228160D01*
X164597947Y-97228170D01*
X164559500Y-97421456D01*
X164559500Y-97421459D01*
X164559500Y-98618541D01*
X164559500Y-98618543D01*
X164559499Y-98618543D01*
X161850500Y-98618543D01*
X161850500Y-95386555D01*
X161870185Y-95319516D01*
X161922989Y-95273761D01*
X161992147Y-95263817D01*
X162010411Y-95268840D01*
X162010676Y-95267969D01*
X162016492Y-95269732D01*
X162016503Y-95269737D01*
X162171153Y-95300499D01*
X162171156Y-95300500D01*
X162171158Y-95300500D01*
X162328844Y-95300500D01*
X162328845Y-95300499D01*
X162483497Y-95269737D01*
X162629179Y-95209394D01*
X162760289Y-95121789D01*
X162871789Y-95010289D01*
X162959394Y-94879179D01*
X163019737Y-94733497D01*
X163050500Y-94578842D01*
X163050500Y-94421158D01*
X163050500Y-94421155D01*
X163050499Y-94421153D01*
X163019738Y-94266510D01*
X163019737Y-94266503D01*
X163006066Y-94233497D01*
X162959397Y-94120827D01*
X162959390Y-94120814D01*
X162871398Y-93989125D01*
X162850520Y-93922447D01*
X162850500Y-93920234D01*
X162850500Y-91079765D01*
X162870185Y-91012726D01*
X162871398Y-91010874D01*
X162959390Y-90879185D01*
X162959390Y-90879184D01*
X162959394Y-90879179D01*
X163019737Y-90733497D01*
X163050500Y-90578842D01*
X163050500Y-90421158D01*
X163050500Y-90421155D01*
X163050499Y-90421153D01*
X163019738Y-90266510D01*
X163019737Y-90266503D01*
X163013774Y-90252107D01*
X162959397Y-90120827D01*
X162959390Y-90120814D01*
X162871398Y-89989125D01*
X162850520Y-89922447D01*
X162850500Y-89920234D01*
X162850500Y-87079765D01*
X162870185Y-87012726D01*
X162871398Y-87010874D01*
X162959390Y-86879185D01*
X162959390Y-86879184D01*
X162959394Y-86879179D01*
X163019737Y-86733497D01*
X163050500Y-86578842D01*
X163050500Y-86421158D01*
X163050500Y-86421155D01*
X163050499Y-86421153D01*
X163019738Y-86266510D01*
X163019737Y-86266503D01*
X163013774Y-86252107D01*
X162959397Y-86120827D01*
X162959390Y-86120814D01*
X162871398Y-85989125D01*
X162850520Y-85922447D01*
X162850500Y-85920234D01*
X162850500Y-83079765D01*
X162870185Y-83012726D01*
X162871398Y-83010874D01*
X162959390Y-82879185D01*
X162959390Y-82879184D01*
X162959394Y-82879179D01*
X163019737Y-82733497D01*
X163050500Y-82578842D01*
X163050500Y-82421158D01*
X163050499Y-82421153D01*
X168949500Y-82421153D01*
X168949500Y-82578846D01*
X168980261Y-82733489D01*
X168980264Y-82733501D01*
X169040602Y-82879172D01*
X169040609Y-82879185D01*
X169128602Y-83010874D01*
X169149480Y-83077551D01*
X169149500Y-83079765D01*
X169149500Y-85920234D01*
X169129815Y-85987273D01*
X169128602Y-85989125D01*
X169040609Y-86120814D01*
X169040602Y-86120827D01*
X168980264Y-86266498D01*
X168980261Y-86266510D01*
X168949500Y-86421153D01*
X168949500Y-86578846D01*
X168980261Y-86733489D01*
X168980264Y-86733501D01*
X169040602Y-86879172D01*
X169040609Y-86879185D01*
X169128602Y-87010874D01*
X169149480Y-87077551D01*
X169149500Y-87079765D01*
X169149500Y-89920234D01*
X169129815Y-89987273D01*
X169128602Y-89989125D01*
X169040609Y-90120814D01*
X169040602Y-90120827D01*
X168980264Y-90266498D01*
X168980261Y-90266510D01*
X168949500Y-90421153D01*
X168949500Y-90578846D01*
X168980261Y-90733489D01*
X168980264Y-90733501D01*
X169040602Y-90879172D01*
X169040609Y-90879185D01*
X169128602Y-91010874D01*
X169149480Y-91077551D01*
X169149500Y-91079765D01*
X169149500Y-93920234D01*
X169129815Y-93987273D01*
X169128602Y-93989125D01*
X169040609Y-94120814D01*
X169040602Y-94120827D01*
X168980264Y-94266498D01*
X168980261Y-94266510D01*
X168949500Y-94421153D01*
X168949500Y-94578846D01*
X168980261Y-94733489D01*
X168980264Y-94733501D01*
X169040602Y-94879172D01*
X169040609Y-94879185D01*
X169128210Y-95010288D01*
X169128213Y-95010292D01*
X169239707Y-95121786D01*
X169239711Y-95121789D01*
X169370814Y-95209390D01*
X169370827Y-95209397D01*
X169514337Y-95268840D01*
X169516503Y-95269737D01*
X169671153Y-95300499D01*
X169671156Y-95300500D01*
X169671158Y-95300500D01*
X169828844Y-95300500D01*
X169828845Y-95300499D01*
X169983497Y-95269737D01*
X170129179Y-95209394D01*
X170260289Y-95121789D01*
X170371789Y-95010289D01*
X170459394Y-94879179D01*
X170519737Y-94733497D01*
X170550500Y-94578842D01*
X170550500Y-94421158D01*
X170550500Y-94421155D01*
X170550499Y-94421153D01*
X170519738Y-94266510D01*
X170519737Y-94266503D01*
X170506066Y-94233497D01*
X170459397Y-94120827D01*
X170459390Y-94120814D01*
X170371398Y-93989125D01*
X170350520Y-93922447D01*
X170350500Y-93920234D01*
X170350500Y-91079765D01*
X170370185Y-91012726D01*
X170371398Y-91010874D01*
X170459390Y-90879185D01*
X170459390Y-90879184D01*
X170459394Y-90879179D01*
X170519737Y-90733497D01*
X170550500Y-90578842D01*
X170550500Y-90421158D01*
X170550500Y-90421155D01*
X170550499Y-90421153D01*
X170519738Y-90266510D01*
X170519737Y-90266503D01*
X170513774Y-90252107D01*
X170459397Y-90120827D01*
X170459390Y-90120814D01*
X170371398Y-89989125D01*
X170350520Y-89922447D01*
X170350500Y-89920234D01*
X170350500Y-87079765D01*
X170370185Y-87012726D01*
X170371398Y-87010874D01*
X170459390Y-86879185D01*
X170459390Y-86879184D01*
X170459394Y-86879179D01*
X170519737Y-86733497D01*
X170550500Y-86578842D01*
X170550500Y-86421158D01*
X170550500Y-86421155D01*
X170550499Y-86421153D01*
X170519738Y-86266510D01*
X170519737Y-86266503D01*
X170513774Y-86252107D01*
X170459397Y-86120827D01*
X170459390Y-86120814D01*
X170371398Y-85989125D01*
X170350520Y-85922447D01*
X170350500Y-85920234D01*
X170350500Y-83079765D01*
X170370185Y-83012726D01*
X170371398Y-83010874D01*
X170459390Y-82879185D01*
X170459390Y-82879184D01*
X170459394Y-82879179D01*
X170519737Y-82733497D01*
X170550500Y-82578842D01*
X170550500Y-82421158D01*
X170550500Y-82421155D01*
X170550499Y-82421153D01*
X176449500Y-82421153D01*
X176449500Y-82578846D01*
X176480261Y-82733489D01*
X176480264Y-82733501D01*
X176540602Y-82879172D01*
X176540609Y-82879185D01*
X176628602Y-83010874D01*
X176649480Y-83077551D01*
X176649500Y-83079765D01*
X176649500Y-85920234D01*
X176629815Y-85987273D01*
X176628602Y-85989125D01*
X176540609Y-86120814D01*
X176540602Y-86120827D01*
X176480264Y-86266498D01*
X176480261Y-86266510D01*
X176449500Y-86421153D01*
X176449500Y-86578846D01*
X176480261Y-86733489D01*
X176480264Y-86733501D01*
X176540602Y-86879172D01*
X176540609Y-86879185D01*
X176628602Y-87010874D01*
X176649480Y-87077551D01*
X176649500Y-87079765D01*
X176649500Y-89920234D01*
X176629815Y-89987273D01*
X176628602Y-89989125D01*
X176540609Y-90120814D01*
X176540602Y-90120827D01*
X176480264Y-90266498D01*
X176480261Y-90266510D01*
X176449500Y-90421153D01*
X176449500Y-90578846D01*
X176480261Y-90733489D01*
X176480264Y-90733501D01*
X176540602Y-90879172D01*
X176540609Y-90879185D01*
X176628602Y-91010874D01*
X176649480Y-91077551D01*
X176649500Y-91079765D01*
X176649500Y-93920234D01*
X176629815Y-93987273D01*
X176628602Y-93989125D01*
X176540609Y-94120814D01*
X176540602Y-94120827D01*
X176480264Y-94266498D01*
X176480261Y-94266510D01*
X176449500Y-94421153D01*
X176449500Y-94578846D01*
X176480261Y-94733489D01*
X176480264Y-94733501D01*
X176540602Y-94879172D01*
X176540609Y-94879185D01*
X176628210Y-95010288D01*
X176628213Y-95010292D01*
X176739707Y-95121786D01*
X176739711Y-95121789D01*
X176870814Y-95209390D01*
X176870827Y-95209397D01*
X177014337Y-95268840D01*
X177016503Y-95269737D01*
X177171153Y-95300499D01*
X177171156Y-95300500D01*
X177171158Y-95300500D01*
X177328844Y-95300500D01*
X177328845Y-95300499D01*
X177483497Y-95269737D01*
X177629179Y-95209394D01*
X177760289Y-95121789D01*
X177871789Y-95010289D01*
X177959394Y-94879179D01*
X178019737Y-94733497D01*
X178050500Y-94578842D01*
X178050500Y-94421158D01*
X178050500Y-94421155D01*
X178050499Y-94421153D01*
X178019738Y-94266510D01*
X178019737Y-94266503D01*
X178006066Y-94233497D01*
X177959397Y-94120827D01*
X177959390Y-94120814D01*
X177871398Y-93989125D01*
X177850520Y-93922447D01*
X177850500Y-93920234D01*
X177850500Y-91079765D01*
X177870185Y-91012726D01*
X177871398Y-91010874D01*
X177959390Y-90879185D01*
X177959390Y-90879184D01*
X177959394Y-90879179D01*
X178019737Y-90733497D01*
X178050500Y-90578842D01*
X178050500Y-90421158D01*
X178050500Y-90421155D01*
X178050499Y-90421153D01*
X178019738Y-90266510D01*
X178019737Y-90266503D01*
X178013774Y-90252107D01*
X177959397Y-90120827D01*
X177959390Y-90120814D01*
X177871398Y-89989125D01*
X177850520Y-89922447D01*
X177850500Y-89920234D01*
X177850500Y-87079765D01*
X177870185Y-87012726D01*
X177871398Y-87010874D01*
X177959390Y-86879185D01*
X177959390Y-86879184D01*
X177959394Y-86879179D01*
X178019737Y-86733497D01*
X178050500Y-86578842D01*
X178050500Y-86421158D01*
X178050500Y-86421155D01*
X178050499Y-86421153D01*
X183949500Y-86421153D01*
X183949500Y-86578846D01*
X183980261Y-86733489D01*
X183980264Y-86733501D01*
X184040602Y-86879172D01*
X184040609Y-86879185D01*
X184128602Y-87010874D01*
X184149480Y-87077551D01*
X184149500Y-87079765D01*
X184149500Y-89920234D01*
X184129815Y-89987273D01*
X184128602Y-89989125D01*
X184040609Y-90120814D01*
X184040602Y-90120827D01*
X183980264Y-90266498D01*
X183980261Y-90266510D01*
X183949500Y-90421153D01*
X183949500Y-90578846D01*
X183980261Y-90733489D01*
X183980264Y-90733501D01*
X184040602Y-90879172D01*
X184040609Y-90879185D01*
X184128602Y-91010874D01*
X184149480Y-91077551D01*
X184149500Y-91079765D01*
X184149500Y-93920234D01*
X184129815Y-93987273D01*
X184128602Y-93989125D01*
X184040609Y-94120814D01*
X184040602Y-94120827D01*
X183980264Y-94266498D01*
X183980261Y-94266510D01*
X183949500Y-94421153D01*
X183949500Y-94578846D01*
X183980261Y-94733489D01*
X183980264Y-94733501D01*
X184040602Y-94879172D01*
X184040609Y-94879185D01*
X184128210Y-95010288D01*
X184128213Y-95010292D01*
X184239707Y-95121786D01*
X184239711Y-95121789D01*
X184370814Y-95209390D01*
X184370827Y-95209397D01*
X184514337Y-95268840D01*
X184516503Y-95269737D01*
X184671153Y-95300499D01*
X184671156Y-95300500D01*
X184671158Y-95300500D01*
X184828844Y-95300500D01*
X184828845Y-95300499D01*
X184983497Y-95269737D01*
X185129179Y-95209394D01*
X185260289Y-95121789D01*
X185371789Y-95010289D01*
X185459394Y-94879179D01*
X185519737Y-94733497D01*
X185550500Y-94578842D01*
X185550500Y-94421158D01*
X185550500Y-94421155D01*
X185550499Y-94421153D01*
X185519738Y-94266510D01*
X185519737Y-94266503D01*
X185506066Y-94233497D01*
X185459397Y-94120827D01*
X185459390Y-94120814D01*
X185371398Y-93989125D01*
X185350520Y-93922447D01*
X185350500Y-93920234D01*
X185350500Y-91079765D01*
X185370185Y-91012726D01*
X185371398Y-91010874D01*
X185459390Y-90879185D01*
X185459390Y-90879184D01*
X185459394Y-90879179D01*
X185519737Y-90733497D01*
X185550500Y-90578842D01*
X185550500Y-90421158D01*
X185550500Y-90421155D01*
X185550499Y-90421153D01*
X185519738Y-90266510D01*
X185519737Y-90266503D01*
X185513774Y-90252107D01*
X185459397Y-90120827D01*
X185459390Y-90120814D01*
X185371398Y-89989125D01*
X185350520Y-89922447D01*
X185350500Y-89920234D01*
X185350500Y-87079765D01*
X185370185Y-87012726D01*
X185371398Y-87010874D01*
X185459390Y-86879185D01*
X185459390Y-86879184D01*
X185459394Y-86879179D01*
X185519737Y-86733497D01*
X185550500Y-86578842D01*
X185550500Y-86421158D01*
X185550500Y-86421155D01*
X185550499Y-86421153D01*
X185519738Y-86266510D01*
X185519737Y-86266503D01*
X185513774Y-86252107D01*
X185459397Y-86120827D01*
X185459390Y-86120814D01*
X185371789Y-85989711D01*
X185371786Y-85989707D01*
X185260292Y-85878213D01*
X185260288Y-85878210D01*
X185129185Y-85790609D01*
X185129172Y-85790602D01*
X184983501Y-85730264D01*
X184983489Y-85730261D01*
X184828845Y-85699500D01*
X184828842Y-85699500D01*
X184671158Y-85699500D01*
X184671155Y-85699500D01*
X184516510Y-85730261D01*
X184516498Y-85730264D01*
X184370827Y-85790602D01*
X184370814Y-85790609D01*
X184239711Y-85878210D01*
X184239707Y-85878213D01*
X184128213Y-85989707D01*
X184128210Y-85989711D01*
X184040609Y-86120814D01*
X184040602Y-86120827D01*
X183980264Y-86266498D01*
X183980261Y-86266510D01*
X183949500Y-86421153D01*
X178050499Y-86421153D01*
X178019738Y-86266510D01*
X178019737Y-86266503D01*
X178013774Y-86252107D01*
X177959397Y-86120827D01*
X177959390Y-86120814D01*
X177871398Y-85989125D01*
X177850520Y-85922447D01*
X177850500Y-85920234D01*
X177850500Y-83079765D01*
X177870185Y-83012726D01*
X177871398Y-83010874D01*
X177959390Y-82879185D01*
X177959390Y-82879184D01*
X177959394Y-82879179D01*
X178019737Y-82733497D01*
X178050500Y-82578842D01*
X178050500Y-82421158D01*
X178050500Y-82421155D01*
X178050499Y-82421153D01*
X178019737Y-82266503D01*
X177972013Y-82151285D01*
X177959397Y-82120827D01*
X177959390Y-82120814D01*
X177871789Y-81989711D01*
X177871786Y-81989707D01*
X177760292Y-81878213D01*
X177760288Y-81878210D01*
X177629185Y-81790609D01*
X177629172Y-81790602D01*
X177483501Y-81730264D01*
X177483489Y-81730261D01*
X177328845Y-81699500D01*
X177328842Y-81699500D01*
X177171158Y-81699500D01*
X177171155Y-81699500D01*
X177016510Y-81730261D01*
X177016498Y-81730264D01*
X176870827Y-81790602D01*
X176870814Y-81790609D01*
X176739711Y-81878210D01*
X176739707Y-81878213D01*
X176628213Y-81989707D01*
X176628210Y-81989711D01*
X176540609Y-82120814D01*
X176540602Y-82120827D01*
X176480264Y-82266498D01*
X176480261Y-82266510D01*
X176449500Y-82421153D01*
X170550499Y-82421153D01*
X170519737Y-82266503D01*
X170472013Y-82151285D01*
X170459397Y-82120827D01*
X170459390Y-82120814D01*
X170371789Y-81989711D01*
X170371786Y-81989707D01*
X170260292Y-81878213D01*
X170260288Y-81878210D01*
X170129185Y-81790609D01*
X170129172Y-81790602D01*
X169983501Y-81730264D01*
X169983489Y-81730261D01*
X169828845Y-81699500D01*
X169828842Y-81699500D01*
X169671158Y-81699500D01*
X169671155Y-81699500D01*
X169516510Y-81730261D01*
X169516498Y-81730264D01*
X169370827Y-81790602D01*
X169370814Y-81790609D01*
X169239711Y-81878210D01*
X169239707Y-81878213D01*
X169128213Y-81989707D01*
X169128210Y-81989711D01*
X169040609Y-82120814D01*
X169040602Y-82120827D01*
X168980264Y-82266498D01*
X168980261Y-82266510D01*
X168949500Y-82421153D01*
X163050499Y-82421153D01*
X163019737Y-82266503D01*
X163017323Y-82260677D01*
X163014942Y-82248715D01*
X163017001Y-82225654D01*
X163014497Y-82202641D01*
X163020049Y-82191512D01*
X163021156Y-82179122D01*
X163035356Y-82160834D01*
X163045691Y-82140122D01*
X163056378Y-82133762D01*
X163064008Y-82123937D01*
X163085840Y-82116229D01*
X163105734Y-82104392D01*
X163126973Y-82101709D01*
X163129894Y-82100679D01*
X163131721Y-82101110D01*
X163136555Y-82100500D01*
X163313331Y-82100500D01*
X163313347Y-82100501D01*
X163320943Y-82100501D01*
X163479054Y-82100501D01*
X163479057Y-82100501D01*
X163631785Y-82059577D01*
X163681904Y-82030639D01*
X163768716Y-81980520D01*
X163880520Y-81868716D01*
X163880520Y-81868714D01*
X163890728Y-81858507D01*
X163890729Y-81858504D01*
X164862416Y-80886819D01*
X164923739Y-80853334D01*
X164950097Y-80850500D01*
X178920234Y-80850500D01*
X178987273Y-80870185D01*
X178989125Y-80871398D01*
X179120814Y-80959390D01*
X179120827Y-80959397D01*
X179265885Y-81019481D01*
X179266503Y-81019737D01*
X179421153Y-81050499D01*
X179421156Y-81050500D01*
X179421158Y-81050500D01*
X179578844Y-81050500D01*
X179578845Y-81050499D01*
X179733497Y-81019737D01*
X179879179Y-80959394D01*
X179936411Y-80921153D01*
X191449500Y-80921153D01*
X191449500Y-81078846D01*
X191480261Y-81233489D01*
X191480264Y-81233501D01*
X191540602Y-81379172D01*
X191540609Y-81379185D01*
X191628210Y-81510288D01*
X191628213Y-81510292D01*
X191739707Y-81621786D01*
X191739711Y-81621789D01*
X191870814Y-81709390D01*
X191870827Y-81709397D01*
X192016498Y-81769735D01*
X192016503Y-81769737D01*
X192171153Y-81800499D01*
X192171156Y-81800500D01*
X192171158Y-81800500D01*
X192328844Y-81800500D01*
X192328845Y-81800499D01*
X192483497Y-81769737D01*
X192629179Y-81709394D01*
X192629185Y-81709390D01*
X192760875Y-81621398D01*
X192827553Y-81600520D01*
X192829766Y-81600500D01*
X193913331Y-81600500D01*
X193913347Y-81600501D01*
X193920943Y-81600501D01*
X194079054Y-81600501D01*
X194079057Y-81600501D01*
X194231785Y-81559577D01*
X194297235Y-81521789D01*
X194368716Y-81480520D01*
X194480520Y-81368716D01*
X194480520Y-81368714D01*
X194490724Y-81358511D01*
X194490728Y-81358506D01*
X195608506Y-80240728D01*
X195608511Y-80240724D01*
X195618714Y-80230520D01*
X195618716Y-80230520D01*
X195730520Y-80118716D01*
X195780998Y-80031284D01*
X195809577Y-79981785D01*
X195850501Y-79829057D01*
X195850501Y-79670943D01*
X195850501Y-79663348D01*
X195850500Y-79663330D01*
X195850500Y-75079765D01*
X195870185Y-75012726D01*
X195871398Y-75010874D01*
X195959390Y-74879185D01*
X195959390Y-74879184D01*
X195959394Y-74879179D01*
X196019737Y-74733497D01*
X196050500Y-74578842D01*
X196050500Y-74421158D01*
X196050500Y-74421155D01*
X196050499Y-74421153D01*
X196019738Y-74266510D01*
X196019737Y-74266503D01*
X196019735Y-74266498D01*
X195959397Y-74120827D01*
X195959390Y-74120814D01*
X195871789Y-73989711D01*
X195871786Y-73989707D01*
X195760292Y-73878213D01*
X195760288Y-73878210D01*
X195629185Y-73790609D01*
X195629172Y-73790602D01*
X195483501Y-73730264D01*
X195483489Y-73730261D01*
X195328845Y-73699500D01*
X195328842Y-73699500D01*
X195171158Y-73699500D01*
X195171155Y-73699500D01*
X195016510Y-73730261D01*
X195016498Y-73730264D01*
X194870827Y-73790602D01*
X194870814Y-73790609D01*
X194739711Y-73878210D01*
X194739707Y-73878213D01*
X194628213Y-73989707D01*
X194628210Y-73989711D01*
X194540609Y-74120814D01*
X194540602Y-74120827D01*
X194480264Y-74266498D01*
X194480261Y-74266510D01*
X194449500Y-74421153D01*
X194449500Y-74578846D01*
X194480261Y-74733489D01*
X194480264Y-74733501D01*
X194540602Y-74879172D01*
X194540609Y-74879185D01*
X194628602Y-75010874D01*
X194649480Y-75077551D01*
X194649500Y-75079765D01*
X194649500Y-77337315D01*
X194629815Y-77404354D01*
X194577011Y-77450109D01*
X194507853Y-77460053D01*
X194444297Y-77431028D01*
X194410939Y-77384768D01*
X194386633Y-77326088D01*
X194386628Y-77326079D01*
X194277139Y-77162218D01*
X194277136Y-77162214D01*
X194137785Y-77022863D01*
X194137781Y-77022860D01*
X193973920Y-76913371D01*
X193973907Y-76913364D01*
X193791839Y-76837950D01*
X193791829Y-76837947D01*
X193598543Y-76799500D01*
X193598541Y-76799500D01*
X193401459Y-76799500D01*
X193401457Y-76799500D01*
X193208170Y-76837947D01*
X193208160Y-76837950D01*
X193026092Y-76913364D01*
X193026079Y-76913371D01*
X192862218Y-77022860D01*
X192862214Y-77022863D01*
X192722863Y-77162214D01*
X192722860Y-77162218D01*
X192613371Y-77326079D01*
X192613364Y-77326092D01*
X192537950Y-77508160D01*
X192537947Y-77508170D01*
X192499500Y-77701456D01*
X192499500Y-77701459D01*
X192499500Y-78898541D01*
X192499500Y-78898543D01*
X192499499Y-78898543D01*
X192537947Y-79091829D01*
X192537950Y-79091839D01*
X192613364Y-79273907D01*
X192613371Y-79273920D01*
X192722860Y-79437781D01*
X192722863Y-79437785D01*
X192862214Y-79577136D01*
X192862218Y-79577139D01*
X193026079Y-79686628D01*
X193026092Y-79686635D01*
X193193544Y-79755995D01*
X193208165Y-79762051D01*
X193208169Y-79762051D01*
X193208170Y-79762052D01*
X193401456Y-79800500D01*
X193401459Y-79800500D01*
X193598543Y-79800500D01*
X193754492Y-79769479D01*
X193791835Y-79762051D01*
X193973914Y-79686632D01*
X194137782Y-79577139D01*
X194277139Y-79437782D01*
X194386632Y-79273914D01*
X194410939Y-79215232D01*
X194454779Y-79160828D01*
X194521073Y-79138763D01*
X194588773Y-79156042D01*
X194636384Y-79207179D01*
X194649500Y-79262684D01*
X194649500Y-79449903D01*
X194629815Y-79516942D01*
X194613181Y-79537584D01*
X193787584Y-80363181D01*
X193726261Y-80396666D01*
X193699903Y-80399500D01*
X192829766Y-80399500D01*
X192762727Y-80379815D01*
X192760875Y-80378602D01*
X192629185Y-80290609D01*
X192629172Y-80290602D01*
X192483501Y-80230264D01*
X192483489Y-80230261D01*
X192328845Y-80199500D01*
X192328842Y-80199500D01*
X192171158Y-80199500D01*
X192171155Y-80199500D01*
X192016510Y-80230261D01*
X192016498Y-80230264D01*
X191870827Y-80290602D01*
X191870814Y-80290609D01*
X191739711Y-80378210D01*
X191739707Y-80378213D01*
X191628213Y-80489707D01*
X191628210Y-80489711D01*
X191540609Y-80620814D01*
X191540602Y-80620827D01*
X191480264Y-80766498D01*
X191480261Y-80766510D01*
X191449500Y-80921153D01*
X179936411Y-80921153D01*
X180010289Y-80871789D01*
X180031578Y-80850500D01*
X180054694Y-80827385D01*
X180121786Y-80760292D01*
X180121789Y-80760289D01*
X180209394Y-80629179D01*
X180212854Y-80620827D01*
X180226012Y-80589059D01*
X180269737Y-80483497D01*
X180300500Y-80328842D01*
X180300500Y-80171158D01*
X180300500Y-80171157D01*
X180300500Y-80171155D01*
X180300499Y-80171153D01*
X180269737Y-80016503D01*
X180269735Y-80016498D01*
X180207693Y-79866713D01*
X180200224Y-79797244D01*
X180231499Y-79734765D01*
X180291589Y-79699113D01*
X180361414Y-79701607D01*
X180369706Y-79704700D01*
X180493544Y-79755995D01*
X180508165Y-79762051D01*
X180508169Y-79762051D01*
X180508170Y-79762052D01*
X180701456Y-79800500D01*
X180701459Y-79800500D01*
X180898543Y-79800500D01*
X181054492Y-79769479D01*
X181091835Y-79762051D01*
X181273914Y-79686632D01*
X181437782Y-79577139D01*
X181577139Y-79437782D01*
X181686632Y-79273914D01*
X181762051Y-79091835D01*
X181798034Y-78910938D01*
X181800500Y-78898543D01*
X181800500Y-77701456D01*
X181762052Y-77508170D01*
X181762051Y-77508169D01*
X181762051Y-77508165D01*
X181730100Y-77431028D01*
X181686635Y-77326092D01*
X181686628Y-77326079D01*
X181577139Y-77162218D01*
X181577136Y-77162214D01*
X181436819Y-77021897D01*
X181403334Y-76960574D01*
X181400500Y-76934216D01*
X181400500Y-65919059D01*
X181400501Y-65919046D01*
X181400501Y-65750945D01*
X181400501Y-65750943D01*
X181359577Y-65598215D01*
X181286293Y-65471284D01*
X181280520Y-65461284D01*
X181168716Y-65349480D01*
X181168713Y-65349478D01*
X174881416Y-59062181D01*
X174847931Y-59000858D01*
X174852915Y-58931166D01*
X174894787Y-58875233D01*
X174960251Y-58850816D01*
X174969097Y-58850500D01*
X175106286Y-58850500D01*
X175106287Y-58850500D01*
X175316243Y-58817246D01*
X175358523Y-58803507D01*
X175428362Y-58801511D01*
X175484522Y-58833757D01*
X182703181Y-66052416D01*
X182736666Y-66113739D01*
X182739500Y-66140097D01*
X182739500Y-76934216D01*
X182719815Y-77001255D01*
X182703181Y-77021897D01*
X182562863Y-77162214D01*
X182562860Y-77162218D01*
X182453371Y-77326079D01*
X182453364Y-77326092D01*
X182377950Y-77508160D01*
X182377947Y-77508170D01*
X182339500Y-77701456D01*
X182339500Y-77701459D01*
X182339500Y-78898541D01*
X182339500Y-78898543D01*
X182339499Y-78898543D01*
X182377947Y-79091829D01*
X182377950Y-79091839D01*
X182453364Y-79273907D01*
X182453371Y-79273920D01*
X182562860Y-79437781D01*
X182562863Y-79437785D01*
X182702214Y-79577136D01*
X182702218Y-79577139D01*
X182866079Y-79686628D01*
X182866092Y-79686635D01*
X183033544Y-79755995D01*
X183048165Y-79762051D01*
X183048169Y-79762051D01*
X183048170Y-79762052D01*
X183241456Y-79800500D01*
X183241459Y-79800500D01*
X183438543Y-79800500D01*
X183594492Y-79769479D01*
X183631835Y-79762051D01*
X183813914Y-79686632D01*
X183977782Y-79577139D01*
X184117139Y-79437782D01*
X184226632Y-79273914D01*
X184302051Y-79091835D01*
X184338034Y-78910938D01*
X184340500Y-78898543D01*
X184879499Y-78898543D01*
X184917947Y-79091829D01*
X184917950Y-79091839D01*
X184993364Y-79273907D01*
X184993371Y-79273920D01*
X185102860Y-79437781D01*
X185102863Y-79437785D01*
X185242214Y-79577136D01*
X185242218Y-79577139D01*
X185406079Y-79686628D01*
X185406092Y-79686635D01*
X185573544Y-79755995D01*
X185588165Y-79762051D01*
X185588169Y-79762051D01*
X185588170Y-79762052D01*
X185781456Y-79800500D01*
X185781459Y-79800500D01*
X185978543Y-79800500D01*
X186134492Y-79769479D01*
X186171835Y-79762051D01*
X186353914Y-79686632D01*
X186517782Y-79577139D01*
X186657139Y-79437782D01*
X186766632Y-79273914D01*
X186842051Y-79091835D01*
X186878034Y-78910938D01*
X186880500Y-78898543D01*
X186880500Y-77701456D01*
X186842052Y-77508170D01*
X186842051Y-77508169D01*
X186842051Y-77508165D01*
X186810100Y-77431028D01*
X186766635Y-77326092D01*
X186766628Y-77326079D01*
X186657139Y-77162218D01*
X186657136Y-77162214D01*
X186517785Y-77022863D01*
X186517781Y-77022860D01*
X186353920Y-76913371D01*
X186353907Y-76913364D01*
X186171839Y-76837950D01*
X186171829Y-76837947D01*
X185978543Y-76799500D01*
X185978541Y-76799500D01*
X185781459Y-76799500D01*
X185781457Y-76799500D01*
X185588170Y-76837947D01*
X185588160Y-76837950D01*
X185406092Y-76913364D01*
X185406079Y-76913371D01*
X185242218Y-77022860D01*
X185242214Y-77022863D01*
X185102863Y-77162214D01*
X185102860Y-77162218D01*
X184993371Y-77326079D01*
X184993364Y-77326092D01*
X184917950Y-77508160D01*
X184917947Y-77508170D01*
X184879500Y-77701456D01*
X184879500Y-77701459D01*
X184879500Y-78898541D01*
X184879500Y-78898543D01*
X184879499Y-78898543D01*
X184340500Y-78898543D01*
X184340500Y-77701456D01*
X184302052Y-77508170D01*
X184302051Y-77508169D01*
X184302051Y-77508165D01*
X184270100Y-77431028D01*
X184226635Y-77326092D01*
X184226628Y-77326079D01*
X184117139Y-77162218D01*
X184117136Y-77162214D01*
X183976819Y-77021897D01*
X183943334Y-76960574D01*
X183940500Y-76934216D01*
X183940500Y-65760945D01*
X183940500Y-65760943D01*
X183903278Y-65622027D01*
X183899577Y-65608215D01*
X183899577Y-65608214D01*
X183870639Y-65558095D01*
X183870637Y-65558092D01*
X183827587Y-65483525D01*
X183820520Y-65471284D01*
X183708716Y-65359480D01*
X183708715Y-65359479D01*
X183704385Y-65355149D01*
X183704374Y-65355139D01*
X177411416Y-59062181D01*
X177377931Y-59000858D01*
X177382915Y-58931166D01*
X177424787Y-58875233D01*
X177490251Y-58850816D01*
X177499097Y-58850500D01*
X177656286Y-58850500D01*
X177656287Y-58850500D01*
X177866243Y-58817246D01*
X177908523Y-58803507D01*
X177978362Y-58801511D01*
X178034522Y-58833757D01*
X187783181Y-68582416D01*
X187816666Y-68643739D01*
X187819500Y-68670097D01*
X187819500Y-76934216D01*
X187799815Y-77001255D01*
X187783181Y-77021897D01*
X187642863Y-77162214D01*
X187642860Y-77162218D01*
X187533371Y-77326079D01*
X187533364Y-77326092D01*
X187457950Y-77508160D01*
X187457947Y-77508170D01*
X187419500Y-77701456D01*
X187419500Y-77701459D01*
X187419500Y-78898541D01*
X187419500Y-78898543D01*
X187419499Y-78898543D01*
X187457947Y-79091829D01*
X187457950Y-79091839D01*
X187533364Y-79273907D01*
X187533371Y-79273920D01*
X187642860Y-79437781D01*
X187642863Y-79437785D01*
X187782214Y-79577136D01*
X187782218Y-79577139D01*
X187946079Y-79686628D01*
X187946092Y-79686635D01*
X188113544Y-79755995D01*
X188128165Y-79762051D01*
X188128169Y-79762051D01*
X188128170Y-79762052D01*
X188321456Y-79800500D01*
X188321459Y-79800500D01*
X188518543Y-79800500D01*
X188674492Y-79769479D01*
X188711835Y-79762051D01*
X188893914Y-79686632D01*
X189057782Y-79577139D01*
X189197139Y-79437782D01*
X189306632Y-79273914D01*
X189382051Y-79091835D01*
X189418034Y-78910938D01*
X189420500Y-78898543D01*
X189959499Y-78898543D01*
X189997947Y-79091829D01*
X189997950Y-79091839D01*
X190073364Y-79273907D01*
X190073371Y-79273920D01*
X190182860Y-79437781D01*
X190182863Y-79437785D01*
X190322214Y-79577136D01*
X190322218Y-79577139D01*
X190486079Y-79686628D01*
X190486092Y-79686635D01*
X190653544Y-79755995D01*
X190668165Y-79762051D01*
X190668169Y-79762051D01*
X190668170Y-79762052D01*
X190861456Y-79800500D01*
X190861459Y-79800500D01*
X191058543Y-79800500D01*
X191214492Y-79769479D01*
X191251835Y-79762051D01*
X191433914Y-79686632D01*
X191597782Y-79577139D01*
X191737139Y-79437782D01*
X191846632Y-79273914D01*
X191922051Y-79091835D01*
X191958034Y-78910938D01*
X191960500Y-78898543D01*
X191960500Y-77701456D01*
X191922052Y-77508170D01*
X191922051Y-77508169D01*
X191922051Y-77508165D01*
X191890100Y-77431028D01*
X191846635Y-77326092D01*
X191846628Y-77326079D01*
X191737139Y-77162218D01*
X191737136Y-77162214D01*
X191597785Y-77022863D01*
X191597781Y-77022860D01*
X191433920Y-76913371D01*
X191433907Y-76913364D01*
X191251839Y-76837950D01*
X191251829Y-76837947D01*
X191058543Y-76799500D01*
X191058541Y-76799500D01*
X190861459Y-76799500D01*
X190861457Y-76799500D01*
X190668170Y-76837947D01*
X190668160Y-76837950D01*
X190486092Y-76913364D01*
X190486079Y-76913371D01*
X190322218Y-77022860D01*
X190322214Y-77022863D01*
X190182863Y-77162214D01*
X190182860Y-77162218D01*
X190073371Y-77326079D01*
X190073364Y-77326092D01*
X189997950Y-77508160D01*
X189997947Y-77508170D01*
X189959500Y-77701456D01*
X189959500Y-77701459D01*
X189959500Y-78898541D01*
X189959500Y-78898543D01*
X189959499Y-78898543D01*
X189420500Y-78898543D01*
X189420500Y-77701456D01*
X189382052Y-77508170D01*
X189382051Y-77508169D01*
X189382051Y-77508165D01*
X189350100Y-77431028D01*
X189306635Y-77326092D01*
X189306628Y-77326079D01*
X189197139Y-77162218D01*
X189197136Y-77162214D01*
X189056819Y-77021897D01*
X189023334Y-76960574D01*
X189020500Y-76934216D01*
X189020500Y-70377973D01*
X197699500Y-70377973D01*
X197699500Y-70622027D01*
X197737679Y-70863076D01*
X197785722Y-71010938D01*
X197813097Y-71095187D01*
X197923896Y-71312642D01*
X198067339Y-71510076D01*
X198067343Y-71510081D01*
X198219581Y-71662319D01*
X198253066Y-71723642D01*
X198248082Y-71793334D01*
X198219581Y-71837681D01*
X198067343Y-71989918D01*
X198067339Y-71989923D01*
X197923896Y-72187357D01*
X197813097Y-72404812D01*
X197737678Y-72636927D01*
X197699500Y-72877973D01*
X197699500Y-73122027D01*
X197737679Y-73363076D01*
X197813096Y-73595185D01*
X197912669Y-73790609D01*
X197923896Y-73812642D01*
X198067339Y-74010076D01*
X198067343Y-74010081D01*
X198239918Y-74182656D01*
X198239923Y-74182660D01*
X198355317Y-74266498D01*
X198437361Y-74326106D01*
X198654815Y-74436904D01*
X198886924Y-74512321D01*
X199127973Y-74550500D01*
X199127974Y-74550500D01*
X199372026Y-74550500D01*
X199372027Y-74550500D01*
X199613076Y-74512321D01*
X199845185Y-74436904D01*
X200062639Y-74326106D01*
X200260083Y-74182655D01*
X200432655Y-74010083D01*
X200576106Y-73812639D01*
X200686904Y-73595185D01*
X200762321Y-73363076D01*
X200800500Y-73122027D01*
X200800500Y-72877973D01*
X200762321Y-72636924D01*
X200686904Y-72404815D01*
X200576106Y-72187361D01*
X200451971Y-72016503D01*
X200432660Y-71989923D01*
X200432656Y-71989918D01*
X200280419Y-71837681D01*
X200246934Y-71776358D01*
X200251918Y-71706666D01*
X200280419Y-71662319D01*
X200314528Y-71628210D01*
X200432655Y-71510083D01*
X200576106Y-71312639D01*
X200686904Y-71095185D01*
X200762321Y-70863076D01*
X200800500Y-70622027D01*
X200800500Y-70377973D01*
X200762321Y-70136924D01*
X200686904Y-69904815D01*
X200576106Y-69687361D01*
X200448579Y-69511834D01*
X200432660Y-69489923D01*
X200432656Y-69489918D01*
X200260079Y-69317341D01*
X200252058Y-69311514D01*
X200252057Y-69311513D01*
X200062642Y-69173896D01*
X200062641Y-69173895D01*
X200062639Y-69173894D01*
X199845185Y-69063096D01*
X199613076Y-68987679D01*
X199613074Y-68987678D01*
X199613072Y-68987678D01*
X199444769Y-68961021D01*
X199372027Y-68949500D01*
X199127973Y-68949500D01*
X199072093Y-68958350D01*
X198886927Y-68987678D01*
X198654812Y-69063097D01*
X198437357Y-69173896D01*
X198239923Y-69317339D01*
X198239918Y-69317343D01*
X198067343Y-69489918D01*
X198067339Y-69489923D01*
X197923896Y-69687357D01*
X197813097Y-69904812D01*
X197737678Y-70136927D01*
X197699500Y-70377973D01*
X189020500Y-70377973D01*
X189020500Y-68290945D01*
X189020500Y-68290943D01*
X188979577Y-68138216D01*
X188939684Y-68069118D01*
X188900524Y-68001290D01*
X188900518Y-68001282D01*
X188860061Y-67960825D01*
X188788716Y-67889480D01*
X188788713Y-67889478D01*
X188777241Y-67878006D01*
X202700000Y-67878006D01*
X202700000Y-68121993D01*
X202738165Y-68362959D01*
X202813560Y-68594998D01*
X202924323Y-68812380D01*
X202991543Y-68904901D01*
X202991544Y-68904902D01*
X203746624Y-68149821D01*
X203760778Y-68202642D01*
X203829896Y-68322357D01*
X203927643Y-68420104D01*
X204047358Y-68489222D01*
X204100177Y-68503375D01*
X203345096Y-69258454D01*
X203345097Y-69258456D01*
X203437619Y-69325676D01*
X203655001Y-69436439D01*
X203887040Y-69511834D01*
X204128007Y-69550000D01*
X204371993Y-69550000D01*
X204612959Y-69511834D01*
X204844998Y-69436439D01*
X205062377Y-69325678D01*
X205154901Y-69258454D01*
X205154902Y-69258454D01*
X204399822Y-68503375D01*
X204452642Y-68489222D01*
X204572357Y-68420104D01*
X204670104Y-68322357D01*
X204739222Y-68202642D01*
X204753374Y-68149822D01*
X205508454Y-68904902D01*
X205508454Y-68904901D01*
X205575678Y-68812377D01*
X205686439Y-68594998D01*
X205761834Y-68362959D01*
X205800000Y-68121993D01*
X205800000Y-67878006D01*
X205761834Y-67637040D01*
X205686439Y-67405001D01*
X205575676Y-67187619D01*
X205508456Y-67095097D01*
X205508454Y-67095096D01*
X204753374Y-67850176D01*
X204739222Y-67797358D01*
X204670104Y-67677643D01*
X204572357Y-67579896D01*
X204452642Y-67510778D01*
X204399821Y-67496624D01*
X205154902Y-66741544D01*
X205154901Y-66741543D01*
X205062380Y-66674323D01*
X204844998Y-66563560D01*
X204612959Y-66488165D01*
X204371993Y-66450000D01*
X204128007Y-66450000D01*
X203887040Y-66488165D01*
X203655001Y-66563560D01*
X203437626Y-66674319D01*
X203345097Y-66741544D01*
X204100178Y-67496624D01*
X204047358Y-67510778D01*
X203927643Y-67579896D01*
X203829896Y-67677643D01*
X203760778Y-67797358D01*
X203746624Y-67850177D01*
X202991544Y-67095097D01*
X202924319Y-67187626D01*
X202813560Y-67405001D01*
X202738165Y-67637040D01*
X202700000Y-67878006D01*
X188777241Y-67878006D01*
X183777208Y-62877973D01*
X197699500Y-62877973D01*
X197699500Y-63122026D01*
X197737678Y-63363072D01*
X197813097Y-63595187D01*
X197923896Y-63812642D01*
X198067339Y-64010076D01*
X198067343Y-64010081D01*
X198219581Y-64162319D01*
X198253066Y-64223642D01*
X198248082Y-64293334D01*
X198219581Y-64337681D01*
X198067343Y-64489918D01*
X198067339Y-64489923D01*
X197923896Y-64687357D01*
X197813097Y-64904812D01*
X197737678Y-65136927D01*
X197699500Y-65377973D01*
X197699500Y-65622026D01*
X197719918Y-65750943D01*
X197737679Y-65863076D01*
X197813096Y-66095185D01*
X197830884Y-66130097D01*
X197923896Y-66312642D01*
X198067339Y-66510076D01*
X198067343Y-66510081D01*
X198239918Y-66682656D01*
X198239923Y-66682660D01*
X198320971Y-66741544D01*
X198437361Y-66826106D01*
X198654815Y-66936904D01*
X198886924Y-67012321D01*
X199127973Y-67050500D01*
X199127974Y-67050500D01*
X199372026Y-67050500D01*
X199372027Y-67050500D01*
X199613076Y-67012321D01*
X199845185Y-66936904D01*
X200062639Y-66826106D01*
X200179029Y-66741544D01*
X200252060Y-66688485D01*
X200260077Y-66682660D01*
X200260079Y-66682657D01*
X200260083Y-66682655D01*
X200432655Y-66510083D01*
X200576106Y-66312639D01*
X200686904Y-66095185D01*
X200762321Y-65863076D01*
X200800500Y-65622027D01*
X200800500Y-65377973D01*
X200762321Y-65136924D01*
X200686904Y-64904815D01*
X200576106Y-64687361D01*
X200557779Y-64662136D01*
X200432660Y-64489923D01*
X200432656Y-64489918D01*
X200280419Y-64337681D01*
X200246934Y-64276358D01*
X200251918Y-64206666D01*
X200280419Y-64162319D01*
X200432655Y-64010083D01*
X200576106Y-63812639D01*
X200686904Y-63595185D01*
X200762321Y-63363076D01*
X200800500Y-63122027D01*
X200800500Y-62877973D01*
X200762321Y-62636924D01*
X200686904Y-62404815D01*
X200576106Y-62187361D01*
X200557779Y-62162136D01*
X200432660Y-61989923D01*
X200432656Y-61989918D01*
X200260081Y-61817343D01*
X200260076Y-61817339D01*
X200062642Y-61673896D01*
X200062641Y-61673895D01*
X200062639Y-61673894D01*
X199845185Y-61563096D01*
X199613076Y-61487679D01*
X199613074Y-61487678D01*
X199613072Y-61487678D01*
X199444769Y-61461021D01*
X199372027Y-61449500D01*
X199127973Y-61449500D01*
X199072093Y-61458350D01*
X198886927Y-61487678D01*
X198654812Y-61563097D01*
X198437357Y-61673896D01*
X198239923Y-61817339D01*
X198239918Y-61817343D01*
X198067343Y-61989918D01*
X198067339Y-61989923D01*
X197923896Y-62187357D01*
X197813097Y-62404812D01*
X197737678Y-62636927D01*
X197699500Y-62877973D01*
X183777208Y-62877973D01*
X179961416Y-59062181D01*
X179927931Y-59000858D01*
X179932915Y-58931166D01*
X179974787Y-58875233D01*
X180040251Y-58850816D01*
X180049097Y-58850500D01*
X180196286Y-58850500D01*
X180196287Y-58850500D01*
X180406243Y-58817246D01*
X180608412Y-58751557D01*
X180797816Y-58655051D01*
X180884138Y-58592335D01*
X180969786Y-58530109D01*
X180969788Y-58530106D01*
X180969792Y-58530104D01*
X181120104Y-58379792D01*
X181120106Y-58379788D01*
X181120109Y-58379786D01*
X181245048Y-58207820D01*
X181245047Y-58207820D01*
X181245051Y-58207816D01*
X181249514Y-58199054D01*
X181297488Y-58148259D01*
X181365308Y-58131463D01*
X181431444Y-58153999D01*
X181470486Y-58199056D01*
X181474951Y-58207820D01*
X181599890Y-58379786D01*
X181750213Y-58530109D01*
X181922179Y-58655048D01*
X181922181Y-58655049D01*
X181922184Y-58655051D01*
X182111588Y-58751557D01*
X182313757Y-58817246D01*
X182523713Y-58850500D01*
X182523714Y-58850500D01*
X182736286Y-58850500D01*
X182736287Y-58850500D01*
X182946243Y-58817246D01*
X183148412Y-58751557D01*
X183337816Y-58655051D01*
X183424138Y-58592335D01*
X183509786Y-58530109D01*
X183509788Y-58530106D01*
X183509792Y-58530104D01*
X183660104Y-58379792D01*
X183660106Y-58379788D01*
X183660109Y-58379786D01*
X183785048Y-58207820D01*
X183785047Y-58207820D01*
X183785051Y-58207816D01*
X183789514Y-58199054D01*
X183837488Y-58148259D01*
X183905308Y-58131463D01*
X183971444Y-58153999D01*
X184010486Y-58199056D01*
X184014951Y-58207820D01*
X184139890Y-58379786D01*
X184290213Y-58530109D01*
X184462179Y-58655048D01*
X184462181Y-58655049D01*
X184462184Y-58655051D01*
X184651588Y-58751557D01*
X184853757Y-58817246D01*
X185063713Y-58850500D01*
X185063714Y-58850500D01*
X185276286Y-58850500D01*
X185276287Y-58850500D01*
X185486243Y-58817246D01*
X185688412Y-58751557D01*
X185877816Y-58655051D01*
X185964138Y-58592335D01*
X186049786Y-58530109D01*
X186049788Y-58530106D01*
X186049792Y-58530104D01*
X186200104Y-58379792D01*
X186200106Y-58379788D01*
X186200109Y-58379786D01*
X186325048Y-58207820D01*
X186325047Y-58207820D01*
X186325051Y-58207816D01*
X186421557Y-58018412D01*
X186487246Y-57816243D01*
X186520500Y-57606287D01*
X186520500Y-57393713D01*
X186487246Y-57183757D01*
X186421557Y-56981588D01*
X186325051Y-56792184D01*
X186325049Y-56792181D01*
X186325048Y-56792179D01*
X186200109Y-56620213D01*
X186049786Y-56469890D01*
X185877820Y-56344951D01*
X185688414Y-56248444D01*
X185688413Y-56248443D01*
X185688412Y-56248443D01*
X185486243Y-56182754D01*
X185486241Y-56182753D01*
X185486240Y-56182753D01*
X185324957Y-56157208D01*
X185276287Y-56149500D01*
X185063713Y-56149500D01*
X185015042Y-56157208D01*
X184853760Y-56182753D01*
X184651585Y-56248444D01*
X184462179Y-56344951D01*
X184290213Y-56469890D01*
X184139890Y-56620213D01*
X184014949Y-56792182D01*
X184010484Y-56800946D01*
X183962509Y-56851742D01*
X183894688Y-56868536D01*
X183828553Y-56845998D01*
X183789516Y-56800946D01*
X183785050Y-56792182D01*
X183660109Y-56620213D01*
X183509786Y-56469890D01*
X183337820Y-56344951D01*
X183148414Y-56248444D01*
X183148413Y-56248443D01*
X183148412Y-56248443D01*
X182946243Y-56182754D01*
X182946241Y-56182753D01*
X182946240Y-56182753D01*
X182784957Y-56157208D01*
X182736287Y-56149500D01*
X182523713Y-56149500D01*
X182475042Y-56157208D01*
X182313760Y-56182753D01*
X182111585Y-56248444D01*
X181922179Y-56344951D01*
X181750213Y-56469890D01*
X181599890Y-56620213D01*
X181474949Y-56792182D01*
X181470484Y-56800946D01*
X181422509Y-56851742D01*
X181354688Y-56868536D01*
X181288553Y-56845998D01*
X181249516Y-56800946D01*
X181245050Y-56792182D01*
X181120109Y-56620213D01*
X180969786Y-56469890D01*
X180797820Y-56344951D01*
X180608414Y-56248444D01*
X180608413Y-56248443D01*
X180608412Y-56248443D01*
X180406243Y-56182754D01*
X180406241Y-56182753D01*
X180406240Y-56182753D01*
X180244957Y-56157208D01*
X180196287Y-56149500D01*
X179983713Y-56149500D01*
X179935042Y-56157208D01*
X179773760Y-56182753D01*
X179571585Y-56248444D01*
X179382179Y-56344951D01*
X179210213Y-56469890D01*
X179059890Y-56620213D01*
X178934949Y-56792182D01*
X178930484Y-56800946D01*
X178882509Y-56851742D01*
X178814688Y-56868536D01*
X178748553Y-56845998D01*
X178709516Y-56800946D01*
X178705050Y-56792182D01*
X178580109Y-56620213D01*
X178429786Y-56469890D01*
X178257820Y-56344951D01*
X178068414Y-56248444D01*
X178068413Y-56248443D01*
X178068412Y-56248443D01*
X177866243Y-56182754D01*
X177866241Y-56182753D01*
X177866240Y-56182753D01*
X177704957Y-56157208D01*
X177656287Y-56149500D01*
X177443713Y-56149500D01*
X177395042Y-56157208D01*
X177233760Y-56182753D01*
X177031585Y-56248444D01*
X176842179Y-56344951D01*
X176670213Y-56469890D01*
X176519890Y-56620213D01*
X176394949Y-56792182D01*
X176385484Y-56810759D01*
X176337510Y-56861554D01*
X176269689Y-56878349D01*
X176203554Y-56855811D01*
X176164516Y-56810759D01*
X176155050Y-56792182D01*
X176030109Y-56620213D01*
X175879786Y-56469890D01*
X175707820Y-56344951D01*
X175518414Y-56248444D01*
X175518413Y-56248443D01*
X175518412Y-56248443D01*
X175316243Y-56182754D01*
X175316241Y-56182753D01*
X175316240Y-56182753D01*
X175154957Y-56157208D01*
X175106287Y-56149500D01*
X174893713Y-56149500D01*
X174845042Y-56157208D01*
X174683760Y-56182753D01*
X174481585Y-56248444D01*
X174292179Y-56344951D01*
X174120213Y-56469890D01*
X173969890Y-56620213D01*
X173844948Y-56792184D01*
X173842404Y-56796336D01*
X173841242Y-56795624D01*
X173797506Y-56841930D01*
X173729684Y-56858723D01*
X173663550Y-56836183D01*
X173628528Y-56795764D01*
X173627596Y-56796336D01*
X173625051Y-56792184D01*
X173500109Y-56620213D01*
X173349786Y-56469890D01*
X173177820Y-56344951D01*
X172988414Y-56248444D01*
X172988413Y-56248443D01*
X172988412Y-56248443D01*
X172786243Y-56182754D01*
X172786241Y-56182753D01*
X172786240Y-56182753D01*
X172624957Y-56157208D01*
X172576287Y-56149500D01*
X172363713Y-56149500D01*
X172315042Y-56157208D01*
X172153760Y-56182753D01*
X171951585Y-56248444D01*
X171762179Y-56344951D01*
X171590213Y-56469890D01*
X171439890Y-56620213D01*
X171314949Y-56792182D01*
X171310202Y-56801499D01*
X171262227Y-56852293D01*
X171194405Y-56869087D01*
X171128271Y-56846548D01*
X171089234Y-56801495D01*
X171084622Y-56792444D01*
X170959727Y-56620540D01*
X170959723Y-56620535D01*
X170809464Y-56470276D01*
X170809459Y-56470272D01*
X170637557Y-56345379D01*
X170448215Y-56248903D01*
X170246124Y-56183241D01*
X170180000Y-56172768D01*
X170180000Y-57066988D01*
X170122993Y-57034075D01*
X169995826Y-57000000D01*
X169864174Y-57000000D01*
X169737007Y-57034075D01*
X169680000Y-57066988D01*
X169680000Y-56172768D01*
X169679999Y-56172768D01*
X169613875Y-56183241D01*
X169411784Y-56248903D01*
X169222442Y-56345379D01*
X169050540Y-56470272D01*
X169050535Y-56470276D01*
X168900276Y-56620535D01*
X168900272Y-56620540D01*
X168775378Y-56792443D01*
X168770762Y-56801502D01*
X168722784Y-56852295D01*
X168654963Y-56869087D01*
X168588829Y-56846546D01*
X168549794Y-56801493D01*
X168545051Y-56792184D01*
X168545049Y-56792181D01*
X168545048Y-56792179D01*
X168420109Y-56620213D01*
X168269786Y-56469890D01*
X168097820Y-56344951D01*
X167908414Y-56248444D01*
X167908413Y-56248443D01*
X167908412Y-56248443D01*
X167706243Y-56182754D01*
X167706241Y-56182753D01*
X167706240Y-56182753D01*
X167544957Y-56157208D01*
X167496287Y-56149500D01*
X167283713Y-56149500D01*
X167235042Y-56157208D01*
X167073760Y-56182753D01*
X166871585Y-56248444D01*
X166682179Y-56344951D01*
X166510215Y-56469889D01*
X166396673Y-56583431D01*
X166335350Y-56616915D01*
X166265658Y-56611931D01*
X166209725Y-56570059D01*
X166192810Y-56539082D01*
X166143797Y-56407671D01*
X166143793Y-56407664D01*
X166057547Y-56292455D01*
X166057544Y-56292452D01*
X165942335Y-56206206D01*
X165942328Y-56206202D01*
X165807482Y-56155908D01*
X165807483Y-56155908D01*
X165747883Y-56149501D01*
X165747881Y-56149500D01*
X165747873Y-56149500D01*
X165747864Y-56149500D01*
X163952129Y-56149500D01*
X163952123Y-56149501D01*
X163892516Y-56155908D01*
X163757671Y-56206202D01*
X163757664Y-56206206D01*
X163642455Y-56292452D01*
X163642452Y-56292455D01*
X163556206Y-56407664D01*
X163556202Y-56407671D01*
X163505908Y-56542517D01*
X163499501Y-56602116D01*
X163499500Y-56602135D01*
X163499500Y-58397870D01*
X163499501Y-58397876D01*
X163505908Y-58457483D01*
X163556202Y-58592328D01*
X163556206Y-58592335D01*
X163642452Y-58707544D01*
X163642455Y-58707547D01*
X163757664Y-58793793D01*
X163757671Y-58793797D01*
X163759532Y-58794491D01*
X163892517Y-58844091D01*
X163952127Y-58850500D01*
X164125500Y-58850499D01*
X164192539Y-58870183D01*
X164238294Y-58922987D01*
X164249500Y-58974499D01*
X164249500Y-70789902D01*
X164229815Y-70856941D01*
X164213181Y-70877583D01*
X158296201Y-76794562D01*
X158234878Y-76828047D01*
X158184329Y-76828498D01*
X158038545Y-76799500D01*
X158038541Y-76799500D01*
X157841459Y-76799500D01*
X157841457Y-76799500D01*
X157648170Y-76837947D01*
X157648160Y-76837950D01*
X157466092Y-76913364D01*
X157466079Y-76913371D01*
X157302218Y-77022860D01*
X157302214Y-77022863D01*
X157162863Y-77162214D01*
X157162860Y-77162218D01*
X157053371Y-77326079D01*
X157053364Y-77326092D01*
X156977950Y-77508160D01*
X156977947Y-77508170D01*
X156939500Y-77701456D01*
X156939500Y-78898545D01*
X156978453Y-79094374D01*
X156972226Y-79163965D01*
X156944517Y-79206246D01*
X156607741Y-79543022D01*
X156546418Y-79576507D01*
X156476726Y-79571523D01*
X156420793Y-79529651D01*
X156396376Y-79464187D01*
X156397957Y-79442307D01*
X156396942Y-79442212D01*
X156400500Y-79404269D01*
X156400500Y-77195730D01*
X156397646Y-77165300D01*
X156397646Y-77165298D01*
X156352793Y-77037119D01*
X156352792Y-77037117D01*
X156272150Y-76927850D01*
X156162882Y-76847207D01*
X156162880Y-76847206D01*
X156034700Y-76802353D01*
X156004270Y-76799500D01*
X156004266Y-76799500D01*
X154795734Y-76799500D01*
X154795730Y-76799500D01*
X154765300Y-76802353D01*
X154765298Y-76802353D01*
X154637119Y-76847206D01*
X154637117Y-76847207D01*
X154527850Y-76927850D01*
X154447207Y-77037117D01*
X154447206Y-77037119D01*
X154402353Y-77165298D01*
X154402353Y-77165300D01*
X154399500Y-77195730D01*
X154399500Y-79404269D01*
X154402353Y-79434699D01*
X154402353Y-79434701D01*
X154447206Y-79562880D01*
X154447207Y-79562882D01*
X154527850Y-79672150D01*
X154637118Y-79752793D01*
X154644084Y-79755230D01*
X154645150Y-79755995D01*
X154646463Y-79756089D01*
X154673448Y-79776290D01*
X154700858Y-79795948D01*
X154701343Y-79797171D01*
X154702396Y-79797960D01*
X154714181Y-79829556D01*
X154726607Y-79860900D01*
X154726353Y-79862190D01*
X154726814Y-79863424D01*
X154719644Y-79896382D01*
X154713154Y-79929462D01*
X154712151Y-79930829D01*
X154711963Y-79931697D01*
X154690812Y-79959952D01*
X154631286Y-80019478D01*
X154631285Y-80019478D01*
X154631284Y-80019479D01*
X154519479Y-80131284D01*
X154503298Y-80159311D01*
X154496459Y-80171158D01*
X154440423Y-80268215D01*
X154399499Y-80420943D01*
X154399499Y-80420945D01*
X154399499Y-80589046D01*
X154399500Y-80589059D01*
X154399500Y-93496560D01*
X154379815Y-93563599D01*
X154327011Y-93609354D01*
X154257853Y-93619298D01*
X154194297Y-93590273D01*
X154172398Y-93565451D01*
X154121789Y-93489711D01*
X154121786Y-93489707D01*
X154010292Y-93378213D01*
X154010288Y-93378210D01*
X153879185Y-93290609D01*
X153879172Y-93290602D01*
X153733501Y-93230264D01*
X153733489Y-93230261D01*
X153578845Y-93199500D01*
X153578842Y-93199500D01*
X153474500Y-93199500D01*
X153407461Y-93179815D01*
X153361706Y-93127011D01*
X153350500Y-93075500D01*
X153350500Y-90079765D01*
X153370185Y-90012726D01*
X153371398Y-90010874D01*
X153459390Y-89879185D01*
X153459390Y-89879184D01*
X153459394Y-89879179D01*
X153519737Y-89733497D01*
X153550500Y-89578842D01*
X153550500Y-89421158D01*
X153550500Y-89421155D01*
X153550499Y-89421153D01*
X153540069Y-89368717D01*
X153519737Y-89266503D01*
X153505357Y-89231787D01*
X153459397Y-89120827D01*
X153459390Y-89120814D01*
X153371789Y-88989711D01*
X153371786Y-88989707D01*
X153260292Y-88878213D01*
X153260288Y-88878210D01*
X153129185Y-88790609D01*
X153129172Y-88790602D01*
X152983501Y-88730264D01*
X152983489Y-88730261D01*
X152828845Y-88699500D01*
X152828842Y-88699500D01*
X152724500Y-88699500D01*
X152657461Y-88679815D01*
X152611706Y-88627011D01*
X152600500Y-88575500D01*
X152600500Y-86079765D01*
X152620185Y-86012726D01*
X152621398Y-86010874D01*
X152709390Y-85879185D01*
X152709390Y-85879184D01*
X152709394Y-85879179D01*
X152769737Y-85733497D01*
X152800500Y-85578842D01*
X152800500Y-85421158D01*
X152800500Y-85421155D01*
X152800499Y-85421153D01*
X152792148Y-85379172D01*
X152769737Y-85266503D01*
X152756062Y-85233489D01*
X152709397Y-85120827D01*
X152709390Y-85120814D01*
X152621789Y-84989711D01*
X152621786Y-84989707D01*
X152510292Y-84878213D01*
X152510288Y-84878210D01*
X152379185Y-84790609D01*
X152379172Y-84790602D01*
X152233501Y-84730264D01*
X152233489Y-84730261D01*
X152078845Y-84699500D01*
X152078842Y-84699500D01*
X151974500Y-84699500D01*
X151907461Y-84679815D01*
X151861706Y-84627011D01*
X151850500Y-84575500D01*
X151850500Y-82079765D01*
X151870185Y-82012726D01*
X151871398Y-82010874D01*
X151959390Y-81879185D01*
X151959390Y-81879184D01*
X151959394Y-81879179D01*
X152019737Y-81733497D01*
X152050500Y-81578842D01*
X152050500Y-81421158D01*
X152050500Y-81421155D01*
X152050499Y-81421153D01*
X152042148Y-81379172D01*
X152019737Y-81266503D01*
X152006062Y-81233489D01*
X151959397Y-81120827D01*
X151959390Y-81120814D01*
X151871789Y-80989711D01*
X151871786Y-80989707D01*
X151760292Y-80878213D01*
X151760288Y-80878210D01*
X151629185Y-80790609D01*
X151629172Y-80790602D01*
X151483501Y-80730264D01*
X151483489Y-80730261D01*
X151328845Y-80699500D01*
X151328842Y-80699500D01*
X151171158Y-80699500D01*
X151171155Y-80699500D01*
X151016510Y-80730261D01*
X151016498Y-80730264D01*
X150870827Y-80790602D01*
X150870814Y-80790609D01*
X150739711Y-80878210D01*
X150739707Y-80878213D01*
X150628213Y-80989707D01*
X150628210Y-80989711D01*
X150540609Y-81120814D01*
X150540602Y-81120827D01*
X150480264Y-81266498D01*
X150480261Y-81266510D01*
X150449500Y-81421153D01*
X150449500Y-81578846D01*
X150480261Y-81733489D01*
X150480264Y-81733501D01*
X150540602Y-81879172D01*
X150540609Y-81879185D01*
X150628602Y-82010874D01*
X150649480Y-82077551D01*
X150649500Y-82079765D01*
X150649500Y-96388946D01*
X150629815Y-96455985D01*
X150577011Y-96501740D01*
X150507853Y-96511684D01*
X150452615Y-96489264D01*
X150362643Y-96423896D01*
X150145187Y-96313097D01*
X150145186Y-96313096D01*
X150145185Y-96313096D01*
X149913076Y-96237679D01*
X149913074Y-96237678D01*
X149913072Y-96237678D01*
X149744769Y-96211021D01*
X149672027Y-96199500D01*
X149427973Y-96199500D01*
X149372093Y-96208350D01*
X149186927Y-96237678D01*
X148954812Y-96313097D01*
X148737357Y-96423896D01*
X148539923Y-96567339D01*
X148539918Y-96567343D01*
X148367343Y-96739918D01*
X148367339Y-96739923D01*
X148223896Y-96937357D01*
X148113097Y-97154812D01*
X148037678Y-97386927D01*
X148032209Y-97421459D01*
X147999500Y-97627973D01*
X143750500Y-97627973D01*
X143750500Y-70377973D01*
X149199500Y-70377973D01*
X149199500Y-70622027D01*
X149237679Y-70863076D01*
X149285722Y-71010938D01*
X149313097Y-71095187D01*
X149423896Y-71312642D01*
X149567339Y-71510076D01*
X149567343Y-71510081D01*
X149719581Y-71662319D01*
X149753066Y-71723642D01*
X149748082Y-71793334D01*
X149719581Y-71837681D01*
X149567343Y-71989918D01*
X149567339Y-71989923D01*
X149423896Y-72187357D01*
X149313097Y-72404812D01*
X149237678Y-72636927D01*
X149199500Y-72877973D01*
X149199500Y-73122027D01*
X149237679Y-73363076D01*
X149313096Y-73595185D01*
X149412669Y-73790609D01*
X149423896Y-73812642D01*
X149567339Y-74010076D01*
X149567343Y-74010081D01*
X149739918Y-74182656D01*
X149739923Y-74182660D01*
X149855317Y-74266498D01*
X149937361Y-74326106D01*
X150154815Y-74436904D01*
X150386924Y-74512321D01*
X150627973Y-74550500D01*
X150627974Y-74550500D01*
X150872026Y-74550500D01*
X150872027Y-74550500D01*
X151113076Y-74512321D01*
X151345185Y-74436904D01*
X151562639Y-74326106D01*
X151760083Y-74182655D01*
X151932655Y-74010083D01*
X152076106Y-73812639D01*
X152186904Y-73595185D01*
X152262321Y-73363076D01*
X152300500Y-73122027D01*
X152300500Y-72877973D01*
X152262321Y-72636924D01*
X152186904Y-72404815D01*
X152076106Y-72187361D01*
X151951971Y-72016503D01*
X151932660Y-71989923D01*
X151932656Y-71989918D01*
X151780419Y-71837681D01*
X151746934Y-71776358D01*
X151751918Y-71706666D01*
X151780419Y-71662319D01*
X151814528Y-71628210D01*
X151932655Y-71510083D01*
X152076106Y-71312639D01*
X152186904Y-71095185D01*
X152262321Y-70863076D01*
X152300500Y-70622027D01*
X152300500Y-70377973D01*
X152262321Y-70136924D01*
X152186904Y-69904815D01*
X152076106Y-69687361D01*
X151948579Y-69511834D01*
X151932660Y-69489923D01*
X151932656Y-69489918D01*
X151760081Y-69317343D01*
X151760076Y-69317339D01*
X151562642Y-69173896D01*
X151562641Y-69173895D01*
X151562639Y-69173894D01*
X151345185Y-69063096D01*
X151113076Y-68987679D01*
X151113074Y-68987678D01*
X151113072Y-68987678D01*
X150944769Y-68961021D01*
X150872027Y-68949500D01*
X150627973Y-68949500D01*
X150572093Y-68958350D01*
X150386927Y-68987678D01*
X150154812Y-69063097D01*
X149937357Y-69173896D01*
X149739923Y-69317339D01*
X149739918Y-69317343D01*
X149567343Y-69489918D01*
X149567339Y-69489923D01*
X149423896Y-69687357D01*
X149313097Y-69904812D01*
X149237678Y-70136927D01*
X149199500Y-70377973D01*
X143750500Y-70377973D01*
X143750500Y-67878006D01*
X144200000Y-67878006D01*
X144200000Y-68121993D01*
X144238165Y-68362959D01*
X144313560Y-68594998D01*
X144424323Y-68812380D01*
X144491543Y-68904901D01*
X144491544Y-68904902D01*
X145246624Y-68149822D01*
X145260778Y-68202642D01*
X145329896Y-68322357D01*
X145427643Y-68420104D01*
X145547358Y-68489222D01*
X145600177Y-68503375D01*
X144845096Y-69258454D01*
X144845097Y-69258456D01*
X144937619Y-69325676D01*
X145155001Y-69436439D01*
X145387040Y-69511834D01*
X145628007Y-69550000D01*
X145871993Y-69550000D01*
X146112959Y-69511834D01*
X146344998Y-69436439D01*
X146562377Y-69325678D01*
X146654901Y-69258454D01*
X146654902Y-69258454D01*
X145899822Y-68503375D01*
X145952642Y-68489222D01*
X146072357Y-68420104D01*
X146170104Y-68322357D01*
X146239222Y-68202642D01*
X146253375Y-68149822D01*
X147008454Y-68904902D01*
X147008454Y-68904901D01*
X147075678Y-68812377D01*
X147186439Y-68594998D01*
X147261834Y-68362959D01*
X147300000Y-68121993D01*
X147300000Y-67878006D01*
X147261834Y-67637040D01*
X147186439Y-67405001D01*
X147075676Y-67187619D01*
X147008456Y-67095097D01*
X147008454Y-67095096D01*
X146253374Y-67850176D01*
X146239222Y-67797358D01*
X146170104Y-67677643D01*
X146072357Y-67579896D01*
X145952642Y-67510778D01*
X145899821Y-67496624D01*
X146654902Y-66741544D01*
X146654901Y-66741543D01*
X146562380Y-66674323D01*
X146344998Y-66563560D01*
X146112959Y-66488165D01*
X145871993Y-66450000D01*
X145628007Y-66450000D01*
X145387040Y-66488165D01*
X145155001Y-66563560D01*
X144937626Y-66674319D01*
X144845097Y-66741544D01*
X145600178Y-67496624D01*
X145547358Y-67510778D01*
X145427643Y-67579896D01*
X145329896Y-67677643D01*
X145260778Y-67797358D01*
X145246624Y-67850177D01*
X144491544Y-67095097D01*
X144424319Y-67187626D01*
X144313560Y-67405001D01*
X144238165Y-67637040D01*
X144200000Y-67878006D01*
X143750500Y-67878006D01*
X143750500Y-62877973D01*
X149199500Y-62877973D01*
X149199500Y-63122026D01*
X149237678Y-63363072D01*
X149313097Y-63595187D01*
X149423896Y-63812642D01*
X149567339Y-64010076D01*
X149567343Y-64010081D01*
X149719581Y-64162319D01*
X149753066Y-64223642D01*
X149748082Y-64293334D01*
X149719581Y-64337681D01*
X149567343Y-64489918D01*
X149567339Y-64489923D01*
X149423896Y-64687357D01*
X149313097Y-64904812D01*
X149237678Y-65136927D01*
X149199500Y-65377973D01*
X149199500Y-65622026D01*
X149219918Y-65750943D01*
X149237679Y-65863076D01*
X149313096Y-66095185D01*
X149330884Y-66130097D01*
X149423896Y-66312642D01*
X149567339Y-66510076D01*
X149567343Y-66510081D01*
X149739918Y-66682656D01*
X149739923Y-66682660D01*
X149820971Y-66741544D01*
X149937361Y-66826106D01*
X150154815Y-66936904D01*
X150386924Y-67012321D01*
X150627973Y-67050500D01*
X150627974Y-67050500D01*
X150872026Y-67050500D01*
X150872027Y-67050500D01*
X151113076Y-67012321D01*
X151345185Y-66936904D01*
X151562639Y-66826106D01*
X151760083Y-66682655D01*
X151932655Y-66510083D01*
X152076106Y-66312639D01*
X152186904Y-66095185D01*
X152262321Y-65863076D01*
X152300500Y-65622027D01*
X152300500Y-65377973D01*
X152262321Y-65136924D01*
X152186904Y-64904815D01*
X152076106Y-64687361D01*
X152057779Y-64662136D01*
X151932660Y-64489923D01*
X151932656Y-64489918D01*
X151780419Y-64337681D01*
X151746934Y-64276358D01*
X151751918Y-64206666D01*
X151780419Y-64162319D01*
X151932655Y-64010083D01*
X152076106Y-63812639D01*
X152186904Y-63595185D01*
X152262321Y-63363076D01*
X152300500Y-63122027D01*
X152300500Y-62877973D01*
X152262321Y-62636924D01*
X152186904Y-62404815D01*
X152076106Y-62187361D01*
X152057779Y-62162136D01*
X151932660Y-61989923D01*
X151932656Y-61989918D01*
X151760081Y-61817343D01*
X151760076Y-61817339D01*
X151562642Y-61673896D01*
X151562641Y-61673895D01*
X151562639Y-61673894D01*
X151345185Y-61563096D01*
X151113076Y-61487679D01*
X151113074Y-61487678D01*
X151113072Y-61487678D01*
X150944769Y-61461021D01*
X150872027Y-61449500D01*
X150627973Y-61449500D01*
X150572093Y-61458350D01*
X150386927Y-61487678D01*
X150154812Y-61563097D01*
X149937357Y-61673896D01*
X149739923Y-61817339D01*
X149739918Y-61817343D01*
X149567343Y-61989918D01*
X149567339Y-61989923D01*
X149423896Y-62187357D01*
X149313097Y-62404812D01*
X149237678Y-62636927D01*
X149199500Y-62877973D01*
X143750500Y-62877973D01*
X143750500Y-59336103D01*
X143770185Y-59269064D01*
X143822989Y-59223309D01*
X143892147Y-59213365D01*
X143955703Y-59242390D01*
X143962181Y-59248422D01*
X144081175Y-59367416D01*
X144300752Y-59542523D01*
X144538555Y-59691945D01*
X144791592Y-59813801D01*
X144990680Y-59883465D01*
X145056670Y-59906556D01*
X145056682Y-59906560D01*
X145330491Y-59969055D01*
X145330497Y-59969055D01*
X145330505Y-59969057D01*
X145516547Y-59990018D01*
X145609569Y-60000499D01*
X145609572Y-60000500D01*
X145609575Y-60000500D01*
X145890428Y-60000500D01*
X145890429Y-60000499D01*
X146033055Y-59984429D01*
X146169494Y-59969057D01*
X146169499Y-59969056D01*
X146169509Y-59969055D01*
X146443318Y-59906560D01*
X146708408Y-59813801D01*
X146961445Y-59691945D01*
X147199248Y-59542523D01*
X147418825Y-59367416D01*
X147617416Y-59168825D01*
X147792523Y-58949248D01*
X147941945Y-58711445D01*
X148063801Y-58458408D01*
X148156560Y-58193318D01*
X148219055Y-57919509D01*
X148250500Y-57640425D01*
X148250500Y-57359575D01*
X148219055Y-57080491D01*
X148156560Y-56806682D01*
X148154747Y-56801502D01*
X148091424Y-56620535D01*
X148063801Y-56541592D01*
X147941945Y-56288555D01*
X147792523Y-56050752D01*
X147617416Y-55831175D01*
X147498422Y-55712181D01*
X147464937Y-55650858D01*
X147469921Y-55581166D01*
X147511793Y-55525233D01*
X147577257Y-55500816D01*
X147586103Y-55500500D01*
X164618097Y-55500500D01*
X164851368Y-55463553D01*
X165075992Y-55390568D01*
X165286433Y-55283343D01*
X165477510Y-55144517D01*
X165585708Y-55036319D01*
X165647031Y-55002834D01*
X165673389Y-55000000D01*
X166326611Y-55000000D01*
X166393650Y-55019685D01*
G37*
G04 #@! TD.AperFunction*
M02*
