G04 #@! TF.GenerationSoftware,KiCad,Pcbnew,9.0.0*
G04 #@! TF.CreationDate,2025-07-26T10:23:47-04:00*
G04 #@! TF.ProjectId,POVideo V2,504f5669-6465-46f2-9056-322e6b696361,rev?*
G04 #@! TF.SameCoordinates,Original*
G04 #@! TF.FileFunction,Profile,NP*
%FSLAX46Y46*%
G04 Gerber Fmt 4.6, Leading zero omitted, Abs format (unit mm)*
G04 Created by KiCad (PCBNEW 9.0.0) date 2025-07-26 10:23:47*
%MOMM*%
%LPD*%
G01*
G04 APERTURE LIST*
G04 #@! TA.AperFunction,Profile*
%ADD10C,0.100000*%
G04 #@! TD*
G04 APERTURE END LIST*
D10*
X188500000Y-41500000D02*
G75*
G02*
X188500000Y-47500000I0J-3000000D01*
G01*
X161500000Y-47500000D02*
G75*
G02*
X161500000Y-41500000I0J3000000D01*
G01*
X205000000Y-158000000D02*
G75*
G02*
X203000000Y-160000000I-2000000J0D01*
G01*
X143250000Y-57500000D02*
G75*
G02*
X145750000Y-55000000I2500000J0D01*
G01*
X147000000Y-160000000D02*
G75*
G02*
X145000000Y-158000000I0J2000000D01*
G01*
X164500000Y-55000000D02*
X145750000Y-55000000D01*
X185500000Y-55000000D02*
X204250000Y-55000000D01*
X161500000Y-53000000D02*
G75*
G02*
X161500000Y-36000000I0J8500000D01*
G01*
X182500000Y-55000000D02*
X167500000Y-55000000D01*
X188500000Y-36000000D02*
X161500000Y-36000000D01*
X182500000Y-53000000D02*
G75*
G02*
X182500000Y-55000000I0J-1000000D01*
G01*
X188500000Y-36000000D02*
G75*
G02*
X188500000Y-53000000I0J-8500000D01*
G01*
X164500000Y-53000000D02*
G75*
G02*
X164500000Y-55000000I0J-1000000D01*
G01*
X147000000Y-160000000D02*
X203000000Y-160000000D01*
X182500000Y-53000000D02*
X167500000Y-53000000D01*
X205000000Y-111000000D02*
X205029751Y-110875287D01*
X164500000Y-53000000D02*
X161500000Y-53000000D01*
X206750000Y-57500000D02*
X206750000Y-108500000D01*
X161500000Y-47500000D02*
X188500000Y-47500000D01*
X185500000Y-53000000D02*
X188500000Y-53000000D01*
X145000000Y-111000000D02*
X144959431Y-110871707D01*
X172000000Y-41500000D02*
X161500000Y-41500000D01*
X167500000Y-55000000D02*
G75*
G02*
X167500000Y-53000000I0J1000000D01*
G01*
X145000000Y-112500000D02*
X145000000Y-111000000D01*
X143250000Y-57500000D02*
X143250000Y-108500000D01*
X204250000Y-55000000D02*
G75*
G02*
X206750000Y-57500000I0J-2500000D01*
G01*
X145000000Y-158000000D02*
X145000000Y-112500000D01*
X185500000Y-55000000D02*
G75*
G02*
X185500000Y-53000000I0J1000000D01*
G01*
X178000000Y-41500000D02*
X188500000Y-41500000D01*
X205000000Y-112500000D02*
X205000000Y-111000000D01*
X144959431Y-110871708D02*
G75*
G02*
X143250000Y-108500000I790569J2371708D01*
G01*
X172000000Y-41500000D02*
G75*
G02*
X178000000Y-41500000I3000000J0D01*
G01*
X205000000Y-158000000D02*
X205000000Y-112500000D01*
X206750000Y-108500000D02*
G75*
G02*
X205029750Y-110875287I-2500000J0D01*
G01*
M02*
