G04 #@! TF.GenerationSoftware,KiCad,Pcbnew,9.0.0*
G04 #@! TF.CreationDate,2025-07-26T10:23:47-04:00*
G04 #@! TF.ProjectId,POVideo V2,504f5669-6465-46f2-9056-322e6b696361,rev?*
G04 #@! TF.SameCoordinates,Original*
G04 #@! TF.FileFunction,Legend,Top*
G04 #@! TF.FilePolarity,Positive*
%FSLAX46Y46*%
G04 Gerber Fmt 4.6, Leading zero omitted, Abs format (unit mm)*
G04 Created by KiCad (PCBNEW 9.0.0) date 2025-07-26 10:23:47*
%MOMM*%
%LPD*%
G01*
G04 APERTURE LIST*
G04 Aperture macros list*
%AMRoundRect*
0 Rectangle with rounded corners*
0 $1 Rounding radius*
0 $2 $3 $4 $5 $6 $7 $8 $9 X,Y pos of 4 corners*
0 Add a 4 corners polygon primitive as box body*
4,1,4,$2,$3,$4,$5,$6,$7,$8,$9,$2,$3,0*
0 Add four circle primitives for the rounded corners*
1,1,$1+$1,$2,$3*
1,1,$1+$1,$4,$5*
1,1,$1+$1,$6,$7*
1,1,$1+$1,$8,$9*
0 Add four rect primitives between the rounded corners*
20,1,$1+$1,$2,$3,$4,$5,0*
20,1,$1+$1,$4,$5,$6,$7,0*
20,1,$1+$1,$6,$7,$8,$9,0*
20,1,$1+$1,$8,$9,$2,$3,0*%
G04 Aperture macros list end*
%ADD10C,0.200000*%
%ADD11C,0.300000*%
%ADD12C,0.100000*%
%ADD13C,0.150000*%
%ADD14C,0.120000*%
%ADD15RoundRect,0.250000X-0.550000X1.050000X-0.550000X-1.050000X0.550000X-1.050000X0.550000X1.050000X0*%
%ADD16O,1.600000X2.600000*%
%ADD17RoundRect,0.135000X-0.135000X-0.185000X0.135000X-0.185000X0.135000X0.185000X-0.135000X0.185000X0*%
%ADD18RoundRect,0.210000X0.490000X-0.840000X0.490000X0.840000X-0.490000X0.840000X-0.490000X-0.840000X0*%
%ADD19RoundRect,0.450000X1.050000X1.050000X-1.050000X1.050000X-1.050000X-1.050000X1.050000X-1.050000X0*%
%ADD20RoundRect,0.300000X0.700000X0.700000X-0.700000X0.700000X-0.700000X-0.700000X0.700000X-0.700000X0*%
%ADD21RoundRect,0.140000X-0.140000X-0.170000X0.140000X-0.170000X0.140000X0.170000X-0.140000X0.170000X0*%
%ADD22RoundRect,0.225000X-0.225000X-0.375000X0.225000X-0.375000X0.225000X0.375000X-0.225000X0.375000X0*%
%ADD23RoundRect,0.135000X0.135000X0.185000X-0.135000X0.185000X-0.135000X-0.185000X0.135000X-0.185000X0*%
%ADD24R,1.700000X1.700000*%
%ADD25O,1.700000X1.700000*%
%ADD26C,2.100000*%
G04 APERTURE END LIST*
D10*
X174388720Y-130163171D02*
X174460149Y-130234600D01*
X174460149Y-130234600D02*
X174388720Y-130306028D01*
X174388720Y-130306028D02*
X174317292Y-130234600D01*
X174317292Y-130234600D02*
X174388720Y-130163171D01*
X174388720Y-130163171D02*
X174388720Y-130306028D01*
X174388720Y-129734600D02*
X174317292Y-128877457D01*
X174317292Y-128877457D02*
X174388720Y-128806028D01*
X174388720Y-128806028D02*
X174460149Y-128877457D01*
X174460149Y-128877457D02*
X174388720Y-129734600D01*
X174388720Y-129734600D02*
X174388720Y-128806028D01*
X175103006Y-130163171D02*
X175174435Y-130234600D01*
X175174435Y-130234600D02*
X175103006Y-130306028D01*
X175103006Y-130306028D02*
X175031578Y-130234600D01*
X175031578Y-130234600D02*
X175103006Y-130163171D01*
X175103006Y-130163171D02*
X175103006Y-130306028D01*
X175103006Y-129734600D02*
X175031578Y-128877457D01*
X175031578Y-128877457D02*
X175103006Y-128806028D01*
X175103006Y-128806028D02*
X175174435Y-128877457D01*
X175174435Y-128877457D02*
X175103006Y-129734600D01*
X175103006Y-129734600D02*
X175103006Y-128806028D01*
X175817292Y-130163171D02*
X175888721Y-130234600D01*
X175888721Y-130234600D02*
X175817292Y-130306028D01*
X175817292Y-130306028D02*
X175745864Y-130234600D01*
X175745864Y-130234600D02*
X175817292Y-130163171D01*
X175817292Y-130163171D02*
X175817292Y-130306028D01*
X175817292Y-129734600D02*
X175745864Y-128877457D01*
X175745864Y-128877457D02*
X175817292Y-128806028D01*
X175817292Y-128806028D02*
X175888721Y-128877457D01*
X175888721Y-128877457D02*
X175817292Y-129734600D01*
X175817292Y-129734600D02*
X175817292Y-128806028D01*
X163738720Y-130163171D02*
X163810149Y-130234600D01*
X163810149Y-130234600D02*
X163738720Y-130306028D01*
X163738720Y-130306028D02*
X163667292Y-130234600D01*
X163667292Y-130234600D02*
X163738720Y-130163171D01*
X163738720Y-130163171D02*
X163738720Y-130306028D01*
X163738720Y-129734600D02*
X163667292Y-128877457D01*
X163667292Y-128877457D02*
X163738720Y-128806028D01*
X163738720Y-128806028D02*
X163810149Y-128877457D01*
X163810149Y-128877457D02*
X163738720Y-129734600D01*
X163738720Y-129734600D02*
X163738720Y-128806028D01*
X164453006Y-130163171D02*
X164524435Y-130234600D01*
X164524435Y-130234600D02*
X164453006Y-130306028D01*
X164453006Y-130306028D02*
X164381578Y-130234600D01*
X164381578Y-130234600D02*
X164453006Y-130163171D01*
X164453006Y-130163171D02*
X164453006Y-130306028D01*
X164453006Y-129734600D02*
X164381578Y-128877457D01*
X164381578Y-128877457D02*
X164453006Y-128806028D01*
X164453006Y-128806028D02*
X164524435Y-128877457D01*
X164524435Y-128877457D02*
X164453006Y-129734600D01*
X164453006Y-129734600D02*
X164453006Y-128806028D01*
X185953006Y-154448885D02*
X185810149Y-154377457D01*
X185810149Y-154377457D02*
X185738720Y-154306028D01*
X185738720Y-154306028D02*
X185667292Y-154163171D01*
X185667292Y-154163171D02*
X185667292Y-154091742D01*
X185667292Y-154091742D02*
X185738720Y-153948885D01*
X185738720Y-153948885D02*
X185810149Y-153877457D01*
X185810149Y-153877457D02*
X185953006Y-153806028D01*
X185953006Y-153806028D02*
X186238720Y-153806028D01*
X186238720Y-153806028D02*
X186381578Y-153877457D01*
X186381578Y-153877457D02*
X186453006Y-153948885D01*
X186453006Y-153948885D02*
X186524435Y-154091742D01*
X186524435Y-154091742D02*
X186524435Y-154163171D01*
X186524435Y-154163171D02*
X186453006Y-154306028D01*
X186453006Y-154306028D02*
X186381578Y-154377457D01*
X186381578Y-154377457D02*
X186238720Y-154448885D01*
X186238720Y-154448885D02*
X185953006Y-154448885D01*
X185953006Y-154448885D02*
X185810149Y-154520314D01*
X185810149Y-154520314D02*
X185738720Y-154591742D01*
X185738720Y-154591742D02*
X185667292Y-154734600D01*
X185667292Y-154734600D02*
X185667292Y-155020314D01*
X185667292Y-155020314D02*
X185738720Y-155163171D01*
X185738720Y-155163171D02*
X185810149Y-155234600D01*
X185810149Y-155234600D02*
X185953006Y-155306028D01*
X185953006Y-155306028D02*
X186238720Y-155306028D01*
X186238720Y-155306028D02*
X186381578Y-155234600D01*
X186381578Y-155234600D02*
X186453006Y-155163171D01*
X186453006Y-155163171D02*
X186524435Y-155020314D01*
X186524435Y-155020314D02*
X186524435Y-154734600D01*
X186524435Y-154734600D02*
X186453006Y-154591742D01*
X186453006Y-154591742D02*
X186381578Y-154520314D01*
X186381578Y-154520314D02*
X186238720Y-154448885D01*
X197238720Y-117270314D02*
X197453006Y-117341742D01*
X197453006Y-117341742D02*
X197524435Y-117413171D01*
X197524435Y-117413171D02*
X197595863Y-117556028D01*
X197595863Y-117556028D02*
X197595863Y-117770314D01*
X197595863Y-117770314D02*
X197524435Y-117913171D01*
X197524435Y-117913171D02*
X197453006Y-117984600D01*
X197453006Y-117984600D02*
X197310149Y-118056028D01*
X197310149Y-118056028D02*
X196738720Y-118056028D01*
X196738720Y-118056028D02*
X196738720Y-116556028D01*
X196738720Y-116556028D02*
X197238720Y-116556028D01*
X197238720Y-116556028D02*
X197381578Y-116627457D01*
X197381578Y-116627457D02*
X197453006Y-116698885D01*
X197453006Y-116698885D02*
X197524435Y-116841742D01*
X197524435Y-116841742D02*
X197524435Y-116984600D01*
X197524435Y-116984600D02*
X197453006Y-117127457D01*
X197453006Y-117127457D02*
X197381578Y-117198885D01*
X197381578Y-117198885D02*
X197238720Y-117270314D01*
X197238720Y-117270314D02*
X196738720Y-117270314D01*
X185667292Y-117627457D02*
X186381578Y-117627457D01*
X185524435Y-118056028D02*
X186024435Y-116556028D01*
X186024435Y-116556028D02*
X186524435Y-118056028D01*
X153000000Y-117750000D02*
X154000000Y-117250000D01*
X175000000Y-117750000D02*
X175000000Y-117250000D01*
X152000000Y-117250000D02*
X153000000Y-117750000D01*
X196250000Y-153750000D02*
X197750000Y-153750000D01*
X197750000Y-155250000D01*
X196250000Y-155250000D01*
X196250000Y-153750000D01*
D11*
X175150000Y-117000000D02*
G75*
G02*
X174850000Y-117000000I-150000J0D01*
G01*
X174850000Y-117000000D02*
G75*
G02*
X175150000Y-117000000I150000J0D01*
G01*
D10*
X175750000Y-117750000D02*
X174250000Y-117750000D01*
X174500000Y-116250000D01*
X175500000Y-116250000D01*
X175750000Y-117750000D01*
X164250000Y-116750000D02*
X163000000Y-116750000D01*
X197353553Y-154500000D02*
G75*
G02*
X196646447Y-154500000I-353553J0D01*
G01*
X196646447Y-154500000D02*
G75*
G02*
X197353553Y-154500000I353553J0D01*
G01*
X164000000Y-116750000D02*
X164750000Y-116750000D01*
X164750000Y-117750000D01*
X163000000Y-117750000D01*
X163000000Y-116250000D01*
X163750000Y-116250000D01*
X164000000Y-116750000D01*
D12*
X186750000Y-130250000D02*
X185250000Y-130250000D01*
X186750000Y-128750000D01*
X186750000Y-130250000D01*
G36*
X186750000Y-130250000D02*
G01*
X185250000Y-130250000D01*
X186750000Y-128750000D01*
X186750000Y-130250000D01*
G37*
D10*
X197750000Y-142000000D02*
X196500000Y-142750000D01*
X196500000Y-141250000D01*
X197750000Y-142000000D01*
X185250000Y-128750000D02*
X186750000Y-128750000D01*
X186750000Y-130250000D01*
X185250000Y-130250000D01*
X185250000Y-128750000D01*
X154000000Y-116750000D02*
X153000000Y-117250000D01*
X152000000Y-116750000D01*
X153000000Y-116250000D01*
X154000000Y-116750000D01*
X153524435Y-142806028D02*
X152667292Y-142806028D01*
X153095863Y-142806028D02*
X153095863Y-141306028D01*
X153095863Y-141306028D02*
X152953006Y-141520314D01*
X152953006Y-141520314D02*
X152810149Y-141663171D01*
X152810149Y-141663171D02*
X152667292Y-141734600D01*
X174595863Y-141306028D02*
X175524435Y-141306028D01*
X175524435Y-141306028D02*
X175024435Y-141877457D01*
X175024435Y-141877457D02*
X175238720Y-141877457D01*
X175238720Y-141877457D02*
X175381578Y-141948885D01*
X175381578Y-141948885D02*
X175453006Y-142020314D01*
X175453006Y-142020314D02*
X175524435Y-142163171D01*
X175524435Y-142163171D02*
X175524435Y-142520314D01*
X175524435Y-142520314D02*
X175453006Y-142663171D01*
X175453006Y-142663171D02*
X175381578Y-142734600D01*
X175381578Y-142734600D02*
X175238720Y-142806028D01*
X175238720Y-142806028D02*
X174810149Y-142806028D01*
X174810149Y-142806028D02*
X174667292Y-142734600D01*
X174667292Y-142734600D02*
X174595863Y-142663171D01*
D11*
X162540225Y-50129733D02*
X163825939Y-50129733D01*
X163054510Y-49529733D02*
X162540225Y-51329733D01*
X163654510Y-50729733D02*
X162368796Y-50729733D01*
X163140225Y-51329733D02*
X163654510Y-49529733D01*
X164425939Y-51063066D02*
X164425939Y-49663066D01*
X164425939Y-49663066D02*
X165111653Y-49663066D01*
X165111653Y-49663066D02*
X165283082Y-49729733D01*
X165283082Y-49729733D02*
X165368796Y-49796400D01*
X165368796Y-49796400D02*
X165454510Y-49929733D01*
X165454510Y-49929733D02*
X165454510Y-50129733D01*
X165454510Y-50129733D02*
X165368796Y-50263066D01*
X165368796Y-50263066D02*
X165283082Y-50329733D01*
X165283082Y-50329733D02*
X165111653Y-50396400D01*
X165111653Y-50396400D02*
X164425939Y-50396400D01*
X166568796Y-49663066D02*
X166911653Y-49663066D01*
X166911653Y-49663066D02*
X167083082Y-49729733D01*
X167083082Y-49729733D02*
X167254510Y-49863066D01*
X167254510Y-49863066D02*
X167340225Y-50129733D01*
X167340225Y-50129733D02*
X167340225Y-50596400D01*
X167340225Y-50596400D02*
X167254510Y-50863066D01*
X167254510Y-50863066D02*
X167083082Y-50996400D01*
X167083082Y-50996400D02*
X166911653Y-51063066D01*
X166911653Y-51063066D02*
X166568796Y-51063066D01*
X166568796Y-51063066D02*
X166397368Y-50996400D01*
X166397368Y-50996400D02*
X166225939Y-50863066D01*
X166225939Y-50863066D02*
X166140225Y-50596400D01*
X166140225Y-50596400D02*
X166140225Y-50129733D01*
X166140225Y-50129733D02*
X166225939Y-49863066D01*
X166225939Y-49863066D02*
X166397368Y-49729733D01*
X166397368Y-49729733D02*
X166568796Y-49663066D01*
X169054510Y-51063066D02*
X168025939Y-51063066D01*
X168540224Y-51063066D02*
X168540224Y-49663066D01*
X168540224Y-49663066D02*
X168368796Y-49863066D01*
X168368796Y-49863066D02*
X168197367Y-49996400D01*
X168197367Y-49996400D02*
X168025939Y-50063066D01*
X170168796Y-49663066D02*
X170340225Y-49663066D01*
X170340225Y-49663066D02*
X170511653Y-49729733D01*
X170511653Y-49729733D02*
X170597368Y-49796400D01*
X170597368Y-49796400D02*
X170683082Y-49929733D01*
X170683082Y-49929733D02*
X170768796Y-50196400D01*
X170768796Y-50196400D02*
X170768796Y-50529733D01*
X170768796Y-50529733D02*
X170683082Y-50796400D01*
X170683082Y-50796400D02*
X170597368Y-50929733D01*
X170597368Y-50929733D02*
X170511653Y-50996400D01*
X170511653Y-50996400D02*
X170340225Y-51063066D01*
X170340225Y-51063066D02*
X170168796Y-51063066D01*
X170168796Y-51063066D02*
X169997368Y-50996400D01*
X169997368Y-50996400D02*
X169911653Y-50929733D01*
X169911653Y-50929733D02*
X169825939Y-50796400D01*
X169825939Y-50796400D02*
X169740225Y-50529733D01*
X169740225Y-50529733D02*
X169740225Y-50196400D01*
X169740225Y-50196400D02*
X169825939Y-49929733D01*
X169825939Y-49929733D02*
X169911653Y-49796400D01*
X169911653Y-49796400D02*
X169997368Y-49729733D01*
X169997368Y-49729733D02*
X170168796Y-49663066D01*
X171540225Y-51063066D02*
X171540225Y-49663066D01*
X171540225Y-49663066D02*
X171968796Y-49663066D01*
X171968796Y-49663066D02*
X172225939Y-49729733D01*
X172225939Y-49729733D02*
X172397368Y-49863066D01*
X172397368Y-49863066D02*
X172483082Y-49996400D01*
X172483082Y-49996400D02*
X172568796Y-50263066D01*
X172568796Y-50263066D02*
X172568796Y-50463066D01*
X172568796Y-50463066D02*
X172483082Y-50729733D01*
X172483082Y-50729733D02*
X172397368Y-50863066D01*
X172397368Y-50863066D02*
X172225939Y-50996400D01*
X172225939Y-50996400D02*
X171968796Y-51063066D01*
X171968796Y-51063066D02*
X171540225Y-51063066D01*
X173340225Y-51063066D02*
X173340225Y-49663066D01*
X174540225Y-50396400D02*
X174540225Y-51063066D01*
X173940225Y-49663066D02*
X174540225Y-50396400D01*
X174540225Y-50396400D02*
X175140225Y-49663066D01*
X177111654Y-51063066D02*
X177111654Y-49663066D01*
X177111654Y-50196400D02*
X177283083Y-50129733D01*
X177283083Y-50129733D02*
X177625940Y-50129733D01*
X177625940Y-50129733D02*
X177797368Y-50196400D01*
X177797368Y-50196400D02*
X177883083Y-50263066D01*
X177883083Y-50263066D02*
X177968797Y-50396400D01*
X177968797Y-50396400D02*
X177968797Y-50796400D01*
X177968797Y-50796400D02*
X177883083Y-50929733D01*
X177883083Y-50929733D02*
X177797368Y-50996400D01*
X177797368Y-50996400D02*
X177625940Y-51063066D01*
X177625940Y-51063066D02*
X177283083Y-51063066D01*
X177283083Y-51063066D02*
X177111654Y-50996400D01*
X178568796Y-50129733D02*
X178997368Y-51063066D01*
X179425939Y-50129733D02*
X178997368Y-51063066D01*
X178997368Y-51063066D02*
X178825939Y-51396400D01*
X178825939Y-51396400D02*
X178740225Y-51463066D01*
X178740225Y-51463066D02*
X178568796Y-51529733D01*
X182511654Y-51063066D02*
X181911654Y-50396400D01*
X181483083Y-51063066D02*
X181483083Y-49663066D01*
X181483083Y-49663066D02*
X182168797Y-49663066D01*
X182168797Y-49663066D02*
X182340226Y-49729733D01*
X182340226Y-49729733D02*
X182425940Y-49796400D01*
X182425940Y-49796400D02*
X182511654Y-49929733D01*
X182511654Y-49929733D02*
X182511654Y-50129733D01*
X182511654Y-50129733D02*
X182425940Y-50263066D01*
X182425940Y-50263066D02*
X182340226Y-50329733D01*
X182340226Y-50329733D02*
X182168797Y-50396400D01*
X182168797Y-50396400D02*
X181483083Y-50396400D01*
X183283083Y-51063066D02*
X183283083Y-49663066D01*
X183283083Y-49663066D02*
X183883083Y-50663066D01*
X183883083Y-50663066D02*
X184483083Y-49663066D01*
X184483083Y-49663066D02*
X184483083Y-51063066D01*
X185340226Y-51063066D02*
X185340226Y-49663066D01*
X185340226Y-49663066D02*
X186368797Y-51063066D01*
X186368797Y-51063066D02*
X186368797Y-49663066D01*
X187140226Y-50663066D02*
X187997369Y-50663066D01*
X186968797Y-51063066D02*
X187568797Y-49663066D01*
X187568797Y-49663066D02*
X188168797Y-51063066D01*
D10*
X186381578Y-141806028D02*
X186381578Y-142806028D01*
X186024435Y-141234600D02*
X185667292Y-142306028D01*
X185667292Y-142306028D02*
X186595863Y-142306028D01*
X152988720Y-130163171D02*
X153060149Y-130234600D01*
X153060149Y-130234600D02*
X152988720Y-130306028D01*
X152988720Y-130306028D02*
X152917292Y-130234600D01*
X152917292Y-130234600D02*
X152988720Y-130163171D01*
X152988720Y-130163171D02*
X152988720Y-130306028D01*
X152988720Y-129734600D02*
X152917292Y-128877457D01*
X152917292Y-128877457D02*
X152988720Y-128806028D01*
X152988720Y-128806028D02*
X153060149Y-128877457D01*
X153060149Y-128877457D02*
X152988720Y-129734600D01*
X152988720Y-129734600D02*
X152988720Y-128806028D01*
X163667292Y-141448885D02*
X163738720Y-141377457D01*
X163738720Y-141377457D02*
X163881578Y-141306028D01*
X163881578Y-141306028D02*
X164238720Y-141306028D01*
X164238720Y-141306028D02*
X164381578Y-141377457D01*
X164381578Y-141377457D02*
X164453006Y-141448885D01*
X164453006Y-141448885D02*
X164524435Y-141591742D01*
X164524435Y-141591742D02*
X164524435Y-141734600D01*
X164524435Y-141734600D02*
X164453006Y-141948885D01*
X164453006Y-141948885D02*
X163595863Y-142806028D01*
X163595863Y-142806028D02*
X164524435Y-142806028D01*
X164381578Y-153806028D02*
X164095863Y-153806028D01*
X164095863Y-153806028D02*
X163953006Y-153877457D01*
X163953006Y-153877457D02*
X163881578Y-153948885D01*
X163881578Y-153948885D02*
X163738720Y-154163171D01*
X163738720Y-154163171D02*
X163667292Y-154448885D01*
X163667292Y-154448885D02*
X163667292Y-155020314D01*
X163667292Y-155020314D02*
X163738720Y-155163171D01*
X163738720Y-155163171D02*
X163810149Y-155234600D01*
X163810149Y-155234600D02*
X163953006Y-155306028D01*
X163953006Y-155306028D02*
X164238720Y-155306028D01*
X164238720Y-155306028D02*
X164381578Y-155234600D01*
X164381578Y-155234600D02*
X164453006Y-155163171D01*
X164453006Y-155163171D02*
X164524435Y-155020314D01*
X164524435Y-155020314D02*
X164524435Y-154663171D01*
X164524435Y-154663171D02*
X164453006Y-154520314D01*
X164453006Y-154520314D02*
X164381578Y-154448885D01*
X164381578Y-154448885D02*
X164238720Y-154377457D01*
X164238720Y-154377457D02*
X163953006Y-154377457D01*
X163953006Y-154377457D02*
X163810149Y-154448885D01*
X163810149Y-154448885D02*
X163738720Y-154520314D01*
X163738720Y-154520314D02*
X163667292Y-154663171D01*
X174595863Y-153806028D02*
X175595863Y-153806028D01*
X175595863Y-153806028D02*
X174953006Y-155306028D01*
X196488720Y-129464171D02*
X195988720Y-129464171D01*
X195988720Y-130092742D02*
X195988720Y-128892742D01*
X195988720Y-128892742D02*
X196703006Y-128892742D01*
X197131577Y-128892742D02*
X198131577Y-130092742D01*
X198131577Y-128892742D02*
X197131577Y-130092742D01*
X153453006Y-153806028D02*
X152738720Y-153806028D01*
X152738720Y-153806028D02*
X152667292Y-154520314D01*
X152667292Y-154520314D02*
X152738720Y-154448885D01*
X152738720Y-154448885D02*
X152881578Y-154377457D01*
X152881578Y-154377457D02*
X153238720Y-154377457D01*
X153238720Y-154377457D02*
X153381578Y-154448885D01*
X153381578Y-154448885D02*
X153453006Y-154520314D01*
X153453006Y-154520314D02*
X153524435Y-154663171D01*
X153524435Y-154663171D02*
X153524435Y-155020314D01*
X153524435Y-155020314D02*
X153453006Y-155163171D01*
X153453006Y-155163171D02*
X153381578Y-155234600D01*
X153381578Y-155234600D02*
X153238720Y-155306028D01*
X153238720Y-155306028D02*
X152881578Y-155306028D01*
X152881578Y-155306028D02*
X152738720Y-155234600D01*
X152738720Y-155234600D02*
X152667292Y-155163171D01*
D13*
X195343333Y-81454819D02*
X195010000Y-80978628D01*
X194771905Y-81454819D02*
X194771905Y-80454819D01*
X194771905Y-80454819D02*
X195152857Y-80454819D01*
X195152857Y-80454819D02*
X195248095Y-80502438D01*
X195248095Y-80502438D02*
X195295714Y-80550057D01*
X195295714Y-80550057D02*
X195343333Y-80645295D01*
X195343333Y-80645295D02*
X195343333Y-80788152D01*
X195343333Y-80788152D02*
X195295714Y-80883390D01*
X195295714Y-80883390D02*
X195248095Y-80931009D01*
X195248095Y-80931009D02*
X195152857Y-80978628D01*
X195152857Y-80978628D02*
X194771905Y-80978628D01*
X196200476Y-80788152D02*
X196200476Y-81454819D01*
X195962381Y-80407200D02*
X195724286Y-81121485D01*
X195724286Y-81121485D02*
X196343333Y-81121485D01*
X189823333Y-81534819D02*
X189490000Y-81058628D01*
X189251905Y-81534819D02*
X189251905Y-80534819D01*
X189251905Y-80534819D02*
X189632857Y-80534819D01*
X189632857Y-80534819D02*
X189728095Y-80582438D01*
X189728095Y-80582438D02*
X189775714Y-80630057D01*
X189775714Y-80630057D02*
X189823333Y-80725295D01*
X189823333Y-80725295D02*
X189823333Y-80868152D01*
X189823333Y-80868152D02*
X189775714Y-80963390D01*
X189775714Y-80963390D02*
X189728095Y-81011009D01*
X189728095Y-81011009D02*
X189632857Y-81058628D01*
X189632857Y-81058628D02*
X189251905Y-81058628D01*
X190156667Y-80534819D02*
X190775714Y-80534819D01*
X190775714Y-80534819D02*
X190442381Y-80915771D01*
X190442381Y-80915771D02*
X190585238Y-80915771D01*
X190585238Y-80915771D02*
X190680476Y-80963390D01*
X190680476Y-80963390D02*
X190728095Y-81011009D01*
X190728095Y-81011009D02*
X190775714Y-81106247D01*
X190775714Y-81106247D02*
X190775714Y-81344342D01*
X190775714Y-81344342D02*
X190728095Y-81439580D01*
X190728095Y-81439580D02*
X190680476Y-81487200D01*
X190680476Y-81487200D02*
X190585238Y-81534819D01*
X190585238Y-81534819D02*
X190299524Y-81534819D01*
X190299524Y-81534819D02*
X190204286Y-81487200D01*
X190204286Y-81487200D02*
X190156667Y-81439580D01*
X197813333Y-81359580D02*
X197765714Y-81407200D01*
X197765714Y-81407200D02*
X197622857Y-81454819D01*
X197622857Y-81454819D02*
X197527619Y-81454819D01*
X197527619Y-81454819D02*
X197384762Y-81407200D01*
X197384762Y-81407200D02*
X197289524Y-81311961D01*
X197289524Y-81311961D02*
X197241905Y-81216723D01*
X197241905Y-81216723D02*
X197194286Y-81026247D01*
X197194286Y-81026247D02*
X197194286Y-80883390D01*
X197194286Y-80883390D02*
X197241905Y-80692914D01*
X197241905Y-80692914D02*
X197289524Y-80597676D01*
X197289524Y-80597676D02*
X197384762Y-80502438D01*
X197384762Y-80502438D02*
X197527619Y-80454819D01*
X197527619Y-80454819D02*
X197622857Y-80454819D01*
X197622857Y-80454819D02*
X197765714Y-80502438D01*
X197765714Y-80502438D02*
X197813333Y-80550057D01*
X198194286Y-80550057D02*
X198241905Y-80502438D01*
X198241905Y-80502438D02*
X198337143Y-80454819D01*
X198337143Y-80454819D02*
X198575238Y-80454819D01*
X198575238Y-80454819D02*
X198670476Y-80502438D01*
X198670476Y-80502438D02*
X198718095Y-80550057D01*
X198718095Y-80550057D02*
X198765714Y-80645295D01*
X198765714Y-80645295D02*
X198765714Y-80740533D01*
X198765714Y-80740533D02*
X198718095Y-80883390D01*
X198718095Y-80883390D02*
X198146667Y-81454819D01*
X198146667Y-81454819D02*
X198765714Y-81454819D01*
X192543333Y-81359580D02*
X192495714Y-81407200D01*
X192495714Y-81407200D02*
X192352857Y-81454819D01*
X192352857Y-81454819D02*
X192257619Y-81454819D01*
X192257619Y-81454819D02*
X192114762Y-81407200D01*
X192114762Y-81407200D02*
X192019524Y-81311961D01*
X192019524Y-81311961D02*
X191971905Y-81216723D01*
X191971905Y-81216723D02*
X191924286Y-81026247D01*
X191924286Y-81026247D02*
X191924286Y-80883390D01*
X191924286Y-80883390D02*
X191971905Y-80692914D01*
X191971905Y-80692914D02*
X192019524Y-80597676D01*
X192019524Y-80597676D02*
X192114762Y-80502438D01*
X192114762Y-80502438D02*
X192257619Y-80454819D01*
X192257619Y-80454819D02*
X192352857Y-80454819D01*
X192352857Y-80454819D02*
X192495714Y-80502438D01*
X192495714Y-80502438D02*
X192543333Y-80550057D01*
X193495714Y-81454819D02*
X192924286Y-81454819D01*
X193210000Y-81454819D02*
X193210000Y-80454819D01*
X193210000Y-80454819D02*
X193114762Y-80597676D01*
X193114762Y-80597676D02*
X193019524Y-80692914D01*
X193019524Y-80692914D02*
X192924286Y-80740533D01*
X178885714Y-88954819D02*
X178885714Y-87954819D01*
X178885714Y-87954819D02*
X179123809Y-87954819D01*
X179123809Y-87954819D02*
X179266666Y-88002438D01*
X179266666Y-88002438D02*
X179361904Y-88097676D01*
X179361904Y-88097676D02*
X179409523Y-88192914D01*
X179409523Y-88192914D02*
X179457142Y-88383390D01*
X179457142Y-88383390D02*
X179457142Y-88526247D01*
X179457142Y-88526247D02*
X179409523Y-88716723D01*
X179409523Y-88716723D02*
X179361904Y-88811961D01*
X179361904Y-88811961D02*
X179266666Y-88907200D01*
X179266666Y-88907200D02*
X179123809Y-88954819D01*
X179123809Y-88954819D02*
X178885714Y-88954819D01*
X179838095Y-88050057D02*
X179885714Y-88002438D01*
X179885714Y-88002438D02*
X179980952Y-87954819D01*
X179980952Y-87954819D02*
X180219047Y-87954819D01*
X180219047Y-87954819D02*
X180314285Y-88002438D01*
X180314285Y-88002438D02*
X180361904Y-88050057D01*
X180361904Y-88050057D02*
X180409523Y-88145295D01*
X180409523Y-88145295D02*
X180409523Y-88240533D01*
X180409523Y-88240533D02*
X180361904Y-88383390D01*
X180361904Y-88383390D02*
X179790476Y-88954819D01*
X179790476Y-88954819D02*
X180409523Y-88954819D01*
X181266666Y-88288152D02*
X181266666Y-88954819D01*
X181028571Y-87907200D02*
X180790476Y-88621485D01*
X180790476Y-88621485D02*
X181409523Y-88621485D01*
X193885714Y-84954819D02*
X193885714Y-83954819D01*
X193885714Y-83954819D02*
X194123809Y-83954819D01*
X194123809Y-83954819D02*
X194266666Y-84002438D01*
X194266666Y-84002438D02*
X194361904Y-84097676D01*
X194361904Y-84097676D02*
X194409523Y-84192914D01*
X194409523Y-84192914D02*
X194457142Y-84383390D01*
X194457142Y-84383390D02*
X194457142Y-84526247D01*
X194457142Y-84526247D02*
X194409523Y-84716723D01*
X194409523Y-84716723D02*
X194361904Y-84811961D01*
X194361904Y-84811961D02*
X194266666Y-84907200D01*
X194266666Y-84907200D02*
X194123809Y-84954819D01*
X194123809Y-84954819D02*
X193885714Y-84954819D01*
X194838095Y-84050057D02*
X194885714Y-84002438D01*
X194885714Y-84002438D02*
X194980952Y-83954819D01*
X194980952Y-83954819D02*
X195219047Y-83954819D01*
X195219047Y-83954819D02*
X195314285Y-84002438D01*
X195314285Y-84002438D02*
X195361904Y-84050057D01*
X195361904Y-84050057D02*
X195409523Y-84145295D01*
X195409523Y-84145295D02*
X195409523Y-84240533D01*
X195409523Y-84240533D02*
X195361904Y-84383390D01*
X195361904Y-84383390D02*
X194790476Y-84954819D01*
X194790476Y-84954819D02*
X195409523Y-84954819D01*
X196361904Y-84954819D02*
X195790476Y-84954819D01*
X196076190Y-84954819D02*
X196076190Y-83954819D01*
X196076190Y-83954819D02*
X195980952Y-84097676D01*
X195980952Y-84097676D02*
X195885714Y-84192914D01*
X195885714Y-84192914D02*
X195790476Y-84240533D01*
X171385714Y-92954819D02*
X171385714Y-91954819D01*
X171385714Y-91954819D02*
X171623809Y-91954819D01*
X171623809Y-91954819D02*
X171766666Y-92002438D01*
X171766666Y-92002438D02*
X171861904Y-92097676D01*
X171861904Y-92097676D02*
X171909523Y-92192914D01*
X171909523Y-92192914D02*
X171957142Y-92383390D01*
X171957142Y-92383390D02*
X171957142Y-92526247D01*
X171957142Y-92526247D02*
X171909523Y-92716723D01*
X171909523Y-92716723D02*
X171861904Y-92811961D01*
X171861904Y-92811961D02*
X171766666Y-92907200D01*
X171766666Y-92907200D02*
X171623809Y-92954819D01*
X171623809Y-92954819D02*
X171385714Y-92954819D01*
X172338095Y-92050057D02*
X172385714Y-92002438D01*
X172385714Y-92002438D02*
X172480952Y-91954819D01*
X172480952Y-91954819D02*
X172719047Y-91954819D01*
X172719047Y-91954819D02*
X172814285Y-92002438D01*
X172814285Y-92002438D02*
X172861904Y-92050057D01*
X172861904Y-92050057D02*
X172909523Y-92145295D01*
X172909523Y-92145295D02*
X172909523Y-92240533D01*
X172909523Y-92240533D02*
X172861904Y-92383390D01*
X172861904Y-92383390D02*
X172290476Y-92954819D01*
X172290476Y-92954819D02*
X172909523Y-92954819D01*
X173480952Y-92383390D02*
X173385714Y-92335771D01*
X173385714Y-92335771D02*
X173338095Y-92288152D01*
X173338095Y-92288152D02*
X173290476Y-92192914D01*
X173290476Y-92192914D02*
X173290476Y-92145295D01*
X173290476Y-92145295D02*
X173338095Y-92050057D01*
X173338095Y-92050057D02*
X173385714Y-92002438D01*
X173385714Y-92002438D02*
X173480952Y-91954819D01*
X173480952Y-91954819D02*
X173671428Y-91954819D01*
X173671428Y-91954819D02*
X173766666Y-92002438D01*
X173766666Y-92002438D02*
X173814285Y-92050057D01*
X173814285Y-92050057D02*
X173861904Y-92145295D01*
X173861904Y-92145295D02*
X173861904Y-92192914D01*
X173861904Y-92192914D02*
X173814285Y-92288152D01*
X173814285Y-92288152D02*
X173766666Y-92335771D01*
X173766666Y-92335771D02*
X173671428Y-92383390D01*
X173671428Y-92383390D02*
X173480952Y-92383390D01*
X173480952Y-92383390D02*
X173385714Y-92431009D01*
X173385714Y-92431009D02*
X173338095Y-92478628D01*
X173338095Y-92478628D02*
X173290476Y-92573866D01*
X173290476Y-92573866D02*
X173290476Y-92764342D01*
X173290476Y-92764342D02*
X173338095Y-92859580D01*
X173338095Y-92859580D02*
X173385714Y-92907200D01*
X173385714Y-92907200D02*
X173480952Y-92954819D01*
X173480952Y-92954819D02*
X173671428Y-92954819D01*
X173671428Y-92954819D02*
X173766666Y-92907200D01*
X173766666Y-92907200D02*
X173814285Y-92859580D01*
X173814285Y-92859580D02*
X173861904Y-92764342D01*
X173861904Y-92764342D02*
X173861904Y-92573866D01*
X173861904Y-92573866D02*
X173814285Y-92478628D01*
X173814285Y-92478628D02*
X173766666Y-92431009D01*
X173766666Y-92431009D02*
X173671428Y-92383390D01*
X171385714Y-80954819D02*
X171385714Y-79954819D01*
X171385714Y-79954819D02*
X171623809Y-79954819D01*
X171623809Y-79954819D02*
X171766666Y-80002438D01*
X171766666Y-80002438D02*
X171861904Y-80097676D01*
X171861904Y-80097676D02*
X171909523Y-80192914D01*
X171909523Y-80192914D02*
X171957142Y-80383390D01*
X171957142Y-80383390D02*
X171957142Y-80526247D01*
X171957142Y-80526247D02*
X171909523Y-80716723D01*
X171909523Y-80716723D02*
X171861904Y-80811961D01*
X171861904Y-80811961D02*
X171766666Y-80907200D01*
X171766666Y-80907200D02*
X171623809Y-80954819D01*
X171623809Y-80954819D02*
X171385714Y-80954819D01*
X172909523Y-80954819D02*
X172338095Y-80954819D01*
X172623809Y-80954819D02*
X172623809Y-79954819D01*
X172623809Y-79954819D02*
X172528571Y-80097676D01*
X172528571Y-80097676D02*
X172433333Y-80192914D01*
X172433333Y-80192914D02*
X172338095Y-80240533D01*
X173814285Y-79954819D02*
X173338095Y-79954819D01*
X173338095Y-79954819D02*
X173290476Y-80431009D01*
X173290476Y-80431009D02*
X173338095Y-80383390D01*
X173338095Y-80383390D02*
X173433333Y-80335771D01*
X173433333Y-80335771D02*
X173671428Y-80335771D01*
X173671428Y-80335771D02*
X173766666Y-80383390D01*
X173766666Y-80383390D02*
X173814285Y-80431009D01*
X173814285Y-80431009D02*
X173861904Y-80526247D01*
X173861904Y-80526247D02*
X173861904Y-80764342D01*
X173861904Y-80764342D02*
X173814285Y-80859580D01*
X173814285Y-80859580D02*
X173766666Y-80907200D01*
X173766666Y-80907200D02*
X173671428Y-80954819D01*
X173671428Y-80954819D02*
X173433333Y-80954819D01*
X173433333Y-80954819D02*
X173338095Y-80907200D01*
X173338095Y-80907200D02*
X173290476Y-80859580D01*
X193885714Y-88954819D02*
X193885714Y-87954819D01*
X193885714Y-87954819D02*
X194123809Y-87954819D01*
X194123809Y-87954819D02*
X194266666Y-88002438D01*
X194266666Y-88002438D02*
X194361904Y-88097676D01*
X194361904Y-88097676D02*
X194409523Y-88192914D01*
X194409523Y-88192914D02*
X194457142Y-88383390D01*
X194457142Y-88383390D02*
X194457142Y-88526247D01*
X194457142Y-88526247D02*
X194409523Y-88716723D01*
X194409523Y-88716723D02*
X194361904Y-88811961D01*
X194361904Y-88811961D02*
X194266666Y-88907200D01*
X194266666Y-88907200D02*
X194123809Y-88954819D01*
X194123809Y-88954819D02*
X193885714Y-88954819D01*
X194838095Y-88050057D02*
X194885714Y-88002438D01*
X194885714Y-88002438D02*
X194980952Y-87954819D01*
X194980952Y-87954819D02*
X195219047Y-87954819D01*
X195219047Y-87954819D02*
X195314285Y-88002438D01*
X195314285Y-88002438D02*
X195361904Y-88050057D01*
X195361904Y-88050057D02*
X195409523Y-88145295D01*
X195409523Y-88145295D02*
X195409523Y-88240533D01*
X195409523Y-88240533D02*
X195361904Y-88383390D01*
X195361904Y-88383390D02*
X194790476Y-88954819D01*
X194790476Y-88954819D02*
X195409523Y-88954819D01*
X196266666Y-87954819D02*
X196076190Y-87954819D01*
X196076190Y-87954819D02*
X195980952Y-88002438D01*
X195980952Y-88002438D02*
X195933333Y-88050057D01*
X195933333Y-88050057D02*
X195838095Y-88192914D01*
X195838095Y-88192914D02*
X195790476Y-88383390D01*
X195790476Y-88383390D02*
X195790476Y-88764342D01*
X195790476Y-88764342D02*
X195838095Y-88859580D01*
X195838095Y-88859580D02*
X195885714Y-88907200D01*
X195885714Y-88907200D02*
X195980952Y-88954819D01*
X195980952Y-88954819D02*
X196171428Y-88954819D01*
X196171428Y-88954819D02*
X196266666Y-88907200D01*
X196266666Y-88907200D02*
X196314285Y-88859580D01*
X196314285Y-88859580D02*
X196361904Y-88764342D01*
X196361904Y-88764342D02*
X196361904Y-88526247D01*
X196361904Y-88526247D02*
X196314285Y-88431009D01*
X196314285Y-88431009D02*
X196266666Y-88383390D01*
X196266666Y-88383390D02*
X196171428Y-88335771D01*
X196171428Y-88335771D02*
X195980952Y-88335771D01*
X195980952Y-88335771D02*
X195885714Y-88383390D01*
X195885714Y-88383390D02*
X195838095Y-88431009D01*
X195838095Y-88431009D02*
X195790476Y-88526247D01*
X186385714Y-92954819D02*
X186385714Y-91954819D01*
X186385714Y-91954819D02*
X186623809Y-91954819D01*
X186623809Y-91954819D02*
X186766666Y-92002438D01*
X186766666Y-92002438D02*
X186861904Y-92097676D01*
X186861904Y-92097676D02*
X186909523Y-92192914D01*
X186909523Y-92192914D02*
X186957142Y-92383390D01*
X186957142Y-92383390D02*
X186957142Y-92526247D01*
X186957142Y-92526247D02*
X186909523Y-92716723D01*
X186909523Y-92716723D02*
X186861904Y-92811961D01*
X186861904Y-92811961D02*
X186766666Y-92907200D01*
X186766666Y-92907200D02*
X186623809Y-92954819D01*
X186623809Y-92954819D02*
X186385714Y-92954819D01*
X187290476Y-91954819D02*
X187909523Y-91954819D01*
X187909523Y-91954819D02*
X187576190Y-92335771D01*
X187576190Y-92335771D02*
X187719047Y-92335771D01*
X187719047Y-92335771D02*
X187814285Y-92383390D01*
X187814285Y-92383390D02*
X187861904Y-92431009D01*
X187861904Y-92431009D02*
X187909523Y-92526247D01*
X187909523Y-92526247D02*
X187909523Y-92764342D01*
X187909523Y-92764342D02*
X187861904Y-92859580D01*
X187861904Y-92859580D02*
X187814285Y-92907200D01*
X187814285Y-92907200D02*
X187719047Y-92954819D01*
X187719047Y-92954819D02*
X187433333Y-92954819D01*
X187433333Y-92954819D02*
X187338095Y-92907200D01*
X187338095Y-92907200D02*
X187290476Y-92859580D01*
X188528571Y-91954819D02*
X188623809Y-91954819D01*
X188623809Y-91954819D02*
X188719047Y-92002438D01*
X188719047Y-92002438D02*
X188766666Y-92050057D01*
X188766666Y-92050057D02*
X188814285Y-92145295D01*
X188814285Y-92145295D02*
X188861904Y-92335771D01*
X188861904Y-92335771D02*
X188861904Y-92573866D01*
X188861904Y-92573866D02*
X188814285Y-92764342D01*
X188814285Y-92764342D02*
X188766666Y-92859580D01*
X188766666Y-92859580D02*
X188719047Y-92907200D01*
X188719047Y-92907200D02*
X188623809Y-92954819D01*
X188623809Y-92954819D02*
X188528571Y-92954819D01*
X188528571Y-92954819D02*
X188433333Y-92907200D01*
X188433333Y-92907200D02*
X188385714Y-92859580D01*
X188385714Y-92859580D02*
X188338095Y-92764342D01*
X188338095Y-92764342D02*
X188290476Y-92573866D01*
X188290476Y-92573866D02*
X188290476Y-92335771D01*
X188290476Y-92335771D02*
X188338095Y-92145295D01*
X188338095Y-92145295D02*
X188385714Y-92050057D01*
X188385714Y-92050057D02*
X188433333Y-92002438D01*
X188433333Y-92002438D02*
X188528571Y-91954819D01*
X171385714Y-84954819D02*
X171385714Y-83954819D01*
X171385714Y-83954819D02*
X171623809Y-83954819D01*
X171623809Y-83954819D02*
X171766666Y-84002438D01*
X171766666Y-84002438D02*
X171861904Y-84097676D01*
X171861904Y-84097676D02*
X171909523Y-84192914D01*
X171909523Y-84192914D02*
X171957142Y-84383390D01*
X171957142Y-84383390D02*
X171957142Y-84526247D01*
X171957142Y-84526247D02*
X171909523Y-84716723D01*
X171909523Y-84716723D02*
X171861904Y-84811961D01*
X171861904Y-84811961D02*
X171766666Y-84907200D01*
X171766666Y-84907200D02*
X171623809Y-84954819D01*
X171623809Y-84954819D02*
X171385714Y-84954819D01*
X172909523Y-84954819D02*
X172338095Y-84954819D01*
X172623809Y-84954819D02*
X172623809Y-83954819D01*
X172623809Y-83954819D02*
X172528571Y-84097676D01*
X172528571Y-84097676D02*
X172433333Y-84192914D01*
X172433333Y-84192914D02*
X172338095Y-84240533D01*
X173480952Y-84383390D02*
X173385714Y-84335771D01*
X173385714Y-84335771D02*
X173338095Y-84288152D01*
X173338095Y-84288152D02*
X173290476Y-84192914D01*
X173290476Y-84192914D02*
X173290476Y-84145295D01*
X173290476Y-84145295D02*
X173338095Y-84050057D01*
X173338095Y-84050057D02*
X173385714Y-84002438D01*
X173385714Y-84002438D02*
X173480952Y-83954819D01*
X173480952Y-83954819D02*
X173671428Y-83954819D01*
X173671428Y-83954819D02*
X173766666Y-84002438D01*
X173766666Y-84002438D02*
X173814285Y-84050057D01*
X173814285Y-84050057D02*
X173861904Y-84145295D01*
X173861904Y-84145295D02*
X173861904Y-84192914D01*
X173861904Y-84192914D02*
X173814285Y-84288152D01*
X173814285Y-84288152D02*
X173766666Y-84335771D01*
X173766666Y-84335771D02*
X173671428Y-84383390D01*
X173671428Y-84383390D02*
X173480952Y-84383390D01*
X173480952Y-84383390D02*
X173385714Y-84431009D01*
X173385714Y-84431009D02*
X173338095Y-84478628D01*
X173338095Y-84478628D02*
X173290476Y-84573866D01*
X173290476Y-84573866D02*
X173290476Y-84764342D01*
X173290476Y-84764342D02*
X173338095Y-84859580D01*
X173338095Y-84859580D02*
X173385714Y-84907200D01*
X173385714Y-84907200D02*
X173480952Y-84954819D01*
X173480952Y-84954819D02*
X173671428Y-84954819D01*
X173671428Y-84954819D02*
X173766666Y-84907200D01*
X173766666Y-84907200D02*
X173814285Y-84859580D01*
X173814285Y-84859580D02*
X173861904Y-84764342D01*
X173861904Y-84764342D02*
X173861904Y-84573866D01*
X173861904Y-84573866D02*
X173814285Y-84478628D01*
X173814285Y-84478628D02*
X173766666Y-84431009D01*
X173766666Y-84431009D02*
X173671428Y-84383390D01*
X154593333Y-64624819D02*
X154260000Y-64148628D01*
X154021905Y-64624819D02*
X154021905Y-63624819D01*
X154021905Y-63624819D02*
X154402857Y-63624819D01*
X154402857Y-63624819D02*
X154498095Y-63672438D01*
X154498095Y-63672438D02*
X154545714Y-63720057D01*
X154545714Y-63720057D02*
X154593333Y-63815295D01*
X154593333Y-63815295D02*
X154593333Y-63958152D01*
X154593333Y-63958152D02*
X154545714Y-64053390D01*
X154545714Y-64053390D02*
X154498095Y-64101009D01*
X154498095Y-64101009D02*
X154402857Y-64148628D01*
X154402857Y-64148628D02*
X154021905Y-64148628D01*
X155545714Y-64624819D02*
X154974286Y-64624819D01*
X155260000Y-64624819D02*
X155260000Y-63624819D01*
X155260000Y-63624819D02*
X155164762Y-63767676D01*
X155164762Y-63767676D02*
X155069524Y-63862914D01*
X155069524Y-63862914D02*
X154974286Y-63910533D01*
X163885714Y-92954819D02*
X163885714Y-91954819D01*
X163885714Y-91954819D02*
X164123809Y-91954819D01*
X164123809Y-91954819D02*
X164266666Y-92002438D01*
X164266666Y-92002438D02*
X164361904Y-92097676D01*
X164361904Y-92097676D02*
X164409523Y-92192914D01*
X164409523Y-92192914D02*
X164457142Y-92383390D01*
X164457142Y-92383390D02*
X164457142Y-92526247D01*
X164457142Y-92526247D02*
X164409523Y-92716723D01*
X164409523Y-92716723D02*
X164361904Y-92811961D01*
X164361904Y-92811961D02*
X164266666Y-92907200D01*
X164266666Y-92907200D02*
X164123809Y-92954819D01*
X164123809Y-92954819D02*
X163885714Y-92954819D01*
X164838095Y-92050057D02*
X164885714Y-92002438D01*
X164885714Y-92002438D02*
X164980952Y-91954819D01*
X164980952Y-91954819D02*
X165219047Y-91954819D01*
X165219047Y-91954819D02*
X165314285Y-92002438D01*
X165314285Y-92002438D02*
X165361904Y-92050057D01*
X165361904Y-92050057D02*
X165409523Y-92145295D01*
X165409523Y-92145295D02*
X165409523Y-92240533D01*
X165409523Y-92240533D02*
X165361904Y-92383390D01*
X165361904Y-92383390D02*
X164790476Y-92954819D01*
X164790476Y-92954819D02*
X165409523Y-92954819D01*
X165742857Y-91954819D02*
X166409523Y-91954819D01*
X166409523Y-91954819D02*
X165980952Y-92954819D01*
X178885714Y-80954819D02*
X178885714Y-79954819D01*
X178885714Y-79954819D02*
X179123809Y-79954819D01*
X179123809Y-79954819D02*
X179266666Y-80002438D01*
X179266666Y-80002438D02*
X179361904Y-80097676D01*
X179361904Y-80097676D02*
X179409523Y-80192914D01*
X179409523Y-80192914D02*
X179457142Y-80383390D01*
X179457142Y-80383390D02*
X179457142Y-80526247D01*
X179457142Y-80526247D02*
X179409523Y-80716723D01*
X179409523Y-80716723D02*
X179361904Y-80811961D01*
X179361904Y-80811961D02*
X179266666Y-80907200D01*
X179266666Y-80907200D02*
X179123809Y-80954819D01*
X179123809Y-80954819D02*
X178885714Y-80954819D01*
X180409523Y-80954819D02*
X179838095Y-80954819D01*
X180123809Y-80954819D02*
X180123809Y-79954819D01*
X180123809Y-79954819D02*
X180028571Y-80097676D01*
X180028571Y-80097676D02*
X179933333Y-80192914D01*
X179933333Y-80192914D02*
X179838095Y-80240533D01*
X181266666Y-79954819D02*
X181076190Y-79954819D01*
X181076190Y-79954819D02*
X180980952Y-80002438D01*
X180980952Y-80002438D02*
X180933333Y-80050057D01*
X180933333Y-80050057D02*
X180838095Y-80192914D01*
X180838095Y-80192914D02*
X180790476Y-80383390D01*
X180790476Y-80383390D02*
X180790476Y-80764342D01*
X180790476Y-80764342D02*
X180838095Y-80859580D01*
X180838095Y-80859580D02*
X180885714Y-80907200D01*
X180885714Y-80907200D02*
X180980952Y-80954819D01*
X180980952Y-80954819D02*
X181171428Y-80954819D01*
X181171428Y-80954819D02*
X181266666Y-80907200D01*
X181266666Y-80907200D02*
X181314285Y-80859580D01*
X181314285Y-80859580D02*
X181361904Y-80764342D01*
X181361904Y-80764342D02*
X181361904Y-80526247D01*
X181361904Y-80526247D02*
X181314285Y-80431009D01*
X181314285Y-80431009D02*
X181266666Y-80383390D01*
X181266666Y-80383390D02*
X181171428Y-80335771D01*
X181171428Y-80335771D02*
X180980952Y-80335771D01*
X180980952Y-80335771D02*
X180885714Y-80383390D01*
X180885714Y-80383390D02*
X180838095Y-80431009D01*
X180838095Y-80431009D02*
X180790476Y-80526247D01*
X186385714Y-84954819D02*
X186385714Y-83954819D01*
X186385714Y-83954819D02*
X186623809Y-83954819D01*
X186623809Y-83954819D02*
X186766666Y-84002438D01*
X186766666Y-84002438D02*
X186861904Y-84097676D01*
X186861904Y-84097676D02*
X186909523Y-84192914D01*
X186909523Y-84192914D02*
X186957142Y-84383390D01*
X186957142Y-84383390D02*
X186957142Y-84526247D01*
X186957142Y-84526247D02*
X186909523Y-84716723D01*
X186909523Y-84716723D02*
X186861904Y-84811961D01*
X186861904Y-84811961D02*
X186766666Y-84907200D01*
X186766666Y-84907200D02*
X186623809Y-84954819D01*
X186623809Y-84954819D02*
X186385714Y-84954819D01*
X187338095Y-84050057D02*
X187385714Y-84002438D01*
X187385714Y-84002438D02*
X187480952Y-83954819D01*
X187480952Y-83954819D02*
X187719047Y-83954819D01*
X187719047Y-83954819D02*
X187814285Y-84002438D01*
X187814285Y-84002438D02*
X187861904Y-84050057D01*
X187861904Y-84050057D02*
X187909523Y-84145295D01*
X187909523Y-84145295D02*
X187909523Y-84240533D01*
X187909523Y-84240533D02*
X187861904Y-84383390D01*
X187861904Y-84383390D02*
X187290476Y-84954819D01*
X187290476Y-84954819D02*
X187909523Y-84954819D01*
X188528571Y-83954819D02*
X188623809Y-83954819D01*
X188623809Y-83954819D02*
X188719047Y-84002438D01*
X188719047Y-84002438D02*
X188766666Y-84050057D01*
X188766666Y-84050057D02*
X188814285Y-84145295D01*
X188814285Y-84145295D02*
X188861904Y-84335771D01*
X188861904Y-84335771D02*
X188861904Y-84573866D01*
X188861904Y-84573866D02*
X188814285Y-84764342D01*
X188814285Y-84764342D02*
X188766666Y-84859580D01*
X188766666Y-84859580D02*
X188719047Y-84907200D01*
X188719047Y-84907200D02*
X188623809Y-84954819D01*
X188623809Y-84954819D02*
X188528571Y-84954819D01*
X188528571Y-84954819D02*
X188433333Y-84907200D01*
X188433333Y-84907200D02*
X188385714Y-84859580D01*
X188385714Y-84859580D02*
X188338095Y-84764342D01*
X188338095Y-84764342D02*
X188290476Y-84573866D01*
X188290476Y-84573866D02*
X188290476Y-84335771D01*
X188290476Y-84335771D02*
X188338095Y-84145295D01*
X188338095Y-84145295D02*
X188385714Y-84050057D01*
X188385714Y-84050057D02*
X188433333Y-84002438D01*
X188433333Y-84002438D02*
X188528571Y-83954819D01*
X186385714Y-88954819D02*
X186385714Y-87954819D01*
X186385714Y-87954819D02*
X186623809Y-87954819D01*
X186623809Y-87954819D02*
X186766666Y-88002438D01*
X186766666Y-88002438D02*
X186861904Y-88097676D01*
X186861904Y-88097676D02*
X186909523Y-88192914D01*
X186909523Y-88192914D02*
X186957142Y-88383390D01*
X186957142Y-88383390D02*
X186957142Y-88526247D01*
X186957142Y-88526247D02*
X186909523Y-88716723D01*
X186909523Y-88716723D02*
X186861904Y-88811961D01*
X186861904Y-88811961D02*
X186766666Y-88907200D01*
X186766666Y-88907200D02*
X186623809Y-88954819D01*
X186623809Y-88954819D02*
X186385714Y-88954819D01*
X187338095Y-88050057D02*
X187385714Y-88002438D01*
X187385714Y-88002438D02*
X187480952Y-87954819D01*
X187480952Y-87954819D02*
X187719047Y-87954819D01*
X187719047Y-87954819D02*
X187814285Y-88002438D01*
X187814285Y-88002438D02*
X187861904Y-88050057D01*
X187861904Y-88050057D02*
X187909523Y-88145295D01*
X187909523Y-88145295D02*
X187909523Y-88240533D01*
X187909523Y-88240533D02*
X187861904Y-88383390D01*
X187861904Y-88383390D02*
X187290476Y-88954819D01*
X187290476Y-88954819D02*
X187909523Y-88954819D01*
X188814285Y-87954819D02*
X188338095Y-87954819D01*
X188338095Y-87954819D02*
X188290476Y-88431009D01*
X188290476Y-88431009D02*
X188338095Y-88383390D01*
X188338095Y-88383390D02*
X188433333Y-88335771D01*
X188433333Y-88335771D02*
X188671428Y-88335771D01*
X188671428Y-88335771D02*
X188766666Y-88383390D01*
X188766666Y-88383390D02*
X188814285Y-88431009D01*
X188814285Y-88431009D02*
X188861904Y-88526247D01*
X188861904Y-88526247D02*
X188861904Y-88764342D01*
X188861904Y-88764342D02*
X188814285Y-88859580D01*
X188814285Y-88859580D02*
X188766666Y-88907200D01*
X188766666Y-88907200D02*
X188671428Y-88954819D01*
X188671428Y-88954819D02*
X188433333Y-88954819D01*
X188433333Y-88954819D02*
X188338095Y-88907200D01*
X188338095Y-88907200D02*
X188290476Y-88859580D01*
X171385714Y-88954819D02*
X171385714Y-87954819D01*
X171385714Y-87954819D02*
X171623809Y-87954819D01*
X171623809Y-87954819D02*
X171766666Y-88002438D01*
X171766666Y-88002438D02*
X171861904Y-88097676D01*
X171861904Y-88097676D02*
X171909523Y-88192914D01*
X171909523Y-88192914D02*
X171957142Y-88383390D01*
X171957142Y-88383390D02*
X171957142Y-88526247D01*
X171957142Y-88526247D02*
X171909523Y-88716723D01*
X171909523Y-88716723D02*
X171861904Y-88811961D01*
X171861904Y-88811961D02*
X171766666Y-88907200D01*
X171766666Y-88907200D02*
X171623809Y-88954819D01*
X171623809Y-88954819D02*
X171385714Y-88954819D01*
X172338095Y-88050057D02*
X172385714Y-88002438D01*
X172385714Y-88002438D02*
X172480952Y-87954819D01*
X172480952Y-87954819D02*
X172719047Y-87954819D01*
X172719047Y-87954819D02*
X172814285Y-88002438D01*
X172814285Y-88002438D02*
X172861904Y-88050057D01*
X172861904Y-88050057D02*
X172909523Y-88145295D01*
X172909523Y-88145295D02*
X172909523Y-88240533D01*
X172909523Y-88240533D02*
X172861904Y-88383390D01*
X172861904Y-88383390D02*
X172290476Y-88954819D01*
X172290476Y-88954819D02*
X172909523Y-88954819D01*
X173242857Y-87954819D02*
X173861904Y-87954819D01*
X173861904Y-87954819D02*
X173528571Y-88335771D01*
X173528571Y-88335771D02*
X173671428Y-88335771D01*
X173671428Y-88335771D02*
X173766666Y-88383390D01*
X173766666Y-88383390D02*
X173814285Y-88431009D01*
X173814285Y-88431009D02*
X173861904Y-88526247D01*
X173861904Y-88526247D02*
X173861904Y-88764342D01*
X173861904Y-88764342D02*
X173814285Y-88859580D01*
X173814285Y-88859580D02*
X173766666Y-88907200D01*
X173766666Y-88907200D02*
X173671428Y-88954819D01*
X173671428Y-88954819D02*
X173385714Y-88954819D01*
X173385714Y-88954819D02*
X173290476Y-88907200D01*
X173290476Y-88907200D02*
X173242857Y-88859580D01*
X178885714Y-92954819D02*
X178885714Y-91954819D01*
X178885714Y-91954819D02*
X179123809Y-91954819D01*
X179123809Y-91954819D02*
X179266666Y-92002438D01*
X179266666Y-92002438D02*
X179361904Y-92097676D01*
X179361904Y-92097676D02*
X179409523Y-92192914D01*
X179409523Y-92192914D02*
X179457142Y-92383390D01*
X179457142Y-92383390D02*
X179457142Y-92526247D01*
X179457142Y-92526247D02*
X179409523Y-92716723D01*
X179409523Y-92716723D02*
X179361904Y-92811961D01*
X179361904Y-92811961D02*
X179266666Y-92907200D01*
X179266666Y-92907200D02*
X179123809Y-92954819D01*
X179123809Y-92954819D02*
X178885714Y-92954819D01*
X179838095Y-92050057D02*
X179885714Y-92002438D01*
X179885714Y-92002438D02*
X179980952Y-91954819D01*
X179980952Y-91954819D02*
X180219047Y-91954819D01*
X180219047Y-91954819D02*
X180314285Y-92002438D01*
X180314285Y-92002438D02*
X180361904Y-92050057D01*
X180361904Y-92050057D02*
X180409523Y-92145295D01*
X180409523Y-92145295D02*
X180409523Y-92240533D01*
X180409523Y-92240533D02*
X180361904Y-92383390D01*
X180361904Y-92383390D02*
X179790476Y-92954819D01*
X179790476Y-92954819D02*
X180409523Y-92954819D01*
X180885714Y-92954819D02*
X181076190Y-92954819D01*
X181076190Y-92954819D02*
X181171428Y-92907200D01*
X181171428Y-92907200D02*
X181219047Y-92859580D01*
X181219047Y-92859580D02*
X181314285Y-92716723D01*
X181314285Y-92716723D02*
X181361904Y-92526247D01*
X181361904Y-92526247D02*
X181361904Y-92145295D01*
X181361904Y-92145295D02*
X181314285Y-92050057D01*
X181314285Y-92050057D02*
X181266666Y-92002438D01*
X181266666Y-92002438D02*
X181171428Y-91954819D01*
X181171428Y-91954819D02*
X180980952Y-91954819D01*
X180980952Y-91954819D02*
X180885714Y-92002438D01*
X180885714Y-92002438D02*
X180838095Y-92050057D01*
X180838095Y-92050057D02*
X180790476Y-92145295D01*
X180790476Y-92145295D02*
X180790476Y-92383390D01*
X180790476Y-92383390D02*
X180838095Y-92478628D01*
X180838095Y-92478628D02*
X180885714Y-92526247D01*
X180885714Y-92526247D02*
X180980952Y-92573866D01*
X180980952Y-92573866D02*
X181171428Y-92573866D01*
X181171428Y-92573866D02*
X181266666Y-92526247D01*
X181266666Y-92526247D02*
X181314285Y-92478628D01*
X181314285Y-92478628D02*
X181361904Y-92383390D01*
X163885714Y-84954819D02*
X163885714Y-83954819D01*
X163885714Y-83954819D02*
X164123809Y-83954819D01*
X164123809Y-83954819D02*
X164266666Y-84002438D01*
X164266666Y-84002438D02*
X164361904Y-84097676D01*
X164361904Y-84097676D02*
X164409523Y-84192914D01*
X164409523Y-84192914D02*
X164457142Y-84383390D01*
X164457142Y-84383390D02*
X164457142Y-84526247D01*
X164457142Y-84526247D02*
X164409523Y-84716723D01*
X164409523Y-84716723D02*
X164361904Y-84811961D01*
X164361904Y-84811961D02*
X164266666Y-84907200D01*
X164266666Y-84907200D02*
X164123809Y-84954819D01*
X164123809Y-84954819D02*
X163885714Y-84954819D01*
X165409523Y-84954819D02*
X164838095Y-84954819D01*
X165123809Y-84954819D02*
X165123809Y-83954819D01*
X165123809Y-83954819D02*
X165028571Y-84097676D01*
X165028571Y-84097676D02*
X164933333Y-84192914D01*
X164933333Y-84192914D02*
X164838095Y-84240533D01*
X165742857Y-83954819D02*
X166409523Y-83954819D01*
X166409523Y-83954819D02*
X165980952Y-84954819D01*
X157343333Y-64624819D02*
X157010000Y-64148628D01*
X156771905Y-64624819D02*
X156771905Y-63624819D01*
X156771905Y-63624819D02*
X157152857Y-63624819D01*
X157152857Y-63624819D02*
X157248095Y-63672438D01*
X157248095Y-63672438D02*
X157295714Y-63720057D01*
X157295714Y-63720057D02*
X157343333Y-63815295D01*
X157343333Y-63815295D02*
X157343333Y-63958152D01*
X157343333Y-63958152D02*
X157295714Y-64053390D01*
X157295714Y-64053390D02*
X157248095Y-64101009D01*
X157248095Y-64101009D02*
X157152857Y-64148628D01*
X157152857Y-64148628D02*
X156771905Y-64148628D01*
X157724286Y-63720057D02*
X157771905Y-63672438D01*
X157771905Y-63672438D02*
X157867143Y-63624819D01*
X157867143Y-63624819D02*
X158105238Y-63624819D01*
X158105238Y-63624819D02*
X158200476Y-63672438D01*
X158200476Y-63672438D02*
X158248095Y-63720057D01*
X158248095Y-63720057D02*
X158295714Y-63815295D01*
X158295714Y-63815295D02*
X158295714Y-63910533D01*
X158295714Y-63910533D02*
X158248095Y-64053390D01*
X158248095Y-64053390D02*
X157676667Y-64624819D01*
X157676667Y-64624819D02*
X158295714Y-64624819D01*
X163885714Y-80954819D02*
X163885714Y-79954819D01*
X163885714Y-79954819D02*
X164123809Y-79954819D01*
X164123809Y-79954819D02*
X164266666Y-80002438D01*
X164266666Y-80002438D02*
X164361904Y-80097676D01*
X164361904Y-80097676D02*
X164409523Y-80192914D01*
X164409523Y-80192914D02*
X164457142Y-80383390D01*
X164457142Y-80383390D02*
X164457142Y-80526247D01*
X164457142Y-80526247D02*
X164409523Y-80716723D01*
X164409523Y-80716723D02*
X164361904Y-80811961D01*
X164361904Y-80811961D02*
X164266666Y-80907200D01*
X164266666Y-80907200D02*
X164123809Y-80954819D01*
X164123809Y-80954819D02*
X163885714Y-80954819D01*
X165409523Y-80954819D02*
X164838095Y-80954819D01*
X165123809Y-80954819D02*
X165123809Y-79954819D01*
X165123809Y-79954819D02*
X165028571Y-80097676D01*
X165028571Y-80097676D02*
X164933333Y-80192914D01*
X164933333Y-80192914D02*
X164838095Y-80240533D01*
X166266666Y-80288152D02*
X166266666Y-80954819D01*
X166028571Y-79907200D02*
X165790476Y-80621485D01*
X165790476Y-80621485D02*
X166409523Y-80621485D01*
X193885714Y-92954819D02*
X193885714Y-91954819D01*
X193885714Y-91954819D02*
X194123809Y-91954819D01*
X194123809Y-91954819D02*
X194266666Y-92002438D01*
X194266666Y-92002438D02*
X194361904Y-92097676D01*
X194361904Y-92097676D02*
X194409523Y-92192914D01*
X194409523Y-92192914D02*
X194457142Y-92383390D01*
X194457142Y-92383390D02*
X194457142Y-92526247D01*
X194457142Y-92526247D02*
X194409523Y-92716723D01*
X194409523Y-92716723D02*
X194361904Y-92811961D01*
X194361904Y-92811961D02*
X194266666Y-92907200D01*
X194266666Y-92907200D02*
X194123809Y-92954819D01*
X194123809Y-92954819D02*
X193885714Y-92954819D01*
X194790476Y-91954819D02*
X195409523Y-91954819D01*
X195409523Y-91954819D02*
X195076190Y-92335771D01*
X195076190Y-92335771D02*
X195219047Y-92335771D01*
X195219047Y-92335771D02*
X195314285Y-92383390D01*
X195314285Y-92383390D02*
X195361904Y-92431009D01*
X195361904Y-92431009D02*
X195409523Y-92526247D01*
X195409523Y-92526247D02*
X195409523Y-92764342D01*
X195409523Y-92764342D02*
X195361904Y-92859580D01*
X195361904Y-92859580D02*
X195314285Y-92907200D01*
X195314285Y-92907200D02*
X195219047Y-92954819D01*
X195219047Y-92954819D02*
X194933333Y-92954819D01*
X194933333Y-92954819D02*
X194838095Y-92907200D01*
X194838095Y-92907200D02*
X194790476Y-92859580D01*
X196361904Y-92954819D02*
X195790476Y-92954819D01*
X196076190Y-92954819D02*
X196076190Y-91954819D01*
X196076190Y-91954819D02*
X195980952Y-92097676D01*
X195980952Y-92097676D02*
X195885714Y-92192914D01*
X195885714Y-92192914D02*
X195790476Y-92240533D01*
X163885714Y-88954819D02*
X163885714Y-87954819D01*
X163885714Y-87954819D02*
X164123809Y-87954819D01*
X164123809Y-87954819D02*
X164266666Y-88002438D01*
X164266666Y-88002438D02*
X164361904Y-88097676D01*
X164361904Y-88097676D02*
X164409523Y-88192914D01*
X164409523Y-88192914D02*
X164457142Y-88383390D01*
X164457142Y-88383390D02*
X164457142Y-88526247D01*
X164457142Y-88526247D02*
X164409523Y-88716723D01*
X164409523Y-88716723D02*
X164361904Y-88811961D01*
X164361904Y-88811961D02*
X164266666Y-88907200D01*
X164266666Y-88907200D02*
X164123809Y-88954819D01*
X164123809Y-88954819D02*
X163885714Y-88954819D01*
X164838095Y-88050057D02*
X164885714Y-88002438D01*
X164885714Y-88002438D02*
X164980952Y-87954819D01*
X164980952Y-87954819D02*
X165219047Y-87954819D01*
X165219047Y-87954819D02*
X165314285Y-88002438D01*
X165314285Y-88002438D02*
X165361904Y-88050057D01*
X165361904Y-88050057D02*
X165409523Y-88145295D01*
X165409523Y-88145295D02*
X165409523Y-88240533D01*
X165409523Y-88240533D02*
X165361904Y-88383390D01*
X165361904Y-88383390D02*
X164790476Y-88954819D01*
X164790476Y-88954819D02*
X165409523Y-88954819D01*
X165790476Y-88050057D02*
X165838095Y-88002438D01*
X165838095Y-88002438D02*
X165933333Y-87954819D01*
X165933333Y-87954819D02*
X166171428Y-87954819D01*
X166171428Y-87954819D02*
X166266666Y-88002438D01*
X166266666Y-88002438D02*
X166314285Y-88050057D01*
X166314285Y-88050057D02*
X166361904Y-88145295D01*
X166361904Y-88145295D02*
X166361904Y-88240533D01*
X166361904Y-88240533D02*
X166314285Y-88383390D01*
X166314285Y-88383390D02*
X165742857Y-88954819D01*
X165742857Y-88954819D02*
X166361904Y-88954819D01*
X178885714Y-84954819D02*
X178885714Y-83954819D01*
X178885714Y-83954819D02*
X179123809Y-83954819D01*
X179123809Y-83954819D02*
X179266666Y-84002438D01*
X179266666Y-84002438D02*
X179361904Y-84097676D01*
X179361904Y-84097676D02*
X179409523Y-84192914D01*
X179409523Y-84192914D02*
X179457142Y-84383390D01*
X179457142Y-84383390D02*
X179457142Y-84526247D01*
X179457142Y-84526247D02*
X179409523Y-84716723D01*
X179409523Y-84716723D02*
X179361904Y-84811961D01*
X179361904Y-84811961D02*
X179266666Y-84907200D01*
X179266666Y-84907200D02*
X179123809Y-84954819D01*
X179123809Y-84954819D02*
X178885714Y-84954819D01*
X180409523Y-84954819D02*
X179838095Y-84954819D01*
X180123809Y-84954819D02*
X180123809Y-83954819D01*
X180123809Y-83954819D02*
X180028571Y-84097676D01*
X180028571Y-84097676D02*
X179933333Y-84192914D01*
X179933333Y-84192914D02*
X179838095Y-84240533D01*
X180885714Y-84954819D02*
X181076190Y-84954819D01*
X181076190Y-84954819D02*
X181171428Y-84907200D01*
X181171428Y-84907200D02*
X181219047Y-84859580D01*
X181219047Y-84859580D02*
X181314285Y-84716723D01*
X181314285Y-84716723D02*
X181361904Y-84526247D01*
X181361904Y-84526247D02*
X181361904Y-84145295D01*
X181361904Y-84145295D02*
X181314285Y-84050057D01*
X181314285Y-84050057D02*
X181266666Y-84002438D01*
X181266666Y-84002438D02*
X181171428Y-83954819D01*
X181171428Y-83954819D02*
X180980952Y-83954819D01*
X180980952Y-83954819D02*
X180885714Y-84002438D01*
X180885714Y-84002438D02*
X180838095Y-84050057D01*
X180838095Y-84050057D02*
X180790476Y-84145295D01*
X180790476Y-84145295D02*
X180790476Y-84383390D01*
X180790476Y-84383390D02*
X180838095Y-84478628D01*
X180838095Y-84478628D02*
X180885714Y-84526247D01*
X180885714Y-84526247D02*
X180980952Y-84573866D01*
X180980952Y-84573866D02*
X181171428Y-84573866D01*
X181171428Y-84573866D02*
X181266666Y-84526247D01*
X181266666Y-84526247D02*
X181314285Y-84478628D01*
X181314285Y-84478628D02*
X181361904Y-84383390D01*
D14*
X195356359Y-82630000D02*
X195663641Y-82630000D01*
X195356359Y-81870000D02*
X195663641Y-81870000D01*
X189836359Y-81870000D02*
X190143641Y-81870000D01*
X189836359Y-82630000D02*
X190143641Y-82630000D01*
X197872164Y-81890000D02*
X198087836Y-81890000D01*
X197872164Y-82610000D02*
X198087836Y-82610000D01*
X192622164Y-81890000D02*
X192837836Y-81890000D01*
X192622164Y-82610000D02*
X192837836Y-82610000D01*
X177740000Y-89500000D02*
X177740000Y-91500000D01*
X177740000Y-89500000D02*
X181750000Y-89500000D01*
X177740000Y-91500000D02*
X181750000Y-91500000D01*
X192740000Y-85500000D02*
X192740000Y-87500000D01*
X192740000Y-85500000D02*
X196750000Y-85500000D01*
X192740000Y-87500000D02*
X196750000Y-87500000D01*
X170240000Y-93500000D02*
X170240000Y-95500000D01*
X170240000Y-93500000D02*
X174250000Y-93500000D01*
X170240000Y-95500000D02*
X174250000Y-95500000D01*
X170240000Y-81500000D02*
X170240000Y-83500000D01*
X170240000Y-81500000D02*
X174250000Y-81500000D01*
X170240000Y-83500000D02*
X174250000Y-83500000D01*
X192740000Y-89500000D02*
X192740000Y-91500000D01*
X192740000Y-89500000D02*
X196750000Y-89500000D01*
X192740000Y-91500000D02*
X196750000Y-91500000D01*
X185240000Y-93500000D02*
X185240000Y-95500000D01*
X185240000Y-93500000D02*
X189250000Y-93500000D01*
X185240000Y-95500000D02*
X189250000Y-95500000D01*
X170240000Y-85500000D02*
X170240000Y-87500000D01*
X170240000Y-85500000D02*
X174250000Y-85500000D01*
X170240000Y-87500000D02*
X174250000Y-87500000D01*
X154913641Y-62620000D02*
X154606359Y-62620000D01*
X154913641Y-63380000D02*
X154606359Y-63380000D01*
X162740000Y-93500000D02*
X162740000Y-95500000D01*
X162740000Y-93500000D02*
X166750000Y-93500000D01*
X162740000Y-95500000D02*
X166750000Y-95500000D01*
X163520000Y-58830000D02*
X163520000Y-57500000D01*
X164850000Y-58830000D02*
X163520000Y-58830000D01*
X166120000Y-56170000D02*
X186500000Y-56170000D01*
X166120000Y-58830000D02*
X166120000Y-56170000D01*
X166120000Y-58830000D02*
X186500000Y-58830000D01*
X186500000Y-58830000D02*
X186500000Y-56170000D01*
X177740000Y-81500000D02*
X177740000Y-83500000D01*
X177740000Y-81500000D02*
X181750000Y-81500000D01*
X177740000Y-83500000D02*
X181750000Y-83500000D01*
X185240000Y-85500000D02*
X185240000Y-87500000D01*
X185240000Y-85500000D02*
X189250000Y-85500000D01*
X185240000Y-87500000D02*
X189250000Y-87500000D01*
X185240000Y-89500000D02*
X185240000Y-91500000D01*
X185240000Y-89500000D02*
X189250000Y-89500000D01*
X185240000Y-91500000D02*
X189250000Y-91500000D01*
X170240000Y-89500000D02*
X170240000Y-91500000D01*
X170240000Y-89500000D02*
X174250000Y-89500000D01*
X170240000Y-91500000D02*
X174250000Y-91500000D01*
X177740000Y-93500000D02*
X177740000Y-95500000D01*
X177740000Y-93500000D02*
X181750000Y-93500000D01*
X177740000Y-95500000D02*
X181750000Y-95500000D01*
X162740000Y-85500000D02*
X162740000Y-87500000D01*
X162740000Y-85500000D02*
X166750000Y-85500000D01*
X162740000Y-87500000D02*
X166750000Y-87500000D01*
X157663641Y-62620000D02*
X157356359Y-62620000D01*
X157663641Y-63380000D02*
X157356359Y-63380000D01*
X162740000Y-81500000D02*
X162740000Y-83500000D01*
X162740000Y-81500000D02*
X166750000Y-81500000D01*
X162740000Y-83500000D02*
X166750000Y-83500000D01*
X192740000Y-93500000D02*
X192740000Y-95500000D01*
X192740000Y-93500000D02*
X196750000Y-93500000D01*
X192740000Y-95500000D02*
X196750000Y-95500000D01*
X162740000Y-89500000D02*
X162740000Y-91500000D01*
X162740000Y-89500000D02*
X166750000Y-89500000D01*
X162740000Y-91500000D02*
X166750000Y-91500000D01*
X177740000Y-85500000D02*
X177740000Y-87500000D01*
X177740000Y-85500000D02*
X181750000Y-85500000D01*
X177740000Y-87500000D02*
X181750000Y-87500000D01*
%LPC*%
D15*
X155400000Y-78300000D03*
D16*
X157940000Y-78300000D03*
X160480000Y-78300000D03*
X163020000Y-78300000D03*
X165560000Y-78300000D03*
X168100000Y-78300000D03*
X170640000Y-78300000D03*
X173180000Y-78300000D03*
X175720000Y-78300000D03*
X178260000Y-78300000D03*
X180800000Y-78300000D03*
X183340000Y-78300000D03*
X185880000Y-78300000D03*
X188420000Y-78300000D03*
X190960000Y-78300000D03*
X193500000Y-78300000D03*
X193500000Y-98020000D03*
X190960000Y-98020000D03*
X188420000Y-98020000D03*
X185880000Y-98020000D03*
X183340000Y-98020000D03*
X180800000Y-98020000D03*
X178260000Y-98020000D03*
X175720000Y-98020000D03*
X173180000Y-98020000D03*
X170640000Y-98020000D03*
X168100000Y-98020000D03*
X165560000Y-98020000D03*
D17*
X196020000Y-82250000D03*
X195000000Y-82250000D03*
D18*
X183750000Y-120250000D03*
X183750000Y-129350000D03*
X188250000Y-120250000D03*
X188250000Y-129350000D03*
D19*
X182000000Y-112300000D03*
X190000000Y-112300000D03*
D20*
X183500000Y-105800000D03*
X186000000Y-105800000D03*
X188500000Y-105800000D03*
D17*
X189480000Y-82250000D03*
X190500000Y-82250000D03*
D21*
X197500000Y-82250000D03*
X198460000Y-82250000D03*
X192250000Y-82250000D03*
X193210000Y-82250000D03*
D22*
X178450000Y-90500000D03*
X181750000Y-90500000D03*
X193450000Y-86500000D03*
X196750000Y-86500000D03*
D18*
X177250000Y-116850000D03*
X177250000Y-107750000D03*
X172750000Y-116850000D03*
X172750000Y-107750000D03*
D22*
X170950000Y-94500000D03*
X174250000Y-94500000D03*
X170950000Y-82500000D03*
X174250000Y-82500000D03*
D18*
X177250000Y-129350000D03*
X177250000Y-120250000D03*
X172750000Y-129350000D03*
X172750000Y-120250000D03*
D22*
X193450000Y-90500000D03*
X196750000Y-90500000D03*
D18*
X166250000Y-116850000D03*
X166250000Y-107750000D03*
X161750000Y-116850000D03*
X161750000Y-107750000D03*
X188250000Y-141850000D03*
X188250000Y-132750000D03*
X183750000Y-141850000D03*
X183750000Y-132750000D03*
X155250000Y-129350000D03*
X155250000Y-120250000D03*
X150750000Y-129350000D03*
X150750000Y-120250000D03*
X177250000Y-154350000D03*
X177250000Y-145250000D03*
X172750000Y-154350000D03*
X172750000Y-145250000D03*
D22*
X185950000Y-94500000D03*
X189250000Y-94500000D03*
X170950000Y-86500000D03*
X174250000Y-86500000D03*
D18*
X155250000Y-154350000D03*
X155250000Y-145250000D03*
X150750000Y-154350000D03*
X150750000Y-145250000D03*
D23*
X155270000Y-63000000D03*
X154250000Y-63000000D03*
D18*
X166250000Y-129350000D03*
X166250000Y-120250000D03*
X161750000Y-129350000D03*
X161750000Y-120250000D03*
X155250000Y-116850000D03*
X155250000Y-107750000D03*
X150750000Y-116850000D03*
X150750000Y-107750000D03*
X155250000Y-141850000D03*
X155250000Y-132750000D03*
X150750000Y-141850000D03*
X150750000Y-132750000D03*
D20*
X199500000Y-105800000D03*
X197000000Y-105800000D03*
X194500000Y-105800000D03*
D19*
X201000000Y-112300000D03*
X193000000Y-112300000D03*
D18*
X199250000Y-141850000D03*
X199250000Y-132750000D03*
X194750000Y-141850000D03*
X194750000Y-132750000D03*
D22*
X163450000Y-94500000D03*
X166750000Y-94500000D03*
D18*
X188250000Y-154350000D03*
X188250000Y-145250000D03*
X183750000Y-154350000D03*
X183750000Y-145250000D03*
D24*
X164850000Y-57500000D03*
D25*
X167390000Y-57500000D03*
X169930000Y-57500000D03*
X172470000Y-57500000D03*
X175000000Y-57500000D03*
X177550000Y-57500000D03*
X180090000Y-57500000D03*
X182630000Y-57500000D03*
X185170000Y-57500000D03*
D22*
X178450000Y-82500000D03*
X181750000Y-82500000D03*
X185950000Y-86500000D03*
X189250000Y-86500000D03*
D18*
X177250000Y-141850000D03*
X177250000Y-132750000D03*
X172750000Y-141850000D03*
X172750000Y-132750000D03*
D22*
X185950000Y-90500000D03*
X189250000Y-90500000D03*
X170950000Y-90500000D03*
X174250000Y-90500000D03*
X178450000Y-94500000D03*
X181750000Y-94500000D03*
X163450000Y-86500000D03*
X166750000Y-86500000D03*
D23*
X158020000Y-63000000D03*
X157000000Y-63000000D03*
D22*
X163450000Y-82500000D03*
X166750000Y-82500000D03*
X193450000Y-94500000D03*
X196750000Y-94500000D03*
D18*
X166250000Y-141850000D03*
X166250000Y-132750000D03*
X161750000Y-141850000D03*
X161750000Y-132750000D03*
X199250000Y-129350000D03*
X199250000Y-120250000D03*
X194750000Y-129350000D03*
X194750000Y-120250000D03*
D22*
X163450000Y-90500000D03*
X166750000Y-90500000D03*
D18*
X166250000Y-154350000D03*
X166250000Y-145250000D03*
X161750000Y-154350000D03*
X161750000Y-145250000D03*
D22*
X178450000Y-86500000D03*
X181750000Y-86500000D03*
D26*
X149550000Y-97750000D03*
X149550000Y-100250000D03*
X149550000Y-102750000D03*
X199250000Y-63000000D03*
X199250000Y-65500000D03*
X204250000Y-68000000D03*
X199250000Y-70500000D03*
X199250000Y-73000000D03*
X150750000Y-73000000D03*
X150750000Y-70500000D03*
X145750000Y-68000000D03*
X150750000Y-65500000D03*
X150750000Y-63000000D03*
D18*
X199250000Y-154350000D03*
X199250000Y-145250000D03*
X194750000Y-154350000D03*
X194750000Y-145250000D03*
%LPD*%
M02*
